<?xml version="1.0" standalone="no"?>
<!DOCTYPE svg PUBLIC "-//W3C//DTD SVG 20010904//EN"
 "http://www.w3.org/TR/2001/REC-SVG-20010904/DTD/svg10.dtd">
<svg version="1.0" xmlns="http://www.w3.org/2000/svg"
 width="700.000000pt" height="700.000000pt" viewBox="0 0 700.000000 700.000000"
 preserveAspectRatio="xMidYMid meet">
<metadata>
Created by potrace 1.11, written by Peter Selinger 2001-2013
</metadata>
<g transform="translate(0.000000,700.000000) scale(0.100000,-0.100000)"
fill="#000000" stroke="none">
<path d="M0 3500 l0 -3500 1315 0 c723 0 1315 1 1315 3 0 1 -295 812 -655
1802 -359 990 -651 1803 -647 1807 4 4 1263 464 2797 1023 1535 559 2809 1023
2833 1032 l42 16 0 658 0 659 -3500 0 -3500 0 0 -3500z"/>
<path d="M4810 4419 c-1191 -434 -2336 -852 -2545 -928 -264 -96 -379 -143
-377 -152 1 -8 273 -762 605 -1676 l602 -1663 1953 0 1952 0 0 2073 -1 2072
-674 -1354 c-454 -910 -679 -1352 -687 -1348 -20 7 -3163 1389 -3164 1391 -3
4 172 396 177 396 3 0 197 -84 430 -186 233 -103 595 -262 804 -354 209 -91
644 -283 968 -425 323 -142 589 -256 592 -253 3 2 353 705 780 1562 629 1265
775 1565 775 1597 0 25 -5 39 -12 38 -7 0 -987 -356 -2178 -790z"/>
</g>
</svg>
