<?xml version="1.0" encoding="UTF-8"?>
<svg id="Livello_1" data-name="Livello 1" xmlns="http://www.w3.org/2000/svg" viewBox="0 0 547.6 85">
  <g>
    <path id="Rectangle" d="M2.7,0H82.3c1.5,0,2.7,1.2,2.7,2.7V82.3c0,1.5-1.2,2.7-2.7,2.7H2.7c-1.5,0-2.7-1.2-2.7-2.7V2.6C0,1.1,1.2,0,2.7,0Z" fill="#2c97ff" />
    <polygon points="68.2 61.3 61.5 40 55.8 41.8 63.4 65.5 85 76.7 85 70 68.2 61.3" fill="#fff" />
    <path d="M73.4,16.7c-25.8-4.2-50,13.3-54.2,39.1l5.8,1c3.7-22.6,25-37.8,47.5-34.2,4.3,.7,8.6,2.1,12.5,4.2v-6.6c-3.7-1.7-7.6-2.8-11.6-3.5Z" fill="#fff" />
    <path d="M26.4,75.9l-5.6,1.8c.8,2.5,1.8,5,3,7.3h6.8c-1.8-2.9-3.2-5.9-4.2-9.1Z" fill="#fff" />
    <polygon points="19.9 60.5 14.3 30.5 20.1 29.4 24.3 52 45.1 42.4 47.6 47.8 19.9 60.5" fill="#fff" />
  </g>
  <g>
    <path d="M95.9,59.3V31.5h6.7l.6,3.6h.2c1.1-1.1,2.4-2.1,3.7-3,2.9-1.7,6.5-1.7,9.5-.1,1.3,.9,2.3,2.1,2.9,3.5,1.2-1.2,2.5-2.3,3.9-3.3,1.4-.9,3.1-1.4,4.8-1.4,3,0,5.2,1,6.6,3,1.4,2,2.1,4.7,2.1,8.2v17.2h-8.2v-16.1c0-2-.3-3.4-.8-4.2-.6-.8-1.6-1.2-2.6-1.1-1.4,0-3,.9-4.8,2.7v18.8h-8.2v-16.2c.1-1.4-.2-2.9-.8-4.2-.6-.8-1.6-1.2-2.6-1.1-1.4,0-3,.9-4.7,2.7v18.8h-8.3Z" />
    <path d="M150.9,60c-1.2,0-2.4-.2-3.4-.6-1-.4-1.9-1-2.6-1.8-.7-.8-1.3-1.7-1.6-2.7-.4-1.1-.6-2.2-.6-3.3-.1-2.8,1.3-5.4,3.7-6.8,2.5-1.6,6.5-2.7,11.9-3.3,0-1.1-.4-2.1-1.1-2.9-.9-.8-2.1-1.2-3.3-1.1-1.2,0-2.4,.2-3.6,.7-1.3,.5-2.6,1.1-3.8,1.8l-3-5.4c1.8-1.1,3.7-2,5.6-2.6,2-.7,4.1-1,6.2-1,3.6,0,6.3,1,8.2,3s2.8,5.2,2.8,9.5v15.9h-6.7l-.6-2.9h0c-1.1,1-2.4,1.9-3.8,2.6-1.3,.6-2.8,.9-4.3,.9Zm2.8-6.4c.8,0,1.7-.2,2.4-.6,.8-.5,1.5-1.1,2.1-1.7v-4.9c-2.9,.4-4.9,1-6,1.8-1,.6-1.7,1.7-1.7,2.8-.1,.8,.3,1.5,.9,2,.7,.4,1.5,.6,2.3,.6h0Z" />
    <path d="M177.5,27.4c-1.3,0-2.5-.4-3.4-1.2-.9-.8-1.4-1.9-1.3-3.1-.1-1.2,.4-2.3,1.3-3.1,2-1.6,4.9-1.6,6.9,0,.9,.8,1.4,1.9,1.3,3.1,.1,1.2-.4,2.4-1.3,3.1-1,.9-2.2,1.3-3.5,1.2Zm-4.1,31.9V31.5h8.2v27.8h-8.2Z" />
    <path d="M196.4,60c-1.2,0-2.4-.2-3.6-.7-.9-.4-1.7-1.1-2.3-1.9-.6-.9-1-1.9-1.2-2.9-.3-1.3-.4-2.5-.4-3.8V20h8.2v31c-.1,.6,.1,1.3,.5,1.8,.2,.3,.6,.5,1,.5h.5c.2,0,.4,0,.5-.1l1,6.1c-.6,.2-1.1,.4-1.7,.5-.8,.1-1.6,.2-2.5,.2Z" />
    <path d="M226.8,60c-1.5,0-3-.2-4.4-.8-1.2-.5-2.2-1.2-3-2.2s-1.4-2.1-1.7-3.4c-.4-1.4-.5-2.9-.5-4.4v-11.2h-3.8v-6.1l4.3-.3,.9-7.4h6.8v7.4h6.7v6.4h-6.7v11.1c-.1,1.2,.3,2.4,1,3.4,.7,.7,1.6,1.1,2.6,1,.5,0,.9-.1,1.4-.2,.4-.1,.8-.2,1.3-.4l1.3,6.1c-.7,.2-1.6,.5-2.6,.7-1.2,.2-2.4,.3-3.6,.3Z" />
    <path d="M241.6,27.4c-1.2,0-2.5-.4-3.4-1.2-.9-.8-1.4-1.9-1.4-3.1-.1-1.2,.4-2.3,1.4-3.1,2-1.6,4.8-1.6,6.9,0,.9,.8,1.3,1.9,1.3,3.1s-.4,2.3-1.3,3.1c-1,.8-2.2,1.3-3.5,1.2Zm-4,31.9V31.5h8.2v27.8h-8.2Z" />
    <path d="M253,59.3V31.5h6.7l.6,3.6h.2c1.1-1.1,2.4-2.1,3.7-3,2.9-1.7,6.5-1.7,9.5-.1,1.3,.9,2.3,2.1,2.9,3.5,1.2-1.2,2.5-2.3,3.9-3.3,1.4-.9,3.1-1.4,4.8-1.4,3,0,5.2,1,6.6,3,1.4,2,2.1,4.7,2.1,8.2v17.2h-8.2v-16.1c0-2-.3-3.4-.8-4.2-.6-.8-1.6-1.2-2.6-1.1-1.4,0-3,.9-4.8,2.7v18.8h-8.2v-16.2c0-2-.3-3.4-.8-4.2-.6-.8-1.6-1.2-2.6-1.1-1.4,0-3,.9-4.7,2.7v18.8h-8.3Z" />
    <path d="M313.4,60c-1.9,0-3.8-.3-5.5-1-1.7-.6-3.2-1.6-4.5-2.9-1.3-1.3-2.3-2.8-3-4.6-.7-2-1.1-4.1-1.1-6.2s.3-4.1,1.1-6.1c.7-1.7,1.7-3.3,2.9-4.6,1.2-1.2,2.6-2.2,4.2-2.9,3.2-1.3,6.8-1.3,10,0,1.4,.6,2.7,1.6,3.7,2.8s1.8,2.7,2.2,4.2c.5,1.7,.7,3.5,.7,5.3,0,.7,0,1.4-.1,2.1-.1,.5-.1,1-.2,1.5h-16.6c.2,1.7,1.1,3.3,2.5,4.5,1.4,1,3,1.5,4.7,1.4,2.1,0,4.2-.7,6-1.8l2.7,5c-1.5,1-3,1.8-4.7,2.3-1.5,.7-3.2,1-5,1Zm-6.1-17.6h10c.1-1.4-.3-2.7-1.1-3.8-.9-1-2.2-1.6-3.6-1.5-1.3,0-2.5,.4-3.4,1.3-1.1,1.1-1.8,2.5-1.9,4h0Z" />
    <path d="M341.2,59.3V31.5h6.7l.6,3.6h.2c1.1-1.1,2.4-2.1,3.7-3,2.9-1.7,6.5-1.7,9.5-.1,1.3,.9,2.3,2.1,2.9,3.5,1.2-1.2,2.5-2.3,3.9-3.3,1.4-.9,3.1-1.4,4.8-1.4,3,0,5.2,1,6.6,3,1.4,2,2.1,4.7,2.1,8.2v17.2h-8.2v-16.1c0-2-.3-3.4-.8-4.2-.6-.8-1.6-1.2-2.6-1.1-1.4,0-3,.9-4.8,2.7v18.8h-8.2v-16.2c0-2-.3-3.4-.8-4.2-.6-.8-1.6-1.2-2.6-1.1-1.4,0-3,.9-4.7,2.7v18.8h-8.3Z" />
    <path d="M396.2,60c-1.2,0-2.3-.2-3.4-.6-1-.4-1.9-1-2.6-1.8s-1.3-1.7-1.6-2.7c-.4-1.1-.6-2.2-.6-3.3-.1-2.8,1.3-5.4,3.7-6.8,2.5-1.6,6.4-2.7,11.9-3.3,0-1.1-.4-2.1-1.1-2.9-.9-.8-2.1-1.2-3.3-1.1-1.2,0-2.4,.2-3.6,.7-1.3,.5-2.6,1.1-3.8,1.8l-3-5.4c1.8-1.1,3.7-2,5.6-2.6,2-.7,4.1-1,6.2-1,3.6,0,6.3,1,8.2,3s2.8,5.2,2.8,9.5v15.9h-6.6l-.6-2.9h-.2c-1.1,1-2.4,1.9-3.7,2.6-1.3,.6-2.8,.9-4.3,.9Zm2.8-6.4c.8,0,1.7-.2,2.4-.6,.8-.5,1.5-1.1,2.1-1.7v-4.9c-2.9,.4-4.9,1-6,1.8-1,.6-1.7,1.7-1.7,2.8-.1,.8,.3,1.5,.9,2,.7,.4,1.5,.6,2.3,.6h0Z" />
    <path d="M430.8,60c-1.8,0-3.7-.3-5.4-1-1.6-.6-3.1-1.6-4.3-2.8-1.3-1.3-2.3-2.9-2.9-4.6-.7-2-1.1-4.1-1.1-6.2s.4-4.2,1.2-6.2c.7-1.7,1.8-3.3,3.2-4.6,1.3-1.2,2.9-2.2,4.6-2.8,1.8-.7,3.6-1,5.5-1,1.6,0,3.1,.3,4.6,.8,1.3,.5,2.5,1.3,3.6,2.1l-3.9,5.3c-1-1-2.4-1.5-3.8-1.6-1.8-.1-3.6,.7-4.8,2.1-1.2,1.7-1.8,3.7-1.7,5.8-.1,2.1,.5,4.1,1.8,5.8,1.1,1.4,2.7,2.2,4.5,2.1,.9,0,1.8-.2,2.6-.6,.8-.4,1.6-.9,2.4-1.4l3.3,5.4c-1.3,1.1-2.8,2-4.5,2.5-1.7,.6-3.3,.9-4.9,.9Z" />
    <path d="M444.9,59.3V20h8.2v9.6l-.4,5c1.1-1,2.3-1.9,3.6-2.6,1.5-.8,3.2-1.2,4.9-1.2,3,0,5.2,1,6.6,3,1.4,2,2,4.7,2,8.2v17.2h-8.2v-16.1c.1-1.4-.2-2.9-.8-4.2-.6-.8-1.6-1.2-2.6-1.1-.9,0-1.9,.2-2.7,.7-.9,.6-1.7,1.3-2.5,2v18.8h-8.1Z" />
    <path d="M480.9,27.4c-1.2,0-2.5-.4-3.4-1.2-.9-.8-1.4-1.9-1.3-3.1-.1-1.2,.4-2.3,1.3-3.1,1-.8,2.2-1.2,3.4-1.2,1.3-.1,2.5,.4,3.4,1.2,.9,.8,1.4,1.9,1.3,3.1,0,1.2-.4,2.3-1.3,3.1s-2.1,1.3-3.4,1.2Zm-4.1,31.9V31.5h8.2v27.8h-8.2Z" />
    <path d="M492.3,59.3V31.5h6.7l.6,3.5h.2c1.2-1.1,2.5-2.1,3.9-2.9,1.5-.9,3.2-1.3,5-1.3,3,0,5.2,1,6.6,3s2,4.7,2,8.2v17.2h-8.2v-16.1c0-2-.3-3.4-.8-4.2-.6-.8-1.6-1.2-2.6-1.1-.9,0-1.9,.2-2.7,.7-.9,.6-1.7,1.3-2.5,2v18.8h-8.2Z" />
    <path d="M536.8,60c-1.9,0-3.8-.3-5.5-1-1.7-.6-3.2-1.6-4.5-2.9-1.3-1.3-2.3-2.8-3-4.6-.7-2-1.1-4.1-1.1-6.2s.4-4.1,1.1-6.1c.7-1.7,1.7-3.3,2.9-4.6,1.2-1.2,2.6-2.2,4.2-2.9,1.5-.7,3.2-1,4.9-1,1.8,0,3.5,.3,5.2,1,1.4,.6,2.7,1.6,3.7,2.8s1.8,2.7,2.2,4.2c.5,1.7,.7,3.5,.7,5.3,0,.7,0,1.4-.1,2.1-.1,.7-.2,1.2-.2,1.5h-16.6c.2,1.8,1.1,3.3,2.5,4.5,1.4,1,3,1.5,4.7,1.4,2.1,0,4.2-.7,6-1.8l2.8,5c-1.5,1-3.1,1.8-4.7,2.3-1.8,.7-3.5,1-5.2,1Zm-6.2-17.6h10c.1-1.4-.3-2.7-1.1-3.8-.9-1-2.2-1.6-3.5-1.5-1.3,0-2.5,.4-3.5,1.3-1,1.1-1.7,2.5-1.9,4Z" />
  </g>
</svg>