<?xml version="1.0" encoding="UTF-8"?>
<svg width="257px" height="64px" viewBox="0 0 257 64" version="1.1" xmlns="http://www.w3.org/2000/svg" xmlns:xlink="http://www.w3.org/1999/xlink">
  <g id="Group" fill-rule="nonzero">
      <path d="M253.93,10.71 L253.93,37.26 C253.875768,37.8029131 254.021557,38.3469539 254.34,38.79 C254.54559,39.0469038 254.851378,39.203438 255.18,39.22 L255.59,39.22 C255.743545,39.2117791 255.895104,39.1814674 256.04,39.13 L256.91,44.36 C256.438524,44.5459053 255.94933,44.6832816 255.45,44.77 C254.75988,44.8895383 254.060366,44.9464365 253.36,44.94 C252.306901,44.9692242 251.259852,44.7714103 250.29,44.36 C249.492586,44.009809 248.802418,43.4542239 248.29,42.75 C247.772567,41.9975386 247.40581,41.1519602 247.21,40.26 C246.979739,39.1787446 246.869074,38.0754474 246.88,36.97 L246.88,10.71 L253.93,10.71 Z M129.15,20.84 C130.375383,21.3886009 131.459532,22.2094076 132.32,23.24 C133.192298,24.303815 133.835712,25.5361738 134.21,26.86 C134.640679,28.3344264 134.852935,29.8640147 134.84,31.4 C134.843592,32.0081329 134.810197,32.6159214 134.74,33.22 C134.68,33.8 134.61,34.22 134.55,34.52 L120.25,34.52 C120.44295,36.0220126 121.209876,37.3910113 122.39,38.34 C123.575613,39.1753852 125.000291,39.6034903 126.45,39.56 C128.271356,39.5243878 130.047157,38.9843781 131.58,38 L133.93,42.27 C132.68461,43.1303538 131.3202,43.8041363 129.88,44.27 C128.460672,44.7213768 126.979355,44.9474548 125.49,44.94 C123.86855,44.9536766 122.258419,44.6689376 120.74,44.1 C119.299513,43.5614397 117.987961,42.7268153 116.89,41.65 C115.782094,40.5363073 114.917213,39.2049355 114.35,37.74 C113.715549,36.0533694 113.406758,34.2617065 113.44,32.46 C113.426786,30.6744073 113.766632,28.903811 114.44,27.25 C115.021162,25.7880354 115.876522,24.4506867 116.96,23.31 C117.977044,22.2565993 119.194165,21.4168535 120.54,20.84 C121.855642,20.2682693 123.275508,19.9754433 124.71,19.98 C126.234819,19.9417101 127.749754,20.2351436 129.15,20.84 Z M146.75,10.71 L146.75,19 L146.56,22.65 C147.448076,21.8421828 148.461212,21.1836444 149.56,20.7 C150.597864,20.2471893 151.71766,20.0123384 152.85,20.01 C154.196296,19.9863576 155.529142,20.2810228 156.74,20.87 C157.89029,21.4484388 158.897853,22.2749815 159.69,23.29 C160.550171,24.4256941 161.184933,25.7155837 161.56,27.09 C162.013084,28.7173272 162.231951,30.4009182 162.21,32.09 C162.23993,33.9508911 161.955952,35.8035142 161.37,37.57 C160.869217,39.0310391 160.103048,40.3870904 159.11,41.57 C158.231023,42.6283484 157.136759,43.4873971 155.9,44.09 C154.737879,44.6544228 153.461926,44.9451896 152.17,44.9400683 C151.059045,44.9240977 149.966986,44.6502272 148.98,44.14 C147.841172,43.5651025 146.822863,42.7776105 145.98,41.82 L145.79,41.82 L145.21,44.36 L139.7,44.36 L139.7,10.71 L146.75,10.71 Z M218.22,19.98 C221.29,19.98 223.64,20.85 225.22,22.59 C226.8,24.33 227.65,27.05 227.65,30.73 L227.65,44.36 L221.89,44.36 L221.41,41.91 L221.22,41.91 C220.244394,42.7742569 219.162287,43.5102243 218,44.1 C216.858993,44.6625953 215.602126,44.9502705 214.33,44.94 C213.302353,44.9589325 212.281613,44.7683945 211.33,44.38 C210.484524,44.037722 209.723606,43.5156568 209.1,42.85 C208.488596,42.1852248 208.006976,41.411919 207.68,40.57 C207.341711,39.6651702 207.172241,38.705969 207.18,37.74 C207.117642,35.3615105 208.325122,33.1293873 210.35,31.88 C212.456667,30.4733333 215.863333,29.53 220.57,29.05 C220.559743,28.1279126 220.231208,27.2376888 219.64,26.53 C218.881006,25.8289882 217.858025,25.4867808 216.83,25.59 C215.802906,25.5978468 214.786005,25.7944476 213.83,26.17 C212.708068,26.6059396 211.624333,27.1344276 210.59,27.75 L208.05,23.1 C209.571253,22.17652 211.187159,21.4188541 212.87,20.84 C214.592678,20.2561097 216.401117,19.9654072 218.22,19.98 Z M83,20.55 L85.3,31.55 C85.49,32.74 85.67,33.9 85.83,35.06 C85.99,36.22 86.17,37.39 86.36,38.61 L86.55,38.61 C86.77,37.39 86.99,36.19 87.2,35.01 C87.41,33.83 87.65,32.67 87.94,31.55 L90.58,20.55 L96.68,20.55 L99.37,31.55 C99.65,32.74 99.91,33.9 100.13,35.06 C100.35,36.22 100.6,37.39 100.85,38.61 L101.05,38.61 C101.27,37.39 101.45,36.21 101.6,35.06 C101.75,33.91 101.93,32.74 102.15,31.55 L104.41,20.55 L110.93,20.55 L105.22,44.36 L97,44.36 L94.84,34.86 C94.58,33.74 94.36,32.62 94.16,31.5 C93.96,30.38 93.76,29.18 93.54,27.9 L93.35,27.9 C93.1166667,29.18 92.9166667,30.38 92.75,31.5 C92.5833333,32.62 92.3833333,33.74 92.15,34.86 L90,44.36 L82,44.36 L76,20.55 L83,20.55 Z M200.54,22.56 C201.835056,24.6568311 202.459524,27.0988837 202.33,29.56 L202.33,44.36 L195.28,44.36 L195.28,30.49 C195.395301,29.2638511 195.152125,28.0306 194.58,26.94 C194.05522,26.2489667 193.215058,25.8722124 192.35,25.94 C191.17,25.94 189.81,26.7 188.27,28.24 L188.27,44.36 L181.21,44.36 L181.21,30.49 C181.322113,29.265136 181.082762,28.033691 180.52,26.94 C179.991701,26.2534105 179.154081,25.8777961 178.29,25.94 C177.07,25.94 175.73,26.7 174.29,28.24 L174.29,44.36 L167.2,44.36 L167.2,20.55 L173,20.55 L173.48,23.62 L173.67,23.62 C174.631847,22.6555032 175.694624,21.7972358 176.84,21.06 C179.371111,19.653686 182.448889,19.653686 184.98,21.06 C186.040933,21.8022538 186.880733,22.8183084 187.41,24 C188.418003,22.948739 189.534191,22.0068507 190.74,21.19 C191.97481,20.3826283 193.42502,19.9677846 194.9,20 C197.094544,19.8300658 199.223158,20.7962452 200.54,22.56 Z M240.69,20.55 L240.69,44.36 L233.63,44.36 L233.63,20.55 L240.69,20.55 Z M220.62,33.27 C218.8033,33.4082274 217.037154,33.9332979 215.44,34.81 C214.580168,35.3101009 214.036639,36.2159832 214,37.21 C213.953244,37.8636821 214.229706,38.4987982 214.74,38.91 C215.326228,39.3040883 216.024598,39.4971052 216.73,39.46 L216.73,39.46 C217.454757,39.4809362 218.171179,39.3009655 218.8,38.94 C219.459675,38.511857 220.070043,38.0121607 220.62,37.45 L220.62,33.27 Z M150.83,25.7399845 C149.222323,25.8385723 147.735297,26.6258216 146.75,27.9 L146.75,37.64 C147.302135,38.1658916 147.955342,38.5741459 148.67,38.84 C149.270108,39.0564636 149.902104,39.1713718 150.54,39.18 C151.787109,39.1632208 152.949261,38.5448966 153.66,37.52 C154.53,36.42 154.96,34.63 154.96,32.17 C154.96,27.8766667 153.583333,25.7333333 150.83,25.7399845 Z M124.81,25.35 C123.705317,25.3255528 122.632729,25.7224102 121.81,26.46 C120.892625,27.3693448 120.325956,28.573517 120.21,29.86 L128.8,29.86 C128.850333,28.7042951 128.531625,27.5625511 127.89,26.6 C127.130719,25.7030753 125.9796,25.2359002 124.81,25.35 Z M240.09,10.74 C240.837812,11.4093281 241.248395,12.3771295 241.21,13.38 C241.230283,14.3736574 240.822296,15.3280559 240.09,16 C239.333378,16.6665289 238.365212,17.0384042 237.362042,17.053002 L237.13,17.0499256 L236.884671,17.0544133 C235.905609,17.0433627 234.958274,16.689456 234.21,16.05 C233.444943,15.3772062 233.019674,14.3983532 233.05,13.38 C233.015843,12.3695329 233.442609,11.3982715 234.21,10.74 C235.938192,9.39190077 238.361808,9.39190077 240.09,10.74 Z" id="Combined-Shape" fill="#000000"></path>
      <rect id="Rectangle" fill="#2c97ff" x="0" y="0" width="64" height="64" rx="2"></rect>
      <path d="M28.35,64 L24.09,64 L12.14,31.15 L64,12.28 L64,16.53 L17.26,33.53 L28.35,64 Z M24.35,34.64 L22.75,38.3 L51.93,51.1 L64,26.9 L64,17.9 L50,45.9 L24.35,34.64 Z" id="Shape" fill="#FFFFFF"></path>
  </g>
</svg>