<svg id="Livello_1" data-name="Livello 1" xmlns="http://www.w3.org/2000/svg" viewBox="0 0 16 16">
  <g>
    <path d="M1.5,12.25V1.5a1,1,0,0,1,1-1h9a1,1,0,0,1,1,1" fill="none" stroke="var(--color-icon)" stroke-linecap="round" stroke-linejoin="round"/>
    <path d="M7.5,15.5h-5" fill="none" stroke="var(--color-icon)" stroke-linecap="round" stroke-linejoin="round"/>
    <path d="M8.5,11A3.5,3.5,0,0,1,12,7.5a3.38,3.38,0,0,1,3,2" fill="none" stroke="var(--color-icon)" stroke-linecap="round" stroke-linejoin="round"/>
    <polyline points="15 7.5 15 9.5 13 9.5" fill="none" stroke="var(--color-icon)" stroke-linecap="round" stroke-linejoin="round"/>
    <path d="M15.5,11.5A3.5,3.5,0,0,1,12,15a3.38,3.38,0,0,1-3-2" fill="none" stroke="var(--color-icon)" stroke-linecap="round" stroke-linejoin="round"/>
    <polyline points="9 15 9 13 11 13" fill="none" stroke="var(--color-icon)" stroke-linecap="round" stroke-linejoin="round"/>
  </g>
  <line x1="1" y1="15" x2="15" y2="1" fill="none" stroke="var(--color-icon)" stroke-linecap="round" stroke-linejoin="round"/>
</svg>
