<svg xmlns="http://www.w3.org/2000/svg" viewBox="0 0 16 16">
  <g id="year">
    <g>
      <line x1="0.5" y1="5.5" x2="15.5" y2="5.5" fill="none" stroke="var(--color-icon)" stroke-linecap="round" stroke-linejoin="round"/>
      <path d="M14.5,2.5H1.5a1,1,0,0,0-1,1v11a1,1,0,0,0,1,1h13a1,1,0,0,0,1-1V3.5A1,1,0,0,0,14.5,2.5Z" fill="none" stroke="var(--color-icon)" stroke-linecap="round" stroke-linejoin="round"/>
      <line x1="4.5" y1="0.5" x2="4.5" y2="2.5" fill="none" stroke="var(--color-icon)" stroke-linecap="round" stroke-linejoin="round"/>
      <line x1="11.5" y1="0.5" x2="11.5" y2="2.5" fill="none" stroke="var(--color-icon)" stroke-linecap="round" stroke-linejoin="round"/>
      <rect x="3" y="7.5" width="2" height="2" rx="0.5" fill="var(--color-icon)"/>
      <rect x="7" y="7.5" width="2" height="2" rx="0.5" fill="var(--color-icon)"/>
      <rect x="11" y="7.5" width="2" height="2" rx="0.5" fill="var(--color-icon)"/>
      <rect x="11" y="11.5" width="2" height="2" rx="0.5" fill="var(--color-icon)"/>
      <rect x="7" y="11.5" width="2" height="2" rx="0.5" fill="var(--color-icon)"/>
      <rect x="3" y="11.5" width="2" height="2" rx="0.5" fill="var(--color-icon)"/>
    </g>
  </g>
</svg>
