<svg xmlns="http://www.w3.org/2000/svg" viewBox="0 0 16 16" width="16" height="16"><g class="nc-icon-wrapper" stroke-width="1" fill="var(--color-icon)" stroke="var(--color-icon)"><line x1="0.5" y1="13.5" x2="9.5" y2="13.5" fill="none" stroke="var(--color-icon)" stroke-linecap="round" stroke-linejoin="round"/><line x1="1.5" y1="13.5" x2="1.5" y2="15.5" fill="none" stroke="var(--color-icon)" stroke-linecap="round" stroke-linejoin="round"/><line x1="12.5" y1="15.5" x2="12.5" y2="7.5" fill="none" stroke-linecap="round" stroke-linejoin="round" data-color="color-2"/><rect x="2.5" y="8.5" width="5" height="3" fill="none" stroke="var(--color-icon)" stroke-linecap="round" stroke-linejoin="round"/><line x1="8.5" y1="13.5" x2="8.5" y2="15.5" fill="none" stroke="var(--color-icon)" stroke-linecap="round" stroke-linejoin="round"/><path d="M14.311,4.756A4.271,4.271,0,0,0,14.5,3.5c0-1.657-.895-3-2-3s-2,1.343-2,3a4.271,4.271,0,0,0,.189,1.256A5.45,5.45,0,0,0,10,7.5c0,2.209,1.119,4,2.5,4S15,9.709,15,7.5A5.45,5.45,0,0,0,14.311,4.756Z" fill="none" stroke-linecap="round" stroke-linejoin="round" data-color="color-2"/></g></svg>