<?xml version="1.0" encoding="UTF-8"?>
<svg width="16px" height="16px" viewBox="0 0 16 16" version="1.1" xmlns="http://www.w3.org/2000/svg" xmlns:xlink="http://www.w3.org/1999/xlink">
    <g stroke="none" stroke-width="1" fill="none" fill-rule="evenodd" fill-opacity="0.87">
        <path d="M10.558614,3.15293353 C11.0177366,3.43158025 11.1416516,3.99609623 10.835386,4.41381528 L4.84032515,12.5954562 C4.67556539,12.8232931 4.40708051,12.9717924 4.10892774,13 L4.00901006,13 L4.00901006,13 C3.74403355,13 3.48993045,12.9041308 3.30259206,12.7336351 L0.30506166,10.0064214 C0.0453190715,9.77817684 -0.0588511177,9.44018105 0.0325889874,9.12234299 C0.124029092,8.80450494 0.396849282,8.55628763 0.746190899,8.47309357 C1.09553252,8.38989952 1.46702987,8.48467566 1.71789765,8.72099471 L3.85413765,10.664589 L9.17275576,3.40474623 C9.47902147,2.9870272 10.0994913,2.87428681 10.558614,3.15293353 Z M14.8042374,3.01765672 C15.0641462,2.97043087 15.3340294,3.01909255 15.554498,3.1529335 C15.7751654,3.28658177 15.9284146,3.49453422 15.980511,3.73101451 C16.0326074,3.9674948 15.9792805,4.21311797 15.8322691,4.41381528 L15.8322691,4.41381528 L9.83720833,12.5954562 C9.67118054,12.821798 9.40243917,12.9685685 9.10481173,12.9954476 C9.06984055,12.9999965 9.03786689,12.9999965 9.00489405,12.9999965 C8.74034704,13.0006655 8.48630414,12.9058583 8.29847606,12.7363623 L8.29847606,12.7363623 L6.88364171,11.4491174 L8.01371067,9.90369636 L8.85002165,10.664589 L14.1686398,3.40474623 C14.3156919,3.20412615 14.5443287,3.06488257 14.8042374,3.01765672 Z" id="Combined-Shape" fill="var(--color-icon)" fill-rule="nonzero"></path>
    </g>
</svg>