<?xml version="1.0" encoding="UTF-8"?>
<svg width="16px" height="16px" viewBox="0 0 16 16" version="1.1" xmlns="http://www.w3.org/2000/svg" xmlns:xlink="http://www.w3.org/1999/xlink">
    <g stroke="none" stroke-width="1" fill="none" fill-rule="evenodd" fill-opacity="0.87">
        <path d="M9.50000002,6.00000004 C10.8807119,6.00000004 12,7.11928817 12,8.50000004 L12,11.5 C12,11.7761424 11.7761424,12 11.5,12 L11,12 L11,15.5 C11,15.7761425 10.7761424,16 10.5,16 L5.50000002,16 C5.22385766,16 5.00000002,15.7761425 5.00000002,15.5 L5.00000002,12 L4.50000002,12 C4.22385765,12 4.00000002,11.7761424 4.00000002,11.5 L4.00000002,8.50000004 C4.00000002,7.11928817 5.11928816,6.00000004 6.50000002,6.00000004 L9.50000002,6.00000004 Z M2.5,7.00000004 C2.77614239,7.00000004 3,7.22385767 3,7.50000004 C3,7.77614242 2.77614239,8.00000004 2.5,8.00000004 L1.5,8.00000004 C1.22385763,8.00000004 1,8.22385768 1,8.50000004 L1,11 L1.5,11 C1.77614239,11 2,11.2238577 2,11.5 L2,14 L3.5,14 C3.7761424,14 4,14.2238577 4,14.5 C4,14.7761425 3.7761424,15 3.5,15 L1.5,15 C1.22385763,15 1,14.7761425 1,14.5 L1,12 L0.5,12 C0.223857626,12 -7.99360578e-15,11.7761424 -7.99360578e-15,11.5 L-7.99360578e-15,8.50000004 C-7.99360578e-15,7.67157292 0.671572879,7.00000004 1.5,7.00000004 L2.5,7.00000004 Z M14.5000001,7.00000004 C15.3284272,7.00000004 16.0000001,7.67157292 16.0000001,8.50000004 L16.0000001,11.5 C16.0000001,11.7761424 15.7761425,12 15.5000001,12 L15.0000001,12 L15.0000001,14.5 C15.0000001,14.7761425 14.7761425,15 14.5000001,15 L12.5000001,15 C12.2238577,15 12.0000001,14.7761425 12.0000001,14.5 C12.0000001,14.2238577 12.2238577,14 12.5000001,14 L14.0000001,14 L14.0000001,11.5 C14.0000001,11.2238577 14.2238577,11 14.5000001,11 L15.0000001,11 L15.0000001,8.50000004 C15.0000001,8.22385768 14.7761425,8.00000004 14.5000001,8.00000004 L13.5000001,8.00000004 C13.2238577,8.00000004 13.0000001,7.77614242 13.0000001,7.50000004 C13.0000001,7.22385767 13.2238577,7.00000004 13.5000001,7.00000004 L14.5000001,7.00000004 Z M9.50000003,7.00000004 L6.50000003,7.00000004 C5.67157291,7.00000004 5.00000003,7.67157292 5.00000003,8.50000004 L5.00000003,11 L5.50000003,11 C5.77614241,11 6.00000003,11.2238577 6.00000003,11.5 L6.00000003,15 L10,15 L10,11.5 C10,11.2238577 10.2238577,11 10.5,11 L11,11 L11,8.50000004 C11,7.67157292 10.3284272,7.00000004 9.50000003,7.00000004 Z M3.00000001,2.00000001 C4.10456953,2.00000001 5.00000001,2.89543052 5.00000001,4.00000001 C5.00000001,5.10456953 4.10456953,6.00000001 3.00000001,6.00000001 C1.89543051,6.00000001 1.00000001,5.10456953 1.00000001,4.00000001 C1.00000001,2.89543052 1.89543051,2.00000001 3.00000001,2.00000001 Z M13.0000001,2.00000004 C14.1045696,2.00000004 15.0000001,2.89543052 15.0000001,4.00000004 C15.0000001,5.10456953 14.1045696,6.00000004 13.0000001,6.00000004 C11.8954306,6.00000004 11.0000001,5.10456953 11.0000001,4.00000004 C11.0000001,2.89543052 11.8954306,2.00000004 13.0000001,2.00000004 Z M3.00000001,3.00000002 C2.44771527,3.00000002 2.00000001,3.44771527 2.00000001,4.00000002 C2.00000001,4.55228478 2.44771527,5.00000002 3.00000001,5.00000002 C3.55228477,5.00000002 4.00000001,4.55228478 4.00000001,4.00000002 C4.00000001,3.44771527 3.55228477,3.00000002 3.00000001,3.00000002 Z M13.0000001,3.00000003 C12.4477153,3.00000003 12.0000001,3.44771527 12.0000001,4.00000003 C12.0000001,4.55228478 12.4477153,5.00000003 13.0000001,5.00000003 C13.5522848,5.00000003 14.0000001,4.55228478 14.0000001,4.00000003 C14.0000001,3.44771527 13.5522848,3.00000003 13.0000001,3.00000003 Z M8.00000003,2.38031816e-13 C9.38071193,2.38031816e-13 10.5,1.11928813 10.5,2.5 C10.5,3.8807119 9.38071193,5 8.00000003,5 C6.61928817,5 5.50000003,3.8807119 5.50000003,2.5 C5.50000003,1.11928813 6.61928817,2.38031816e-13 8.00000003,2.38031816e-13 Z M8.00000004,1.00000001 C7.17157292,1.00000001 6.50000004,1.67157289 6.50000004,2.50000001 C6.50000004,3.32842715 7.17157292,4.00000001 8.00000004,4.00000001 C8.82842718,4.00000001 9.50000004,3.32842715 9.50000004,2.50000001 C9.50000004,1.67157289 8.82842718,1.00000001 8.00000004,1.00000001 Z" id="Combined-Shape" fill="var(--color-icon)" fill-rule="nonzero"></path>
    </g>
</svg>