<svg xmlns="http://www.w3.org/2000/svg" viewBox="0 0 16 16" width="16" height="16"><g class="nc-icon-wrapper" stroke-width="1" fill="var(--color-icon)" stroke="var(--color-icon)"><circle cx="5" cy="7" r="1" data-cap="butt" data-color="color-2" data-stroke="none" stroke="none"/> <path d="M5,9H5a2,2,0,0,1,2,2v0a0,0,0,0,1,0,0H3a0,0,0,0,1,0,0v0A2,2,0,0,1,5,9Z" data-cap="butt" data-color="color-2" data-stroke="none" stroke="none"/> <line x1="8.5" y1="7.5" x2="12.5" y2="7.5" fill="none" stroke-linecap="round" stroke-linejoin="round" data-cap="butt" data-color="color-2"/> <line x1="9.5" y1="10.5" x2="12.5" y2="10.5" fill="none" stroke-linecap="round" stroke-linejoin="round" data-cap="butt" data-color="color-2"/> <path d="M14.5,1.5h-2V2a1.5,1.5,0,0,1-3,0V1.5h-3V2a1.5,1.5,0,0,1-3,0V1.5h-2a1,1,0,0,0-1,1v10a1,1,0,0,0,1,1h13a1,1,0,0,0,1-1V2.5A1,1,0,0,0,14.5,1.5Z" fill="none" stroke="var(--color-icon)" stroke-linecap="round" stroke-linejoin="round" data-cap="butt"/></g></svg>