<svg xmlns="http://www.w3.org/2000/svg" xmlns:xlink="http://www.w3.org/1999/xlink" viewBox="0 0 64 64"><defs><linearGradient id="bde16e7a-7765-4bfc-b7f1-282860cbbb4c" x1="19.31" y1="583.17" x2="63.88" y2="583.17" gradientTransform="translate(-4.63 -538.92)" gradientUnits="userSpaceOnUse"><stop offset="0" stop-color="#0c59a4"/><stop offset="1" stop-color="#114a8b"/></linearGradient><radialGradient id="ffab5405-bfdd-44d8-971e-6cb00d27fbd9" cx="43.93" cy="609.51" r="23.84" gradientTransform="translate(-4.63 -534.43) scale(1 0.95)" gradientUnits="userSpaceOnUse"><stop offset="0.72" stop-opacity="0"/><stop offset="0.95" stop-opacity="0.53"/><stop offset="1"/></radialGradient><linearGradient id="bdb12a25-ea79-432e-953a-ff10d3bfed48" x1="42.83" y1="563.85" x2="14.98" y2="594.18" gradientTransform="translate(-4.63 -538.92)" gradientUnits="userSpaceOnUse"><stop offset="0" stop-color="#1b9de2"/><stop offset="0.16" stop-color="#1595df"/><stop offset="0.67" stop-color="#0680d7"/><stop offset="1" stop-color="#0078d4"/></linearGradient><radialGradient id="f5b5a675-1752-4949-86f6-db4c7b206391" cx="-1219.95" cy="1287.98" r="35.8" gradientTransform="matrix(0.15, -0.99, 0.8, 0.12, -829.74, -1312.57)" gradientUnits="userSpaceOnUse"><stop offset="0.76" stop-opacity="0"/><stop offset="0.95" stop-opacity="0.5"/><stop offset="1"/></radialGradient><radialGradient id="f5d7c3dc-73ea-4ada-9be6-dd0e36866b13" cx="-354.85" cy="-495.77" r="50.6" gradientTransform="matrix(-0.04, 1, -2.13, -0.08, -1063.72, 327.03)" gradientUnits="userSpaceOnUse"><stop offset="0" stop-color="#35c1f1"/><stop offset="0.11" stop-color="#34c1ed"/><stop offset="0.23" stop-color="#2fc2df"/><stop offset="0.31" stop-color="#2bc3d2"/><stop offset="0.67" stop-color="#36c752"/></radialGradient><radialGradient id="ee3182e7-14e6-4a62-bcac-b1d0e0ca844f" cx="68.99" cy="-726.23" r="24.33" gradientTransform="matrix(0.28, 0.96, -0.78, 0.23, -525.77, 120.15)" gradientUnits="userSpaceOnUse"><stop offset="0" stop-color="#66eb6e"/><stop offset="1" stop-color="#66eb6e" stop-opacity="0"/></radialGradient></defs><g id="bbf5397f-e2db-49a1-9d32-33879ded9072" data-name="edge"><path d="M57.76,47.63a24.75,24.75,0,0,1-2.63,1.17,25.48,25.48,0,0,1-9,1.62C34.33,50.42,24,42.28,24,31.84A7.85,7.85,0,0,1,28.13,25c-10.7.44-13.45,11.59-13.45,18.12,0,18.47,17,20.34,20.69,20.34a26.49,26.49,0,0,0,6.75-1.14l.32-.11A32.07,32.07,0,0,0,59.09,49a1,1,0,0,0-1.33-1.41Z" fill="url(#bde16e7a-7765-4bfc-b7f1-282860cbbb4c)"/><path d="M57.76,47.63a24.75,24.75,0,0,1-2.63,1.17,25.48,25.48,0,0,1-9,1.62C34.33,50.42,24,42.28,24,31.84A7.85,7.85,0,0,1,28.13,25c-10.7.44-13.45,11.59-13.45,18.12,0,18.47,17,20.34,20.69,20.34a26.49,26.49,0,0,0,6.75-1.14l.32-.11A32.07,32.07,0,0,0,59.09,49a1,1,0,0,0-1.33-1.41Z" opacity="0.35" fill="url(#ffab5405-bfdd-44d8-971e-6cb00d27fbd9)" style="isolation:isolate"/><path d="M26.43,60.34A19.64,19.64,0,0,1,20.75,55a20.17,20.17,0,0,1,4.4-28.19,19.67,19.67,0,0,1,3-1.8A8.22,8.22,0,0,1,32,24a8.07,8.07,0,0,1,6.42,3.24A8,8,0,0,1,40,31.93C40,31.88,46.14,12,20,12,9.06,12,0,22.45,0,31.58a32.54,32.54,0,0,0,3,14A32,32,0,0,0,42.15,62.35a18.91,18.91,0,0,1-15.7-2Z" fill="url(#bdb12a25-ea79-432e-953a-ff10d3bfed48)"/><path d="M26.43,60.34A19.64,19.64,0,0,1,20.75,55a20.17,20.17,0,0,1,4.4-28.19,19.67,19.67,0,0,1,3-1.8A8.22,8.22,0,0,1,32,24a8.07,8.07,0,0,1,6.42,3.24A8,8,0,0,1,40,31.93C40,31.88,46.14,12,20,12,9.06,12,0,22.45,0,31.58a32.54,32.54,0,0,0,3,14A32,32,0,0,0,42.15,62.35a18.91,18.91,0,0,1-15.7-2Z" opacity="0.41" fill="url(#f5b5a675-1752-4949-86f6-db4c7b206391)" style="isolation:isolate"/><path d="M38.08,37.21c-.2.26-.83.62-.83,1.41a2.35,2.35,0,0,0,1.18,1.81C42,42.93,48.8,42.6,48.82,42.6a14.92,14.92,0,0,0,7.57-2.09A15.33,15.33,0,0,0,64,27.29a22.11,22.11,0,0,0-2.83-11C55.86,6,44.43,0,32,0A32,32,0,0,0,0,31.54C.12,22.41,9.2,15,20,15a24.24,24.24,0,0,1,10.5,2.52,18.25,18.25,0,0,1,7.71,7.3A16.16,16.16,0,0,1,40,32.23,9.1,9.1,0,0,1,38.08,37.21Z" fill="url(#f5d7c3dc-73ea-4ada-9be6-dd0e36866b13)"/><path d="M38.08,37.21c-.2.26-.83.62-.83,1.41a2.35,2.35,0,0,0,1.18,1.81C42,42.93,48.8,42.6,48.82,42.6a14.92,14.92,0,0,0,7.57-2.09A15.33,15.33,0,0,0,64,27.29a22.11,22.11,0,0,0-2.83-11C55.86,6,44.43,0,32,0A32,32,0,0,0,0,31.54C.12,22.41,9.2,15,20,15a24.24,24.24,0,0,1,10.5,2.52,18.25,18.25,0,0,1,7.71,7.3A16.16,16.16,0,0,1,40,32.23,9.1,9.1,0,0,1,38.08,37.21Z" fill="url(#ee3182e7-14e6-4a62-bcac-b1d0e0ca844f)"/></g></svg>