<?xml version="1.0" encoding="UTF-8"?>
<svg id="Livello_1" data-name="Livello 1" xmlns="http://www.w3.org/2000/svg" viewBox="0 0 640 640">
  <g>
    <path
      d="m515.3,364.8l49.5-267.1c.1-.5,0-1.1-.3-1.5s-.8-.7-1.3-.8l-208.4-38.7h-.4c-1,0-1.8.7-1.9,1.6l-49.5,267.1c-.1.5,0,1.1.3,1.5s.8.7,1.3.8l208.4,38.7h.4c.9.1,1.7-.6,1.9-1.6h0Z"
      fill="#fff" stroke="#333" stroke-miterlimit="10" stroke-width="2" />
    <path
      d="m504.4,303.1c1,0,1.8-.7,2-1.6l34.4-185.6c.2-1.1-.5-2.1-1.6-2.3l-168.5-31.4h-.4c-1,0-1.8.7-2,1.6l-34.4,185.6c-.2,1.1.5,2.1,1.6,2.3l168.5,31.3h.4v.1h0Z"
      fill="var(--accent-l35)" stroke="#333" stroke-miterlimit="10" stroke-width="2" />
    <line x1="329.9" y1="296.3" x2="445.8" y2="317.6" fill="none" stroke="#333"
      stroke-miterlimit="10" stroke-width="2" />
    <path
      d="m480.4,271.3l4-21.1c1.5-7.7-1.8-15.5-8.4-19.9-7.3-4.8-20.6-11.3-42.7-15.4-8.9-1.7-18-2.6-27.1-2.7-6.2-.1-12.3.5-18.4,1.8-7.7,1.7-13.6,7.8-15,15.5l-3.7,20c-.3,1.5.7,2.9,2.2,3.2l107.2,19.9h.3c.8,0,1.5-.5,1.6-1.3h0Zm-5.1-99.5l1.7-9.1c3.4-18.2-8.6-35.7-26.8-39-18.2-3.4-35.7,8.6-39,26.8l-1.7,9.1c-.4,2-.6,4.1-.6,6.2,0,18.5,15.1,33.5,33.6,33.4,16.1,0,29.9-11.5,32.8-27.4Z"
      fill="var(--accent)" stroke="#333" stroke-miterlimit="10" stroke-width="2" />
  </g>
  <path
    d="m154.3,584.1c.9,0,1.7-.2,2.5-.5l254.2-98c6.5-2.5,11.8-7.3,14.8-13.6,2.9-6.1,3.2-13.2.8-19.5l-113.7-294.9c-3.9-9.8-13.4-16.2-23.9-16-3.4,0-6.7.6-9.9,1.8L25,241.5h0c-3.6,1.4-5.5,5.5-4,9.1l126.8,328.9c1,2.8,3.6,4.6,6.5,4.6h0Zm125.4-355l21.9,56.8c.5,1.3.4,2.7-.1,3.9-.5,1.2-1.6,2.2-2.8,2.7l-113.4,43.7h0c-2.6,1-5.5-.3-6.6-2.9l-21.9-56.7c-1-2.6.3-5.5,2.9-6.6l113.4-43.7c.6-.2,1.2-.3,1.8-.3,2.2-.2,4,1.1,4.8,3.1h0Z"
    fill="#fff" stroke="#333" stroke-miterlimit="10" stroke-width="2" />
  <path
    d="m279.7,229.1l21.9,56.8c.5,1.3.4,2.7-.1,3.9-.5,1.2-1.6,2.2-2.8,2.7l-113.4,43.7h0c-2.6,1-5.5-.3-6.6-2.9l-21.9-56.7c-1-2.6.3-5.5,2.9-6.6l113.4-43.7c.6-.2,1.2-.3,1.8-.3,2.2-.2,4,1.1,4.8,3.1h0Z"
    fill="var(--accent)" stroke="#333" stroke-miterlimit="10" stroke-width="2" />
  <path
    d="m207.6,563L76.4,222.7m-54.5,27.6h0c-1.2-3.1.4-6.7,3.5-7.9l51-19.7,131.2,340.3-51,19.7h0c-3.1,1.2-6.6-.4-7.8-3.5L21.9,250.3Z"
    fill="var(--accent-l35)" stroke-width="0" />
  <line x1="200.6" y1="389.9" x2="323.3" y2="342.9" fill="none" stroke="#333" stroke-miterlimit="10"
    stroke-width="2" />
  <path
    d="m514.5,474.5c-2.6,0-4.7-2.1-4.7-4.7h0v-29.7c0-3.7.1-3.7.1-7.4v-7.5c0-1.5-1.2-2.7-2.7-2.7h0c-3.7,0-3.7-.1-7.4-.1h-7.4c-3.7,0-3.7.1-7.5.1s-3.7-.1-7.4-.1-3.7.1-7.5.1h-7.4c-2.6,0-4.8-2.1-4.8-4.7v-22.3c0-2.6,2.1-4.7,4.8-4.8h14.8c3.7,0,3.7.1,7.4.1s3.7-.2,7.4-.2h7.5c3.7,0,3.7.1,7.5.1,1.5,0,2.7-1.2,2.7-2.7h0v-14.8c0-3.7.1-3.7.1-7.4v-7.4c0-3.7-.1-3.7-.1-7.5s-.1-3.7-.1-7.5c0-2.6,2.2-4.7,4.8-4.7h7.4c3.7,0,3.7.1,7.4.1h7.5c2.6,0,4.7,2.1,4.7,4.7h0v7.4c0,3.7.1,3.7.1,7.4s-.1,3.7-.1,7.5.1,3.7.1,7.4v14.9c0,1.5,1.2,2.8,2.7,2.8,3.7,0,3.7-.2,7.4-.2s3.7.2,7.4.2,3.7-.1,7.5-.1h7.4c3.7,0,3.7.1,7.4.1s3.7-.1,7.5-.1c2.6,0,4.7,2.1,4.7,4.7h0v22.3c0,2.6-2.1,4.7-4.8,4.8h-7.4c-3.7,0-3.7-.2-7.4-.2s-3.7.1-7.4.1-3.7-.1-7.4-.1-3.7.1-7.5.1-3.7-.1-7.5-.1c-1.5,0-2.8,1.2-2.8,2.7v14.8c0,3.7.1,3.7.1,7.4s-.1,3.7-.1,7.5v14.9c0,2.6-2.1,4.7-4.7,4.7h-14.9c-3.8,0-3.7.1-7.4.1h0Z"
    fill="var(--accent)" stroke="#333" stroke-miterlimit="10" stroke-width="2" />
  <line x1="76.4" y1="222.7" x2="207.6" y2="563" fill="none" stroke="#333" stroke-miterlimit="10"
    stroke-width="2" />
</svg>