<?xml version="1.0" encoding="UTF-8"?>
<svg id="Livello_1" data-name="Livello 1" xmlns="http://www.w3.org/2000/svg" viewBox="0 0 640 640">
  <g>
    <path
      d="m260.74,297.59l159.76-59.02c1.05-.39,1.56-1.5,1.18-2.54l-39.82-108.02c-.35-.85-1.05-1.34-1.95-1.28l-.59.1-159.76,59.02c-.47.19-.92.57-1.14,1.01s-.22,1.05-.03,1.53l39.92,108c.35.85,1.05,1.34,1.95,1.28.12.08.31.05.49-.09h0Z"
      fill="#fff" stroke-width="0" />
    <g>
      <g>
        <path d="m416.01,239.05l4.09-1.54c.59-.1.8-.65.69-1.24h0l-2.11-5.62" fill="none"
          stroke="var(--accent)" stroke-linecap="round" stroke-linejoin="round" stroke-width="4" />
        <path
          d="m414.57,219.4l-33.67-91.03c-.19-.47-.75-.78-1.32-.58l-159.76,59.02c-.47.19-.78.75-.58,1.32l39.82,108.02c.19.47.75.78,1.32.58l149.93-55.46"
          fill="none" stroke="var(--accent)" stroke-dasharray="0 0 0 0 0 0 12.03 12.03"
          stroke-linecap="round" stroke-linejoin="round" stroke-width="4" />
      </g>
      <g>
        <line x1="371.13" y1="143.71" x2="368.07" y2="148.82" fill="none" stroke="var(--accent)"
          stroke-linecap="round" stroke-linejoin="round" stroke-width="4" />
        <path d="m361.69,159.8l-36.51,62.31c-.55.91-1.6,1.3-2.67.98l-90.98-31.54" fill="none"
          stroke="var(--accent)" stroke-dasharray="0 0 0 0 0 0 12.71 12.71" stroke-linecap="round"
          stroke-linejoin="round" stroke-width="4" />
        <line x1="225.57" y1="189.46" x2="219.85" y2="187.52" fill="none" stroke="var(--accent)"
          stroke-linecap="round" stroke-linejoin="round" stroke-width="4" />
      </g>
    </g>
  </g>
  <g>
    <path
      d="m426.15,589.9c1.1,0,2-.9,2-2v-9.4c0-1.1-.9-2-2-2h-1.7v-.3l9.7-292v-.5h14c1.1,0,2-.9,2-2v-30.8c0-1.1-.9-2-2-2H177.25c-1.1,0-2,.9-2,2v30.8c0,1.1.9,2,2,2h11.5v.5l3.6,292v.4h-1.7c-1.1,0-2,.9-2,2v9.4c0,1.1.9,2,2,2h235.5v-.1h0Z"
      fill="var(--accent-l25)" stroke="#333" stroke-miterlimit="10" />
    <path
      d="m423.44,576.2l9.7-292h0c.1-.7-.5-1.4-1.2-1.5h-241c-.7.1-1.3.7-1.2,1.4l3.6,292c0,.7.5,1.4,1.2,1.4h227.7c.7,0,1.2-.6,1.2-1.3Zm24.7-293.5H177.25c-.6,0-1-.4-1-1v-30.8c0-.6.4-1,1-1h270.9c.6,0,1,.4,1,1v30.8c0,.6-.5,1-1,1Zm-22,306.2h-235.5c-.6,0-1-.4-1-1v-9.4c0-.6.4-1,1-1h235.5c.6,0,1,.4,1,1v9.4c0,.6-.5,1-1,1Zm-196.6-28.5h0c-5.4.1-9.9-4.9-10-11.2l-3.5-232.1c-.1-6.3,4.2-11.5,9.6-11.6h0c5.4-.1,9.9,4.9,10,11.2l3.5,232.1c.1,6.3-4.2,11.5-9.6,11.6Zm63-11.6c.1,6.3-4.2,11.5-9.6,11.6h0c-5.5.1-9.9-4.9-10-11.2l-3.5-232.1c-.1-6.3,4.2-11.5,9.6-11.6h0c5.4-.1,9.9,4.9,10,11.2l3.5,232.1h0Zm101.7.6c-.2,6.3-4.7,11.2-10.1,11h0c-5.4-.2-9.6-5.5-9.4-11.8l7-232c.2-6.3,4.7-11.2,10.1-11h0c5.4.2,9.6,5.5,9.4,11.8l-7,232h0Zm-51.7-.2c-.1,6.3-4.6,11.3-10,11.2h0c-5.4-.1-9.7-5.3-9.6-11.6l3.5-232.1c.1-6.3,4.6-11.3,10-11.2h0c5.4.1,9.7,5.3,9.6,11.6l-3.5,232.1h0Z"
      fill="var(--accent-l35)" stroke="#333" stroke-miterlimit="10" stroke-width="2" />
  </g>
  <g>
    <line x1="454.65" y1="107.7" x2="411.29" y2="128.11" fill="none" stroke="var(--accent)"
      stroke-linecap="round" stroke-miterlimit="10" stroke-width="4" />
    <line x1="423.31" y1="70.62" x2="395.97" y2="109.98" fill="none" stroke="var(--accent)"
      stroke-linecap="round" stroke-miterlimit="10" stroke-width="4" />
    <line x1="377.63" y1="54.19" x2="373.63" y2="101.94" fill="none" stroke="var(--accent)"
      stroke-linecap="round" stroke-miterlimit="10" stroke-width="4" />
    <line x1="329.84" y1="62.79" x2="350.25" y2="106.15" fill="none" stroke="var(--accent)"
      stroke-linecap="round" stroke-miterlimit="10" stroke-width="4" />
    <line x1="292.76" y1="94.14" x2="332.13" y2="121.48" fill="none" stroke="var(--accent)"
      stroke-linecap="round" stroke-miterlimit="10" stroke-width="4" />
    <line x1="463.25" y1="155.48" x2="415.5" y2="151.48" fill="none" stroke="var(--accent)"
      stroke-linecap="round" stroke-miterlimit="10" stroke-width="4" />
  </g>
</svg>