<?xml version="1.0" encoding="UTF-8"?>
<svg id="Livello_1" data-name="Livello 1" xmlns="http://www.w3.org/2000/svg" viewBox="0 0 640 640">
  <g>
    <path
      d="m301.1,89.7l234.8,41.4c.9.2,1.4,1,1.3,1.8l-57.3,324.8c-.2.9-1,1.4-1.8,1.3l-234.9-41.3c-.9-.2-1.4-1-1.3-1.8l57.3-324.8c.2-1,1-1.5,1.9-1.4h0Z"
      fill="#fff" stroke="#333" stroke-miterlimit="10" stroke-width="2" />
    <g>
      <line x1="313.1" y1="147.1" x2="504.7" y2="180.8" fill="none" stroke="#333"
        stroke-linecap="round" stroke-linejoin="round" stroke-width="2" />
      <line x1="311.4" y1="156.3" x2="503" y2="190.1" fill="none" stroke="#333"
        stroke-linecap="round" stroke-linejoin="round" stroke-width="2" />
      <line x1="309.8" y1="165.5" x2="408.8" y2="183" fill="none" stroke="#333"
        stroke-linecap="round" stroke-linejoin="round" stroke-width="2" />
    </g>
    <g>
      <line x1="293.9" y1="255.6" x2="485.5" y2="289.4" fill="none" stroke="#333"
        stroke-linecap="round" stroke-linejoin="round" stroke-width="2" />
      <line x1="292.3" y1="264.8" x2="483.9" y2="298.6" fill="none" stroke="#333"
        stroke-linecap="round" stroke-linejoin="round" stroke-width="2" />
      <line x1="290.7" y1="274.1" x2="389.7" y2="291.6" fill="none" stroke="#333"
        stroke-linecap="round" stroke-linejoin="round" stroke-width="2" />
    </g>
    <g>
      <line x1="284.4" y1="309.9" x2="476" y2="343.7" fill="none" stroke="#333"
        stroke-linecap="round" stroke-linejoin="round" stroke-width="2" />
      <line x1="282.7" y1="319.1" x2="474.3" y2="352.9" fill="none" stroke="#333"
        stroke-linecap="round" stroke-linejoin="round" stroke-width="2" />
      <line x1="281.1" y1="328.4" x2="380.1" y2="345.8" fill="none" stroke="#333"
        stroke-linecap="round" stroke-linejoin="round" stroke-width="2" />
    </g>
    <path
      d="m307.4,188.5l188.6,33.2c.9.2,1.4,1,1.3,1.8l-8.2,46.5c-.2.9-1,1.4-1.8,1.3l-188.6-33.3c-.9-.2-1.4-1-1.3-1.8l8.2-46.5c.1-.8.9-1.4,1.8-1.2Z"
      fill="var(--accent)" stroke-width="0" />
  </g>
  <g>
    <path
      d="m104.2,234.9l234.8-41.4c.9-.2,1.7.4,1.8,1.3l57.2,324.8c.2.9-.4,1.7-1.3,1.8l-234.7,41.4c-.9.2-1.7-.4-1.8-1.3l-57.3-324.8c-.2-.9.4-1.7,1.3-1.8h0Z"
      fill="var(--accent-l35)" stroke="#333" stroke-miterlimit="10" stroke-width="2" />
    <g>
      <line x1="161.4" y1="280" x2="326.7" y2="250.9" fill="none" stroke="#333"
        stroke-linecap="round" stroke-linejoin="round" stroke-width="2" />
      <line x1="163" y1="289.2" x2="328.3" y2="260.1" fill="none" stroke="#333"
        stroke-linecap="round" stroke-linejoin="round" stroke-width="2" />
      <line x1="164.7" y1="298.5" x2="250.1" y2="283.4" fill="none" stroke="#333"
        stroke-linecap="round" stroke-linejoin="round" stroke-width="2" />
    </g>
    <g>
      <line x1="168.3" y1="319.3" x2="333.6" y2="290.1" fill="none" stroke="#333"
        stroke-linecap="round" stroke-linejoin="round" stroke-width="2" />
      <line x1="170" y1="328.5" x2="335.2" y2="299.4" fill="none" stroke="#333"
        stroke-linecap="round" stroke-linejoin="round" stroke-width="2" />
      <line x1="171.6" y1="337.7" x2="257" y2="322.7" fill="none" stroke="#333"
        stroke-linecap="round" stroke-linejoin="round" stroke-width="2" />
    </g>
    <g>
      <line x1="175.9" y1="362" x2="341.1" y2="332.9" fill="none" stroke="#333"
        stroke-linecap="round" stroke-linejoin="round" stroke-width="2" />
      <line x1="177.5" y1="371.2" x2="342.8" y2="342.1" fill="none" stroke="#333"
        stroke-linecap="round" stroke-linejoin="round" stroke-width="2" />
      <line x1="179.1" y1="380.5" x2="264.5" y2="365.4" fill="none" stroke="#333"
        stroke-linecap="round" stroke-linejoin="round" stroke-width="2" />
    </g>
    <g>
      <circle cx="139.8" cy="294.5" r="10.1" fill="none" stroke="#333" stroke-linecap="round"
        stroke-linejoin="round" stroke-width="2" />
      <path
        d="m156,281.7l-4.5-3.1c-.2-.2-.6-.1-.8.1h0l-13.6,19.4-7.9-5.5c-.3-.2-.6-.1-.8.1l-3.1,4.5c-.2.3-.1.6.1.8l12.8,9c.2.2.6.1.8-.1h0l17.1-24.4c.2-.2.2-.6-.1-.8h0Z"
        fill="var(--accent)" stroke-width="0" />
    </g>
    <g>
      <circle cx="154.9" cy="377.4" r="10.1" fill="none" stroke="#333" stroke-linecap="round"
        stroke-linejoin="round" stroke-width="2" />
      <path
        d="m171.1,364.5l-4.5-3.1c-.2-.2-.6-.1-.8.1h0l-13.6,19.4-7.9-5.5c-.3-.2-.6-.1-.8.1l-3.1,4.5c-.2.2-.1.6.1.8h0l12.8,9c.2.2.6.1.8-.1h0l17.1-24.4c.2-.2.2-.6-.1-.8h0Z"
        fill="var(--accent)" stroke-width="0" />
    </g>
    <g>
      <circle cx="146.9" cy="334.4" r="10.1" fill="none" stroke="#333" stroke-linecap="round"
        stroke-linejoin="round" stroke-width="2" />
      <path
        d="m163.1,321.5l-4.5-3.1c-.2-.2-.6-.1-.8.1h0l-13.6,19.4-7.9-5.5c-.3-.2-.6-.1-.8.1l-3.1,4.5c-.2.2-.1.6.1.8h0l12.8,9c.2.2.6.1.8-.1h0l17.1-24.4c.2-.2.2-.6-.1-.8h0Z"
        fill="var(--accent)" stroke-width="0" />
    </g>
  </g>
  <g>
    <path
      d="m186.4,176.9h238.4c.9,0,1.6.7,1.6,1.6v329.9c0,.9-.7,1.6-1.6,1.6h-238.4c-.9,0-1.6-.7-1.6-1.6V178.5c0-.9.7-1.6,1.6-1.6Z"
      fill="#fff" stroke="#333" stroke-miterlimit="10" stroke-width="2" />
    <g>
      <line x1="256.2" y1="231.3" x2="402.7" y2="231.3" fill="none" stroke="#333"
        stroke-linecap="round" stroke-linejoin="round" stroke-width="2" />
      <line x1="256.2" y1="240.7" x2="402.7" y2="240.7" fill="none" stroke="#333"
        stroke-linecap="round" stroke-linejoin="round" stroke-width="2" />
      <line x1="256.2" y1="250.1" x2="331.9" y2="250.1" fill="none" stroke="#333"
        stroke-linecap="round" stroke-linejoin="round" stroke-width="2" />
    </g>
    <circle cx="221.8" cy="240.7" r="13.4" fill="none" stroke="#2b2b2b" stroke-linecap="round"
      stroke-linejoin="round" stroke-width="1.58" />
    <g>
      <g>
        <line x1="256.2" y1="286.4" x2="402.7" y2="286.4" fill="none" stroke="#333"
          stroke-linecap="round" stroke-linejoin="round" stroke-width="2" />
        <line x1="256.2" y1="295.8" x2="402.7" y2="295.8" fill="none" stroke="#333"
          stroke-linecap="round" stroke-linejoin="round" stroke-width="2" />
        <line x1="256.2" y1="305.2" x2="331.9" y2="305.2" fill="none" stroke="#333"
          stroke-linecap="round" stroke-linejoin="round" stroke-width="2" />
      </g>
      <circle cx="221.8" cy="295.8" r="13.4" fill="none" stroke="#333" stroke-linecap="round"
        stroke-linejoin="round" stroke-width="2" />
    </g>
    <g>
      <g>
        <line x1="256.2" y1="341.5" x2="402.7" y2="341.5" fill="none" stroke="#333"
          stroke-linecap="round" stroke-linejoin="round" stroke-width="2" />
        <line x1="256.2" y1="350.9" x2="402.7" y2="350.9" fill="none" stroke="#333"
          stroke-linecap="round" stroke-linejoin="round" stroke-width="2" />
        <line x1="256.2" y1="360.3" x2="331.9" y2="360.3" fill="none" stroke="#333"
          stroke-linecap="round" stroke-linejoin="round" stroke-width="2" />
      </g>
      <circle cx="221.8" cy="350.9" r="13.4" fill="none" stroke="#333" stroke-linecap="round"
        stroke-linejoin="round" stroke-width="2" />
    </g>
    <g>
      <g>
        <line x1="256.2" y1="396.6" x2="402.7" y2="396.6" fill="none" stroke="#333"
          stroke-linecap="round" stroke-linejoin="round" stroke-width="2" />
        <line x1="256.2" y1="406" x2="402.7" y2="406" fill="none" stroke="#333"
          stroke-linecap="round" stroke-linejoin="round" stroke-width="2" />
        <line x1="256.2" y1="415.4" x2="331.9" y2="415.4" fill="none" stroke="#333"
          stroke-linecap="round" stroke-linejoin="round" stroke-width="2" />
      </g>
      <circle cx="221.8" cy="406" r="13.4" fill="none" stroke="#333" stroke-linecap="round"
        stroke-linejoin="round" stroke-width="2" />
    </g>
    <path
      d="m245.8,227.7l-5.1-5.1c-.3-.3-.7-.3-1,0l-22.1,22.1-9-9c-.3-.3-.7-.3-1,0l-5.1,5.1c-.3.3-.3.7,0,1l14.6,14.6c.3.3.7.3,1,0l27.7-27.7c.2-.3.2-.7,0-1h0Z"
      fill="var(--accent)" stroke-width="0" />
    <path
      d="m245.8,283.3l-5.1-5.1c-.3-.3-.7-.3-1,0l-22.1,22.1-9-9c-.3-.3-.7-.3-1,0l-5.1,5.1c-.3.3-.3.7,0,1l14.6,14.6c.3.3.7.3,1,0l27.7-27.7c.2-.3.2-.7,0-1h0Z"
      fill="var(--accent)" stroke-width="0" />
    <path
      d="m245.8,394.6l-5.1-5.1c-.3-.3-.7-.3-1,0l-22.1,22.1-9-9c-.3-.3-.7-.3-1,0l-5.1,5.2c-.3.3-.3.7,0,1l14.6,14.6c.3.3.7.3,1,0l27.7-27.7c.2-.4.2-.8,0-1.1h0Z"
      fill="var(--accent)" stroke-width="0" />
    <path
      d="m245.8,338.9l-5.1-5.1c-.3-.3-.7-.3-1,0l-22.1,22.1-9-9c-.3-.3-.7-.3-1,0l-5.1,5.1c-.3.3-.3.7,0,1l14.6,14.7c.3.3.7.3,1,0l27.7-27.7c.3-.3.3-.7,0-1.1q0,.1,0,0h0Z"
      fill="var(--accent)" stroke-width="0" />
  </g>
  <path
    d="m446.4,526.9c-2.6,0-4.7-2.1-4.7-4.7h0v-29.7c0-3.7.1-3.7.1-7.4v-7.5c0-1.5-1.2-2.7-2.7-2.7h0c-3.7,0-3.7-.1-7.4-.1h-7.4c-3.7,0-3.7.1-7.5.1s-3.7-.1-7.4-.1-3.7.1-7.5.1h-7.4c-2.6,0-4.8-2.1-4.8-4.7v-22.3c0-2.6,2.1-4.7,4.8-4.8h14.8c3.7,0,3.7.1,7.4.1s3.7-.2,7.4-.2h7.5c3.7,0,3.7.1,7.5.1,1.5,0,2.7-1.2,2.7-2.7h0v-14.8c0-3.7.1-3.7.1-7.4v-7.4c0-3.7-.1-3.7-.1-7.5s-.1-3.7-.1-7.5c0-2.6,2.2-4.7,4.8-4.7h7.4c3.7,0,3.7.1,7.4.1h7.5c2.6,0,4.7,2.1,4.7,4.7h0v7.4c0,3.7.1,3.7.1,7.4s-.1,3.7-.1,7.5.1,3.7.1,7.4v14.9c0,1.5,1.2,2.8,2.7,2.8,3.7,0,3.7-.2,7.4-.2s3.7.2,7.4.2,3.7-.1,7.5-.1h7.4c3.7,0,3.7.1,7.4.1s3.7-.1,7.5-.1c2.6,0,4.7,2.1,4.7,4.7h0v22.3c0,2.6-2.1,4.7-4.8,4.8h-7.4c-3.7,0-3.7-.2-7.4-.2s-3.7.1-7.4.1-3.7-.1-7.4-.1-3.7.1-7.5.1-3.7-.1-7.5-.1c-1.5,0-2.8,1.2-2.8,2.7v14.8c0,3.7.1,3.7.1,7.4s-.1,3.7-.1,7.5v14.9c0,2.6-2.1,4.7-4.7,4.7h-14.9c-3.8,0-3.7.1-7.4.1h0Z"
    fill="var(--accent)" stroke="#333" stroke-miterlimit="10" stroke-width="2" />
</svg>