<?xml version="1.0" encoding="UTF-8"?>
<svg width="16px" height="16px" viewBox="0 0 16 16" version="1.1" xmlns="http://www.w3.org/2000/svg" xmlns:xlink="http://www.w3.org/1999/xlink">
    <g id="exchange" stroke="none" stroke-width="1" fill="none" fill-rule="evenodd">
        <path d="M15,2.95715736 L15,3.60556345 L15,5.38818274 C15,5.49371574 14.9580022,5.59491371 14.8831892,5.66946193 L13.2758838,7.27192893 C13.1670455,7.3804467 12.9906547,7.38037563 12.8819587,7.2717868 L12.3018909,6.69267005 C12.1930526,6.58408122 12.1930526,6.40790863 12.3018909,6.29924873 L13.0166364,5.57622335 C13.0313712,5.56137056 13.0395572,5.54125888 13.0395572,5.52036548 L13.0395572,2.95715736 L11.0845956,2.95715736 L10.8101862,2.95715736 L10.787479,2.95715736 C8.9381524,4.33313706 7.40516176,6.74966497 6.80217311,6.73424365 C6.7635209,6.7291269 6.72885492,6.71313706 6.69874464,6.68492386 C6.1236596,6.14659898 9.98553466,1.06495431 10.462174,1 L11.0845956,1 L13.0395572,1 L14.6018752,1 C14.8217585,1 15,1.17787817 15,1.39740102 L15,2.95715736 Z M15,13.0424873 L15,14.6022437 C15,14.8217665 14.8217585,14.9996447 14.6018752,14.9996447 L13.0395572,14.9996447 L12.3900863,14.9996447 L11.0845956,14.9996447 L10.6272467,14.9996447 C10.5215404,14.9996447 10.4202474,14.9577157 10.3455768,14.8830254 L8.74047804,13.2783553 C8.63178206,13.1697665 8.63185324,12.993665 8.74054923,12.8850761 L9.32061705,12.3059594 C9.37215333,12.2545787 9.4389227,12.2294924 9.50633272,12.2267208 C9.57374274,12.2294924 9.64058329,12.2545787 9.69204838,12.3059594 L10.41619,13.019533 C10.4311384,13.0342437 10.4512119,13.0424873 10.4722108,13.0424873 L10.4949181,13.0424873 L11.0845956,13.0424873 L13.0395572,13.0424873 L13.0395572,10.7940305 C12.4819832,10.0470558 11.7534282,9.35160406 11.0845956,8.74846701 L11.0845956,8.72807107 C9.97927058,7.73279188 9.0447129,6.99143147 9.32844715,6.68932995 C9.36119119,6.65450761 9.411375,6.63667005 9.47551061,6.63273352 C10.5102935,6.62153299 14.9393523,10.0029239 15,10.4466599 L15,13.0424873 Z M4.91540444,14.9996447 L2.96044276,14.9996447 L1.39812484,14.9996447 C1.17824148,14.9996447 1,14.8217665 1,14.6022437 L1,13.0424873 L1,12.3940812 L1,10.6114619 C1,10.5059289 1.04206898,10.404731 1.11681081,10.3301827 L2.72411619,8.72771574 C2.83295454,8.61919797 3.00934527,8.61926904 3.11811244,8.72785787 L3.69818027,9.30697462 C3.80694743,9.41556345 3.80694743,9.59173604 3.69818027,9.70039594 L2.98336359,10.4234213 C2.96862877,10.4383452 2.96044276,10.4583858 2.96044276,10.4792792 L2.96044276,13.0424873 L4.91540444,13.0424873 L5.18981376,13.0424873 L5.21252104,13.0424873 C7.0618476,11.6665076 8.59483824,9.2499797 9.19782689,9.26540102 C9.23655028,9.27051777 9.27114508,9.28650761 9.30132654,9.31472081 C9.8763404,9.85304569 6.01446534,14.9347614 5.53782598,14.9996447 L4.91540444,14.9996447 Z M1,2.95715736 L1,1.39740102 C1,1.17787817 1.17824148,1 1.39812484,1 L2.96044276,1 L3.60991372,1 L4.91540444,1 L5.3727533,1 C5.47845961,1 5.57982377,1.04192893 5.65442324,1.11661929 L7.25952196,2.72128934 C7.36828912,2.82987817 7.36821794,3.0059797 7.25937959,3.11456853 L6.67938295,3.69368528 C6.62791786,3.74506599 6.5610773,3.77015228 6.49373846,3.77292386 C6.42625726,3.77015228 6.35948789,3.74506599 6.3080228,3.69368528 L5.58381,2.98011168 C5.56886164,2.96540102 5.54878811,2.95715736 5.5278604,2.95715736 L5.50515312,2.95715736 L4.91540444,2.95715736 L2.96044276,2.95715736 L2.96044276,5.20561421 C3.51801685,5.95258883 4.24657179,6.64804061 4.91540444,7.25117766 L4.91540444,7.27150254 C6.02072942,8.26685279 6.9552871,9.0082132 6.67162403,9.31031472 C6.63887999,9.34513706 6.588625,9.36297462 6.52448939,9.36691115 C5.48970647,9.37811168 1.06064766,5.99672081 1,5.55298477 L1,2.95715736 Z" id="Fill-1" fill="var(--color-icon)"></path>
    </g>
</svg>