<svg xmlns="http://www.w3.org/2000/svg" xmlns:xlink="http://www.w3.org/1999/xlink" viewBox="0 0 64 64"><defs><linearGradient id="afb21c48-ef04-42fe-a20e-0ac96cce7ec9" x1="-606.77" y1="432.86" x2="-606.8" y2="432.83" gradientTransform="matrix(2206.73, 0, 0, -2278.69, 1339037.55, 986356.3)" gradientUnits="userSpaceOnUse"><stop offset="0.05" stop-color="#fff44f"/><stop offset="0.11" stop-color="#ffe847"/><stop offset="0.23" stop-color="#ffc830"/><stop offset="0.37" stop-color="#ff980e"/><stop offset="0.4" stop-color="#ff8b16"/><stop offset="0.46" stop-color="#ff672a"/><stop offset="0.53" stop-color="#ff3647"/><stop offset="0.7" stop-color="#e31587"/></linearGradient><radialGradient id="ada07978-52e3-41a0-bc17-54ff214cc544" cx="-589.41" cy="421.63" r="2.27" gradientTransform="matrix(28.5, 0, 0, -28.5, 16855.04, 12024.6)" gradientUnits="userSpaceOnUse"><stop offset="0.13" stop-color="#ffbd4f"/><stop offset="0.19" stop-color="#ffac31"/><stop offset="0.25" stop-color="#ff9d17"/><stop offset="0.28" stop-color="#ff980e"/><stop offset="0.4" stop-color="#ff563b"/><stop offset="0.47" stop-color="#ff3750"/><stop offset="0.71" stop-color="#f5156c"/><stop offset="0.78" stop-color="#eb0878"/><stop offset="0.86" stop-color="#e50080"/></radialGradient><radialGradient id="f3697dcf-dffc-4116-b9fa-9c3daa156439" cx="-590.24" cy="420.7" r="2.27" gradientTransform="matrix(28.5, 0, 0, -28.5, 16855.04, 12024.6)" gradientUnits="userSpaceOnUse"><stop offset="0.3" stop-color="#960e18"/><stop offset="0.35" stop-color="#b11927" stop-opacity="0.74"/><stop offset="0.43" stop-color="#db293d" stop-opacity="0.34"/><stop offset="0.5" stop-color="#f5334b" stop-opacity="0.09"/><stop offset="0.53" stop-color="#ff3750" stop-opacity="0"/></radialGradient><radialGradient id="fb50b699-a743-4382-8f75-364c8fca8881" cx="-589.97" cy="422.14" r="1.64" gradientTransform="matrix(28.5, 0, 0, -28.5, 16855.04, 12024.6)" gradientUnits="userSpaceOnUse"><stop offset="0.13" stop-color="#fff44f"/><stop offset="0.25" stop-color="#ffdc3e"/><stop offset="0.51" stop-color="#ff9d12"/><stop offset="0.53" stop-color="#ff980e"/></radialGradient><radialGradient id="a4e9fa5c-9dab-445f-9ad7-76e5b13bc8b7" cx="-590.49" cy="420.11" r="1.08" gradientTransform="matrix(28.5, 0, 0, -28.5, 16855.04, 12024.6)" gradientUnits="userSpaceOnUse"><stop offset="0.35" stop-color="#3a8ee6"/><stop offset="0.47" stop-color="#5c79f0"/><stop offset="0.67" stop-color="#9059ff"/><stop offset="1" stop-color="#c139e6"/></radialGradient><radialGradient id="a18667dd-448e-4183-8c0a-2ba8a4d73091" cx="-8562.27" cy="8948.97" r="0.57" gradientTransform="matrix(27.7, -6.7, -7.84, -32.44, 307393.26, 232945.87)" gradientUnits="userSpaceOnUse"><stop offset="0.21" stop-color="#9059ff" stop-opacity="0"/><stop offset="0.28" stop-color="#8c4ff3" stop-opacity="0.06"/><stop offset="0.75" stop-color="#7716a8" stop-opacity="0.45"/><stop offset="0.97" stop-color="#6e008b" stop-opacity="0.6"/></radialGradient><radialGradient id="a5869aff-311e-4559-a35f-59743b0ce371" cx="-590.27" cy="421.72" r="0.78" gradientTransform="matrix(28.5, 0, 0, -28.5, 16855.04, 12024.6)" gradientUnits="userSpaceOnUse"><stop offset="0" stop-color="#ffe226"/><stop offset="0.12" stop-color="#ffdb27"/><stop offset="0.29" stop-color="#ffc82a"/><stop offset="0.5" stop-color="#ffa930"/><stop offset="0.73" stop-color="#ff7e37"/><stop offset="0.79" stop-color="#ff7139"/></radialGradient><radialGradient id="ac8af9aa-9690-4218-a95d-d51dd66b8153" cx="-589.66" cy="422.21" r="3.32" gradientTransform="matrix(28.5, 0, 0, -28.5, 16855.04, 12024.6)" gradientUnits="userSpaceOnUse"><stop offset="0.11" stop-color="#fff44f"/><stop offset="0.46" stop-color="#ff980e"/><stop offset="0.62" stop-color="#ff5634"/><stop offset="0.72" stop-color="#ff3647"/><stop offset="0.9" stop-color="#e31587"/></radialGradient><radialGradient id="b68b9738-57da-4b0e-b591-f55567135d6c" cx="-8521.24" cy="8904.77" r="2.43" gradientTransform="matrix(2.99, 28.36, 18.61, -1.97, -140194.99, 259171.9)" gradientUnits="userSpaceOnUse"><stop offset="0" stop-color="#fff44f"/><stop offset="0.06" stop-color="#ffe847"/><stop offset="0.17" stop-color="#ffc830"/><stop offset="0.3" stop-color="#ff980e"/><stop offset="0.36" stop-color="#ff8b16"/><stop offset="0.46" stop-color="#ff672a"/><stop offset="0.57" stop-color="#ff3647"/><stop offset="0.74" stop-color="#e31587"/></radialGradient><radialGradient id="a473758a-9ee5-4df0-9039-5efcfd8515f5" cx="-590.29" cy="421.43" r="2.07" gradientTransform="matrix(28.5, 0, 0, -28.5, 16855.04, 12024.6)" gradientUnits="userSpaceOnUse"><stop offset="0.14" stop-color="#fff44f"/><stop offset="0.48" stop-color="#ff980e"/><stop offset="0.59" stop-color="#ff5634"/><stop offset="0.66" stop-color="#ff3647"/><stop offset="0.9" stop-color="#e31587"/></radialGradient><radialGradient id="a90bd024-ca4d-48cc-89eb-608cfc5a7743" cx="-589.74" cy="421.31" r="2.27" gradientTransform="matrix(28.5, 0, 0, -28.5, 16855.04, 12024.6)" gradientUnits="userSpaceOnUse"><stop offset="0.09" stop-color="#fff44f"/><stop offset="0.23" stop-color="#ffe141"/><stop offset="0.51" stop-color="#ffaf1e"/><stop offset="0.63" stop-color="#ff980e"/></radialGradient><linearGradient id="fa6821d7-470a-4257-9f7f-0fb48a1ae79d" x1="-606.77" y1="432.86" x2="-606.79" y2="432.84" gradientTransform="matrix(2206.73, 0, 0, -2278.69, 1339036.98, 986356.58)" gradientUnits="userSpaceOnUse"><stop offset="0.17" stop-color="#fff44f" stop-opacity="0.8"/><stop offset="0.27" stop-color="#fff44f" stop-opacity="0.63"/><stop offset="0.49" stop-color="#fff44f" stop-opacity="0.22"/><stop offset="0.6" stop-color="#fff44f" stop-opacity="0"/></linearGradient></defs><g id="b20ea860-f201-4983-aae3-6c04a150aa70" data-name="firefox"><path d="M60.75,21.49c-1.36-3.25-4.08-6.75-6.22-7.85a32.21,32.21,0,0,1,3.14,9.41v.05c-3.5-8.75-9.44-12.27-14.3-20-.26-.39-.5-.78-.74-1.19-.14-.24-.24-.45-.34-.64A5.39,5.39,0,0,1,41.82.09.08.08,0,0,0,41.76,0h-.08s0,0,0,0h0C33.87,4.57,31.22,13,31,17.24a15.59,15.59,0,0,0-8.54,3.3,8,8,0,0,0-.8-.61,14.31,14.31,0,0,1-.08-7.6,23,23,0,0,0-7.48,5.78c-1.24-1.56-1.15-6.7-1.08-7.77a6.09,6.09,0,0,0-1,.55,21.52,21.52,0,0,0-3,2.6A26.61,26.61,0,0,0,6,17a26,26,0,0,0-4.16,9.4l-.06.22c-.06.26-.27,1.63-.31,1.92v.08A30.68,30.68,0,0,0,1,32.86V33a31,31,0,0,0,61.6,5.25c.06-.4.1-.8.14-1.2a31.74,31.74,0,0,0-2-15.58ZM25,45.77a2.84,2.84,0,0,0,.43.21l0,0L25,45.76ZM57.68,23.09v0Z" fill="url(#afb21c48-ef04-42fe-a20e-0ac96cce7ec9)"/><path d="M60.75,21.49c-1.36-3.25-4.08-6.75-6.22-7.85a32.21,32.21,0,0,1,3.14,9.41v.06a28.06,28.06,0,0,1-1,20.94C53.16,51.68,44.54,59.5,31.07,59.12,16.52,58.72,3.69,47.91,1.29,33.76c-.43-2.24,0-3.36.22-5.18A23.58,23.58,0,0,0,1,32.85V33a31,31,0,0,0,61.6,5.25c.06-.4.1-.8.14-1.2a31.76,31.76,0,0,0-2-15.58Z" fill="url(#ada07978-52e3-41a0-bc17-54ff214cc544)"/><path d="M60.75,21.49c-1.36-3.25-4.08-6.75-6.22-7.85a32.21,32.21,0,0,1,3.14,9.41v.06a28.06,28.06,0,0,1-1,20.94C53.16,51.68,44.54,59.5,31.07,59.12,16.52,58.72,3.69,47.91,1.29,33.76c-.43-2.24,0-3.36.22-5.18A23.58,23.58,0,0,0,1,32.85V33a31,31,0,0,0,61.6,5.25c.06-.4.1-.8.14-1.2a31.76,31.76,0,0,0-2-15.58Z" fill="url(#f3697dcf-dffc-4116-b9fa-9c3daa156439)"/><path d="M45.67,25.13l.19.14A16.41,16.41,0,0,0,43,21.51C33.34,11.87,40.46.6,41.66,0V0C33.88,4.57,31.23,13,31,17.24c.36,0,.72,0,1.09,0a15.66,15.66,0,0,1,13.59,7.93Z" fill="url(#fb50b699-a743-4382-8f75-364c8fca8881)"/><path d="M32.1,27.07c-.05.76-2.77,3.42-3.74,3.42-8.82,0-10.24,5.33-10.24,5.33.38,4.5,3.52,8.2,7.3,10.17l.53.24.91.38a13.91,13.91,0,0,0,4,.78c15.47.72,18.46-18.49,7.31-24.07a10.71,10.71,0,0,1,7.47,1.82,15.65,15.65,0,0,0-13.59-7.92c-.37,0-.72,0-1.09,0a15.44,15.44,0,0,0-8.54,3.3c.48.4,1,.93,2.14,2,2.1,2.08,7.5,4.22,7.52,4.48Z" fill="url(#a4e9fa5c-9dab-445f-9ad7-76e5b13bc8b7)"/><path d="M32.1,27.07c-.05.76-2.77,3.42-3.74,3.42-8.82,0-10.24,5.33-10.24,5.33.38,4.5,3.52,8.2,7.3,10.17l.53.24.91.38a13.91,13.91,0,0,0,4,.78c15.47.72,18.46-18.49,7.31-24.07a10.71,10.71,0,0,1,7.47,1.82,15.65,15.65,0,0,0-13.59-7.92c-.37,0-.72,0-1.09,0a15.44,15.44,0,0,0-8.54,3.3c.48.4,1,.93,2.14,2,2.1,2.08,7.5,4.22,7.52,4.48Z" fill="url(#a18667dd-448e-4183-8c0a-2ba8a4d73091)"/><path d="M21,19.51l.64.42a14.31,14.31,0,0,1-.08-7.6,23,23,0,0,0-7.48,5.78c.16,0,4.64-.08,6.92,1.39Z" fill="url(#a5869aff-311e-4559-a35f-59743b0ce371)"/><path d="M1.3,33.76c2.4,14.14,15.21,25,29.78,25.36,13.47.38,22.08-7.45,25.63-15.07a28.06,28.06,0,0,0,1-20.94v-.06l0,.05c1.09,7.19-2.56,14.15-8.28,18.86l0,0c-11.13,9.07-21.78,5.47-23.94,4L25,45.77c-6.48-3.09-9.17-9-8.59-14.09a8,8,0,0,1-7.35-4.61,11.68,11.68,0,0,1,11.41-.46,15.48,15.48,0,0,0,11.64.46c0-.26-5.42-2.41-7.53-4.49-1.12-1.1-1.65-1.63-2.13-2a8,8,0,0,0-.8-.61c-.18-.13-.38-.26-.64-.42-2.26-1.48-6.76-1.4-6.91-1.4h0c-1.23-1.55-1.15-6.69-1.08-7.76a5.41,5.41,0,0,0-1,.54,22.27,22.27,0,0,0-3,2.61A27.66,27.66,0,0,0,6,17a26.17,26.17,0,0,0-4.16,9.39c0,.07-1.12,4.89-.58,7.39Z" fill="url(#ac8af9aa-9690-4218-a95d-d51dd66b8153)"/><path d="M43,21.51a17,17,0,0,1,2.88,3.76l.47.39c7,6.48,3.36,15.65,3.08,16.3,5.71-4.7,9.37-11.66,8.27-18.85-3.52-8.75-9.46-12.27-14.33-20-.24-.38-.48-.77-.72-1.18-.14-.24-.24-.45-.35-.64A6.2,6.2,0,0,1,41.82.09.08.08,0,0,0,41.76,0h-.08s0,0,0,0C40.45.6,33.33,11.87,43,21.51Z" fill="url(#b68b9738-57da-4b0e-b591-f55567135d6c)"/><path d="M46.33,25.66c-.14-.13-.3-.26-.47-.39l-.19-.14a10.73,10.73,0,0,0-7.48-1.82c11.16,5.59,8.16,24.82-7.3,24.08a13.85,13.85,0,0,1-4-.78c-.3-.1-.61-.23-.91-.36L25.43,46h0c2.16,1.47,12.81,5.07,24-4l0,0c.28-.64,4-9.82-3.08-16.3Z" fill="url(#a473758a-9ee5-4df0-9039-5efcfd8515f5)"/><path d="M18.11,35.82s1.44-5.33,10.25-5.33c1,0,3.68-2.66,3.74-3.44a15.42,15.42,0,0,1-11.65-.45A11.71,11.71,0,0,0,9,27.06a8,8,0,0,0,7.36,4.61c-.58,5.07,2.1,11,8.59,14.09l.43.21c-3.79-2-6.92-5.66-7.31-10.16Z" fill="url(#a90bd024-ca4d-48cc-89eb-608cfc5a7743)"/><path d="M60.75,21.49c-1.36-3.25-4.08-6.75-6.22-7.85a32.21,32.21,0,0,1,3.14,9.41v.05c-3.5-8.75-9.44-12.27-14.3-20-.26-.39-.5-.78-.74-1.19-.14-.24-.24-.45-.34-.64A5.39,5.39,0,0,1,41.82.09.08.08,0,0,0,41.76,0h-.08s0,0,0,0h0C33.87,4.57,31.22,13,31,17.24c.36,0,.72,0,1.09,0a15.65,15.65,0,0,1,13.59,7.93,10.7,10.7,0,0,0-7.47-1.81c11.16,5.59,8.16,24.82-7.3,24.08a13.91,13.91,0,0,1-4-.78c-.3-.1-.61-.23-.91-.36L25.41,46h0L25,45.78a4.37,4.37,0,0,0,.43.22c-3.79-2-6.92-5.66-7.31-10.17,0,0,1.44-5.32,10.25-5.32,1,0,3.68-2.67,3.74-3.44,0-.24-5.41-2.41-7.52-4.47-1.12-1.12-1.66-1.64-2.13-2a9.38,9.38,0,0,0-.8-.61,14.35,14.35,0,0,1-.08-7.61,23.08,23.08,0,0,0-7.48,5.78c-1.24-1.55-1.15-6.69-1.08-7.76a5.41,5.41,0,0,0-1,.54,22.92,22.92,0,0,0-3,2.6A26.7,26.7,0,0,0,6.05,17a26.19,26.19,0,0,0-4.17,9.39l-.06.21c-.06.26-.32,1.65-.36,1.95A36.79,36.79,0,0,0,1,32.86V33a31,31,0,0,0,61.6,5.25c.06-.4.1-.8.15-1.2a32,32,0,0,0-2-15.58Zm-3.08,1.6v0Z" fill="url(#fa6821d7-470a-4257-9f7f-0fb48a1ae79d)"/></g></svg>