<?xml version="1.0" encoding="UTF-8"?>
<svg width="16px" height="16px" viewBox="0 0 16 16" version="1.1" xmlns="http://www.w3.org/2000/svg" xmlns:xlink="http://www.w3.org/1999/xlink">
  <g id="html" stroke="none" stroke-width="1" fill="none" fill-rule="evenodd">
    <path d="M0.958041958,10.8181818 L0.958041958,8.38285714 L2.53846154,8.38285714 L2.53846154,10.8181818 L3.4965035,10.8181818 L3.4965035,5 L2.53846154,5 L2.53846154,7.36883117 L0.958041958,7.36883117 L0.958041958,5 L0,5 L0,10.8181818 L0.958041958,10.8181818 Z M7.21678322,10.8181818 L7.21678322,9.9038961 L6.42657343,9.9038961 L6.42657343,5.91428571 L7.09090909,5.91428571 L7.09090909,6.92 L7.86013986,6.92 L7.86013986,5 L4.02797203,5 L4.02797203,6.92 L4.7972028,6.92 L4.7972028,5.91428571 L5.46853147,5.91428571 L5.46853147,9.9038961 L4.67132867,9.9038961 L4.67132867,10.8181818 L7.21678322,10.8181818 Z M9.23076923,10.8181818 L9.23076923,7.62649351 L9.18881119,6.81194805 L9.22377622,6.81194805 L10.041958,8.33298701 L10.2097902,8.33298701 L10.993007,6.81194805 L11.034965,6.81194805 L11,7.71792208 L11,10.8181818 L11.958042,10.8181818 L11.958042,5 L10.993007,5 L10.1608392,6.61246753 L10.1328671,6.61246753 L9.29370629,5 L8.32167832,5 L8.32167832,10.8181818 L9.23076923,10.8181818 Z M16,10.8181818 L16,8.44935065 L15.1328671,8.44935065 L15.1328671,9.80415584 L13.7412587,9.80415584 L13.7412587,5 L12.7832168,5 L12.7832168,10.8181818 L16,10.8181818 Z" id="HTML" fill="var(--color-icon)" fill-rule="nonzero"></path>
    <path d="M15.3333334,14 C15.7015233,14 16,14.2238576 16,14.5 C16,14.7761424 15.7015233,15 15.3333334,15 L0.666666671,15 C0.298476835,15 0,14.7761424 0,14.5 C0,14.2238576 0.298476835,14 0.666666671,14 L15.3333334,14 Z" id="Path" fill="var(--color-icon)" fill-rule="nonzero"></path>
    <path d="M15.3333334,1 C15.7015233,1 16,1.22385763 16,1.5 C16,1.77614237 15.7015233,2 15.3333334,2 L0.666666671,2 C0.298476835,2 0,1.77614237 0,1.5 C0,1.22385763 0.298476835,1 0.666666671,1 L15.3333334,1 Z" id="Path-Copy" fill="var(--color-icon)" fill-rule="nonzero"></path>
  </g>
</svg>