<svg xmlns="http://www.w3.org/2000/svg" viewBox="0 0 16 16" width="16" height="16"><g class="nc-icon-wrapper" stroke-width="2" fill="var(--color-icon)" stroke="var(--color-icon)"><path fill="none" stroke="var(--color-icon)" stroke-linecap="round" stroke-linejoin="round" stroke-miterlimit="10" d="M2.5,10.5 c-1.105,0-2-0.895-2-2v-4c0-1.105,0.895-2,2-2h7c1.105,0,2,0.895,2,2v4c0,1.105-0.895,2-2,2h-3"/> <path data-color="color-2" fill="none" stroke-linecap="round" stroke-linejoin="round" stroke-miterlimit="10" d=" M13.5,6.5c1.105,0,2,0.895,2,2v4c0,1.105-0.895,2-2,2h-7c-1.105,0-2-0.895-2-2v-4c0-1.105,0.895-2,2-2h3"/> </g></svg>
