<svg xmlns="http://www.w3.org/2000/svg" viewBox="0 0 16 16" width="16" height="16"><g class="nc-icon-wrapper" stroke-width="1" fill="var(--accent-icon)" stroke="var(--accent-icon)"><rect x="0.5" y="3.5" width="15" height="9" fill="none" stroke="var(--color-icon)" stroke-linecap="round" stroke-linejoin="round"/> <polygon points="3.5 9.5 2.5 9.5 2.5 9.5 3.5 9.5 3.5 9.5" fill="none" stroke-linecap="round" stroke-linejoin="round" data-color="color-2"/> <polygon points="10.5 9.5 5.5 9.5 5.5 9.5 9.5 9.5 10.5 9.5" fill="none" stroke-linecap="round" stroke-linejoin="round" data-color="color-2"/> <polygon points="13.5 9.5 12.5 9.5 12.5 9.5 13.5 9.5 13.5 9.5" fill="none" stroke-linecap="round" stroke-linejoin="round" data-color="color-2"/> <polygon points="3.5 6.5 2.5 6.5 2.5 6.5 3.5 6.5 3.5 6.5" fill="none" stroke-linecap="round" stroke-linejoin="round" data-color="color-2"/> <polygon points="10.5 6.5 9.5 6.5 9.5 6.5 10.5 6.5 10.5 6.5" fill="none" stroke-linecap="round" stroke-linejoin="round" data-color="color-2"/> <polygon points="13.5 6.5 12.5 6.5 12.5 6.5 13.5 6.5 13.5 6.5" fill="none" stroke-linecap="round" stroke-linejoin="round" data-color="color-2"/> <line x1="5.5" y1="6.5" x2="6.5" y2="6.5" fill="none" stroke-linecap="round" stroke-linejoin="round" data-color="color-2"/></g></svg>