<?xml version="1.0" encoding="UTF-8"?>
<svg id="webmail-xmas"
  xmlns="http://www.w3.org/2000/svg" viewBox="0 0 640 640">
  <path d="m407.72,359.79c12.47,6.94,16.54,21.3,22.5,33.08,3.71,7.32,8.51,19,17.95,21.26,45,11,76.74-32.49,82.7-72.4,3.48-23.26-.81-57.91,29.29-63.93,16.16-3.24,37.54,16.92,23.32,31.55-1.88,1.95-4.06,3.59-6.46,4.85-2.39,1.36-5.02,2.24-7.75,2.61-8.42.84-16.41-1.12-24.2-4-21.09-7.86-28.29-31.49-35.91-50.42-2.58-6.41-6-19.92-13.24-23.57-1.8-.92-7.42.9-5.74,4,5.38,10,24.15,3.37,28.15-4.68,5.07-10.18-6.22-20.37-12.76-25.8-10.76-8.92-26.1-14-38.27-19-3.66-1.51-10.31-3.68-14.25-3.56-3.42.1-6.76.83-7.67,4.34-.62,2.43-.37,8.92,3.45,9.28,6.77.64,13.36-3.64,18-7.89,10.71-10.03,15.92-24.61,14-39.15-1.35-10.06-6.09-18.82-12-26.87-21-28.72-56.38-38.24-89.91-42.21-30.31-3.58-74.8,14.64-73.16,50.65.79,17.37,8.75,31.57,20.89,43.61,4.73,4.7,9.49,12.51,16.12,11.84,3.52-.36,7.7-4.55,6.63-8.26-2.68-9.2-18.82-5.08-24.53-3-15.75,5.76-30,17.23-33.25,34.57l.18.66c-1.27,6.31-3,12.52-4.29,18.83-1.29,6.31-2,12.47-3.14,18.68-3.62,19-9.39,48.73-33.73,50.77-4.83.52-9.71.49-14.54-.07-4.99-.75-9.88-2.09-14.55-4-5.17-2.08-19.77-7.85-25.6-14.4-4.46-5-7.35-13.09-8.14-19.3-1.24-9.72,1.37-19.17,4.55-28.18,2.1-5.6,5.12-10.81,8.92-15.42,4.46-5.05,8.37-7.84,15.15-9,19.86-3.34,32.16,31.27,16,42.22-11.46,7.78-25.92,6.33-38.81,4.38-23.29-3.51-45.18-15.18-62.25-31.18-10.8-10.13-4.17-34.64,12.35-33,6,.6,7.57,8.69,8.12,13.1,1.68,13.31-3.08,25.83-7.89,38-8.37,21.22-20.84,41.66-38.46,56.47-8.86,7.48-18.71,13.79-27.49,21.35-12.18,10.52-18.17,18.92-26.44,32.61-5,8.3-10.24,17.9-9.13,28,2.44,22.24,27.53,29.94,46.11,33,9,1.48,24.18-.06,26.93-11.29.11-1.41-.78-2.71-2.14-3.11-3.1-.66-9.3,2.68-11.3,4.68-6,6-8.85,10.7-9.83,19.3-2.23,19.7,5.16,40.61,16.1,56.73,33.26,49.08,90.31,79.91,150.25,73.5,27.83-3.04,54-14.76,74.8-33.49,6.3-5.65,14.23-14.6,15.86-23.57,1.76-9.68-3.46-18.95-14.05-19.06-18.36-.19-26.71,24.78-21.64,39.4,2.18,6.28,7.28,11.3,12.19,15.41,13.22,11.07,36.47,20.57,54,17.57,19.62-3.34,19.83-33.3,23.25-46.49,2-7.77,11.12-13.9,19.1-11.67" fill="none" stroke="#000" stroke-linecap="round" stroke-linejoin="round"/>
  <path d="m508.61,132.66c6.94,4.69,8.77,14.12,4.07,21.06-4.69,6.94-14.12,8.77-21.06,4.07-6.94-4.69-8.77-14.12-4.07-21.06.04-.06.07-.11.11-.16,4.71-6.86,14.08-8.61,20.95-3.91Z" fill="#f2af0d" fill-rule="evenodd"/>
  <path d="m488.28,144.45l-8.51,2.93-3.09,1.87,1.36,4.75h3.65l8.69-2.07m10.38-7c1,3.46-1,7.07-4.46,8.07-3.46,1-7.07-1-8.07-4.46-1-3.46,1-7.07,4.46-8.07,0,0,0,0,0,0,3.46-1,7.07,1,8.07,4.46Zm-11.86,4.92l4-.58-2.27-1.32,1.17-2.52-3.7,1.55" fill="none" stroke="#000" stroke-linecap="round" stroke-linejoin="round"/>
  <path d="m579.43,247.19c8.19-1.73,16.24,3.5,17.97,11.7,1.73,8.19-3.5,16.24-11.7,17.97-8.19,1.73-16.24-3.5-17.97-11.7,0-.04-.02-.08-.02-.12-1.67-8.15,3.57-16.12,11.72-17.8v-.05Z" fill="#ff8c00" fill-rule="evenodd"/>
  <path d="m573.79,270.04l-3.79,8.16-.8,3.52,4.37,2.32,2.53-2.64,4.53-7.69m2.14-12.35c3.18,1.68,4.4,5.63,2.71,8.81-1.68,3.18-5.63,4.4-8.81,2.71-3.18-1.68-4.4-5.63-2.71-8.81h0c1.68-3.18,5.62-4.4,8.8-2.72,0,0,0,0,.01,0Zm-4.68,11.95l2.35-3.27-2.53.72-1-2.59-1.45,3.74" fill="none" stroke="#000" stroke-linecap="round" stroke-linejoin="round"/>
  <path d="m359.63,54.04c6.32-5.5,15.9-4.84,21.4,1.48,5.5,6.32,4.84,15.9-1.48,21.4-6.32,5.5-15.9,4.84-21.4-1.48-.04-.05-.08-.09-.12-.14-5.42-6.32-4.7-15.83,1.6-21.26Z" fill="#ff8c00" fill-rule="evenodd"/>
  <path d="m365.8,76.74l.65,9,1,3.47,4.95-.1.92-3.53.23-8.93m-4.13-11.83c3.59-.08,6.57,2.78,6.65,6.37.08,3.59-2.78,6.57-6.37,6.65-3.59.08-6.57-2.78-6.65-6.37,0,0,0,0,0,0-.07-3.59,2.78-6.56,6.37-6.64Zm1.72,12.72l.46-4-1.85,1.86-2.14-1.78.55,4" fill="none" stroke="#000" stroke-linecap="round" stroke-linejoin="round"/>
  <path d="m278.38,167.65c-6.83-4.85-8.44-14.32-3.59-21.15,4.85-6.83,14.32-8.44,21.15-3.59,6.83,4.85,8.44,14.32,3.59,21.15-.05.07-.1.14-.15.21-4.88,6.71-14.26,8.22-21,3.38Z" fill="#f2af0d" fill-rule="evenodd"/>
  <path d="m299.04,156.37l8.58-2.71,3.14-1.8-1.25-4.82-3.65-.08-8.74,1.85m-10.54,6.76c-.91-3.48,1.17-7.05,4.66-7.96,3.48-.91,7.05,1.17,7.96,4.66.91,3.48-1.17,7.05-4.66,7.96,0,0,0,0,0,0-3.48.91-7.04-1.18-7.95-4.66Zm12-4.62l-4,.48,2.24,1.37-1.23,2.49,3.73-1.45" fill="none" stroke="#000" stroke-linecap="round" stroke-linejoin="round"/>
  <path d="m533.71,413.47c-.31,8.37-7.35,14.9-15.72,14.58-8.37-.31-14.9-7.35-14.58-15.72.31-8.37,7.35-14.9,15.72-14.58.05,0,.1,0,.15,0,8.32.36,14.77,7.39,14.41,15.71h.02Z" fill="#f2af0d" fill-rule="evenodd"/>
  <path d="m512.93,402.42l-7-5.67-3.22-1.63-3.31,3.67,1.94,3.09,6.36,6.28m11.45,5.09c-2.41,2.67-6.53,2.89-9.21.48-2.67-2.41-2.89-6.53-.48-9.21,2.41-2.67,6.53-2.89,9.21-.48,2.68,2.41,2.89,6.53.48,9.21,0,0,0,0,0,0Zm-10.45-7.46l2.6,3.08-.08-2.63,2.75-.34-3.27-2.32" fill="none" stroke="#000" stroke-linecap="round" stroke-linejoin="round"/>
  <path d="m413.28,428.51c-7.94-2.69-12.19-11.3-9.5-19.23,2.69-7.94,11.3-12.19,19.23-9.5s12.19,11.3,9.5,19.23c-.02.06-.04.12-.06.18-2.72,7.86-11.3,12.04-19.17,9.32Z" fill="#ff8c00" fill-rule="evenodd"/>
  <path d="m429.84,411.75l7.43-5.09,2.48-2.62-2.57-4.22-3.52,1-7.83,4.3m-8.15,9.52c-1.87-3.08-.89-7.09,2.19-8.96,3.08-1.87,7.09-.89,8.96,2.19,1.86,3.06.9,7.05-2.14,8.93-3.07,1.89-7.09.94-8.98-2.13,0,0-.01-.02-.02-.03Zm10.13-7.88l-3.69,1.61,2.54.67-.46,2.74,3.16-2.47" fill="none" stroke="#000" stroke-linecap="round" stroke-linejoin="round"/>
  <path d="m360.51,588.31c-7.61,3.49-16.62.15-20.11-7.46-3.49-7.61-.15-16.62,7.46-20.11,7.61-3.49,16.62-.15,20.11,7.46.03.06.05.12.08.17,3.41,7.59.04,16.51-7.54,19.94Z" fill="#ff8c00" fill-rule="evenodd"/>
  <path d="m361.01,564.77l1.91-8.8v-3.61l-4.77-1.3-1.87,3.13-2.74,8.5m.62,12.52c-3.48-.94-5.53-4.53-4.58-8,.94-3.47,4.53-5.53,8-4.58,3.48.94,5.53,4.53,4.58,8,0,0,0,0,0,0-.95,3.47-4.53,5.52-8,4.58Zm1.95-12.69l-1.57,3.71,2.3-1.26,1.55,2.31.59-4" fill="none" stroke="#000" stroke-linecap="round" stroke-linejoin="round"/>
  <path d="m202.65,522.04c7.83-2.99,16.6.93,19.59,8.75,2.99,7.83-.93,16.6-8.75,19.59-7.83,2.99-16.6-.93-19.59-8.75-.02-.06-.04-.12-.07-.18-2.92-7.8,1.03-16.48,8.82-19.41Z" fill="#f2af0d" fill-rule="evenodd"/>
  <path d="m200.62,545.48l-2.48,8.66-.24,3.6,4.67,1.61,2.09-3,3.29-8.3m.19-12.53c3.4,1.18,5.19,4.89,4.01,8.29-1.18,3.4-4.89,5.19-8.29,4.01s-5.19-4.89-4.01-8.29c0,0,0,0,0-.01,1.19-3.38,4.89-5.17,8.28-4Zm-2.77,12.52l1.82-3.6-2.39,1.11-1.39-2.4-.85,3.91" fill="none" stroke="#000" stroke-linecap="round" stroke-linejoin="round"/>
  <path d="m72.87,492.74c-7.24-4.22-9.69-13.5-5.47-20.74,4.22-7.24,13.5-9.69,20.74-5.47s9.69,13.5,5.47,20.74c-.03.06-.07.12-.1.17-4.24,7.16-13.48,9.53-20.64,5.3Z" fill="#ff8c00" fill-rule="evenodd"/>
  <path d="m92.41,479.62l8.3-3.5,2.95-2.08-1.68-4.65-3.64.26-8.53,2.64m-9.88,7.75c-1.23-3.38.5-7.11,3.88-8.35,3.38-1.23,7.11.5,8.35,3.88,1.23,3.38-.5,7.11-3.88,8.35-3.38,1.22-7.11-.51-8.35-3.88Zm11.5-5.71l-3.94.85,2.36,1.16-1,2.59,3.59-1.79" fill="none" stroke="#000" stroke-linecap="round" stroke-linejoin="round"/>
  <path d="m62.1,297.04c2.23-8.07,10.59-12.8,18.66-10.56,8.07,2.23,12.8,10.59,10.56,18.66-2.23,8.07-10.59,12.8-18.66,10.56-.05-.02-.11-.03-.16-.05-8.01-2.27-12.66-10.6-10.4-18.61Z" fill="#f2af0d" fill-rule="evenodd"/>
  <path d="m79.78,312.53l5.5,7.12,2.75,2.33,4.07-2.81-1.18-3.46-4.74-7.57m-10-7.58c2.96-2.04,7.01-1.3,9.06,1.66,2.04,2.96,1.3,7.01-1.66,9.06-2.95,2.04-7,1.3-9.05-1.65-2.05-2.96-1.31-7.02,1.65-9.07Zm8.45,9.66l-1.82-3.6-.52,2.58-2.76-.3,2.64,3" fill="none" stroke="#000" stroke-linecap="round" stroke-linejoin="round"/>
  <path d="m177.5,316.34c-8.22-1.63-13.56-9.61-11.93-17.83,1.63-8.22,9.61-13.56,17.83-11.93,8.22,1.63,13.56,9.61,11.93,17.83-.02.08-.03.16-.05.23-1.69,8.15-9.67,13.39-17.82,11.7h.04Z" fill="#f2af0d" fill-rule="evenodd"/>
  <path d="m191.75,297.6l6.71-6,2.13-2.92-3.09-3.85-3.36,1.42-7.22,5.26m-6.86,10.53c-2.26-2.81-1.81-6.91.99-9.17,2.81-2.26,6.91-1.81,9.17.99,2.26,2.81,1.81,6.91-.99,9.17,0,0,0,0,0,0-2.81,2.25-6.91,1.8-9.16-1Zm9-9.12l-3.46,2.07,2.61.34-.11,2.78,2.82-2.86" fill="none" stroke="#000" stroke-linecap="round" stroke-linejoin="round"/>
  <path d="m224.65,183.13c7.93-2.68,16.53,1.59,19.21,9.52,2.68,7.93-1.59,16.53-9.52,19.21-7.93,2.68-16.53-1.59-19.21-9.52-.02-.07-.05-.14-.07-.21-2.57-7.89,1.71-16.38,9.59-19Z" fill="#ff8c00" fill-rule="evenodd"/>
  <path d="m221.67,206.48l-2.82,8.56-.39,3.59,4.61,1.79,2.2-2.9,3.63-8.17m.7-12.51c3.35,1.31,5,5.08,3.69,8.43-1.31,3.35-5.08,5-8.43,3.69-3.34-1.31-5-5.07-3.7-8.42,1.31-3.35,5.08-5.02,8.44-3.71Zm-3.32,12.4l2-3.52-2.43,1-1.29-2.46-1,3.88" fill="none" stroke="#000" stroke-linecap="round" stroke-linejoin="round"/>
  <polygon points="487.31 319.53 563.64 331.4 222.13 362.87 205.87 321.04 487.31 319.53 487.31 319.53" fill="var(--accent-l25)" stroke="#000" stroke-linejoin="round"/>
  <path d="m205.9,321.13s63.89-37.9,90.58-44.26c0,0,57.15,11.61,89.26,17.89,28.84,5.63,154.13,33,184.05,36.34.4,0-363.89-10-363.89-10v.03Z" fill="var(--accent-light-icon)" stroke="#000" stroke-linejoin="round"/>
  <polyline points="400.04 309.25 404.33 353.52 461.21 348 460.71 310.98" fill="#fff" fill-rule="evenodd" stroke="#000" stroke-linecap="round" stroke-linejoin="round"/>
  <polyline points="435.37 350.15 433.93 310.34 425.95 310.23 425.88 351.22" fill="#e45548" fill-rule="evenodd" stroke="#000" stroke-linecap="round" stroke-linejoin="round"/>
  <path d="m424.47,296.19c-.65-.28-3.47-.86-8.29-7.7s-7.72-19.91-6.56-20.62l8.38-3.95,11.9,32.46-5.43-.19h0Z" fill="#e45548" fill-rule="evenodd" stroke="#000" stroke-linecap="round" stroke-linejoin="round"/>
  <path d="m430.14,296.32c-.1-.21-.3-.15-4.83-6.43-4.9-6.78-8.47-25.26-7.31-26,0,0,6.51.59,10.56,15.37" fill="#e45548" fill-rule="evenodd" stroke="#000" stroke-linecap="round" stroke-linejoin="round"/>
  <path d="m442.75,266.31l-4.47,30.49-7.89-.55c-1-.37-3.15-9.48-1.78-17.73,1.37-8.25,4.66-14.68,6-14.38l8.17,2.17" fill="#e45548" fill-rule="evenodd" stroke="#000" stroke-linecap="round" stroke-linejoin="round"/>
  <path d="m442.93,266.48c1.94.32,2.4,7.28,1,15.53-1.4,8.25-4.29,14.5-6.22,14.17-1-.37-2.16-7.07-.8-15.33s4.67-14.68,6-14.37h.02Z" fill="#e45548" fill-rule="evenodd" stroke="#000" stroke-linecap="round" stroke-linejoin="round"/>
  <polygon points="394.28 294.68 468.02 298.35 468.29 311.27 396.57 309.15 394.28 294.68 394.28 294.68" fill="#fff" fill-rule="evenodd" stroke="#000" stroke-linecap="round" stroke-linejoin="round"/>
  <polyline points="424.67 296.35 424.64 309.76 432.45 310.09 433.67 296.61" fill="#e45548" fill-rule="evenodd" stroke="#000" stroke-linecap="round" stroke-linejoin="round"/>
  <polyline points="145.03 310.27 157.35 378.07 247.59 371.69 238.31 293.06" fill="#fff" fill-rule="evenodd" stroke="#000" stroke-linecap="round" stroke-linejoin="round"/>
  <polygon points="225.63 372.8 219.02 296.25 198.56 300.07 206.03 374.63 225.63 372.8 225.63 372.8" fill="#e45548" fill-rule="evenodd" stroke="#000" stroke-linecap="round" stroke-linejoin="round"/>
  <polygon points="241.36 270.58 135.98 290.86 138.19 311.56 246.65 291.04 241.36 270.58 241.36 270.58" fill="#fff" fill-rule="evenodd" stroke="#000" stroke-linecap="round" stroke-linejoin="round"/>
  <path d="m169.28,242.04l24,37.26,12.75-2.35c-3.53-11.06-3.74-20.7-11.05-30.19-3.48-4.52-5.92-6.36-10.26-10.17,0,0-10.75,1.73-15.47,5.45h.03Z" fill="#e45548" fill-rule="evenodd" stroke="#000" stroke-linecap="round" stroke-linejoin="round"/>
  <path d="m203.6,277.31s2.51-.36-9.13,1.84c-5.12-15.43-12.83-26.89-25.23-37-3.63,14.89,11.92,30.22,22.16,38-1.58,2.65-3.17,5.31-4.52,8.08-6.18,12.73-11.24,22.58-12.48,37,4.37-3.95,8.94-7.41,13.65-10.91.34,4.92,3.77,16.86,5.41,20.34-2.34-11.67,4.73-34.88,7-43.3.88-3.31.7-8.07,3.79-9.55,10.94,6.23,17.93,23.28,23.32,33.88,2.09,4.12,4,8.32,6,12.52,0,0-.44-14-2.07-21.31,2.7,1.46,5.19,3.27,7.77,4.94,2.33,1.51,4.64,3.06,6.94,4.6-2.41-4-4.82-8-7.57-11.71-4.88-6.64-9.65-13.43-15.29-19.44-3.31-3.52-7.39-6.27-11.41-9,10.08-10.45,13.83-31.87,4.12-43.73,0,0-8.92-.3-16.43,2.3" fill="#e45548" fill-rule="evenodd" stroke="#000" stroke-linecap="round" stroke-linejoin="round"/>
  <path d="m199.28,234.83c-1.47,1.19-10,28.56,4.63,42.45,4.78-25.42-1.25-38.48-4.63-42.45Z" fill="#e45548" fill-rule="evenodd" stroke="#000" stroke-linecap="round" stroke-linejoin="round"/>
  <polygon points="268.08 205.73 328.15 204.47 336.5 345.27 280.66 350.03 268.08 205.73 268.08 205.73" fill="#fff" fill-rule="evenodd" stroke="#000" stroke-linecap="round" stroke-linejoin="round"/>
  <path d="m296.95,205.12l8.45,142.8m24.47-116.09l-58.91.22" fill="none" stroke="#000" stroke-linecap="round" stroke-linejoin="round"/>
  <polygon points="267.57 260.52 280.85 270.14 291.32 253.82 292.5 239.08 277.73 243.32 267.57 260.52 267.57 260.52" fill="#e45548" fill-rule="evenodd" stroke="#000" stroke-linecap="round" stroke-linejoin="round"/>
  <g>
    <path d="m353.84,282.99l-85.88-3.53c-5.93-.24-10.93,4.37-11.18,10.29l-2.8,67.99c-.24,5.93,4.37,10.93,10.29,11.18l85.88,3.53c5.93.24,10.93-4.37,11.18-10.29l2.8-67.99c.24-5.93-4.37-10.93-10.29-11.18Z" fill="var(--accent-icon)" stroke="#000" stroke-miterlimit="10"/>
    <path d="m352.14,295.9l-41.41,33.12-38.55-36.41c-.72-.68-1.85-.65-2.53.07-.68.72-.65,1.85.07,2.53l39.68,37.48c.65.61,1.65.65,2.35.1l42.62-34.09c.77-.62.9-1.74.28-2.52-.62-.77-1.74-.9-2.52-.28Z" fill="#fff"/>
  </g>
  <path d="m287.41,245.04c1.41.87,1.85,2.72.98,4.13-.81,1.32-2.5,1.8-3.89,1.11-1.41-.87-1.85-2.72-.98-4.13.81-1.32,2.5-1.8,3.89-1.11Z" fill="#fef8e8" fill-rule="evenodd" stroke="#000" stroke-linecap="round" stroke-linejoin="round"/>
  <path d="m288.38,248.65c-.25-.09-.49-.2-.72-.32-3.34-1.86-3.8-7.42-1-12.41s7.74-7.54,11.08-5.68,3.8,7.41,1,12.4c-1.44,2.81-3.9,4.96-6.88,6" fill="none" stroke="#000" stroke-linecap="round" stroke-linejoin="round"/>
  <path d="m338.99,247.3c9.84-2.12,18.72.28,19.82,5.38,1.1,5.1-6,10.95-15.82,13.08-9.82,2.13-18.71-.28-19.81-5.37-1.1-5.09,6-11,15.81-13.09h0Z" fill="#fff" fill-rule="evenodd" stroke="#000" stroke-linecap="round" stroke-linejoin="round"/>
  <path d="m394.49,348.51c1.11,5.09-4.44,10.62-12.38,12.34-7.94,1.72-14.65-1.21-17.29-6.12" fill="#fff" fill-rule="evenodd" stroke="#000" stroke-linecap="round" stroke-linejoin="round"/>
  <path d="m377.85,303.4l2.49,6.81s20.31,14,20.43,13.9c1.42-1.28,3.69-3.17,5.07-4.5l-.17-.32c-.81-1.13-1.47-2.36-2.28-3.49-.99-1.34-2.05-2.62-3.18-3.84-.71-.79-1.36-1.65-2.14-2.39-1.23-1.18-2.57-2.25-4-3.19-2.47-1.65-5.29-2.72-8.23-3.14-1.95-.27-6.08-.42-8,.16h.01Z" fill="#e45548" fill-rule="evenodd" stroke="#000" stroke-linecap="round" stroke-linejoin="round"/>
  <path d="m380.66,310.27c3.19,4.6,7.48,8.33,12.47,10.86,2.45,1.16,4.96,2.17,7.54,3-.79-2-1.92-3.86-3.32-5.49-3.47-4.49-8.07-8.5-14.07-8.6-.85-.04-1.7.01-2.54.17" fill="#e45548" fill-rule="evenodd" stroke="#000" stroke-linecap="round" stroke-linejoin="round"/>
  <path d="m390.28,282.9l-12.57,19.89-1.15-2.55c-.6-3.8-.84-8.26.43-12,1.36-4.05,4.7-8.24,9.23-8.67,0,0,.73.53,1.09.81,1.07.76,2.08,1.61,3,2.55l-.03-.03Z" fill="#e45548" fill-rule="evenodd" stroke="#000" stroke-linecap="round" stroke-linejoin="round"/>
  <path d="m390.28,282.9c-.26-1.22-5.2,2.5-7.1,5.55-2.59,4.16-4.87,12.41-5.07,14.68,0,0,9.23-9.5,10.34-11,2.4-3.18,2.09-8.05,1.83-9.26v.03Z" fill="#e45548" fill-rule="evenodd" stroke="#000" stroke-linecap="round" stroke-linejoin="round"/>
  <polyline points="358.86 252.77 394.44 348.35 364.82 354.57 323.56 261.59" fill="#fff" fill-rule="evenodd" stroke="#000" stroke-linecap="round" stroke-linejoin="round"/>
  <path d="m378.43,312.04c-1.44.54-10.14,3.85-11.64,4.17-3.36.71-6.76,1.18-10.18,1.41-2.65.33-5.33.45-8,.36l-6.83-15.04c2,0,4.54-.39,6.55-.55,5.5-.43,18.58-3.37,23.85-5.14l6.25,14.79Z" fill="#e45548" fill-rule="evenodd" stroke="#000" stroke-linecap="round" stroke-linejoin="round"/>
  <path d="m345.88,311.46c10,1.39,19.53-2.67,28.6-6.32" fill="none" stroke="#000" stroke-linecap="round" stroke-linejoin="round"/>
  <path d="m379.77,309.04c1.39,5.15-1.49,10.37-3.76,14.86-.82,1.61-1.72,3.18-2.62,4.75.07-1.76.15-3.52.06-5.28-.03-.72-.19-1.42-.46-2.09-2.35.43-7.24,1.93-7.24,1.93.48-.36.94-.76,1.36-1.19.47-.52.91-1.06,1.32-1.63.9-1.24,1.83-2.47,2.63-3.78,2.48-4,2.86-7.16,3.44-11.68-2.12-.43-4.26-.68-6.42-.76-2.94.04-5.88.26-8.79.65,0,0,3.25-4.23,5.6-5.66-2.16-1.42-4.42-2.67-6.78-3.73,0,0,12.32-.41,17.42,2.73l4.24,10.88Z" fill="#e45548" fill-rule="evenodd" stroke="#000" stroke-linecap="round" stroke-linejoin="round"/>
  <path d="m125.88,416.51l25.86,51.53c3.72,7.46,12.44,10.95,20.28,8.13,0,0,398.55-145.13,397.77-145.07l-193.63,24.25-250.28,61.16Z" fill="var(--accent-l25)" stroke="#000" stroke-linejoin="round"/>
  <path d="m143.91,351.53s-54.63,38.09-94.25,70.68c-5.27,4.33-1.18,12.88,5.49,11.49,95.8-20.1,515-102.62,514.64-102.6l-425.88,20.43Z" fill="var(--accent-light-icon)" stroke="#000" stroke-linejoin="round"/>
</svg>