<?xml version="1.0" encoding="UTF-8"?>
<svg id="mtm"
  xmlns="http://www.w3.org/2000/svg" viewBox="0 0 640 640">
  <g>
    <path d="m394.26,403.95v80.92c0,11.25-54.25,20.38-121.18,20.38s-121.18-9.12-121.18-20.38v-80.92h242.35Z" fill="var(--accent-l25)" stroke="#000" stroke-miterlimit="10"/>
    <ellipse cx="273.08" cy="403.95" rx="121.18" ry="20.38" fill="var(--accent-light-icon)" stroke="#000" stroke-miterlimit="10"/>
    <path d="m384.28,326.74v71.29c0,9.92-49.79,17.95-111.2,17.95s-111.2-8.04-111.2-17.95v-71.29h222.4Z" fill="var(--accent-l15)" stroke="#000" stroke-miterlimit="10"/>
    <path d="m394.26,303.63v80.92c0,11.25-54.25,20.38-121.18,20.38s-121.18-9.12-121.18-20.38v-80.92h242.35Z" fill="var(--accent-l25)" stroke="#000" stroke-miterlimit="10"/>
    <ellipse cx="273.08" cy="303.63" rx="121.18" ry="20.38" fill="var(--accent-light-icon)" stroke="#000" stroke-miterlimit="10"/>
    <path d="m384.28,226.42v71.29c0,9.92-49.79,17.95-111.2,17.95s-111.2-8.04-111.2-17.95v-71.29h222.4Z" fill="var(--accent-l15)" stroke="#000" stroke-miterlimit="10"/>
    <path d="m394.26,200.37v80.92c0,11.25-54.25,20.38-121.18,20.38s-121.18-9.12-121.18-20.38v-80.92h242.35Z" fill="var(--accent-l25)" stroke="#000" stroke-miterlimit="10"/>
    <ellipse cx="273.08" cy="200.37" rx="121.18" ry="20.38" fill="var(--accent-light-icon)" stroke="#000" stroke-miterlimit="10"/>
  </g>
  <path d="m579.65,209.13c-3.79-11.15-14.16-18.71-25.9-18.95-.41-11.48-8.13-21.55-19.35-25.18-.62-.2-1.27-.39-1.97-.56,1.07-15.67-8.82-30.01-24.19-34.98-3.57-1.15-7.25-1.74-10.95-1.74-12.65,0-24.02,6.62-29.99,17.36-8.12-23.1-29.83-38.53-54.42-38.53-31.81,0-57.69,25.88-57.69,57.69,0,3.12.27,6.3.79,9.46-2.96-.78-6.01-1.18-9.07-1.18-19.51,0-35.39,15.88-35.39,35.39,0,.48.02.95.04,1.42.75,19.05,16.28,33.98,35.36,33.98h73.88v18.28s-7.39,0-7.39,0c-4.81,0-7.62,5.42-4.86,9.35l19.89,28.31c2.36,3.36,7.35,3.36,9.71,0l19.89-28.31c2.76-3.93-.05-9.35-4.86-9.35h-7.39v-18.28s.03,0,.03,0v-14.39h-7.39c-4.81,0-7.62-5.42-4.86-9.35l19.89-28.31c2.36-3.36,7.35-3.36,9.71,0l19.89,28.31c2.76,3.93-.05,9.35-4.86,9.35h-7.39s0,14.39,0,14.39h94.52s.11-.06.11-.06c9.66-4.74,15.67-14.36,15.67-25.11,0-3.07-.5-6.1-1.49-9Z" fill="var(--accent-light-icon)" stroke="#000" stroke-miterlimit="10"/>
  <g>
    <g>
      <path d="m513.01,397.18h-92.23c-6.36,0-11.52,5.16-11.53,11.53v73.02c0,6.36,5.16,11.52,11.53,11.53h92.23c6.36,0,11.52-5.16,11.53-11.53v-73.02c0-6.36-5.16-11.52-11.53-11.53Z" fill="var(--accent-light-icon)" stroke="#000" stroke-miterlimit="10"/>
      <path d="m511.75,411.1l-42.93,37.33-42.93-37.33c-.8-.7-2.02-.61-2.71.19-.7.8-.61,2.02.19,2.71l44.19,38.43c.72.63,1.8.63,2.52,0l44.19-38.43c.8-.7.89-1.91.19-2.71-.7-.8-1.91-.89-2.71-.19Z" fill="#fff"/>
    </g>
    <g>
      <path d="m491.55,429.37h-92.23c-6.36,0-11.52,5.16-11.53,11.53v73.02c0,6.36,5.16,11.52,11.53,11.53h92.23c6.36,0,11.52-5.16,11.53-11.53v-73.02c0-6.36-5.16-11.52-11.53-11.53Z" fill="var(--accent-l15)" stroke="#000" stroke-miterlimit="10"/>
      <path d="m490.29,443.29l-42.93,37.33-42.93-37.33c-.8-.7-2.02-.61-2.71.19-.7.8-.61,2.02.19,2.71l44.19,38.43c.72.63,1.8.63,2.52,0l44.19-38.43c.8-.7.89-1.91.19-2.71-.7-.8-1.91-.89-2.71-.19Z" fill="#fff"/>
    </g>
    <g>
      <path d="m470.09,461.56h-92.23c-6.36,0-11.52,5.16-11.53,11.53v73.02c0,6.36,5.16,11.52,11.53,11.53h92.23c6.36,0,11.52-5.16,11.53-11.53v-73.02c0-6.36-5.16-11.52-11.53-11.53Z" fill="var(--accent-icon)" stroke="#000" stroke-miterlimit="10"/>
      <path d="m468.83,475.48l-42.93,37.33-42.93-37.33c-.8-.7-2.02-.61-2.71.19-.7.8-.61,2.02.19,2.71l44.19,38.43c.72.63,1.8.63,2.52,0l44.19-38.43c.8-.7.89-1.91.19-2.71-.7-.8-1.91-.89-2.71-.19Z" fill="#fff"/>
    </g>
  </g>
  <g>
    <path d="m152.54,69.22c47.95,0,86.82,38.87,86.82,86.82s-38.87,86.82-86.82,86.82c-47.95,0-86.82-38.87-86.82-86.82s38.87-86.82,86.82-86.82Z" fill="var(--accent-light-icon)" stroke="#000" stroke-miterlimit="10"/>
    <path d="m58.87,155.34v-2.77l13.71.14v2.74c-.38,44.15,35.1,80.24,79.25,80.62,20.93.18,41.08-7.85,56.15-22.37l-11.94-.07.14-13.71,33.97.14-.29,34.02-13.71-.14.07-9.37c-17.5,16.27-40.55,25.26-64.46,25.12-51.66-.35-93.33-42.72-92.91-94.38h0Z" fill="var(--accent-icon)" stroke="#000" stroke-miterlimit="10"/>
    <path d="m231.96,158.63v-2.8c-.07-44.13-35.89-79.85-80.02-79.78-20.43.03-40.08,7.89-54.9,21.96h11.81l.07,13.7-33.97.07-.07-34.04h13.7v9.43c17.24-15.8,39.74-24.64,63.13-24.8,51.66-.14,93.82,41.81,93.88,93.4v2.8l-13.63.07Z" fill="var(--accent-icon)" stroke="#000" stroke-miterlimit="10"/>
    <rect x="121.36" y="122.67" width="62.37" height="3.79" rx="1.82" ry="1.82" transform="translate(27.98 277.11) rotate(-90)" fill="var(--accent-icon)"/>
    <rect x="147.02" y="168.85" width="45.81" height="3.79" rx="1.9" ry="1.9" transform="translate(153.2 -69.56) rotate(40.88)" fill="var(--accent-icon)"/>
    <path d="m152.54,163.66c-4.19-.03-7.56-3.45-7.52-7.64.03-4.19,3.45-7.56,7.64-7.52,4.15.03,7.51,3.4,7.53,7.55-.06,4.19-3.45,7.57-7.64,7.62h0Z" fill="#fff" stroke="#000" stroke-linejoin="round"/>
  </g>
  <g>
    <path d="m193.04,461.76h-9s3.86,8.51,3.86,8.51c-.5,2.46-2.92,4.46-5.4,4.46s-9.46-2-8.96-4.46l-.64-8.51h-33.84s3.86,8.51,3.86,8.51c-.5,2.46-2.92,4.46-5.4,4.46s-9.46-2-8.96-4.46l-.64-8.51h-6.85c-4.97,0-9.8,4-10.8,8.93l-11.74,58.02c-.99,4.93,2.22,8.92,7.19,8.93h71.96c4.97,0,9.8-4,10.8-8.93l11.74-58.02c.99-4.93-2.22-8.92-7.19-8.93Z" fill="var(--accent-l15)" stroke="#000" stroke-miterlimit="10"/>
    <path d="m113.05,470.12l14.5,58.51c1.24,4.97,6.26,9,11.23,9h71.96c4.96,0,7.99-4.03,6.77-9l-14.5-58.51c-1.24-4.97-6.26-9-11.23-9h-9s1.86,7.5,1.86,7.5c.61,2.48-.9,4.5-3.38,4.5s-5-2.02-5.61-4.5l-1.86-7.5h-35.98s1.86,7.5,1.86,7.5c.61,2.48-.9,4.5-3.38,4.5-2.48,0-5-2.02-5.61-4.5l-1.86-7.5h-9c-4.96,0-7.99,4.03-6.77,9Z" fill="var(--accent-light-icon)" stroke="#000" stroke-miterlimit="10"/>
    <path d="m138.02,534.63c-3.31,0-6.66-2.69-7.48-6l-11.15-45.01h83.96s11.15,45.01,11.15,45.01c.82,3.31-1.2,6-4.51,6h-71.96Z" fill="#fff"/>
    <path d="m180.51,470.12c.83,0,1.34-.53,1.15-1.19l-3.79-13.08c-.19-.66-1.02-1.19-1.84-1.19s-1.34.53-1.15,1.19l3.79,13.08c.19.66,1.02,1.19,1.84,1.19Z" fill="var(--accent-icon)"/>
    <path d="m135.54,470.12c.83,0,1.34-.53,1.15-1.19l-3.79-13.08c-.19-.66-1.02-1.19-1.84-1.19s-1.34.53-1.15,1.19l3.79,13.08c.19.66,1.02,1.19,1.84,1.19Z" fill="var(--accent-icon)"/>
    <g>
      <path d="m153.89,523.36l-1.21-3.14h7.05l-8.39-21.69h-5.6l-.95-2.45c1.32-.25,2.44-.55,3.35-.9.91-.35,1.69-.78,2.33-1.27h3.04l10.18,26.31h6.37l1.21,3.14h-17.38Z" fill="var(--accent-icon)"/>
      <path d="m185.59,523.91c-1.22,0-2.39-.12-3.49-.35-1.1-.23-2.14-.53-3.1-.9-.96-.37-1.87-.79-2.71-1.27-.84-.48-1.63-.98-2.34-1.5l.97-2.49c1.25.89,2.62,1.68,4.12,2.35,1.5.68,3.15,1.02,4.96,1.02.93,0,1.75-.16,2.44-.48.7-.32,1.24-.78,1.62-1.36s.59-1.29.63-2.12c.03-.83-.15-1.75-.54-2.77-.79-2.03-2-3.62-3.63-4.75-1.63-1.14-3.45-1.71-5.44-1.71-1.06,0-1.91.15-2.55.46-.64.31-1.31.76-2.02,1.34l-2.63-1.29-4.47-14.17h15.4l1.27,3.28h-11.93l2.55,8.72c.6-.37,1.22-.66,1.88-.88.66-.21,1.45-.32,2.39-.32,1.32,0,2.63.18,3.93.55,1.3.37,2.53.93,3.69,1.68,1.16.75,2.21,1.71,3.16,2.86.95,1.15,1.73,2.53,2.35,4.13.62,1.6.88,3.02.77,4.25-.1,1.23-.47,2.27-1.11,3.11-.64.85-1.49,1.49-2.56,1.94-1.07.45-2.28.67-3.63.67Z" fill="var(--accent-icon)"/>
    </g>
  </g>
</svg>