<?xml version="1.0" encoding="UTF-8"?>
<svg id="webmail"
  xmlns="http://www.w3.org/2000/svg" viewBox="0 0 640 640">
  <g>
    <polygon points="507.88 203.72 591.91 206.37 227.22 285.89 204.08 242.87 507.88 203.72 507.88 203.72" fill="var(--accent-l25)" stroke="#000" stroke-linejoin="round"/>
    <path d="m204.13,242.96s63.96-49.46,91.94-59.88c0,0,63.28,4.92,98.8,7.42,31.9,2.24,170.88,15.1,203.65,14.72.43-.05-394.39,37.71-394.39,37.71v.03Z" fill="var(--accent-light-icon)" stroke="#000" stroke-linejoin="round"/>
  </g>
  <g>
    <path d="m200.47,201.77l-6.95,5.92,4.93,5.79c1.63,1.91,1.4,4.8-.52,6.43s-4.8,1.4-6.43-.52l-4.93-5.79-27.78,23.66,4.93,5.79c1.63,1.91,1.4,4.8-.52,6.43-1.91,1.63-4.8,1.4-6.43-.52l-4.93-5.79-6.95,5.92c-3.83,3.27-4.29,9.02-1.03,12.86l38.45,45.15c3.27,3.83,9.02,4.29,12.86,1.03l55.57-47.33c3.83-3.27,4.29-9.02,1.03-12.86l-38.45-45.15c-3.27-3.83-9.02-4.29-12.86-1.03Z" fill="var(--accent-light-icon)" stroke="#000" stroke-linejoin="round"/>
    <path d="m248.79,258.5c2.56-2.18,2.86-6.02.69-8.57l-29.58-34.73-64.83,55.21,29.58,34.73c2.18,2.56,6.02,2.86,8.57.69l55.57-47.33Z" fill="#fff"/>
    <path d="m191.76,297.08l11.58-9.86c.64-.54.72-1.5.17-2.14l-7.89-9.26c-.54-.64-1.5-.72-2.14-.17l-11.58,9.86c-.64.54-.72,1.5-.17,2.14l7.89,9.26c.54.64,1.5.72,2.14.17Z" fill="var(--accent-l25)"/>
    <path d="m177.96,280.87l11.58-9.86c.64-.54.72-1.5.17-2.14l-7.89-9.26c-.54-.64-1.5-.72-2.14-.17l-11.58,9.86c-.64.54-.72,1.5-.17,2.14l7.89,9.26c.54.64,1.5.72,2.14.17Z" fill="var(--accent-l25)"/>
    <path d="m210.28,281.3l11.58-9.86c.64-.54.72-1.5.17-2.14l-7.89-9.26c-.54-.64-1.5-.72-2.14-.17l-11.58,9.86c-.64.54-.72,1.5-.17,2.14l7.89,9.26c.54.64,1.5.72,2.14.17Z" fill="var(--accent-l25)"/>
    <path d="m196.48,265.1l11.58-9.86c.64-.54.72-1.5.17-2.14l-7.89-9.26c-.54-.64-1.5-.72-2.14-.17l-11.58,9.86c-.64.54-.72,1.5-.17,2.14l7.89,9.26c.54.64,1.5.72,2.14.17Z" fill="var(--accent-l25)"/>
    <path d="m215,249.32l11.58-9.86c.64-.54.72-1.5.17-2.14l-7.89-9.26c-.54-.64-1.5-.72-2.14-.17l-11.58,9.86c-.64.54-.72,1.5-.17,2.14l7.89,9.26c.54.64,1.5.72,2.14.17Z" fill="var(--accent-icon)"/>
    <path d="m161.24,247.17c-.64.54-1.6.47-2.14-.17l-10.85-12.73c-.54-.64-.47-1.6.17-2.14s1.6-.47,2.14.17l10.85,12.73c.54.64.47,1.6-.17,2.14Z" fill="var(--accent-icon)"/>
    <path d="m195.97,217.59c-.64.54-1.6.47-2.14-.17l-10.85-12.73c-.54-.64-.47-1.6.17-2.14s1.6-.47,2.14.17l10.85,12.73c.54.64.47,1.6-.17,2.14Z" fill="var(--accent-icon)"/>
  </g>
  <g>
    <g>
      <path d="m293.2,145.33l-3.77,1.98-7.93-15.08,3.77-1.98c.69-.36,1.55-.1,1.92.6l6.61,12.56c.36.69.1,1.55-.6,1.92Z" fill="var(--accent-icon)"/>
      <path d="m303.78,165.44l-3.77,1.98-7.93-15.08,3.77-1.98c.69-.36,1.55-.1,1.92.6l6.61,12.56c.36.69.1,1.55-.6,1.92Z" fill="var(--accent-icon)"/>
      <path d="m267.85,128.19l-46.26,24.34,40.98,77.9,46.26-24.34c3.59-1.89,5.03-6.24,3.21-9.71l-34.37-65.34c-1.82-3.46-6.22-4.75-9.82-2.86Z" fill="#fff" stroke="#000" stroke-linejoin="round"/>
      <path d="m222.93,151.82l-7.54,3.97c-1.39.73-1.92,2.45-1.19,3.83l38.34,72.88c.73,1.39,2.45,1.92,3.83,1.19l7.54-3.97-40.98-77.9Z" fill="var(--accent-l25)" stroke="#000" stroke-linejoin="round"/>
    </g>
    <g>
      <path d="m271.69,177.52l-5.03,2.64c-6.24,3.28-8.64,11.02-5.36,17.26.36.69,1.22.96,1.92.6l25.13-13.22c.69-.37.96-1.22.6-1.92-3.28-6.23-11.02-8.64-17.26-5.36Z" fill="var(--accent-icon)"/>
      <path d="m267.2,175.08c3.46-1.82,4.8-6.12,2.98-9.59-1.82-3.46-6.12-4.8-9.59-2.98s-4.8,6.12-2.98,9.59c1.82,3.46,6.12,4.8,9.59,2.98Z" fill="var(--accent-icon)"/>
    </g>
  </g>
  <g>
    <path d="m403.18,167.33l-93.24,7.63c-6.43.53-11.22,6.17-10.7,12.61l6.04,73.81c.53,6.43,6.17,11.22,12.61,10.7l93.24-7.63c6.43-.53,11.22-6.17,10.7-12.61l-6.04-73.81c-.53-6.43-6.17-11.22-12.61-10.7Z" fill="var(--accent-icon)" stroke="#000" stroke-miterlimit="10"/>
    <path d="m403.06,181.51l-40.31,41.29-46.49-34.19c-.87-.64-2.09-.45-2.73.42-.64.87-.45,2.09.42,2.73l47.86,35.19c.78.58,1.87.49,2.55-.21l41.5-42.51c.75-.77.74-2-.03-2.76-.77-.75-2-.74-2.76.03Z" fill="#fff"/>
  </g>
  <g>
    <path d="m130.41,356.66l34.8,52.21c5.01,7.56,14.89,10.17,22.99,6.08,0,0,411.15-209.9,410.31-209.73l-205.92,52.01-262.19,99.43Z" fill="var(--accent-l25)" stroke="#000" stroke-linejoin="round"/>
    <path d="m141.22,284.07s-53.93,48.43-92.38,88.91c-5.12,5.38.44,14.07,7.46,11.68,100.8-34.48,542.6-179.5,542.21-179.43l-457.29,78.84Z" fill="var(--accent-light-icon)" stroke="#000" stroke-linejoin="round"/>
  </g>
  <g>
    <circle cx="381.97" cy="309.11" r="12.91" fill="var(--accent-icon)" stroke="#000" stroke-miterlimit="10"/>
    <circle cx="415.39" cy="301.07" r="9.11" fill="var(--accent-icon)" stroke="#000" stroke-miterlimit="10"/>
    <rect x="380.81" y="319.92" width="63.78" height="54.66" rx="9.11" ry="9.11" transform="translate(-93.42 160.85) rotate(-19.86)" fill="var(--accent-l25)" stroke="#000" stroke-miterlimit="10"/>
    <path d="m460.01,306.16c-.53-.09-1.08.11-1.43.52l-16.31,19.66,6.54,18.1,25.1,4.7c.82.15,1.62-.39,1.77-1.21.05-.27.03-.54-.06-.8l-14.44-39.99c-.18-.51-.63-.89-1.16-.98Z" fill="var(--accent-l25)" stroke="#000" stroke-miterlimit="10"/>
  </g>
  <g>
    <g>
      <path d="m353.21,348.99l-9.58-.28-.88,30.35c-.16,5.29-4.57,9.45-9.86,9.31l-28.55-.83-13.1,10.81,29.63.86,21.49,16.31c.26.2.59.32.92.33.25,0,.51-.05.74-.15.54-.26.89-.8.91-1.4l.42-14.38,6.39.19c3.53.1,6.47-2.67,6.57-6.2l1.11-38.34c.1-3.53-2.67-6.47-6.2-6.57Z" fill="var(--accent-l25)" stroke="#000" stroke-linejoin="round"/>
      <path d="m338.87,332.15l-67.09-1.95c-3.53-.1-6.47,2.67-6.57,6.2l-1.3,44.72c-.1,3.53,2.67,6.47,6.2,6.57l9.58.28-.6,20.76c-.02.63.33,1.21.9,1.48.2.1.43.16.66.16.39.01.76-.12,1.06-.36l25.74-21.24,29.75.86c3.53.1,6.47-2.67,6.57-6.2l1.3-44.72c.1-3.53-2.67-6.47-6.2-6.57Z" fill="#fff" stroke="#000" stroke-linejoin="round"/>
    </g>
    <g>
      <rect x="273.2" y="348.44" width="63.17" height="3.04" rx="1.44" ry="1.44" transform="translate(10.29 -8.7) rotate(1.66)" fill="var(--accent-icon)"/>
      <rect x="272.57" y="369.77" width="30.72" height="3.04" rx="1" ry="1" transform="translate(10.9 -8.2) rotate(1.66)" fill="var(--accent-icon)"/>
      <rect x="272.89" y="359.14" width="49.18" height="3.04" rx="1.27" ry="1.27" transform="translate(10.6 -8.49) rotate(1.66)" fill="var(--accent-icon)"/>
    </g>
  </g>
</svg>