<?xml version="1.0" encoding="UTF-8"?>
<svg id="mtm-xmas"
  xmlns="http://www.w3.org/2000/svg" viewBox="0 0 640 640">
  <g>
    <path d="m279.34,515.45c1.25,1.51,18.16,22.58,10.62,42.47-8.44,22.26-41.3,26.57-62.52,20.05-23.37-7.17-44.66-31.15-40.11-50.73,2.73-11.75,15.15-23.54,24.77-21.23,9.28,2.23,14.19,17.15,12.98,28.31-2.14,19.68-24.1,34.67-43.65,37.75-27.28,4.3-51.76-14.28-63.7-33.03-2.62-4.11-16.39-25.47-10.62-49.55,6.16-25.7,27.68-25.75,42.47-58.98,4.34-9.76,11.5-25.85,7.08-44.83-5.66-24.28-26.44-36.84-31.85-40.11-21.71-13.13-57.36-19.51-76.68-1.18-9.4,8.92-17.17,25.82-10.62,36.57,6.82,11.19,27.37,12.81,40.11,5.9,22.78-12.36,29.56-56.91,14.16-84.94-10.33-18.78-23.84-17.82-40.11-46.01-6.14-10.63-12.32-21.67-11.8-36.57.74-21.17,14.52-35.57,18.87-40.11,18.89-19.73,38.38-32.54,61.78-27.23,5.35,1.21,20.68,6.72,22.85,21.23,1.47,9.84-5.92,19.35-13.34,23.59-12.97,7.42-22.95,4.52-33.11-3.54-18.13-14.38-5.67-39.29.74-56.52,12.5-33.6,52.75-59.69,82.58-51.91,33.22,8.67,34.29,35.64,68.14,36.62,2.89.08,12.04.01,20.05-5.9,10.55-7.78,19.55-25.97,10.62-38.93-7.09-10.28-23.73-14.71-34.21-7.08-11.16,8.13-10.49,26.4-3.54,35.39,11.29,14.61,47.55,29.12,66.34,16.46,15.41-10.38,32.05-32.03,25.95-50.73-3.73-11.45-16.4-23.04-25.95-20.05-7.09,2.22-11.23,12.08-10.62,20.05,1.11,14.56,17.91,21.56,20.05,22.41,16.58,6.63,37.43-.2,48.37-12.98,9.59-11.2,4.33-18.51,14.16-30.67,12.67-15.68,33.27-18.19,38.93-18.87,30.22-3.68,52.07,14.76,55.44,17.7,4.77,4.16,32.92,29.81,24.77,61.34-5.11,19.78-25.03,43.93-47.19,38.93-18.2-4.1-31.97-26.53-27.13-44.83,6.15-23.28,38.86-26.44,46.01-27.13,37.58-3.63,63.99,25.92,66.06,28.31,25,28.88,21.75,65.59,17.7,82.58-6.66,27.94-44.5,63.22-72.47,67.24-13.74,1.98-32.02-5.58-34.21-17.7-2.22-12.24,12.36-27.06,25.95-28.31,22.41-2.06,64.24,21.22,85.45,56.62,4.51,7.53,10.77,37.61-3.54,61.34-8.51,14.12-17.61,13.99-30.67,34.21-4.57,7.07-11.59,17.95-14.16,33.03-.98,5.78-5.31,35.69,12.98,55.44,17.76,19.19,51.54,23.05,81.4,7.08" fill="none" fill-rule="evenodd" stroke="#000" stroke-linecap="round" stroke-linejoin="round"/>
    <g>
      <path d="m351.84,31.35c-7.86,3.37-11.51,12.48-8.13,20.35s12.48,11.51,20.35,8.13c7.86-3.37,11.51-12.48,8.13-20.35-.04-.07-.06-.15-.11-.23-3.45-7.73-12.48-11.25-20.25-7.91h0Z" fill="#ff8c00" fill-rule="evenodd"/>
      <path d="m366.49,54.19l8.31,3.71,3.65.7,2.26-4.52-2.74-2.47-7.96-4.55m-12.62-1.89c1.66-3.27,5.67-4.58,8.94-2.92,3.27,1.66,4.58,5.67,2.92,8.94s-5.64,4.57-8.91,2.92c-3.28-1.65-4.6-5.64-2.94-8.93v-.02s0,0,0,0Zm12.28,4.45l-3.42-2.25.71,2.75-2.53.9,3.89,1.33" fill="none" stroke="#000" stroke-linecap="round" stroke-linejoin="round" stroke-width="1.04"/>
    </g>
    <g>
      <path d="m308.77,158.64c8.42,1.45,16.44-4.21,17.88-12.64,1.45-8.43-4.2-16.44-12.63-17.89-8.42-1.45-16.44,4.21-17.88,12.64-.02.08-.03.16-.04.25-1.31,8.36,4.33,16.22,12.67,17.63h0Z" fill="#f2af0d" fill-rule="evenodd"/>
      <path d="m308.93,131.55l-4.95-7.64-2.68-2.6-4.37,2.56.96,3.55,4.2,8.16m9.51,8.46c-3.18,1.84-7.25.74-9.07-2.43s-.74-7.25,2.44-9.08c3.17-1.82,7.21-.76,9.05,2.4,1.84,3.17.77,7.25-2.39,9.09h-.02s0,.04,0,.04h-.01Zm-7.9-10.41l1.64,3.74.93-2.69,2.61.58-2.53-3.23" fill="none" stroke="#000" stroke-linecap="round" stroke-linejoin="round" stroke-width="1.04"/>
    </g>
    <g>
      <path d="m86.71,420.08c8.49,1.18,16.32-4.75,17.51-13.24,1.18-8.49-4.75-16.32-13.24-17.51-8.49-1.18-16.32,4.75-17.51,13.24-.02.07-.02.15-.03.21-1.12,8.44,4.82,16.18,13.27,17.28h0Z" fill="#ff8c00" fill-rule="evenodd"/>
      <path d="m85.94,392.93l-5.19-7.5-2.77-2.48-4.27,2.69,1.07,3.54,4.46,8.04m9.8,8.15c-3.11,1.95-7.22,1.01-9.18-2.11-1.95-3.11-1.01-7.22,2.11-9.18,3.11-1.95,7.21-1.01,9.16,2.09,1.97,3.09,1.06,7.19-2.02,9.16l-.06.04Zm-8.24-10.19l1.75,3.7.83-2.71,2.63.55-2.63-3.16" fill="none" stroke="#000" stroke-linecap="round" stroke-linejoin="round" stroke-width="1.04"/>
    </g>
    <g>
      <path d="m152.37,52.29c-7.9-3.31-16.98.41-20.28,8.31-3.31,7.9.41,16.98,8.31,20.28s16.98-.41,20.28-8.31c.02-.04.04-.1.05-.14,3.28-7.8-.39-16.79-8.19-20.07-.05-.02-.12-.04-.17-.07h0Z" fill="#ff8c00" fill-rule="evenodd"/>
      <path d="m146.13,78.71l3.08,8.6,2.03,3.14,4.8-1.48-.16-3.65-2.24-8.92m-7.34-10.52c3.52-1.1,7.25.87,8.34,4.38,1.1,3.52-.87,7.25-4.38,8.34-3.52,1.1-7.25-.87-8.34-4.38v-.02c-1.1-3.51.86-7.23,4.36-8.32,0,0,.02,0,.02,0Zm5.32,12l-.74-4.04-1.5,2.41-2.4-1.21,1.73,3.75" fill="none" stroke="#000" stroke-linecap="round" stroke-linejoin="round" stroke-width="1.04"/>
    </g>
    <g>
      <path d="m576.43,354.94c8.2-2.38,12.92-10.95,10.55-19.15-2.38-8.2-10.95-12.92-19.15-10.55-8.2,2.38-12.92,10.95-10.55,19.15l.04.1c2.37,8.16,10.9,12.84,19.06,10.46l.05-.02h0Z" fill="#f2af0d" fill-rule="evenodd"/>
      <path d="m564.82,330.48l-7.79-4.77-3.55-1.17-2.85,4.16,2.41,2.79,7.33,5.54m12.27,3.53c-2.07,3.02-6.18,3.81-9.23,1.79-3.03-2.04-3.83-6.15-1.79-9.18l.02-.03c2.13-3,6.28-3.71,9.28-1.59,2.91,2.06,3.69,6.05,1.75,9.05l-.02-.04h0Zm-11.67-6.01l3.11,2.68-.34-2.81,2.65-.54-3.7-1.83" fill="none" stroke="#000" stroke-linecap="round" stroke-linejoin="round" stroke-width="1.04"/>
    </g>
    <g>
      <path d="m464.25,122.5c-.76-8.5-8.27-14.79-16.78-14.03-8.5.76-14.79,8.27-14.03,16.78.76,8.5,8.27,14.79,16.78,14.03h.11c8.44-.75,14.68-8.18,13.94-16.62,0-.05,0-.11-.01-.17h0Z" fill="#f2af0d" fill-rule="evenodd"/>
      <path d="m438.01,129.22l-6.18,6.74-1.82,3.25,3.55,3.58,3.19-1.83,6.86-6.14m5.83-11.37c2.6,2.6,2.6,6.83,0,9.43-2.6,2.6-6.83,2.6-9.43,0-2.6-2.6-2.6-6.83,0-9.43l.03-.03c2.62-2.56,6.8-2.55,9.4.03h0Zm-8.15,10.33l3.22-2.53-2.82-.21-.03-2.69-2.49,3.21" fill="none" stroke="#000" stroke-linecap="round" stroke-linejoin="round" stroke-width="1.04"/>
    </g>
    <g>
      <path d="m84.13,247.28c1.29-8.47-4.53-16.39-13-17.68-8.47-1.29-16.39,4.53-17.68,13-1.29,8.47,4.53,16.39,13,17.68.1.02.2.02.29.04,8.39,1.16,16.15-4.66,17.39-13.04h0Z" fill="#f2af0d" fill-rule="evenodd"/>
      <path d="m57,247.7l-7.55,5.1-2.52,2.74,2.64,4.25,3.54-1.03,8.04-4.31m8.27-9.69c1.9,3.14.9,7.22-2.24,9.13-3.14,1.9-7.22.9-9.13-2.24-1.89-3.13-.91-7.19,2.2-9.1,3.12-1.93,7.22-.96,9.14,2.16l.03.06h0Zm-10.28,8.09l3.76-1.72-2.71-.86.57-2.62-3.19,2.59" fill="none" stroke="#000" stroke-linecap="round" stroke-linejoin="round" stroke-width="1.04"/>
    </g>
    <g>
      <path d="m74.39,509.9c-4.32,7.4-1.83,16.91,5.58,21.22,7.4,4.32,16.91,1.83,21.22-5.58,4.32-7.4,1.83-16.91-5.58-21.22-.06-.04-.13-.07-.2-.12-7.35-4.24-16.75-1.72-20.99,5.63l-.03.05h0Z" fill="#f2af0d" fill-rule="evenodd"/>
      <path d="m99.8,519.51l8.91-1.94,3.37-1.61-.87-4.96-3.67-.36-9.14,1.07m-11.28,5.93c-.62-3.62,1.82-7.06,5.44-7.69s7.06,1.82,7.69,5.44c.62,3.62-1.81,7.05-5.43,7.68-3.6.64-7.04-1.76-7.69-5.36v-.07h-.01Zm12.56-3.72l-4.09.22,2.21,1.8-1.51,2.22,3.94-1.19" fill="none" stroke="#000" stroke-linecap="round" stroke-linejoin="round" stroke-width="1.04"/>
    </g>
    <g>
      <path d="m253.26,555.71c7-4.93,8.68-14.61,3.75-21.61-4.93-7-14.61-8.68-21.61-3.75-7,4.93-8.68,14.61-3.75,21.61.06.08.11.15.17.23,4.99,6.84,14.53,8.41,21.44,3.53h0Z" fill="#ff8c00" fill-rule="evenodd"/>
      <path d="m234.14,536.45l-8.9-1.9-3.72.09-1.26,4.89,3.2,1.8,8.74,2.8m12.7-.77c-.94,3.54-4.59,5.66-8.13,4.71-3.54-.94-5.66-4.59-4.71-8.13.94-3.53,4.56-5.65,8.1-4.73,3.55.92,5.69,4.54,4.77,8.09v.06s-.02,0-.02,0Zm-12.95-1.79l3.81,1.5-1.27-2.55,2.29-1.41-4.08-.5" fill="none" stroke="#000" stroke-linecap="round" stroke-linejoin="round" stroke-width="1.04"/>
    </g>
    <g>
      <path d="m516.65,189.6c-8.19,2.49-12.8,11.15-10.31,19.34,2.49,8.19,11.15,12.8,19.34,10.31,8.19-2.49,12.8-11.15,10.31-19.34-.03-.08-.05-.16-.08-.24-2.58-8.06-11.18-12.55-19.26-10.07h0Z" fill="#ff8c00" fill-rule="evenodd"/>
      <path d="m528.72,213.91l7.86,4.59,3.55,1.1,2.74-4.25-2.45-2.75-7.42-5.39m-12.34-3.26c2.01-3.07,6.13-3.93,9.2-1.93,3.07,2.01,3.93,6.13,1.93,9.2s-6.11,3.92-9.18,1.93c-3.08-2-3.95-6.11-1.95-9.2h.02s-.01-.01-.01-.01Zm11.72,5.77l-3.15-2.61.4,2.81-2.61.62,3.72,1.75" fill="none" stroke="#000" stroke-linecap="round" stroke-linejoin="round" stroke-width="1.04"/>
    </g>
  </g>
  <g>
    <g>
      <g>
        <path d="m405.69,392.11v64.4c0,8.96-43.18,16.22-96.43,16.22-53.26,0-96.44-7.26-96.44-16.22v-64.4h192.87Z" fill="var(--accent-l25)" stroke="#000" stroke-miterlimit="10"/>
        <ellipse cx="309.26" cy="392.11" rx="96.43" ry="16.22" fill="var(--accent-light-icon)" stroke="#000" stroke-miterlimit="10"/>
        <path d="m397.75,330.66v56.74c0,7.89-39.62,14.29-88.5,14.29-48.87,0-88.5-6.4-88.5-14.29v-56.74h176.99Z" fill="var(--accent-l15)" stroke="#000" stroke-miterlimit="10"/>
        <path d="m405.69,312.27v64.4c0,8.96-43.18,16.22-96.43,16.22-53.26,0-96.44-7.26-96.44-16.22v-64.4h192.87Z" fill="var(--accent-l25)" stroke="#000" stroke-miterlimit="10"/>
        <ellipse cx="309.26" cy="312.27" rx="96.43" ry="16.22" fill="var(--accent-light-icon)" stroke="#000" stroke-miterlimit="10"/>
        <path d="m397.75,250.82v56.74c0,7.89-39.62,14.29-88.5,14.29-48.87,0-88.5-6.4-88.5-14.29v-56.74h176.99Z" fill="var(--accent-l15)" stroke="#000" stroke-miterlimit="10"/>
        <path d="m405.69,230.09v64.4c0,8.96-43.18,16.22-96.43,16.22-53.26,0-96.44-7.26-96.44-16.22v-64.4h192.87Z" fill="var(--accent-l25)" stroke="#000" stroke-miterlimit="10"/>
        <ellipse cx="309.26" cy="230.09" rx="96.43" ry="16.22" fill="var(--accent-light-icon)" stroke="#000" stroke-miterlimit="10"/>
      </g>
      <g>
        <path d="m232.14,148.05c38.16,0,69.1,30.93,69.1,69.1s-30.93,69.1-69.1,69.1c-38.16,0-69.1-30.93-69.1-69.1s30.93-69.1,69.1-69.1Z" fill="var(--accent-light-icon)" stroke="#000" stroke-miterlimit="10"/>
        <path d="m157.59,216.59v-2.2l10.91.11v2.18c-.3,35.14,27.94,63.86,63.07,64.16,16.65.14,32.7-6.25,44.68-17.8l-9.5-.05.11-10.91,27.03.11-.23,27.08-10.91-.11.06-7.45c-13.93,12.95-32.27,20.1-51.3,19.99-41.11-.28-74.27-34-73.94-75.11h0Z" fill="var(--accent-icon)" stroke="#000" stroke-miterlimit="10"/>
        <path d="m295.34,219.2v-2.23c-.05-35.12-28.56-63.55-63.68-63.49-16.26.02-31.9,6.28-43.69,17.48h9.4l.05,10.9-27.03.05-.05-27.09h10.9v7.51c13.72-12.58,31.63-19.61,50.24-19.74,41.11-.11,74.66,33.27,74.72,74.33v2.23l-10.85.05Z" fill="var(--accent-icon)" stroke="#000" stroke-miterlimit="10"/>
        <rect x="207.32" y="190.59" width="49.64" height="3.02" rx="1.45" ry="1.45" transform="translate(40.05 424.24) rotate(-90)" fill="var(--accent-icon)"/>
        <rect x="227.74" y="227.34" width="36.46" height="3.02" rx="1.51" ry="1.51" transform="translate(209.79 -105.17) rotate(40.88)" fill="var(--accent-icon)"/>
        <path d="m232.14,223.21c-3.34-.02-6.02-2.75-5.99-6.08.02-3.34,2.75-6.02,6.08-5.99,3.31.02,5.98,2.71,5.99,6.01-.05,3.34-2.75,6.02-6.08,6.07h0Z" fill="#fff" stroke="#000" stroke-linejoin="round"/>
      </g>
    </g>
    <g>
      <polyline points="223.98 436.44 220.33 480.57 138.27 481.55 137.35 428.42" fill="#fff" fill-rule="evenodd" stroke="#000" stroke-linecap="round" stroke-linejoin="round"/>
      <polyline points="169.38 480.93 174.32 432.12 185.74 433.04 183.09 480.6" fill="#e45548" fill-rule="evenodd" stroke="#000" stroke-linecap="round" stroke-linejoin="round"/>
      <polygon points="130.84 410.5 132.4 427.96 234.8 437.52 235.93 422.11 130.84 410.5 130.84 410.5" fill="#fff" fill-rule="evenodd" stroke="#000" stroke-linecap="round" stroke-linejoin="round"/>
      <polygon points="186.78 416.68 183.64 432.59 172.5 431.44 174.12 415.47 186.78 416.68" fill="#e45548" fill-rule="evenodd" stroke="#000" stroke-linecap="round" stroke-linejoin="round"/>
    </g>
    <g>
      <g>
        <polyline points="513.52 406.64 504.1 471.96 417.53 469 423.66 393.44" fill="#fff" fill-rule="evenodd" stroke="#000" stroke-linecap="round" stroke-linejoin="round"/>
        <polygon points="438.58 469.31 442.24 395.83 461.95 398.77 457.41 470.37 438.58 469.31 438.58 469.31" fill="#e45548" fill-rule="evenodd" stroke="#000" stroke-linecap="round" stroke-linejoin="round"/>
        <polygon points="419.96 372.04 521.51 387.76 520.11 407.65 415.61 391.8 419.96 372.04 419.96 372.04" fill="#fff" fill-rule="evenodd" stroke="#000" stroke-linecap="round" stroke-linejoin="round"/>
        <path d="m487.94,342.21l-21.75,36.49-12.28-1.8c3-10.71,2.86-19.93,9.53-29.27,3.17-4.45,5.44-6.29,9.46-10.09,0,0,10.36,1.28,15.01,4.66h.04Z" fill="#e45548" fill-rule="evenodd" stroke="#000" stroke-linecap="round" stroke-linejoin="round"/>
        <path d="m456.32,377.15s-2.41-.26,8.81,1.44c4.35-14.91,11.34-26.18,22.85-36.29,4,14.12-10.35,29.33-19.88,37.13,1.6,2.48,3.21,4.97,4.6,7.57,6.36,11.96,11.55,21.21,13.24,34.94-4.35-3.63-8.81-6.78-13.45-9.94-.15,4.72-3.02,16.27-4.46,19.65,1.84-11.24-5.74-33.21-8.17-41.18-.95-3.14-.95-7.7-3.95-9.02-10.25,6.35-16.34,22.91-21.12,33.23-1.87,4.01-3.57,8.08-5.27,12.19,0,0-.06-13.41,1.24-20.47-2.53,1.5-4.86,3.31-7.26,5-2.18,1.53-4.35,3.11-6.48,4.65,2.16-3.89,4.35-7.79,6.84-11.47,4.44-6.53,8.76-13.19,13.95-19.14,3.05-3.49,6.84-6.26,10.6-8.98-10.01-9.65-14.34-30.01-5.47-41.7,0,0,8.53-.59,15.81,1.63" fill="#e45548" fill-rule="evenodd" stroke="#000" stroke-linecap="round" stroke-linejoin="round"/>
        <path d="m458.95,336.36c1.45,1.09,10.56,26.98-2.95,40.78-5.47-24.15-.15-36.85,2.95-40.78Z" fill="#e45548" fill-rule="evenodd" stroke="#000" stroke-linecap="round" stroke-linejoin="round"/>
      </g>
      <g>
        <polygon points="427.26 430.11 356.94 429.06 360.47 491.56 427.72 489.15 427.26 430.11 427.26 430.11" fill="#fff" fill-rule="evenodd" stroke="#000" stroke-linecap="round" stroke-linejoin="round"/>
        <path d="m388.79,490.55l5.85-60.92m32.63,29.62l-68.89-4.54m21.54,17.74c1.1-5.28,2.7-9.78,7.18-13.11,2.6-1.93,6.16-2.09,8.94-3.57,1.97-1.18,3.55-2.93,4.48-5.04,1.41-3.02.13-8.89-4.31-5.75-3.26,2.29-4.07,9.28-4.6,12.4-.25-3.2-1.89-8.22-4.51-10.31-1.02-.83-4.32-2.68-4.51.1-.02.69.09,1.37.31,2.03,1.28,4.42,6.7,6.67,9.91,9,3.7,2.68,6.35,6.58,7.47,11.01" fill="none" stroke="#000" stroke-linecap="round" stroke-linejoin="round"/>
      </g>
    </g>
  </g>
</svg>