<?xml version="1.0" encoding="UTF-8"?>
<svg width="16px" height="16px" viewBox="0 0 16 16" version="1.1" xmlns="http://www.w3.org/2000/svg" xmlns:xlink="http://www.w3.org/1999/xlink">
    <title>logo / zoom</title>
    <defs>
        <path d="M12.6226117,5.38363557 L12.6625331,5.39033984 C12.7243673,5.41279344 12.7618221,5.49217643 12.7618221,5.63644252 L12.7618221,5.63644252 L12.7618221,10.4086768 L12.7567132,10.4931783 C12.7266638,10.7167375 12.5695445,10.6780043 12.4321041,10.5718004 L12.4321041,10.5718004 L10.2906725,9.00650759 L10.2906725,7.03861171 L12.4321041,5.47331887 C12.5040868,5.41466377 12.5694403,5.38363557 12.6226117,5.38363557 L12.6226117,5.38363557 Z M8.5062039,5.38308026 L8.64612225,5.38970397 C9.38297818,5.45982223 9.96115861,6.0780564 9.96442516,6.83383948 L9.96442516,6.83383948 L9.96442516,10.3913579 L9.95617842,10.4518447 C9.92667227,10.5683787 9.82212581,10.6551112 9.69718004,10.6551112 L9.69718004,10.6551112 L4.50845987,10.6551112 L4.36801599,10.6490437 C3.62833545,10.5816414 3.04705372,9.96217941 3.04385249,9.20433839 L3.04385249,9.20433839 L3.04385249,5.65032538 L3.05207728,5.58871258 C3.08155368,5.4706273 3.18614689,5.38605516 3.31106291,5.38308026 L3.31106291,5.38308026 L8.5062039,5.38308026 Z" id="path-1"></path>
    </defs>
    <g id="logo-/-zoom" stroke="none" stroke-width="1" fill="none" fill-rule="evenodd">
        <path d="M1.67579002,0.0347071584 L14.2964581,0.0347071584 C15.2219592,0.0347071584 15.9722586,0.7849718 15.9722586,1.71050759 L15.9722586,14.331141 C15.9722586,15.2566768 15.2219592,16.0069414 14.2964581,16.0069414 L1.67579002,16.0069414 C0.75025423,16.0069414 -1.04121475e-05,15.2566768 -1.04121475e-05,14.331141 L-1.04121475e-05,1.71050759 C-1.04121475e-05,0.7849718 0.75025423,0.0347071584 1.67579002,0.0347071584" id="Fill-1" fill="#4A8CFF"></path>
        <mask id="mask-2" fill="white">
            <use xlink:href="#path-1"></use>
        </mask>
        <use id="Clip-5" fill="#FFFFFF" xlink:href="#path-1"></use>
    </g>
</svg>