<svg id="vianova_mail" xmlns="http://www.w3.org/2000/svg" viewBox="0 0 137.81 35.81">
  <g>
    <path d="m4.84,3.08l11.8,28.23L28.49,3.08h3.6v31.99h-2.7v-13.93l.22-14.28-11.91,28.21h-2.09L3.74,6.97l.22,14.08v14.02H1.26V3.08h3.58Z" fill="#333" stroke-width="0"/>
    <path d="m54.59,35.07c-.26-.75-.43-1.85-.51-3.32-.92,1.2-2.1,2.13-3.53,2.78-1.43.65-2.94.98-4.54.98-2.29,0-4.13-.64-5.55-1.91s-2.12-2.89-2.12-4.83c0-2.31.96-4.15,2.89-5.49,1.93-1.35,4.61-2.02,8.05-2.02h4.77v-2.7c0-1.7-.52-3.04-1.57-4.01-1.05-.97-2.57-1.46-4.58-1.46-1.83,0-3.35.47-4.55,1.41s-1.8,2.07-1.8,3.38l-2.64-.02c0-1.89.88-3.53,2.64-4.91,1.76-1.38,3.92-2.08,6.48-2.08s4.74.66,6.27,1.99c1.53,1.33,2.32,3.18,2.36,5.55v11.25c0,2.3.24,4.02.73,5.16v.26h-2.81Zm-8.26-1.89c1.76,0,3.33-.42,4.71-1.27,1.38-.85,2.39-1.98,3.02-3.41v-5.23h-4.7c-2.62.03-4.67.51-6.15,1.44-1.48.93-2.22,2.21-2.22,3.83,0,1.33.49,2.44,1.48,3.32.99.88,2.27,1.32,3.86,1.32Z" fill="#333" stroke-width="0"/>
    <path d="m63.53,4.43c0-.5.16-.91.48-1.26s.76-.51,1.32-.51,1,.17,1.33.51c.33.34.49.76.49,1.26s-.17.91-.49,1.24c-.33.34-.77.5-1.33.5s-1-.17-1.32-.5c-.32-.33-.48-.75-.48-1.24Zm3.1,30.64h-2.64V11.3h2.64v23.77Z" fill="#333" stroke-width="0"/>
    <path d="m76.72,35.07h-2.64V1.32h2.64v33.75Z" fill="#333" stroke-width="0"/>
  </g>
  <path d="m136.42,9.14v24.17c0,.66-.54,1.2-1.2,1.2h-39.22c-.66,0-1.2-.54-1.2-1.2V14.73c0-.66.54-1.2,1.2-1.2.24,0,.47.07.66.2l18.24,12.09,13.5-11.99c.5-.44,1.25-.39,1.69.11.44.49.39,1.25-.1,1.69l-14.19,12.6c-.41.36-1,.4-1.46.1l-17.15-11.37v15.16h36.83V10.34h-22.18c-.66,0-1.2-.54-1.2-1.2s.54-1.2,1.2-1.2h23.38c.66,0,1.2.54,1.2,1.2Zm-40.42,1.33c.36,0,.7-.14.95-.39.12-.13.22-.28.29-.44.06-.16.1-.33.1-.5,0-.09,0-.18-.02-.27-.02-.08-.04-.16-.07-.24-.03-.08-.07-.16-.13-.23-.05-.07-.1-.14-.16-.2-.53-.49-1.35-.49-1.88,0-.06.06-.12.13-.17.2-.05.07-.08.15-.12.23-.04.08-.06.16-.07.24-.02.09-.03.18-.03.27,0,.17.03.34.11.5.06.16.16.31.29.44.25.25.58.39.94.39Zm5.13,0c.74,0,1.34-.59,1.34-1.33s-.59-1.34-1.33-1.34-1.34.59-1.34,1.33c0,0,0,0,0,.01,0,.73.6,1.33,1.33,1.33Zm4.19-.39c.51.52,1.35.52,1.87,0,0,0,0,0,0,0,.13-.12.22-.27.29-.44.07-.16.1-.33.11-.5,0-.09-.01-.18-.03-.27-.02-.08-.04-.16-.07-.24-.06-.17-.16-.32-.29-.44-.53-.49-1.35-.49-1.88,0-.06.06-.12.13-.16.2-.05.07-.1.15-.13.23-.03.08-.06.16-.07.24-.02.09-.03.18-.02.27,0,.17.03.34.1.5.06.16.16.31.29.44Z" fill="#ff4600" stroke-width="0"/>
</svg>