<svg width="16px" height="16px" viewBox="0 0 16 16" version="1.1" xmlns="http://www.w3.org/2000/svg" xmlns:xlink="http://www.w3.org/1999/xlink">
    <g stroke="none" stroke-width="1" fill="none" fill-rule="evenodd">
        <path d="M14,0 C15.1045695,-2.02906125e-16 16,0.8954305 16,2 L16,14 C16,15.1045695 15.1045695,16 14,16 L2,16 C0.8954305,16 1.3527075e-16,15.1045695 0,14 L0,2 C-1.3527075e-16,0.8954305 0.8954305,2.02906125e-16 2,0 L14,0 Z M12,6.85 L8.25000003,8.95 L8.15768003,8.9836 C8.02520003,9.0172 7.86200002,9.006 7.75000002,8.95 L7.75000002,8.95 L4,6.85 L4,11 L4.00727023,11.0961591 C4.04567901,11.3419753 4.23333333,11.5 4.5,11.5 L4.5,11.5 L11.5,11.5 L11.5961591,11.4927298 C11.8419753,11.454321 12,11.2666667 12,11 L12,11 L12,6.85 Z M11.5,4.5 L4.5,4.5 L4.40384088,4.50727023 C4.15802469,4.54567901 4,4.73333333 4,5 L4,5 L4,5.7 L8,7.95 L12,5.75 L12,5 L11.9927298,4.90384088 C11.954321,4.65802469 11.7666667,4.5 11.5,4.5 L11.5,4.5 Z" fill="var(--color-icon)"></path>
    </g>
</svg>