<?xml version="1.0" encoding="UTF-8"?>
<svg id="Livello_1" data-name="Livello 1"
  xmlns="http://www.w3.org/2000/svg" viewBox="0 0 640 640">
  <circle cx="171.1" cy="106.6" r="26.9" fill="none" stroke="#333" stroke-linecap="round" stroke-linejoin="round" stroke-width="2"/>
  <path d="m219.6,79.6l-10.3-10.3c-.6-.5-1.4-.5-2,0l-44.6,44.6-18.2-18.1c-.6-.5-1.4-.5-2,0l-10.2,10.2c-.5.6-.5,1.4,0,2l29.4,29.4c.6.5,1.4.5,2,0l55.9-55.8c.5-.6.5-1.4,0-2Z" fill="var(--accent-icon)"/>
  <circle cx="171.1" cy="440.1" r="26.9" fill="none" stroke="#333" stroke-linecap="round" stroke-linejoin="round" stroke-width="2"/>
  <path d="m219.6,413.9l-10.3-10.3c-.6-.5-1.4-.5-2,0l-44.6,44.6-18.1-18.1c-.6-.5-1.4-.5-2,0l-10.3,10.3c-.5.6-.5,1.4,0,2l29.4,29.4c.6.5,1.4.5,2,0l55.9-55.8c.5-.6.5-1.5,0-2.1Z" fill="var(--accent-icon)"/>
  <circle cx="171.1" cy="217.2" r="26.9" fill="none" stroke="#333" stroke-linecap="round" stroke-linejoin="round" stroke-width="2"/>
  <path d="m219.6,191l-10.3-10.3c-.6-.5-1.4-.5-2,0l-44.6,44.6-18.1-18.1c-.6-.5-1.4-.5-2,0l-10.3,10.3c-.5.6-.5,1.4,0,2l29.4,29.4c.6.5,1.4.5,2,0l55.9-55.8c.5-.7.5-1.5,0-2.1Z" fill="var(--accent-icon)"/>
  <g>
    <rect x="110.6" y="290" width="405" height="71" fill="var(--accent-light-icon)"/>
    <g>
      <polyline points="110.6 296 110.6 290 116.6 290" fill="none" stroke="#333" stroke-linecap="round" stroke-miterlimit="10" stroke-width="2"/>
      <line x1="128.5" y1="290" x2="503.6" y2="290" fill="none" stroke="#333" stroke-dasharray="0 0 11.91 11.91" stroke-linecap="round" stroke-miterlimit="10" stroke-width="2"/>
      <polyline points="509.5 290 515.5 290 515.5 296" fill="none" stroke="#333" stroke-linecap="round" stroke-miterlimit="10" stroke-width="2"/>
      <line x1="515.5" y1="307.8" x2="515.5" y2="349.1" fill="none" stroke="#333" stroke-dasharray="0 0 11.81 11.81" stroke-linecap="round" stroke-miterlimit="10" stroke-width="2"/>
      <polyline points="515.5 355 515.5 361 509.5 361" fill="none" stroke="#333" stroke-linecap="round" stroke-miterlimit="10" stroke-width="2"/>
      <line x1="497.6" y1="361" x2="122.5" y2="361" fill="none" stroke="#333" stroke-dasharray="0 0 11.91 11.91" stroke-linecap="round" stroke-miterlimit="10" stroke-width="2"/>
      <polyline points="116.6 361 110.6 361 110.6 355" fill="none" stroke="#333" stroke-linecap="round" stroke-miterlimit="10" stroke-width="2"/>
      <line x1="110.6" y1="343.2" x2="110.6" y2="301.9" fill="none" stroke="#333" stroke-dasharray="0 0 11.81 11.81" stroke-linecap="round" stroke-miterlimit="10" stroke-width="2"/>
    </g>
  </g>
  <g>
    <line x1="273" y1="421.2" x2="511.9" y2="421.2" fill="none" stroke="#333" stroke-linecap="round" stroke-linejoin="round" stroke-width="2"/>
    <line x1="273" y1="437.7" x2="511.9" y2="437.7" fill="none" stroke="#333" stroke-linecap="round" stroke-linejoin="round" stroke-width="2"/>
    <line x1="273" y1="454.1" x2="396.4" y2="454.1" fill="none" stroke="#333" stroke-linecap="round" stroke-linejoin="round" stroke-width="2"/>
  </g>
  <g>
    <path d="m557.8,570c-.3,0-.6-.2-.8-.5l-61.2-90.2c-43.5,19.7-94.8.4-114.4-43.2-19.7-43.5-.4-94.8,43.2-114.4,43.5-19.7,94.8-.4,114.4,43.2,16.6,36.6,5.7,79.8-26.2,104.3l60.4,89.4c.3.5.2,1.1-.2,1.5l-14.5,9.8c-.2,0-.5.1-.7.1Z" fill="var(--accent-icon)" stroke="#333" stroke-miterlimit="10" stroke-width="2"/>
    <circle cx="459.9" cy="400.8" r="67.4" fill="#fff" stroke="#333" stroke-miterlimit="10" stroke-width="2"/>
  </g>
  <g>
    <line x1="273" y1="90.2" x2="511.9" y2="90.2" fill="none" stroke="#333" stroke-linecap="round" stroke-linejoin="round" stroke-width="2"/>
    <line x1="273" y1="106.6" x2="511.9" y2="106.6" fill="none" stroke="#333" stroke-linecap="round" stroke-linejoin="round" stroke-width="2"/>
    <line x1="273" y1="123.1" x2="396.4" y2="123.1" fill="none" stroke="#333" stroke-linecap="round" stroke-linejoin="round" stroke-width="2"/>
  </g>
  <g>
    <line x1="273" y1="198.3" x2="511.9" y2="198.3" fill="none" stroke="#333" stroke-linecap="round" stroke-linejoin="round" stroke-width="2"/>
    <line x1="273" y1="214.8" x2="511.9" y2="214.8" fill="none" stroke="#333" stroke-linecap="round" stroke-linejoin="round" stroke-width="2"/>
    <line x1="273" y1="231.2" x2="396.4" y2="231.2" fill="none" stroke="#333" stroke-linecap="round" stroke-linejoin="round" stroke-width="2"/>
  </g>
</svg>