<?xml version="1.0" encoding="UTF-8"?>
<svg id="Livello_1" data-name="Livello 1"
  xmlns="http://www.w3.org/2000/svg" viewBox="0 0 640 640">
  <g>
    <path d="m566.3,440.2l39.2-276h0c.2-1.1-.6-2.1-1.7-2.3l-201.9-28.7h-.3c-1,0-1.9.7-2,1.7l-39.2,276c-.2,1.1.6,2.1,1.7,2.3l202,28.7h.3c.9,0,1.8-.7,1.9-1.7Z" fill="#fff"/>
    <path d="m470.6,316.7c-.1.5-.6.9-1.1.9l-67.3-9.6c-.5-.1-.9-.6-.8-1.1l7.5-52.6c.1-.5.6-.9,1.1-.9l67.3,9.6c.5.1.9.6.9,1.1l-7.6,52.6h0Zm85.9,13.2l-67.3-9.5c-.5-.1-.9-.6-.9-1.1l7.5-52.6c.1-.5.6-.9,1.1-.9l67.3,9.6c.5.1.9.6.8,1.1l-7.5,52.6c0,.5-.5.9-1,.8Z" fill="var(--accent-icon)"/>
    <path d="m564.2,440.9c.5.1,1-.3,1.1-.9l39.2-276h0c.1-.5-.3-1.1-.9-1.1l-201.9-28.7h0c-.5-.1-1.1.3-1.1.8l-39.2,276c-.1.5.3,1.1.9,1.1l201.9,28.8h0Zm-74.2-260.4l-70.8-10m153.9,49.4l-157.7-22.4m153.9,49.4l-157.8-22.4m142.5,130.2l-157.8-22.4m97.9,41.4l56,8" fill="none" stroke="#333" stroke-linecap="round" stroke-linejoin="round" stroke-width="2"/>
  </g>
  <g>
    <path d="m142.5,452.2l201.2-33.7c1.1-.2,1.8-1.2,1.6-2.3l-46.1-274.9c-.2-1-1-1.7-2-1.7h-.3l-201.1,33.7c-.5.1-1,.4-1.3.8-.3.4-.4,1-.3,1.5l46.1,275c.2,1,1,1.7,2,1.7l.2-.1Z" fill="#fff"/>
    <path d="m343.5,417.5c.5-.1.9-.6.8-1.1l-46.1-274.9c-.1-.5-.6-.9-1.1-.8l-201.1,33.6h-.1c-.5.1-.9.6-.8,1.2l46.1,274.9h0c.1.5.6.9,1.2.8l201.1-33.7h0Zm-149.4-225.7l-70.6,11.8m161.7.6l-157.1,26.3m161.6.5l-157.2,26.3m161.8.6l-157.2,26.3m161.6.5l-157.2,26.4m161.8.5l-157.2,26.4m161.6.5l-157.2,26.4m105.9,9.8l55.8-9.4" fill="none" stroke="#333" stroke-linecap="round" stroke-linejoin="round" stroke-width="2"/>
    <path d="m281.1,179.3l-1.9-11.2h0c-.1-.5-.6-.9-1.2-.8l-29.1,4.9c-.5.1-.9.6-.8,1.2l1.9,11.2c.1.5.6.9,1.1.8l29.1-4.9c.6-.2.9-.7.9-1.2Z" fill="var(--accent-icon)"/>
  </g>
  <g>
    <path d="m448.9,387.9l28.5-277.3h0c.1-1.1-.7-2.1-1.8-2.2l-202.9-20.8h-.2c-1,0-1.9.8-2,1.8l-28.5,277.3c-.1,1.1.7,2.1,1.8,2.2l202.9,20.9h.2c1-.1,1.9-.8,2-1.9Z" fill="#fff"/>
    <path d="m447.9,387.8l28.5-277.3h0c.1-.5-.3-1-.9-1.1l-202.9-20.8h0c-.5-.1-1,.4-1.1.9l-28.5,277.3h0c-.1.5.4,1,.9,1.1l202.9,20.9c.6,0,1.1-.4,1.1-1Zm-85.3-256.3l-71.1-7.3m155.7,43.4l-158.5-16.3m147.4,124.6l-158.5-16.3m155.6,43.4l-158.5-16.3m155.8,43.4l-56.3-5.8" fill="none" stroke="#333" stroke-linecap="round" stroke-linejoin="round" stroke-width="2"/>
    <path d="m424,247.6l5.4-52.8c.1-.5-.3-1-.9-1.1l-126.9-13c-.5-.1-1,.3-1.1.9l-5.4,52.8h0c-.1.5.3,1,.9,1.1l126.9,13c.6,0,1.1-.4,1.1-.9Z" fill="var(--accent-icon)"/>
  </g>
  <g>
    <path d="m35.3,553.7c-1.5,0-2.7-1.2-2.7-2.7v-290c0-1.5,1.2-2.7,2.7-2.7h47c.4,0,.7-.3.7-.7v-28.5c0-4.3,3.4-7.7,7.7-7.7h112.3c4.3,0,7.7,3.5,7.7,7.7v30.2c0,.4.3.7.7.7h291.7c1.5,0,2.7,1.2,2.7,2.7v288.4c0,1.5-1.2,2.7-2.7,2.7H35.3v-.1Z" fill="#fff" stroke="#333" stroke-miterlimit="10" stroke-width="2"/>
    <path d="m35.3,553.7c-1.4,0-2.6-1.1-2.7-2.5v-257c0-1.4,1.2-2.6,2.7-2.5h0l467.5,1.5c1.4-.1,2.6,1.1,2.7,2.5h0v255.5c-.1,1.4-1.3,2.5-2.7,2.5H35.3Z" fill="var(--accent-light-icon)" stroke="#333" stroke-miterlimit="10" stroke-width="2"/>
    <g id="Nuovo_simbolo_1" data-name="Nuovo simbolo 1">
      <path d="m198,499l162.5-51.9c1-.3,1.6-1.5,1.3-2.5l-35.1-109.8c-.3-.8-1-1.4-1.9-1.4-.2,0-.4,0-.6.1l-162.5,51.9c-.5.2-.9.5-1.2,1-.2.5-.3,1-.1,1.5l35.1,109.8c.3.8,1,1.4,1.9,1.4.2,0,.4,0,.6-.1Z" fill="var(--accent-icon)"/>
      <path d="m360.8,444.9l-35.1-109.8c-.2-.5-.7-.8-1.2-.6l-162.5,51.9c-.5.2-.8.7-.7,1.2l35.1,109.8h0c.2.5.7.8,1.3.6l162.5-52c.5-.1.8-.6.6-1.1Zm-45.6-95l-49.5,76.4c-.6.9-1.7,1.2-2.7.9l-101.2-40.2" fill="none" stroke="#333" stroke-miterlimit="10" stroke-width="2"/>
    </g>
  </g>
</svg>