<?xml version="1.0" encoding="UTF-8"?>
<svg id="Livello_1" data-name="Livello 1"
  xmlns="http://www.w3.org/2000/svg" viewBox="0 0 640 640">
  <g>
    <path d="m472.16,323.51l32.38-258.24c.07-.48-.06-1.05-.37-1.42s-.8-.62-1.29-.69l-201.49-25.34-.38.02c-.96.06-1.68.77-1.73,1.64l-32.38,258.24c-.07.48.06,1.05.37,1.42s.8.62,1.29.69l201.49,25.34.38-.02c.87.05,1.59-.67,1.73-1.64Z" fill="#fff" stroke="#333" stroke-miterlimit="10" stroke-width="2"/>
    <path d="m458.28,265.11c.96-.06,1.68-.77,1.82-1.64l22.51-179.44c.13-1.06-.6-1.98-1.66-2.11l-162.92-20.59-.38.02c-.96.06-1.68.77-1.82,1.64l-22.51,179.44c-.13,1.06.6,1.98,1.66,2.11l162.91,20.5.38-.02v.1Z" fill="var(--accent-light-icon)" stroke="#333" stroke-miterlimit="10" stroke-width="2"/>
    <line x1="291" y1="268.38" x2="403.05" y2="282.26" fill="none" stroke="#333" stroke-miterlimit="10" stroke-width="2"/>
    <path d="m433.55,236.04l2.64-20.4c1-7.45-2.59-14.72-9.15-18.56-7.25-4.18-20.34-9.65-41.7-12.34-8.61-1.13-17.36-1.48-26.07-1.06-5.94.25-11.74,1.17-17.5,2.75-7.27,2.06-12.57,8.22-13.48,15.66l-2.42,19.34c-.2,1.45.83,2.73,2.28,2.94l103.64,13.03.29-.02c.77-.04,1.41-.56,1.46-1.33Zm-10.45-94.88l1.12-8.8c2.23-17.6-10.22-33.66-27.82-35.8-17.6-2.23-33.66,10.22-35.8,27.82l-1.12,8.8c-.27,1.94-.34,3.96-.23,5.96,1.04,17.69,16.32,31.19,34.01,30.06,15.4-.9,27.95-12.67,29.84-28.04Z" fill="var(--accent-icon)" stroke="#333" stroke-miterlimit="10" stroke-width="2"/>
  </g>
  <g>
    <path d="m373.47,261.1L272.11,21.39c-.18-.45-.58-.88-1.03-1.04s-1.01-.14-1.46.05L82.54,99.41l-.32.21c-.8.53-1.07,1.51-.68,2.28l101.36,239.71c.18.45.58.88,1.03,1.04s1.01.14,1.46-.05l187.07-79.02.32-.21c.77-.39,1.04-1.38.68-2.28Z" fill="#fff" stroke="#333" stroke-miterlimit="10" stroke-width="2"/>
    <path d="m332.19,217.51c.8-.53,1.07-1.51.76-2.33l-70.43-166.57c-.42-.99-1.51-1.42-2.49-.99l-151.31,63.8-.32.21c-.8.53-1.07,1.51-.76,2.33l70.43,166.57c.42.99,1.51,1.42,2.49.99l151.26-63.88.32-.21.05.08Z" fill="var(--accent-light-icon)" stroke="#333" stroke-miterlimit="10" stroke-width="2"/>
    <line x1="189.06" y1="304.15" x2="292.98" y2="260.03" fill="none" stroke="#333" stroke-miterlimit="10" stroke-width="2"/>
    <path d="m296.22,204.74l-7.94-18.98c-2.86-6.95-9.62-11.45-17.22-11.48-8.37.01-22.44,1.83-42.27,10.22-8.01,3.34-15.77,7.42-23.1,12.14-5.01,3.19-9.57,6.89-13.76,11.15-5.26,5.42-6.76,13.41-3.82,20.31l7.59,17.95c.55,1.36,2.09,1.95,3.45,1.4l96.22-40.65.24-.16c.64-.42.94-1.19.59-1.88Zm-56.58-76.88l-3.44-8.17c-6.88-16.35-25.72-24.01-42.01-17.05-16.35,6.88-24.01,25.72-17.05,42.01l3.44,8.17c.74,1.81,1.68,3.6,2.79,5.27,9.76,14.79,29.75,18.82,44.49,8.98,12.87-8.5,17.84-24.97,11.77-39.22Z" fill="#fff" stroke="#333" stroke-miterlimit="10" stroke-width="2"/>
  </g>
  <g>
    <g id="Nuovo_simbolo_7" data-name="Nuovo simbolo 7">
      <path d="m161.62,616.76c.99.11,1.89,0,2.81-.23l291.79-75.69c7.46-1.93,13.89-6.54,17.98-13.08,3.96-6.34,5.18-14.11,3.34-21.34l-87.82-338.51c-3.05-11.26-12.69-19.5-24.26-20.6-3.74-.43-7.44-.18-11.11.73L62.67,223.84h0c-4.13,1.09-6.74,5.35-5.54,9.5l97.93,377.54c.75,3.2,3.38,5.51,6.57,5.88h0Zm182.6-374.44l16.92,65.2c.39,1.49.1,3.02-.6,4.27-.7,1.26-2.04,2.22-3.42,2.62l-130.17,33.75h0c-2.98.77-6.01-1.02-6.89-4.02l-16.93-65.09c-.77-2.98,1.02-6.01,4.02-6.89l130.17-33.75c.68-.14,1.36-.18,2.02-.1,2.44.06,4.26,1.71,4.89,4.01Z" fill="#fff" stroke="#333" stroke-miterlimit="10" stroke-width="2"/>
      <path d="m344.22,242.32l16.92,65.2c.39,1.49.1,3.02-.6,4.27-.7,1.26-2.04,2.22-3.42,2.62l-130.17,33.75h0c-2.98.77-6.01-1.02-6.89-4.02l-16.93-65.09c-.77-2.98,1.02-6.01,4.02-6.89l130.17-33.75c.68-.14,1.36-.18,2.02-.1,2.44.06,4.26,1.71,4.89,4.01Z" fill="var(--accent-icon)" stroke="#333" stroke-miterlimit="10" stroke-width="2"/>
      <path d="m222.88,600.28L121.54,209.66m-63.39,23.47h0c-.93-3.56,1.28-7.31,4.84-8.24l58.55-15.23,101.33,390.63-58.55,15.23h0c-3.56.93-7.2-1.27-8.13-4.83L58.15,233.13Z" fill="var(--accent-light-icon)"/>
      <line x1="237" y1="409.11" x2="377.81" y2="372.91" fill="none" stroke="#333" stroke-miterlimit="10" stroke-width="2"/>
    </g>
    <line x1="121.54" y1="209.66" x2="222.88" y2="600.28" fill="none" stroke="#333" stroke-miterlimit="10" stroke-width="2"/>
  </g>
  <g>
    <path d="m532.49,549.2l86.81-245.36c.17-.46.16-1.04-.06-1.46s-.65-.78-1.11-.95l-191.42-67.8-.38-.06c-.95-.15-1.81.39-2.04,1.23l-86.81,245.36c-.17.46-.16,1.04.06,1.46s.65.78,1.11.95l191.42,67.8.38.06c.84.23,1.7-.31,2.04-1.23Z" fill="#fff" stroke="#333" stroke-miterlimit="10" stroke-width="2"/>
    <path d="m531.41,489.18c.95.15,1.81-.39,2.13-1.21l60.32-170.49c.35-1.01-.16-2.06-1.17-2.42l-154.76-54.93-.38-.06c-.95-.15-1.81.39-2.13,1.21l-60.32,170.49c-.35,1.01.16,2.06,1.17,2.42l154.77,54.83.38.06v.09Z" fill="var(--accent-light-icon)" stroke="#333" stroke-miterlimit="10" stroke-width="2"/>
    <line x1="367.29" y1="456.64" x2="473.78" y2="494.14" fill="none" stroke="#333" stroke-miterlimit="10" stroke-width="2"/>
    <path d="m513.45,455.5l6.94-19.37c2.57-7.06.62-14.94-4.97-20.09-6.19-5.63-17.8-13.78-38.1-20.96-8.17-2.94-16.64-5.15-25.24-6.61-5.85-1.02-11.71-1.37-17.68-1.05-7.54.46-14.04,5.35-16.51,12.42l-6.49,18.37c-.51,1.37.23,2.85,1.6,3.36l98.47,34.87.28.04c.76.12,1.49-.25,1.71-.99Zm10.06-94.92l2.97-8.36c5.94-16.71-2.8-35.07-19.53-40.92-16.71-5.94-35.07,2.8-40.92,19.53l-2.97,8.36c-.68,1.83-1.18,3.79-1.5,5.78-2.77,17.51,9.28,33.96,26.8,36.63,15.24,2.41,30.02-6.41,35.14-21.02Z" fill="#fff" stroke="#333" stroke-miterlimit="10" stroke-width="2"/>
  </g>
</svg>