<?xml version="1.0" encoding="UTF-8"?>
<svg id="Livello_1" data-name="Livello 1"
  xmlns="http://www.w3.org/2000/svg" viewBox="0 0 640 640">
  <g>
    <path d="m563.54,506.14l44.29-311.81h0c.23-1.24-.68-2.37-1.92-2.6l-228.09-32.42h-.34c-1.13,0-2.15.79-2.26,1.92l-44.29,311.81c-.23,1.24.68,2.37,1.92,2.6l228.21,32.42h.34c1.02,0,2.03-.79,2.15-1.92Z" fill="#fff"/>
    <path d="m455.42,366.62c-.11.56-.68,1.02-1.24,1.02l-76.03-10.85c-.56-.11-1.02-.68-.9-1.24l8.47-59.42c.11-.56.68-1.02,1.24-1.02l76.03,10.85c.56.11,1.02.68,1.02,1.24l-8.59,59.42h0Zm97.04,14.91l-76.03-10.73c-.56-.11-1.02-.68-1.02-1.24l8.47-59.42c.11-.56.68-1.02,1.24-1.02l76.03,10.85c.56.11,1.02.68.9,1.24l-8.47,59.42c0,.56-.56,1.02-1.13.9Z" fill="var(--accent-icon)"/>
    <path d="m561.16,506.93c.56.11,1.13-.34,1.24-1.02l44.29-311.81h0c.11-.56-.34-1.24-1.02-1.24l-228.09-32.42h0c-.56-.11-1.24.34-1.24.9l-44.29,311.81c-.11.56.34,1.24,1.02,1.24l228.09,32.54h0Zm-83.83-294.18l-79.99-11.3m173.87,55.81l-178.16-25.31m173.87,55.81l-178.27-25.31m160.99,147.09l-178.27-25.31m110.6,46.77l63.27,9.04" fill="none" stroke="#333" stroke-linecap="round" stroke-linejoin="round" stroke-width="2"/>
  </g>
  <g>
    <path d="m84.75,519.7l227.3-38.07c1.24-.23,2.03-1.36,1.81-2.6l-52.08-310.57c-.23-1.13-1.13-1.92-2.26-1.92h-.34L31.99,204.61c-.56.11-1.13.45-1.47.9-.34.45-.45,1.13-.34,1.69l52.08,310.68c.23,1.13,1.13,1.92,2.26,1.92l.23-.11Z" fill="#fff"/>
    <path d="m311.83,480.49c.56-.11,1.02-.68.9-1.24l-52.08-310.57c-.11-.56-.68-1.02-1.24-.9l-227.19,37.96h-.11c-.56.11-1.02.68-.9,1.36l52.08,310.57h0c.11.56.68,1.02,1.36.9l227.19-38.07h0Zm-168.78-254.98l-79.76,13.33m182.68.68l-177.48,29.71m182.57.56l-177.6,29.71m182.79.68l-177.6,29.71m182.57.56l-177.6,29.83m182.79.56l-177.6,29.83m182.57.56l-177.6,29.83m119.64,11.07l63.04-10.62" fill="none" stroke="#333" stroke-linecap="round" stroke-linejoin="round" stroke-width="2"/>
    <path d="m241.33,211.39l-2.15-12.65h0c-.11-.56-.68-1.02-1.36-.9l-32.88,5.54c-.56.11-1.02.68-.9,1.36l2.15,12.65c.11.56.68,1.02,1.24.9l32.88-5.54c.68-.23,1.02-.79,1.02-1.36Z" fill="var(--accent-icon)"/>
  </g>
  <g id="Nuovo_simbolo_9" data-name="Nuovo simbolo 9">
    <g>
      <path d="m430.81,317.06l.42-.19c19.83-8.93,72.51-32.55,93.19-63.94,12.95-19.64,29.43-58.18,40.03-93.67l.14-.42-.34-.23c-19.67-11.35-29.89-33.91-25.6-56.16l.15-.8-.47-.15c-23.46-8.28-48.59-15.66-62.53-18.35s-38-5.01-62.3-6.11l-.49-.04-.23,1.17c-2.14,11.4-8.01,21.8-16.63,29.58-8.47,7.58-19.15,12.31-30.47,13.44l-.45.02-.03.44c-3.27,36.68-2.28,78.21,2.37,101.02,7.52,36.83,47.65,78.35,62.78,94.02l.04.06.38.29Z" fill="var(--accent-light-icon)" stroke="#333" stroke-miterlimit="10" stroke-width="2"/>
      <path d="m460.25,187.57l78.6,15.16c-7.7,18.77-15.69,34.73-22.4,44.91-15.37,23.31-71.98,51.85-78.39,55.03l22.2-115.1Z" fill="var(--accent-icon)" stroke="#333" stroke-miterlimit="10" stroke-width="2"/>
      <path d="m452.65,176.33l-79.72-15.37c.11-10.58.56-21.2,1.31-31.43,10.56-2.38,20.37-7.44,28.38-14.67,8.35-7.5,14.51-17.13,17.9-27.84,18.24,1.03,36.38,2.82,48.44,4.7l-16.32,84.61Z" fill="var(--accent-icon)" stroke="#333" stroke-miterlimit="10" stroke-width="2"/>
      <path d="m450.83,185.75l-22.21,115.16c-29.88-31.93-47.2-58.89-51.55-80.15-2.44-11.95-3.92-29.73-4.1-50.02l77.85,15.01Z" fill="#fff" stroke="#333" stroke-miterlimit="10" stroke-width="2"/>
      <path d="m478.12,93.49c11.89,2.73,32.85,8.82,50.16,14.64-.89,11.2.67,20.83,5.62,30.94,4.81,9.7,10.39,17.68,19.31,23.81-3.11,9.83-7.01,20.89-10.84,30.75l-80.62-15.55,16.32-84.61h.05s0,.01,0,.01Z" fill="#fff" stroke="#333" stroke-miterlimit="10" stroke-width="2"/>
    </g>
  </g>
  <g>
    <path d="m430.9,447.05l32.2-313.28h0c.11-1.24-.79-2.37-2.03-2.49l-229.22-23.5h-.23c-1.13,0-2.15.9-2.26,2.03l-32.2,313.28c-.11,1.24.79,2.37,2.03,2.49l229.22,23.61h.23c1.13-.11,2.15-.9,2.26-2.15Z" fill="#fff"/>
    <path d="m429.77,446.94l32.2-313.28h0c.11-.56-.34-1.13-1.02-1.24l-229.22-23.5h0c-.56-.11-1.13.45-1.24,1.02l-32.2,313.28h0c-.11.56.45,1.13,1.02,1.24l229.22,23.61c.68,0,1.24-.45,1.24-1.13Zm-96.37-289.55l-80.32-8.25m175.9,49.03l-179.06-18.41m166.52,140.77l-179.06-18.41m175.79,49.03l-179.06-18.41m176.01,49.03l-63.6-6.55" fill="none" stroke="#333" stroke-linecap="round" stroke-linejoin="round" stroke-width="2"/>
    <path d="m402.77,288.55l6.1-59.65c.11-.56-.34-1.13-1.02-1.24l-143.36-14.69c-.56-.11-1.13.34-1.24,1.02l-6.1,59.65h0c-.11.56.34,1.13,1.02,1.24l143.36,14.69c.68,0,1.24-.45,1.24-1.02Z" fill="var(--accent-icon)"/>
  </g>
  <g id="Nuovo_simbolo_9-2" data-name="Nuovo simbolo 9">
    <g>
      <path d="m259.89,566.46l.31-.34c14.76-15.96,54.04-58.28,60.81-95.26,4.25-23.13,4.37-65.06.26-101.87l-.04-.44-.4-.08c-22.54-2.77-40.76-19.54-45.5-41.7l-.17-.79-.49.05c-24.83,1.54-50.84,4.56-64.73,7.53s-36.94,10.23-59.73,18.71l-.47.16.25,1.17c2.48,11.33,1.14,23.2-3.76,33.72-4.84,10.29-12.82,18.82-22.79,24.28l-.4.2.14.41c11.32,35.04,28.45,72.89,41.65,92.07,21.31,30.97,74.46,53.51,94.52,62.02l.06.04.47.12Z" fill="var(--accent-light-icon)" stroke="#333" stroke-miterlimit="10" stroke-width="2"/>
      <path d="m236.41,435.75l78.27-16.75c.24,20.29-.88,38.1-3.08,50.1-5.04,27.46-46.01,75.85-50.67,81.28l-24.53-114.63Z" fill="var(--accent-icon)" stroke="#333" stroke-miterlimit="10" stroke-width="2"/>
      <path d="m225.02,428.38l-79.39,16.99c-4.03-9.78-7.77-19.73-11.07-29.44,8.79-6.31,15.84-14.81,20.4-24.59,4.75-10.16,6.66-21.43,5.6-32.62,17.19-6.17,34.59-11.61,46.43-14.59l18.03,84.26Z" fill="var(--accent-icon)" stroke="#333" stroke-miterlimit="10" stroke-width="2"/>
      <path d="m227.03,437.76l24.54,114.68c-39.98-17.71-66.46-35.77-78.76-53.64-6.92-10.05-15.23-25.84-23.31-44.45l77.53-16.59Z" fill="#fff" stroke="#333" stroke-miterlimit="10" stroke-width="2"/>
      <path d="m216.1,342.17c12.01-2.13,33.69-4.71,51.9-6.12,3.55,10.66,8.76,18.91,17.26,26.29,8.22,7.05,16.47,12.22,27.07,14.38.98,10.27,1.71,21.97,2.03,32.54l-80.29,17.18-18.03-84.26h.05s0-.01,0-.01Z" fill="#fff" stroke="#333" stroke-miterlimit="10" stroke-width="2"/>
    </g>
  </g>
</svg>