<?xml version="1.0" encoding="UTF-8"?>
<svg id="Livello_1" data-name="Livello 1"
  xmlns="http://www.w3.org/2000/svg" viewBox="0 0 640 640">
  <g>
    <path d="m426.59,270.96l23.28-163.93h0c.12-.65-.36-1.25-1.01-1.37l-119.92-17.05h-.18c-.59,0-1.13.42-1.19,1.01l-23.28,163.93c-.12.65.36,1.25,1.01,1.37l119.98,17.05h.18c.53,0,1.07-.42,1.13-1.01Z" fill="#fff"/>
    <path d="m369.75,197.61c-.06.3-.36.53-.65.53l-39.97-5.7c-.3-.06-.53-.36-.48-.65l4.45-31.24c.06-.3.36-.53.65-.53l39.97,5.7c.3.06.53.36.53.65l-4.51,31.24h0Zm51.02,7.84l-39.97-5.64c-.3-.06-.53-.36-.53-.65l4.45-31.24c.06-.3.36-.53.65-.53l39.97,5.7c.3.06.53.36.48.65l-4.45,31.24c0,.3-.3.53-.59.48Z" fill="var(--accent-icon)"/>
    <path d="m425.34,271.38c.3.06.59-.18.65-.53l23.28-163.93h0c.06-.3-.18-.65-.53-.65l-119.92-17.05h0c-.3-.06-.65.18-.65.48l-23.28,163.93c-.06.3.18.65.53.65l119.92,17.11h0Zm-44.07-154.67l-42.05-5.94m91.41,29.34l-93.67-13.3m91.41,29.34l-93.73-13.3m84.64,77.33l-93.73-13.3m58.15,24.59l33.26,4.75" fill="none" stroke="#333" stroke-linecap="round" stroke-linejoin="round" stroke-width="2"/>
  </g>
  <g>
    <path d="m178.87,278.09l119.5-20.02c.65-.12,1.07-.71.95-1.37l-27.38-163.28c-.12-.59-.59-1.01-1.19-1.01h-.18l-119.45,20.02c-.3.06-.59.24-.77.48-.18.24-.24.59-.18.89l27.38,163.34c.12.59.59,1.01,1.19,1.01l.12-.06Z" fill="#fff"/>
    <path d="m298.26,257.48c.3-.06.53-.36.48-.65l-27.38-163.28c-.06-.3-.36-.53-.65-.48l-119.45,19.96h-.06c-.3.06-.53.36-.48.71l27.38,163.28h0c.06.3.36.53.71.48l119.45-20.02h0Zm-88.74-134.06l-41.93,7.01m96.04.36l-93.31,15.62m95.98.3l-93.37,15.62m96.1.36l-93.37,15.62m95.98.3l-93.37,15.68m96.1.3l-93.37,15.68m95.98.3l-93.37,15.68m62.9,5.82l33.14-5.58" fill="none" stroke="#333" stroke-linecap="round" stroke-linejoin="round" stroke-width="2"/>
    <path d="m261.19,116l-1.13-6.65h0c-.06-.3-.36-.53-.71-.48l-17.28,2.91c-.3.06-.53.36-.48.71l1.13,6.65c.06.3.36.53.65.48l17.28-2.91c.36-.12.53-.42.53-.71Z" fill="var(--accent-icon)"/>
  </g>
  <g>
    <path d="m325.91,158.09l111.16-30.92c.73-.18,1.16-.95.91-1.69l-20.97-77.61c-.16-.61-.7-1.02-1.25-1.01l-.4.06-111.16,30.92c-.32.12-.64.31-.79.68-.16.31-.24.67-.11,1.08l20.95,77.47c.16.61.64,1.03,1.25,1.01.14.05.28.03.41,0Z" fill="var(--accent-light-icon)"/>
    <path d="m437.39,125.63l-20.97-77.61c-.12-.34-.5-.56-.83-.51l-111.16,30.92c-.32.12-.54.51-.49.85l20.98,77.68h0c.12.34.5.56.83.51l111.15-30.99c.39-.13.54-.51.49-.85Zm-28.43-67.58l-35.36,51.63c-.39.62-1.18.81-1.84.49l-67.39-31.24" fill="none" stroke="#333" stroke-miterlimit="10" stroke-width="2"/>
  </g>
  <g>
    <path d="m360.86,239.9l16.93-164.7h0c.06-.65-.42-1.25-1.07-1.31l-120.51-12.35h-.12c-.59,0-1.13.48-1.19,1.07l-16.93,164.7c-.06.65.42,1.25,1.07,1.31l120.51,12.41h.12c.59-.06,1.13-.48,1.19-1.13Z" fill="#fff"/>
    <path d="m360.27,239.84l16.93-164.7h0c.06-.3-.18-.59-.53-.65l-120.51-12.35h0c-.3-.06-.59.24-.65.53l-16.93,164.7h0c-.06.3.24.59.53.65l120.51,12.41c.36,0,.65-.24.65-.59Zm-50.66-152.23l-42.23-4.34m92.48,25.78l-94.14-9.68m87.55,74.01l-94.14-9.68m92.42,25.78l-94.14-9.68m92.54,25.78l-33.44-3.44" fill="none" stroke="#333" stroke-linecap="round" stroke-linejoin="round" stroke-width="2"/>
    <path d="m346.07,156.56l3.21-31.36c.06-.3-.18-.59-.53-.65l-75.37-7.72c-.3-.06-.59.18-.65.53l-3.21,31.36h0c-.06.3.18.59.53.65l75.37,7.72c.36,0,.65-.24.65-.53Z" fill="var(--accent-icon)"/>
  </g>
  <g>
    <path d="m196.94,219.8l113.34,21.63c.73.16,1.46-.34,1.57-1.11l15.66-78.85c.13-.62-.17-1.23-.67-1.46l-.39-.12-113.34-21.63c-.34-.04-.71,0-1.01.26-.28.2-.51.5-.58.92l-15.62,78.72c-.13.62.11,1.21.67,1.46.11.11.24.15.37.19Z" fill="var(--accent-icon)"/>
    <path d="m311.24,240.21l15.66-78.85c.04-.35-.2-.72-.52-.83l-113.34-21.63c-.34-.04-.71.21-.82.55l-15.68,78.92h0c-.04.35.2.72.52.83l113.36,21.57c.41.06.71-.21.82-.55Zm4.52-73.18l-54.6,30.57c-.62.39-1.42.21-1.87-.38l-46.53-57.9" fill="none" stroke="#333" stroke-miterlimit="10" stroke-width="2"/>
  </g>
  <g>
    <g>
      <path d="m426.88,569c1.24,0,2.25-1.01,2.25-2.25v-10.58c0-1.24-1.01-2.25-2.25-2.25h-1.91v-.34l10.92-328.69v-.56h15.76c1.24,0,2.25-1.01,2.25-2.25v-34.67c0-1.24-1.01-2.25-2.25-2.25H146.7c-1.24,0-2.25,1.01-2.25,2.25v34.67c0,1.24,1.01,2.25,2.25,2.25h12.95v.56l4.05,328.69v.45h-1.91c-1.24,0-2.25,1.01-2.25,2.25v10.58c0,1.24,1.01,2.25,2.25,2.25h265.09v-.11Z" fill="var(--accent-light-icon)"/>
      <path d="m423.84,553.58l10.92-328.69h0c.11-.79-.56-1.58-1.35-1.69H162.12c-.79.11-1.46.79-1.35,1.58l4.05,328.69c0,.79.56,1.58,1.35,1.58h256.31c.79,0,1.35-.68,1.35-1.46Zm27.8-330.38H146.7c-.68,0-1.13-.45-1.13-1.13v-34.67c0-.68.45-1.13,1.13-1.13h304.94c.68,0,1.13.45,1.13,1.13v34.67c0,.68-.56,1.13-1.13,1.13Zm-24.76,344.68H161.78c-.68,0-1.13-.45-1.13-1.13v-10.58c0-.68.45-1.13,1.13-1.13h265.09c.68,0,1.13.45,1.13,1.13v10.58c0,.68-.56,1.13-1.13,1.13Zm-221.31-32.08h0c-6.08.11-11.14-5.52-11.26-12.61l-3.94-261.27c-.11-7.09,4.73-12.95,10.81-13.06h0c6.08-.11,11.14,5.52,11.26,12.61l3.94,261.27c.11,7.09-4.73,12.95-10.81,13.06Zm70.92-13.06c.11,7.09-4.73,12.95-10.81,13.06h0c-6.19.11-11.14-5.52-11.26-12.61l-3.94-261.27c-.11-7.09,4.73-12.95,10.81-13.06h0c6.08-.11,11.14,5.52,11.26,12.61l3.94,261.27h0Zm114.48.68c-.23,7.09-5.29,12.61-11.37,12.38h0c-6.08-.23-10.81-6.19-10.58-13.28l7.88-261.15c.23-7.09,5.29-12.61,11.37-12.38h0c6.08.23,10.81,6.19,10.58,13.28l-7.88,261.15h0Zm-58.2-.23c-.11,7.09-5.18,12.72-11.26,12.61h0c-6.08-.11-10.92-5.97-10.81-13.06l3.94-261.27c.11-7.09,5.18-12.72,11.26-12.61h0c6.08.11,10.92,5.97,10.81,13.06l-3.94,261.27h0Z" fill="none" stroke="#333" stroke-miterlimit="10" stroke-width="2"/>
    </g>
    <g>
      <path d="m299.9,587.8l190.35-22.51c1.24-.11,2.14-1.24,1.91-2.48l-15.2-128.66c-.11-1.01-.9-1.8-1.8-1.91h-.68l-190.35,22.51c-.56.11-1.13.34-1.46.9-.34.45-.56,1.01-.45,1.69l15.2,128.44c.11,1.01.79,1.8,1.8,1.91.23.11.45.11.68.11Z" fill="var(--accent-icon)"/>
      <path d="m491.15,562.92l-15.2-128.66c-.11-.56-.68-1.01-1.24-1.01l-190.35,22.51c-.56.11-1.01.68-1.01,1.24l15.2,128.78h0c.11.56.68,1.01,1.24,1.01l190.35-22.63c.68-.11,1.01-.68,1.01-1.24Zm-29.94-114.48l-70.92,73.73c-.79.9-2.14,1.01-3.15.34l-103-65.96" fill="none" stroke="#333" stroke-miterlimit="10" stroke-width="2"/>
    </g>
  </g>
</svg>