<svg xmlns="http://www.w3.org/2000/svg" viewBox="0 0 16 16" width="16" height="16"><g class="nc-icon-wrapper" stroke-width="1" fill="var(--color-icon)" stroke="var(--color-icon)"><line x1="6.5" y1="2.5" x2="15.5" y2="2.5" fill="none" stroke="var(--color-icon)" stroke-linecap="round" stroke-linejoin="round"/> <line x1="6.5" y1="8.5" x2="15.5" y2="8.5" fill="none" stroke="var(--color-icon)" stroke-linecap="round" stroke-linejoin="round"/> <line x1="6.5" y1="14.5" x2="15.5" y2="14.5" fill="none" stroke="var(--color-icon)" stroke-linecap="round" stroke-linejoin="round"/> <path d="M3.05,3.885H2.071V2q0-.344.014-.63a2.158,2.158,0,0,1-.224.23l-.4.334-.5-.615,1.226-1H3.05Z" data-cap="butt" data-color="color-2" data-stroke="none" stroke="none"/> <path d="M3.489,9.911H.9V9.276l.872-.882c.249-.26.411-.438.488-.533a1.188,1.188,0,0,0,.16-.245A.535.535,0,0,0,2.464,7.4a.281.281,0,0,0-.09-.22A.369.369,0,0,0,2.12,7.1a.687.687,0,0,0-.341.1,2.433,2.433,0,0,0-.389.284l-.53-.62a2.87,2.87,0,0,1,.464-.353,1.663,1.663,0,0,1,.408-.162,2,2,0,0,1,.5-.057,1.5,1.5,0,0,1,.62.123.971.971,0,0,1,.422.348.9.9,0,0,1,.15.506,1.37,1.37,0,0,1-.053.389,1.393,1.393,0,0,1-.162.35,2.356,2.356,0,0,1-.292.363q-.182.19-.775.722v.025h1.35Z" data-cap="butt" data-color="color-2" data-stroke="none" stroke="none"/> <path d="M3.37,13.156a.855.855,0,0,1-.2.571,1.162,1.162,0,0,1-.586.345v.014q.894.112.894.846a.915.915,0,0,1-.395.783A1.839,1.839,0,0,1,1.985,16a3.269,3.269,0,0,1-.533-.041,2.736,2.736,0,0,1-.531-.151v-.8a2.136,2.136,0,0,0,.477.177,1.915,1.915,0,0,0,.448.057.922.922,0,0,0,.463-.089.3.3,0,0,0,.145-.279.315.315,0,0,0-.076-.227.5.5,0,0,0-.244-.119,1.934,1.934,0,0,0-.439-.041h-.22v-.724H1.7c.489,0,.735-.125.735-.376a.231.231,0,0,0-.109-.21.551.551,0,0,0-.292-.069,1.335,1.335,0,0,0-.708.23l-.4-.645a1.94,1.94,0,0,1,.58-.278,2.537,2.537,0,0,1,.68-.083,1.5,1.5,0,0,1,.869.22A.7.7,0,0,1,3.37,13.156Z" data-cap="butt" data-color="color-2" data-stroke="none" stroke="none"/></g></svg>