<?xml version="1.0" encoding="UTF-8"?>
<svg id="Livello_1" data-name="Livello 1"
  xmlns="http://www.w3.org/2000/svg" viewBox="0 0 640 320">
  <g>
    <path d="m565.2,290.3l-52.5-1.6,4.6-.4c7.5-.6,7.7-11.6,0-11.9l-85.5-2.1c0-.1.1-.3.1-.4h10.8c28.4-.2,56.8-1.1,85-4.1,7.5-.8,7.8-11.5,0-11.9-107.6-4.7-215.2-7.9-322.8-10.7-30.3-.8-60.7-1.6-91.1-2.4-7.6-.2-7.6,11.6,0,11.9l38.2,1c-.1.3-.2.7-.3,1l-11.6-.2c-7.6-.1-7.6,11.6,0,11.9l18.9.6c-3.3,3-3.9,9.2,1.8,10l1.6.2h0l1.6.2c-.9.1-1.8.5-2.6,1-15.1,0-30.1.1-45.2.2-7.6.1-7.6,11.7,0,11.8,21.2.5,42.5.9,63.7,1.3-.6,3.2,1.3,7,5.6,7l71.3,1.1c-.5,3.3,1.4,7,5.6,7l281.7,1.4c4.6,0,6.4-4.1,5.5-7.5,5.7-.8,11.4-1.8,17-2.8,7-1.2,5.1-11.4-1.4-11.6Z" fill="var(--accent-light-icon)"/>
    <path d="m59.1,240.9c82.7-2.1,150.5,4.7,199.2,6.2,71.2,2.1,109.7,5,188.2,7.8,53.2,1.9,98.4,1.4,127.7.7" fill="none" stroke="#333" stroke-miterlimit="10" stroke-width="3"/>
  </g>
  <g>
    <circle cx="79.6" cy="29.9" r="17.5" fill="var(--accent-icon)"/>
    <g>
      <path d="m162.5,53.6v-.6c0-9.9-8-17.9-17.8-17.9h-1c-.4-16-13.5-28.7-29.4-28.3-13.9.3-25.6,10.7-27.8,24.5-1.4-.3-2.9-.4-4.4-.4-7.2,0-13.9,3.5-18,9.4-8.4-4.3-18.7-.8-22.9,7.6-.8,1.6-1.3,3.2-1.6,4.9l-.1.8h123Z" fill="#fff"/>
      <path d="m57.9,41.3c2.7,0,5.4.7,7.8,2,4.9-7.4,13.9-11,22.6-8.9,2.4-15.3,16.7-25.7,32-23.3,13.3,2.1,23.3,13.4,23.6,26.9h0c.6-.1,1.1-.1,1.7-.1,9.4,0,17.1,7.6,17.1,17H41.7c1.4-7.8,8.2-13.6,16.2-13.6Z" fill="#fff" stroke="#333" stroke-linecap="round" stroke-linejoin="round" stroke-width="2"/>
    </g>
  </g>
  <g>
    <path d="m564.4,116.1v-.6c0-4.2-3.4-7.6-7.6-7.6h-.3c-1.4-2.2-3.6-3.7-6.1-4.2v-.5c0-2.4-1.9-4.3-4.3-4.3h-.4c-2-7.2-9.5-11.3-16.7-9.2-4.1,1.2-7.4,4.3-8.9,8.3-.8-.2-1.6-.3-2.4-.3-4.8,0-9,3.3-10.1,8-1-.4-2-.6-3.1-.7-4.2,0-7.6,3.4-7.6,7.6,0,1.1.2,2.1.7,3.1l.1.3,66.7.1Z" fill="#fff" stroke="#333" stroke-linecap="round" stroke-linejoin="round"/>
    <g>
      <path d="m608.8,121.6v-.6c0-8.8-6.9-15.9-15.4-15.9h-.9c-.3-14.2-11.6-25.4-25.3-25.1-12.1.3-22.2,9.5-24,21.8-7.4-1.5-15,1.6-19.3,8-7.3-3.8-16.1-.7-19.8,6.8-.7,1.4-1.1,2.8-1.4,4.4l-.1.7,106.2-.1Z" fill="#fff"/>
      <path d="m519,110.8c2.3,0,4.6.6,6.7,1.7,4.2-6.3,11.9-9.4,19.2-7.6,1.7-13,13.6-22.2,26.7-20.5,11.8,1.5,20.7,11.6,20.7,23.5v.1c.5,0,1-.1,1.4-.1,8,0,14.5,6.5,14.5,14.5h-102.9c1.1-6.7,6.9-11.6,13.7-11.6Z" fill="#fff" stroke="#333" stroke-linecap="round" stroke-linejoin="round" stroke-width="2"/>
    </g>
  </g>
  <g>
    <path d="m394.1,244.9c1.6.3,4.1.6,7,.3,3.6-.4,5.5-1.4,8-2.1,2.8-.8,6.9-1.3,12.4,0" fill="none" stroke="#333" stroke-linecap="round" stroke-miterlimit="10" stroke-width="2"/>
    <path d="m383.3,240.4c1.1-1.3,2.3-2.9,3.4-4.6,3-4.5,2.9-7,5.1-9.9,1.2-1.5,3.2-3.5,7-5.1" fill="none" stroke="#333" stroke-linecap="round" stroke-miterlimit="10" stroke-width="2"/>
    <path d="m316.6,241.6c-1.1-.7-3-1.7-5.4-2.5-5.7-2-8.8-1.1-13.9-3-1.6-.6-3.8-1.6-6.3-3.6" fill="none" stroke="#333" stroke-linecap="round" stroke-miterlimit="10" stroke-width="2"/>
  </g>
  <g>
    <g>
      <polygon points="361.85 247.02 367.92 257.53 353.84 250.67 293.66 142.02 308.46 127.24 361.85 247.02 361.85 247.02" fill="var(--accent-icon)" stroke="#333" stroke-linejoin="round" stroke-width="2"/>
      <path d="m308.43,127.28s28.15,20.15,35.86,30.34c0,0,5.76,26.55,9.1,41.43,1.76,7.83,6.55,31.2,11.05,51.9,0,0,3.67-1.08,9.76-.49,1,.1,2.06,1.32,1.79,2.29-.22.8-1.3,1.26-1.75,1.95-1.24,1.89,1.13,3.53-.82,4.6-1.23.67-3.49-.31-3.97-2.47,0,0-8.1,8.19-12.68,5.62-1.46-.82,3.35-8.26,2.67-9.91-18.68-45.91-50.98-125.26-50.98-125.26h-.01s-.02,0-.02,0Z" fill="var(--accent-icon)" stroke="#333" stroke-linejoin="round" stroke-width="2"/>
    </g>
    <g>
      <path d="m252.73,111.02l-17.14,20.69c-2.48,2.98-2.34,7.36.33,10.18,0,0,70.01,73.2,109.73,114.66,0,0-9.45,6.64-7.08,8.65,1.18.99,3.89.59,7.08-.43,1.17-.38,1.94,2.35,3.18,1.85s2.92-4.24,4.12-4.8c1.93-.9,3.75-1.82,5.27-2.61,2.15-1.13,2.81-3.9,1.39-5.87l-33.9-47.02-73-95.3h0Z" fill="var(--accent-icon)" stroke="#333" stroke-linejoin="round" stroke-width="2"/>
      <path d="m283.84,106.52s-26.49-16.16-47.81-26.96c-2.84-1.44-5.71,1.91-3.87,4.5,19.35,27.06,85.11,121.29,119.26,170.25,0,0,4.93-1.49,6.68-1.01,2.6.72.01.02,0,0h0c-25.35-50.93-74.25-146.78-74.25-146.78Z" fill="var(--accent-icon)" stroke="#333" stroke-linejoin="round" stroke-width="2"/>
    </g>
  </g>
</svg>