<?xml version="1.0" encoding="UTF-8"?>
<svg id="powered_by" xmlns="http://www.w3.org/2000/svg" viewBox="0 0 244.44 30.44">
  <g>
    <g>
      <g>
        <path d="m137.64,29.2h4.85l-4.33-3.45c2.51-2.63,3.29-8.12,2.93-12.49-.36-4.41-1.84-7.78-4.03-9.28-2.69-1.78-8.04-2.47-12.47-2.53-4.43.04-9.8.74-12.47,2.53-2.19,1.48-3.67,4.87-4.03,9.28-.38,4.49.46,10.18,3.15,12.73,2.77,2.61,9.62,2.93,12.67,2.93h1.36c2.04,0,5.79-.14,8.88-1.02l-2.81-2.29s-.04,0-.06.02c-.06,0-.12.02-.16.02-1.96.3-4.23.44-6.51.4-2.35.04-4.69-.1-6.66-.42-.08-.02-.14-.02-.22-.04-.44-.08-.84-.16-1.24-.24-.02,0-.04-.02-.08-.02-.14-.04-.28-.08-.42-.1-.98-.26-1.82-.6-2.39-1-.1-.08-.2-.14-.28-.22-.04-.02-.06-.06-.1-.08-1.66-1.56-2.63-6.03-2.27-10.4.12-1.46.38-2.79.76-3.91.14-.4.28-.76.44-1.1h0c.44-.96.98-1.7,1.6-2.12.1-.06.18-.12.3-.18.42-.24.94-.46,1.56-.66,2.17-.72,5.47-1.18,9.02-1.22,3.55.04,6.84.5,9.02,1.22.6.2,1.14.42,1.56.66.1.06.2.12.3.18.6.42,1.16,1.14,1.6,2.12h0c.16.34.3.72.44,1.1.3.9.52,1.92.66,3.03.14,1.32.2,2.71.12,4.09-.2,3.13-1.04,5.93-2.23,7.14-.04.04-.08.06-.12.1h0l-7.9-6.41-2.37,1.92,11.97,9.7Z" fill="#2c97ff" stroke-width="0"/>
        <path d="m117.42,24.33l6.15-4.95-2.35-1.92-7.02,5.65c.6.5,1.74.92,3.23,1.22Z" fill="#2c97ff" stroke-width="0"/>
        <path d="m136.12,9.21c-.44-.92-.94-1.58-1.96-2.23l-9.56,7.78-9.58-7.76c-1,.36-1.9,1.88-1.96,2.23l11.53,9.36,11.51-9.38Z" fill="#2c97ff" stroke-width="0"/>
      </g>
      <g>
        <path d="m168.49,18.37c0,1.34-.36,2.35-1.06,3.07-.72.72-1.7,1.08-2.97,1.08h-1.92c-1.56,0-2.67-.28-3.33-.84-.66-.56-.98-1.52-.98-2.87v-10.68h5.99c1.36,0,2.37.34,3.05,1.04.68.68,1.02,1.66,1.02,2.91,0,.72-.18,1.34-.54,1.86-.36.52-.76.88-1.2,1.1,1.28.6,1.94,1.72,1.94,3.33Zm-4.51-4.63c1.02,0,1.54-.52,1.54-1.56s-.52-1.56-1.54-1.56h-3.01v3.11s3.01,0,3.01,0Zm1.74,4.49c0-.64-.12-1.14-.34-1.46-.22-.34-.64-.5-1.22-.5h-3.19v2.25c0,.56.14.94.4,1.16.28.22.72.32,1.34.32h1.44c1.06,0,1.58-.6,1.58-1.78Z" fill="#2c97ff" stroke-width="0"/>
        <path d="m181.7,14.66v1.1c0,2.41-.44,4.17-1.34,5.25-.9,1.1-2.33,1.64-4.31,1.64s-3.41-.54-4.29-1.64-1.32-2.85-1.32-5.31v-1.06c0-2.23.44-3.89,1.34-4.99s2.31-1.64,4.25-1.64,3.37.56,4.29,1.66c.92,1.1,1.38,2.75,1.38,4.99Zm-2.77,1.02v-.74c0-1.3-.16-2.31-.48-3.09-.38-.9-1.16-1.34-2.39-1.34s-2.04.44-2.41,1.34c-.3.72-.46,1.76-.46,3.09v.74c0,1.74.24,2.91.72,3.51.18.26.46.48.82.66.36.18.8.28,1.32.28s.94-.08,1.3-.26.64-.4.84-.64c.2-.26.36-.6.46-1.02.2-.66.3-1.48.3-2.53Z" fill="#2c97ff" stroke-width="0"/>
        <path d="m157.45,23l-2.75-2.31c.74-1.1,1.12-2.75,1.12-4.93v-1.1c0-2.21-.46-3.89-1.38-4.99s-2.33-1.66-4.29-1.66-3.35.54-4.25,1.64-1.34,2.75-1.34,4.99v1.06c0,2.45.44,4.23,1.32,5.31.88,1.1,2.31,1.64,4.29,1.64,1.08,0,2-.16,2.75-.5l1.08.86s3.45,0,3.45,0Zm-8.6-3.13c-.36-.18-.64-.4-.82-.66-.48-.6-.72-1.78-.72-3.51v-.74c0-1.34.16-2.35.46-3.09.38-.9,1.18-1.34,2.41-1.34s2.02.44,2.39,1.34c.32.76.48,1.8.48,3.09v.74c0,1.02-.1,1.86-.28,2.53-.1.42-.26.76-.46,1.02-.2.26-.48.48-.84.64-.36.18-.8.26-1.3.26-.54-.02-.98-.1-1.34-.28Z" fill="#2c97ff" stroke-width="0"/>
        <path d="m195.31,22.52h-3.41l-2.97-4.99-2.93,5.01h-3.41l4.75-7.38-4.45-7h3.39l2.65,4.65,2.69-4.65h3.37l-4.45,7,4.77,7.36Z" fill="#2c97ff" stroke-width="0"/>
        <path d="m208.36,13.92l-2.55,5.47c-.38.72-.84,1.1-1.38,1.1s-1.02-.38-1.38-1.16l-2.59-5.39v8.58h-2.77v-14.39h2.73l3.99,8.3,3.97-8.3h2.73v14.39h-2.77l.02-8.6h0Z" fill="#2c97ff" stroke-width="0"/>
        <path d="m224.94,22.52h-2.89l-.8-2.49h-4.75l-.78,2.49h-2.89l4.53-13.17c.2-.46.42-.78.66-.96.24-.18.54-.26.9-.26s.64.08.86.24.42.48.58.98l4.59,13.17Zm-4.33-4.85l-1.66-5.71-1.76,5.69,3.41.02h0Z" fill="#2c97ff" stroke-width="0"/>
        <path d="m229.65,22.52h-2.77v-14.39h2.77v14.39Z" fill="#2c97ff" stroke-width="0"/>
        <path d="m240.98,22.52h-4.21c-1.6,0-2.73-.32-3.45-.94s-1.06-1.66-1.06-3.05v-10.38h2.77v10.38c0,.56.12.96.38,1.18s.72.32,1.38.32h4.21l-.02,2.49h0Z" fill="#2c97ff" stroke-width="0"/>
      </g>
    </g>
  </g>
  <g>
    <path d="m3.56,15.56v5.57h-1.88V6.91h5.24c1.56,0,2.78.4,3.66,1.19s1.32,1.85,1.32,3.15c0,1.38-.43,2.44-1.29,3.19s-2.1,1.12-3.71,1.12h-3.35Zm0-1.53h3.37c1,0,1.77-.24,2.3-.71s.8-1.16.8-2.05c0-.85-.27-1.53-.8-2.04s-1.27-.77-2.2-.79h-3.48v5.59Z" fill="#333" stroke-width="0"/>
    <path d="m13.41,15.75c0-1.04.2-1.97.61-2.79s.97-1.46,1.7-1.91,1.55-.67,2.49-.67c1.44,0,2.6.5,3.49,1.49s1.33,2.32,1.33,3.97v.13c0,1.03-.2,1.95-.59,2.77s-.96,1.45-1.69,1.91-1.57.68-2.52.68c-1.43,0-2.59-.5-3.48-1.49s-1.33-2.31-1.33-3.96v-.13Zm1.82.21c0,1.17.27,2.11.82,2.82s1.27,1.06,2.18,1.06,1.65-.36,2.19-1.08.81-1.73.81-3.02c0-1.16-.28-2.1-.83-2.82s-1.28-1.08-2.19-1.08-1.61.35-2.16,1.06-.82,1.73-.82,3.05Z" fill="#333" stroke-width="0"/>
    <path d="m34.65,18.64l2.03-8.08h1.81l-3.08,10.57h-1.46l-2.57-8.01-2.5,8.01h-1.46l-3.07-10.57h1.8l2.08,7.91,2.46-7.91h1.46l2.51,8.08Z" fill="#333" stroke-width="0"/>
    <path d="m44.71,21.32c-1.43,0-2.6-.47-3.5-1.41s-1.35-2.2-1.35-3.77v-.33c0-1.05.2-1.98.6-2.81s.96-1.47,1.68-1.93,1.5-.7,2.34-.7c1.37,0,2.44.45,3.2,1.36s1.14,2.2,1.14,3.89v.75h-7.16c.03,1.04.33,1.88.91,2.52s1.32.96,2.22.96c.64,0,1.18-.13,1.62-.39s.83-.61,1.16-1.04l1.1.86c-.89,1.36-2.21,2.04-3.98,2.04Zm-.22-9.47c-.73,0-1.34.27-1.84.8s-.8,1.27-.92,2.23h5.29v-.14c-.05-.92-.3-1.63-.74-2.13s-1.04-.76-1.8-.76Z" fill="#333" stroke-width="0"/>
    <path d="m56.03,12.18c-.27-.05-.57-.07-.89-.07-1.18,0-1.99.5-2.41,1.51v7.5h-1.81v-10.57h1.76l.03,1.22c.59-.94,1.43-1.42,2.52-1.42.35,0,.62.05.8.14v1.68Z" fill="#333" stroke-width="0"/>
    <path d="m61.89,21.32c-1.43,0-2.6-.47-3.5-1.41s-1.35-2.2-1.35-3.77v-.33c0-1.05.2-1.98.6-2.81s.96-1.47,1.68-1.93,1.5-.7,2.34-.7c1.37,0,2.44.45,3.2,1.36s1.14,2.2,1.14,3.89v.75h-7.16c.03,1.04.33,1.88.91,2.52s1.32.96,2.22.96c.64,0,1.18-.13,1.62-.39s.83-.61,1.16-1.04l1.1.86c-.89,1.36-2.21,2.04-3.98,2.04Zm-.22-9.47c-.73,0-1.34.27-1.84.8s-.8,1.27-.92,2.23h5.29v-.14c-.05-.92-.3-1.63-.74-2.13s-1.04-.76-1.8-.76Z" fill="#333" stroke-width="0"/>
    <path d="m67.66,15.76c0-1.62.38-2.92,1.15-3.91s1.77-1.48,3.02-1.48,2.22.42,2.94,1.27v-5.51h1.81v15h-1.66l-.09-1.13c-.72.89-1.73,1.33-3.02,1.33s-2.22-.5-2.99-1.5-1.16-2.31-1.16-3.93v-.14Zm1.81.21c0,1.2.25,2.14.74,2.81s1.18,1.02,2.05,1.02c1.15,0,1.98-.51,2.51-1.54v-4.85c-.54-1-1.37-1.49-2.49-1.49-.89,0-1.58.34-2.07,1.03s-.74,1.7-.74,3.04Z" fill="#333" stroke-width="0"/>
    <path d="m93.28,15.96c0,1.61-.37,2.91-1.11,3.89s-1.74,1.47-2.99,1.47c-1.33,0-2.37-.47-3.1-1.42l-.09,1.22h-1.66V6.13h1.81v5.6c.73-.91,1.74-1.36,3.02-1.36s2.29.49,3.02,1.46,1.1,2.3,1.1,3.98v.16Zm-1.81-.21c0-1.23-.24-2.18-.71-2.85s-1.16-1.01-2.05-1.01c-1.19,0-2.05.55-2.57,1.66v4.57c.55,1.11,1.42,1.66,2.59,1.66.87,0,1.54-.33,2.02-1.01s.72-1.68.72-3.03Z" fill="#333" stroke-width="0"/>
    <path d="m98.9,18.48l2.46-7.92h1.93l-4.25,12.2c-.66,1.76-1.7,2.64-3.13,2.64l-.34-.03-.67-.13v-1.46l.49.04c.61,0,1.09-.12,1.43-.37s.62-.7.84-1.36l.4-1.07-3.77-10.45h1.97l2.64,7.92Z" fill="#333" stroke-width="0"/>
  </g>
</svg>