<?xml version="1.0" encoding="UTF-8"?>
<svg width="640px" height="212px" viewBox="0 0 640 212" version="1.1" xmlns="http://www.w3.org/2000/svg" xmlns:xlink="http://www.w3.org/1999/xlink">
    <defs>
        <path d="M8,26 C8,23.0544813 8,17.0544813 8,8 C8,3.581722 11.581722,0 16,0 L240,0 C244.418278,0 248,3.581722 248,8 L248,26 C248,30.3349143 251.447838,33.8645429 255.750821,33.9961932 L256,34 L632,34 L632,71 L0,71 L0,34 C4.418278,34 8,30.418278 8,26 Z" id="path-1"></path>
        <filter x="-0.6%" y="-3.5%" width="101.1%" height="109.9%" filterUnits="objectBoundingBox" id="filter-2">
            <feMorphology radius="0.5" operator="dilate" in="SourceAlpha" result="shadowSpreadOuter1"></feMorphology>
            <feOffset dx="0" dy="1" in="shadowSpreadOuter1" result="shadowOffsetOuter1"></feOffset>
            <feGaussianBlur stdDeviation="0.5" in="shadowOffsetOuter1" result="shadowBlurOuter1"></feGaussianBlur>
            <feColorMatrix values="0 0 0 0 0   0 0 0 0 0   0 0 0 0 0  0 0 0 0.05 0" type="matrix" in="shadowBlurOuter1" result="shadowMatrixOuter1"></feColorMatrix>
            <feMorphology radius="0.5" operator="dilate" in="SourceAlpha" result="shadowSpreadOuter2"></feMorphology>
            <feOffset dx="0" dy="1" in="shadowSpreadOuter2" result="shadowOffsetOuter2"></feOffset>
            <feGaussianBlur stdDeviation="0.5" in="shadowOffsetOuter2" result="shadowBlurOuter2"></feGaussianBlur>
            <feColorMatrix values="0 0 0 0 0   0 0 0 0 0   0 0 0 0 0  0 0 0 0.1 0" type="matrix" in="shadowBlurOuter2" result="shadowMatrixOuter2"></feColorMatrix>
            <feMerge>
                <feMergeNode in="shadowMatrixOuter1"></feMergeNode>
                <feMergeNode in="shadowMatrixOuter2"></feMergeNode>
            </feMerge>
        </filter>
        <rect id="path-3" x="0" y="0" width="16" height="16" rx="2"></rect>
        <rect id="path-5" x="108.5" y="66.5" width="319" height="129" rx="2"></rect>
        <filter x="-1.1%" y="-1.9%" width="102.2%" height="105.4%" filterUnits="objectBoundingBox" id="filter-6">
            <feMorphology radius="0.5" operator="dilate" in="SourceAlpha" result="shadowSpreadOuter1"></feMorphology>
            <feOffset dx="0" dy="1" in="shadowSpreadOuter1" result="shadowOffsetOuter1"></feOffset>
            <feGaussianBlur stdDeviation="0.5" in="shadowOffsetOuter1" result="shadowBlurOuter1"></feGaussianBlur>
            <feComposite in="shadowBlurOuter1" in2="SourceAlpha" operator="out" result="shadowBlurOuter1"></feComposite>
            <feColorMatrix values="0 0 0 0 0   0 0 0 0 0   0 0 0 0 0  0 0 0 0.05 0" type="matrix" in="shadowBlurOuter1" result="shadowMatrixOuter1"></feColorMatrix>
            <feMorphology radius="0.5" operator="dilate" in="SourceAlpha" result="shadowSpreadOuter2"></feMorphology>
            <feOffset dx="0" dy="1" in="shadowSpreadOuter2" result="shadowOffsetOuter2"></feOffset>
            <feGaussianBlur stdDeviation="0.5" in="shadowOffsetOuter2" result="shadowBlurOuter2"></feGaussianBlur>
            <feComposite in="shadowBlurOuter2" in2="SourceAlpha" operator="out" result="shadowBlurOuter2"></feComposite>
            <feColorMatrix values="0 0 0 0 0   0 0 0 0 0   0 0 0 0 0  0 0 0 0.1 0" type="matrix" in="shadowBlurOuter2" result="shadowMatrixOuter2"></feColorMatrix>
            <feMerge>
                <feMergeNode in="shadowMatrixOuter1"></feMergeNode>
                <feMergeNode in="shadowMatrixOuter2"></feMergeNode>
            </feMerge>
        </filter>
        <path d="M297.958984,169 C298.865234,169 299.566406,168.78125 300.0625,168.34375 C300.558594,167.90625 300.806641,167.304688 300.806641,166.539062 C300.806641,166.039062 300.672852,165.608398 300.405273,165.24707 C300.137695,164.885742 299.773438,164.640625 299.3125,164.511719 C299.703125,164.34375 300.011719,164.106445 300.238281,163.799805 C300.464844,163.493164 300.578125,163.140625 300.578125,162.742188 C300.578125,161.992188 300.344727,161.425781 299.87793,161.042969 C299.411133,160.660156 298.714844,160.46875 297.789062,160.46875 L297.789062,160.46875 L295,160.46875 L295,169 L297.958984,169 Z M297.824219,164.107422 L296.125,164.107422 L296.125,161.394531 L297.789062,161.394531 C298.347656,161.394531 298.763672,161.500977 299.037109,161.713867 C299.310547,161.926758 299.447266,162.267578 299.447266,162.736328 C299.447266,163.158203 299.299805,163.492188 299.004883,163.738281 C298.709961,163.984375 298.316406,164.107422 297.824219,164.107422 L297.824219,164.107422 Z M297.982422,168.080078 L296.125,168.080078 L296.125,165.009766 L298,165.009766 C299.117188,165.009766 299.675781,165.523438 299.675781,166.550781 C299.675781,167.027344 299.524414,167.401367 299.22168,167.672852 C298.918945,167.944336 298.505859,168.080078 297.982422,168.080078 L297.982422,168.080078 Z M303.478516,169 L303.478516,160 L302.394531,160 L302.394531,169 L303.478516,169 Z M307.814453,169.117188 C308.384766,169.117188 308.889648,168.980469 309.329102,168.707031 C309.768555,168.433594 310.106445,168.051758 310.342773,167.561523 C310.579102,167.071289 310.697266,166.517578 310.697266,165.900391 L310.697266,165.900391 L310.697266,165.824219 C310.697266,164.832031 310.430664,164.037109 309.897461,163.439453 C309.364258,162.841797 308.666016,162.542969 307.802734,162.542969 C307.244141,162.542969 306.74707,162.677734 306.311523,162.947266 C305.875977,163.216797 305.536133,163.599609 305.291992,164.095703 C305.047852,164.591797 304.925781,165.150391 304.925781,165.771484 L304.925781,165.771484 L304.925781,165.847656 C304.925781,166.832031 305.192383,167.623047 305.725586,168.220703 C306.258789,168.818359 306.955078,169.117188 307.814453,169.117188 Z M307.814453,168.232422 C307.267578,168.232422 306.831055,168.019531 306.504883,167.59375 C306.178711,167.167969 306.015625,166.603516 306.015625,165.900391 C306.015625,165.107422 306.179688,164.498047 306.507812,164.072266 C306.835938,163.646484 307.267578,163.433594 307.802734,163.433594 C308.349609,163.433594 308.788086,163.649414 309.118164,164.081055 C309.448242,164.512695 309.613281,165.076172 309.613281,165.771484 C309.613281,166.548828 309.451172,167.15332 309.126953,167.584961 C308.802734,168.016602 308.365234,168.232422 307.814453,168.232422 Z M314.599609,169.117188 C315.029297,169.117188 315.436523,169.019531 315.821289,168.824219 C316.206055,168.628906 316.513672,168.367188 316.744141,168.039062 C316.974609,167.710938 317.099609,167.365234 317.119141,167.001953 L317.119141,167.001953 L316.09375,167.001953 C316.0625,167.353516 315.902344,167.646484 315.613281,167.880859 C315.324219,168.115234 314.986328,168.232422 314.599609,168.232422 C314.041016,168.232422 313.611328,168.035156 313.310547,167.640625 C313.009766,167.246094 312.859375,166.683594 312.859375,165.953125 L312.859375,165.953125 L312.859375,165.748047 C312.859375,164.998047 313.010742,164.424805 313.313477,164.02832 C313.616211,163.631836 314.042969,163.433594 314.59375,163.433594 C315.003906,163.433594 315.348633,163.56543 315.62793,163.829102 C315.907227,164.092773 316.0625,164.429688 316.09375,164.839844 L316.09375,164.839844 L317.119141,164.839844 C317.087891,164.160156 316.836914,163.607422 316.366211,163.181641 C315.895508,162.755859 315.304688,162.542969 314.59375,162.542969 C314.015625,162.542969 313.514648,162.675781 313.09082,162.941406 C312.666992,163.207031 312.341797,163.580078 312.115234,164.060547 C311.888672,164.541016 311.775391,165.089844 311.775391,165.707031 L311.775391,165.707031 L311.775391,165.888672 C311.775391,166.888672 312.030273,167.676758 312.540039,168.25293 C313.049805,168.829102 313.736328,169.117188 314.599609,169.117188 Z M319.427734,169 L319.427734,166.773438 L320.107422,166.064453 L322.316406,169 L323.587891,169 L320.833984,165.308594 L323.300781,162.660156 L321.982422,162.660156 L320.007812,164.746094 L319.427734,165.443359 L319.427734,160 L318.34375,160 L318.34375,169 L319.427734,169 Z" id="path-7"></path>
        <path d="M367.160156,169 L367.962891,166.773438 L371.537109,166.773438 L372.351562,169 L373.505859,169 L370.242188,160.46875 L369.257812,160.46875 L366,169 L367.160156,169 Z M371.203125,165.847656 L368.302734,165.847656 L369.75,161.857422 L371.203125,165.847656 Z M375.662109,169 L375.662109,160 L374.578125,160 L374.578125,169 L375.662109,169 Z M378.574219,169 L378.574219,160 L377.490234,160 L377.490234,169 L378.574219,169 Z M382.910156,169.117188 C383.480469,169.117188 383.985352,168.980469 384.424805,168.707031 C384.864258,168.433594 385.202148,168.051758 385.438477,167.561523 C385.674805,167.071289 385.792969,166.517578 385.792969,165.900391 L385.792969,165.900391 L385.792969,165.824219 C385.792969,164.832031 385.526367,164.037109 384.993164,163.439453 C384.459961,162.841797 383.761719,162.542969 382.898438,162.542969 C382.339844,162.542969 381.842773,162.677734 381.407227,162.947266 C380.97168,163.216797 380.631836,163.599609 380.387695,164.095703 C380.143555,164.591797 380.021484,165.150391 380.021484,165.771484 L380.021484,165.771484 L380.021484,165.847656 C380.021484,166.832031 380.288086,167.623047 380.821289,168.220703 C381.354492,168.818359 382.050781,169.117188 382.910156,169.117188 Z M382.910156,168.232422 C382.363281,168.232422 381.926758,168.019531 381.600586,167.59375 C381.274414,167.167969 381.111328,166.603516 381.111328,165.900391 C381.111328,165.107422 381.275391,164.498047 381.603516,164.072266 C381.931641,163.646484 382.363281,163.433594 382.898438,163.433594 C383.445312,163.433594 383.883789,163.649414 384.213867,164.081055 C384.543945,164.512695 384.708984,165.076172 384.708984,165.771484 C384.708984,166.548828 384.546875,167.15332 384.222656,167.584961 C383.898438,168.016602 383.460938,168.232422 382.910156,168.232422 Z M389.302734,169 L390.802734,164.195312 L392.34375,169 L393.222656,169 L395.068359,162.660156 L393.984375,162.660156 L392.765625,167.505859 L391.259766,162.660156 L390.386719,162.660156 L388.910156,167.40625 L387.662109,162.660156 L386.583984,162.660156 L388.423828,169 L389.302734,169 Z" id="path-8"></path>
    </defs>
    <g id="notifications-/-browser-/-preview" stroke="none" stroke-width="1" fill="none" fill-rule="evenodd">
        <g id="Group-2" transform="translate(4.000000, 8.000000)">
            <g id="Group">
                <g id="Combined-Shape">
                    <use fill="black" fill-opacity="1" filter="url(#filter-2)" xlink:href="#path-1"></use>
                    <use fill="#FFFFFF" fill-rule="evenodd" xlink:href="#path-1"></use>
                </g>
                <rect id="Rectangle-6" fill="#F1F3F4" fill-rule="nonzero" x="108" y="38" width="431" height="28" rx="14"></rect>
                <path d="M147.46582,57 L149.21582,51.3945312 L151.013672,57 L152.039062,57 L154.192383,49.6035156 L152.927734,49.6035156 L151.505859,55.2568359 L149.749023,49.6035156 L148.730469,49.6035156 L147.007812,55.140625 L145.551758,49.6035156 L144.293945,49.6035156 L146.44043,57 L147.46582,57 Z M158.546875,57.1367188 C159.786458,57.1367188 160.716146,56.6604818 161.335938,55.7080078 L161.335938,55.7080078 L160.563477,55.1064453 C160.331055,55.4072266 160.059896,55.648763 159.75,55.8310547 C159.440104,56.0133464 159.061849,56.1044922 158.615234,56.1044922 C157.986328,56.1044922 157.467936,55.8800456 157.060059,55.4311523 C156.652181,54.9822591 156.439128,54.3932292 156.420898,53.6640625 L156.420898,53.6640625 L161.431641,53.6640625 L161.431641,53.1376953 C161.431641,51.9573568 161.165039,51.0504557 160.631836,50.4169922 C160.098633,49.7835286 159.351237,49.4667969 158.389648,49.4667969 C157.801758,49.4667969 157.256022,49.6297201 156.752441,49.9555664 C156.248861,50.2814128 155.856934,50.7325846 155.57666,51.309082 C155.296387,51.8855794 155.15625,52.5406901 155.15625,53.2744141 L155.15625,53.2744141 L155.15625,53.5068359 C155.15625,54.6097005 155.470703,55.4903971 156.099609,56.1489258 C156.728516,56.8074544 157.544271,57.1367188 158.546875,57.1367188 Z M160.166992,52.625 L156.461914,52.625 C156.543945,51.9550781 156.758138,51.4344076 157.104492,51.0629883 C157.450846,50.691569 157.879232,50.5058594 158.389648,50.5058594 C158.918294,50.5058594 159.337565,50.6824544 159.647461,51.0356445 C159.957357,51.3888346 160.130534,51.8867188 160.166992,52.5292969 L160.166992,52.5292969 L160.166992,52.625 Z M166.285156,57.1367188 C167.160156,57.1367188 167.857422,56.7937826 168.376953,56.1079102 C168.896484,55.4220378 169.15625,54.5139974 169.15625,53.3837891 L169.15625,53.3837891 L169.15625,53.2744141 C169.15625,52.0940755 168.899902,51.164388 168.387207,50.4853516 C167.874512,49.8063151 167.169271,49.4667969 166.271484,49.4667969 C165.373698,49.4667969 164.669596,49.7835286 164.15918,50.4169922 L164.15918,50.4169922 L164.15918,46.5 L162.894531,46.5 L162.894531,57 L164.056641,57 L164.118164,56.1455078 C164.628581,56.8063151 165.350911,57.1367188 166.285156,57.1367188 Z M165.970703,56.0634766 C165.150391,56.0634766 164.546549,55.6761068 164.15918,54.9013672 L164.15918,54.9013672 L164.15918,51.7021484 C164.523763,50.9274089 165.123047,50.5400391 165.957031,50.5400391 C166.58138,50.5400391 167.059896,50.7747396 167.392578,51.2441406 C167.72526,51.7135417 167.891602,52.3789062 167.891602,53.2402344 C167.891602,54.1835938 167.722982,54.889974 167.385742,55.359375 C167.048503,55.828776 166.576823,56.0634766 165.970703,56.0634766 Z M172.006836,57 L172.006836,51.5996094 C172.312174,50.8932292 172.879557,50.5400391 173.708984,50.5400391 C174.761719,50.5400391 175.288086,51.0777995 175.288086,52.1533203 L175.288086,52.1533203 L175.288086,57 L176.55957,57 L176.55957,52.0917969 C176.609701,51.6178385 176.789714,51.2407227 177.099609,50.9604492 C177.409505,50.6801758 177.799154,50.5400391 178.268555,50.5400391 C178.838216,50.5400391 179.243815,50.6710612 179.485352,50.9331055 C179.726888,51.1951497 179.847656,51.5904948 179.847656,52.1191406 L179.847656,52.1191406 L179.847656,57 L181.112305,57 L181.112305,52.0439453 C181.084961,50.3258464 180.260091,49.4667969 178.637695,49.4667969 C178.099935,49.4667969 177.633952,49.5761719 177.239746,49.7949219 C176.84554,50.0136719 176.525391,50.3007812 176.279297,50.65625 C175.905599,49.8632812 175.201497,49.4667969 174.166992,49.4667969 C173.246419,49.4667969 172.514974,49.7858073 171.972656,50.4238281 L171.972656,50.4238281 L171.938477,49.6035156 L170.742188,49.6035156 L170.742188,57 L172.006836,57 Z M185.302734,57.1367188 C186.11849,57.1367188 186.820312,56.8313802 187.408203,56.2207031 C187.453776,56.594401 187.513021,56.8541667 187.585938,57 L187.585938,57 L188.912109,57 L188.912109,56.890625 C188.738932,56.4895833 188.652344,55.9495443 188.652344,55.2705078 L188.652344,55.2705078 L188.652344,51.8662109 C188.634115,51.1188151 188.383464,50.5320638 187.900391,50.105957 C187.417318,49.6798503 186.749674,49.4667969 185.897461,49.4667969 C185.359701,49.4667969 184.866374,49.5670573 184.41748,49.7675781 C183.968587,49.968099 183.613118,50.2403971 183.351074,50.5844727 C183.08903,50.9285482 182.958008,51.2851562 182.958008,51.6542969 L182.958008,51.6542969 L184.229492,51.6542969 C184.229492,51.3307292 184.382161,51.055013 184.6875,50.8271484 C184.992839,50.5992839 185.371094,50.4853516 185.822266,50.4853516 C186.33724,50.4853516 186.726888,50.6163737 186.991211,50.878418 C187.255534,51.1404622 187.387695,51.492513 187.387695,51.9345703 L187.387695,51.9345703 L187.387695,52.515625 L186.157227,52.515625 C185.095378,52.515625 184.271647,52.7286784 183.686035,53.1547852 C183.100423,53.5808919 182.807617,54.1790365 182.807617,54.9492188 C182.807617,55.5826823 183.041178,56.1056315 183.508301,56.5180664 C183.975423,56.9305013 184.573568,57.1367188 185.302734,57.1367188 Z M185.487305,56.0361328 C185.072591,56.0361328 184.733073,55.9244792 184.46875,55.7011719 C184.204427,55.4778646 184.072266,55.1679688 184.072266,54.7714844 C184.072266,53.8645833 184.847005,53.4111328 186.396484,53.4111328 L186.396484,53.4111328 L187.387695,53.4111328 L187.387695,54.9287109 C187.22819,55.2568359 186.970703,55.5234375 186.615234,55.7285156 C186.259766,55.9335938 185.883789,56.0361328 185.487305,56.0361328 Z M191.386719,48.359375 C191.632812,48.359375 191.819661,48.2910156 191.947266,48.1542969 C192.07487,48.0175781 192.138672,47.8466797 192.138672,47.6416016 C192.138672,47.4365234 192.07487,47.2633464 191.947266,47.1220703 C191.819661,46.9807943 191.632812,46.9101562 191.386719,46.9101562 C191.140625,46.9101562 190.954915,46.9807943 190.82959,47.1220703 C190.704264,47.2633464 190.641602,47.4365234 190.641602,47.6416016 C190.641602,47.8466797 190.704264,48.0175781 190.82959,48.1542969 C190.954915,48.2910156 191.140625,48.359375 191.386719,48.359375 Z M192.008789,57 L192.008789,49.6035156 L190.744141,49.6035156 L190.744141,57 L192.008789,57 Z M195.40625,57 L195.40625,46.5 L194.141602,46.5 L194.141602,57 L195.40625,57 Z M198.236328,57.0751953 C198.496094,57.0751953 198.693197,57.0045573 198.827637,56.8632812 C198.962077,56.7220052 199.029297,56.5465495 199.029297,56.3369141 C199.029297,56.1181641 198.962077,55.9358724 198.827637,55.7900391 C198.693197,55.6442057 198.496094,55.5712891 198.236328,55.5712891 C197.976562,55.5712891 197.781738,55.6442057 197.651855,55.7900391 C197.521973,55.9358724 197.457031,56.1181641 197.457031,56.3369141 C197.457031,56.5465495 197.521973,56.7220052 197.651855,56.8632812 C197.781738,57.0045573 197.976562,57.0751953 198.236328,57.0751953 Z M204.183594,57.1367188 C205.423177,57.1367188 206.352865,56.6604818 206.972656,55.7080078 L206.972656,55.7080078 L206.200195,55.1064453 C205.967773,55.4072266 205.696615,55.648763 205.386719,55.8310547 C205.076823,56.0133464 204.698568,56.1044922 204.251953,56.1044922 C203.623047,56.1044922 203.104655,55.8800456 202.696777,55.4311523 C202.2889,54.9822591 202.075846,54.3932292 202.057617,53.6640625 L202.057617,53.6640625 L207.068359,53.6640625 L207.068359,53.1376953 C207.068359,51.9573568 206.801758,51.0504557 206.268555,50.4169922 C205.735352,49.7835286 204.987956,49.4667969 204.026367,49.4667969 C203.438477,49.4667969 202.892741,49.6297201 202.38916,49.9555664 C201.885579,50.2814128 201.493652,50.7325846 201.213379,51.309082 C200.933105,51.8855794 200.792969,52.5406901 200.792969,53.2744141 L200.792969,53.2744141 L200.792969,53.5068359 C200.792969,54.6097005 201.107422,55.4903971 201.736328,56.1489258 C202.365234,56.8074544 203.18099,57.1367188 204.183594,57.1367188 Z M205.803711,52.625 L202.098633,52.625 C202.180664,51.9550781 202.394857,51.4344076 202.741211,51.0629883 C203.087565,50.691569 203.515951,50.5058594 204.026367,50.5058594 C204.555013,50.5058594 204.974284,50.6824544 205.28418,51.0356445 C205.594076,51.3888346 205.767253,51.8867188 205.803711,52.5292969 L205.803711,52.5292969 L205.803711,52.625 Z M209.789062,57 L209.789062,51.5996094 C210.094401,50.8932292 210.661784,50.5400391 211.491211,50.5400391 C212.543945,50.5400391 213.070312,51.0777995 213.070312,52.1533203 L213.070312,52.1533203 L213.070312,57 L214.341797,57 L214.341797,52.0917969 C214.391927,51.6178385 214.57194,51.2407227 214.881836,50.9604492 C215.191732,50.6801758 215.58138,50.5400391 216.050781,50.5400391 C216.620443,50.5400391 217.026042,50.6710612 217.267578,50.9331055 C217.509115,51.1951497 217.629883,51.5904948 217.629883,52.1191406 L217.629883,52.1191406 L217.629883,57 L218.894531,57 L218.894531,52.0439453 C218.867188,50.3258464 218.042318,49.4667969 216.419922,49.4667969 C215.882161,49.4667969 215.416178,49.5761719 215.021973,49.7949219 C214.627767,50.0136719 214.307617,50.3007812 214.061523,50.65625 C213.687826,49.8632812 212.983724,49.4667969 211.949219,49.4667969 C211.028646,49.4667969 210.297201,49.7858073 209.754883,50.4238281 L209.754883,50.4238281 L209.720703,49.6035156 L208.524414,49.6035156 L208.524414,57 L209.789062,57 Z M223.084961,57.1367188 C223.900716,57.1367188 224.602539,56.8313802 225.19043,56.2207031 C225.236003,56.594401 225.295247,56.8541667 225.368164,57 L225.368164,57 L226.694336,57 L226.694336,56.890625 C226.521159,56.4895833 226.43457,55.9495443 226.43457,55.2705078 L226.43457,55.2705078 L226.43457,51.8662109 C226.416341,51.1188151 226.16569,50.5320638 225.682617,50.105957 C225.199544,49.6798503 224.531901,49.4667969 223.679688,49.4667969 C223.141927,49.4667969 222.6486,49.5670573 222.199707,49.7675781 C221.750814,49.968099 221.395345,50.2403971 221.133301,50.5844727 C220.871257,50.9285482 220.740234,51.2851562 220.740234,51.6542969 L220.740234,51.6542969 L222.011719,51.6542969 C222.011719,51.3307292 222.164388,51.055013 222.469727,50.8271484 C222.775065,50.5992839 223.15332,50.4853516 223.604492,50.4853516 C224.119466,50.4853516 224.509115,50.6163737 224.773438,50.878418 C225.03776,51.1404622 225.169922,51.492513 225.169922,51.9345703 L225.169922,51.9345703 L225.169922,52.515625 L223.939453,52.515625 C222.877604,52.515625 222.053874,52.7286784 221.468262,53.1547852 C220.88265,53.5808919 220.589844,54.1790365 220.589844,54.9492188 C220.589844,55.5826823 220.823405,56.1056315 221.290527,56.5180664 C221.75765,56.9305013 222.355794,57.1367188 223.084961,57.1367188 Z M223.269531,56.0361328 C222.854818,56.0361328 222.515299,55.9244792 222.250977,55.7011719 C221.986654,55.4778646 221.854492,55.1679688 221.854492,54.7714844 C221.854492,53.8645833 222.629232,53.4111328 224.178711,53.4111328 L224.178711,53.4111328 L225.169922,53.4111328 L225.169922,54.9287109 C225.010417,55.2568359 224.75293,55.5234375 224.397461,55.7285156 C224.041992,55.9335938 223.666016,56.0361328 223.269531,56.0361328 Z M229.168945,48.359375 C229.415039,48.359375 229.601888,48.2910156 229.729492,48.1542969 C229.857096,48.0175781 229.920898,47.8466797 229.920898,47.6416016 C229.920898,47.4365234 229.857096,47.2633464 229.729492,47.1220703 C229.601888,46.9807943 229.415039,46.9101562 229.168945,46.9101562 C228.922852,46.9101562 228.737142,46.9807943 228.611816,47.1220703 C228.486491,47.2633464 228.423828,47.4365234 228.423828,47.6416016 C228.423828,47.8466797 228.486491,48.0175781 228.611816,48.1542969 C228.737142,48.2910156 228.922852,48.359375 229.168945,48.359375 Z M229.791016,57 L229.791016,49.6035156 L228.526367,49.6035156 L228.526367,57 L229.791016,57 Z M233.188477,57 L233.188477,46.5 L231.923828,46.5 L231.923828,57 L233.188477,57 Z M236.476562,59.84375 L236.476562,56.2822266 C236.991536,56.851888 237.697917,57.1367188 238.595703,57.1367188 C239.47526,57.1367188 240.172526,56.7926432 240.6875,56.1044922 C241.202474,55.4163411 241.459961,54.5094401 241.459961,53.3837891 L241.459961,53.3837891 L241.459961,53.2675781 C241.459961,52.0735677 241.201335,51.1416016 240.684082,50.4716797 C240.166829,49.8017578 239.463867,49.4667969 238.575195,49.4667969 C237.65918,49.4667969 236.943685,49.7858073 236.428711,50.4238281 L236.428711,50.4238281 L236.367188,49.6035156 L235.211914,49.6035156 L235.211914,59.84375 L236.476562,59.84375 Z M238.212891,56.1044922 C237.433594,56.1044922 236.854818,55.7672526 236.476562,55.0927734 L236.476562,55.0927734 L236.476562,51.5585938 C236.859375,50.8795573 237.433594,50.5400391 238.199219,50.5400391 C238.81901,50.5400391 239.306641,50.7815755 239.662109,51.2646484 C240.017578,51.7477214 240.195312,52.40625 240.195312,53.2402344 C240.195312,54.188151 240.016439,54.9025065 239.658691,55.3833008 C239.300944,55.8640951 238.81901,56.1044922 238.212891,56.1044922 Z M244.331055,57 L244.331055,51.7294922 C244.504232,51.3740234 244.745768,51.0869141 245.055664,50.8681641 C245.36556,50.6494141 245.725586,50.5400391 246.135742,50.5400391 C246.641602,50.5400391 247.01416,50.6676432 247.253418,50.9228516 C247.492676,51.1780599 247.614583,51.5722656 247.619141,52.1054688 L247.619141,52.1054688 L247.619141,57 L248.883789,57 L248.883789,52.1123047 C248.870117,50.3486328 248.081706,49.4667969 246.518555,49.4667969 C245.607096,49.4667969 244.868815,49.8222656 244.303711,50.5332031 L244.303711,50.5332031 L244.262695,49.6035156 L243.066406,49.6035156 L243.066406,57 L244.331055,57 Z M252.165039,57 L252.165039,46.5 L250.900391,46.5 L250.900391,57 L252.165039,57 Z M254.995117,57.0751953 C255.254883,57.0751953 255.451986,57.0045573 255.586426,56.8632812 C255.720866,56.7220052 255.788086,56.5465495 255.788086,56.3369141 C255.788086,56.1181641 255.720866,55.9358724 255.586426,55.7900391 C255.451986,55.6442057 255.254883,55.5712891 254.995117,55.5712891 C254.735352,55.5712891 254.540527,55.6442057 254.410645,55.7900391 C254.280762,55.9358724 254.21582,56.1181641 254.21582,56.3369141 C254.21582,56.5465495 254.280762,56.7220052 254.410645,56.8632812 C254.540527,57.0045573 254.735352,57.0751953 254.995117,57.0751953 Z M260.839844,57.1367188 C261.341146,57.1367188 261.816243,57.0227865 262.265137,56.7949219 C262.71403,56.5670573 263.072917,56.2617188 263.341797,55.8789062 C263.610677,55.4960938 263.75651,55.0927734 263.779297,54.6689453 L263.779297,54.6689453 L262.583008,54.6689453 C262.546549,55.0791016 262.359701,55.4208984 262.022461,55.6943359 C261.685221,55.9677734 261.291016,56.1044922 260.839844,56.1044922 C260.188151,56.1044922 259.686849,55.874349 259.335938,55.4140625 C258.985026,54.953776 258.80957,54.297526 258.80957,53.4453125 L258.80957,53.4453125 L258.80957,53.2060547 C258.80957,52.3310547 258.986165,51.6622721 259.339355,51.199707 C259.692546,50.7371419 260.19043,50.5058594 260.833008,50.5058594 C261.311523,50.5058594 261.713704,50.659668 262.039551,50.9672852 C262.365397,51.2749023 262.546549,51.6679688 262.583008,52.1464844 L262.583008,52.1464844 L263.779297,52.1464844 C263.742839,51.3535156 263.450033,50.7086589 262.900879,50.2119141 C262.351725,49.7151693 261.662435,49.4667969 260.833008,49.4667969 C260.158529,49.4667969 259.574056,49.6217448 259.07959,49.9316406 C258.585124,50.2415365 258.205729,50.6767578 257.941406,51.2373047 C257.677083,51.7978516 257.544922,52.438151 257.544922,53.1582031 L257.544922,53.1582031 L257.544922,53.3701172 C257.544922,54.5367839 257.842285,55.4562174 258.437012,56.128418 C259.031738,56.8006185 259.832682,57.1367188 260.839844,57.1367188 Z M268.236328,57.1367188 C268.901693,57.1367188 269.490723,56.9772135 270.003418,56.6582031 C270.516113,56.3391927 270.910319,55.8937174 271.186035,55.3217773 C271.461751,54.7498372 271.599609,54.1038411 271.599609,53.3837891 L271.599609,53.3837891 L271.599609,53.2949219 C271.599609,52.1373698 271.288574,51.2099609 270.666504,50.5126953 C270.044434,49.8154297 269.229818,49.4667969 268.222656,49.4667969 C267.570964,49.4667969 266.991048,49.6240234 266.48291,49.9384766 C265.974772,50.2529297 265.578288,50.6995443 265.293457,51.2783203 C265.008626,51.8570964 264.866211,52.5087891 264.866211,53.2333984 L264.866211,53.2333984 L264.866211,53.3222656 C264.866211,54.4707031 265.177246,55.3935547 265.799316,56.0908203 C266.421387,56.7880859 267.233724,57.1367188 268.236328,57.1367188 Z M268.236328,56.1044922 C267.598307,56.1044922 267.08903,55.8561198 266.708496,55.359375 C266.327962,54.8626302 266.137695,54.2041016 266.137695,53.3837891 C266.137695,52.4586589 266.329102,51.7477214 266.711914,51.2509766 C267.094727,50.7542318 267.598307,50.5058594 268.222656,50.5058594 C268.860677,50.5058594 269.372233,50.7576497 269.757324,51.2612305 C270.142415,51.7648112 270.334961,52.4222005 270.334961,53.2333984 C270.334961,54.1402995 270.145833,54.8455404 269.767578,55.3491211 C269.389323,55.8527018 268.878906,56.1044922 268.236328,56.1044922 Z M274.443359,57 L274.443359,51.5996094 C274.748698,50.8932292 275.316081,50.5400391 276.145508,50.5400391 C277.198242,50.5400391 277.724609,51.0777995 277.724609,52.1533203 L277.724609,52.1533203 L277.724609,57 L278.996094,57 L278.996094,52.0917969 C279.046224,51.6178385 279.226237,51.2407227 279.536133,50.9604492 C279.846029,50.6801758 280.235677,50.5400391 280.705078,50.5400391 C281.27474,50.5400391 281.680339,50.6710612 281.921875,50.9331055 C282.163411,51.1951497 282.28418,51.5904948 282.28418,52.1191406 L282.28418,52.1191406 L282.28418,57 L283.548828,57 L283.548828,52.0439453 C283.521484,50.3258464 282.696615,49.4667969 281.074219,49.4667969 C280.536458,49.4667969 280.070475,49.5761719 279.67627,49.7949219 C279.282064,50.0136719 278.961914,50.3007812 278.71582,50.65625 C278.342122,49.8632812 277.638021,49.4667969 276.603516,49.4667969 C275.682943,49.4667969 274.951497,49.7858073 274.40918,50.4238281 L274.40918,50.4238281 L274.375,49.6035156 L273.178711,49.6035156 L273.178711,57 L274.443359,57 Z" id="webmail.emailpnl.com" fill="#000000" fill-rule="nonzero"></path>
                <rect id="Rectangle" fill="#BEC0C2" fill-rule="nonzero" x="110" y="40" width="32" height="24" rx="12"></rect>
                <path d="M126,47.5 C127.380712,47.5 128.5,48.6192881 128.5,50 L128.501022,51.0632721 C129.363117,51.2856488 130,52.0684484 130,53 L130,56 C130,57.1045695 129.104569,58 128,58 L124,58 C122.895431,58 122,57.1045695 122,56 L122,53 C122,52.0680872 122.637377,51.2850418 123.499981,51.0630137 L123.5,50 C123.5,48.6192881 124.619288,47.5 126,47.5 Z M126,48.5 C125.220304,48.5 124.579551,49.0948881 124.506867,49.85554 L124.5,50 L124.5,51 L127.5,51 L127.5,50 C127.5,49.1715729 126.828427,48.5 126,48.5 Z" id="Combined-Shape" fill="#606369" fill-rule="nonzero"></path>
                <path d="M92.5,45.5 L92.5,51.5 L86.5,51.5 L88.8680359,49.1332923 C88.8335689,49.1101233 88.8005684,49.0837703 88.7694391,49.0542229 C87.8922964,48.2216535 86.7341505,47.75 85.5,47.75 C82.8766474,47.75 80.75,49.8766474 80.75,52.5 C80.75,55.1233526 82.8766474,57.25 85.5,57.25 C87.4993457,57.25 89.2639064,56.0033212 89.9516588,54.1611472 C90.0965331,53.7730953 90.5285551,53.5759608 90.9166071,53.7208351 C91.304659,53.8657094 91.5017935,54.2977315 91.3569192,54.6857834 C90.4519173,57.1098695 88.1304614,58.75 85.5,58.75 C82.0482203,58.75 79.25,55.9517797 79.25,52.5 C79.25,49.0482203 82.0482203,46.25 85.5,46.25 C87.1223087,46.25 88.6489315,46.8717153 89.8020963,47.9662803 C89.8430636,48.0051658 89.8786747,48.047576 89.9089053,48.0925884 L92.5,45.5 Z" id="Combined-Shape" fill="#606369" fill-rule="nonzero"></path>
                <path d="M54.0143776,45.9541835 C54.2884196,46.2124407 54.3249653,46.6282038 54.1159094,46.9281437 L54.0458165,47.0143776 L50.288,50.9999979 L59.5,51 C59.9142136,51 60.25,51.3357864 60.25,51.7499979 C60.25,52.1296958 59.9678461,52.443491 59.6017706,52.4931534 L59.5,52.5 L50.184,52.4999979 L54.0458165,56.5968246 C54.3040737,56.8708666 54.3159189,57.2880646 54.0894572,57.5750897 L54.0143776,57.6570187 C53.7403357,57.9152759 53.3231376,57.9271211 53.0361125,57.7006595 L52.9541835,57.6255799 L47.9541835,52.3199787 C47.8119295,52.1690302 47.7440065,51.9738229 47.7504143,51.7806092 C47.7502057,51.7704576 47.75,51.7602528 47.75,51.7499979 C47.75,51.4655257 47.9083801,51.2180431 48.1417728,51.0909195 L52.9541835,45.9856224 C53.2382664,45.6841762 53.7129315,45.6701006 54.0143776,45.9541835 Z" id="Combined-Shape" fill="#606369" fill-rule="nonzero" opacity="0.5" transform="translate(54.000000, 51.805601) scale(-1, 1) translate(-54.000000, -51.805601) "></path>
                <path d="M22.0143776,45.9541835 C22.2884196,46.2124407 22.3249653,46.6282038 22.1159094,46.9281437 L22.0458165,47.0143776 L18.288,50.9999979 L27.5,51 C27.9142136,51 28.25,51.3357864 28.25,51.7499979 C28.25,52.1296958 27.9678461,52.443491 27.6017706,52.4931534 L27.5,52.5 L18.184,52.4999979 L22.0458165,56.5968246 C22.3040737,56.8708666 22.3159188,57.2880646 22.0894572,57.5750897 L22.0143776,57.6570187 C21.7403357,57.9152759 21.3231376,57.9271211 21.0361125,57.7006595 L20.9541835,57.6255799 L15.9541835,52.3199787 C15.8119295,52.1690302 15.7440065,51.9738229 15.7504143,51.7806092 C15.7502057,51.7704576 15.75,51.7602528 15.75,51.7499979 C15.75,51.4655257 15.90838,51.2180431 16.1417728,51.0909195 L20.9541835,45.9856224 C21.2382664,45.6841762 21.7129315,45.6701006 22.0143776,45.9541835 Z" id="Combined-Shape" fill="#606369" fill-rule="nonzero"></path>
                <path d="M228.946212,12.8970518 L229.03033,12.9696699 L232,15.939 L234.96967,12.9696699 C235.262563,12.6767767 235.737437,12.6767767 236.03033,12.9696699 C236.296597,13.2359365 236.320803,13.6526002 236.102948,13.9462116 L236.03033,14.0303301 L233.061,17 L236.03033,19.9696699 C236.323223,20.2625631 236.323223,20.7374369 236.03033,21.0303301 C235.764063,21.2965966 235.3474,21.3208027 235.053788,21.1029482 L234.96967,21.0303301 L232,18.061 L229.03033,21.0303301 C228.737437,21.3232233 228.262563,21.3232233 227.96967,21.0303301 C227.703403,20.7640635 227.679197,20.3473998 227.897052,20.0537883 L227.96967,19.9696699 L230.939,17 L227.96967,14.0303301 C227.676777,13.7374369 227.676777,13.2625631 227.96967,12.9696699 C228.206351,12.7329885 228.561865,12.6875648 228.844159,12.8333988 L228.946212,12.8970518 Z" id="Combined-Shape" fill="#5C6063" fill-rule="nonzero"></path>
                <path d="M47.4453125,21 L49.2675781,14.7832031 L49.4023438,14.1328125 L49.5371094,14.7832031 L51.2949219,21 L52.3203125,21 L54.3886719,12.46875 L53.2578125,12.46875 L51.9335938,18.3046875 L51.7519531,19.453125 L51.5175781,18.421875 L49.8710938,12.46875 L48.921875,12.46875 L47.234375,18.421875 L46.9941406,19.4355469 L46.8300781,18.3105469 L45.4824219,12.46875 L44.3574219,12.46875 L46.4199219,21 L47.4453125,21 Z M57.9160156,21.1171875 C58.9785156,21.1171875 59.7753906,20.7089844 60.3066406,19.8925781 L60.3066406,19.8925781 L59.6445312,19.3769531 C59.4453125,19.6347656 59.2128906,19.8417969 58.9472656,19.9980469 C58.6816406,20.1542969 58.3574219,20.2324219 57.9746094,20.2324219 C57.4355469,20.2324219 56.9912109,20.0400391 56.6416016,19.6552734 C56.2919922,19.2705078 56.109375,18.765625 56.09375,18.140625 L56.09375,18.140625 L60.3886719,18.140625 L60.3886719,17.6894531 C60.3886719,16.6777344 60.1601562,15.9003906 59.703125,15.3574219 C59.2460938,14.8144531 58.6054688,14.5429688 57.78125,14.5429688 C57.2773438,14.5429688 56.8095703,14.6826172 56.3779297,14.9619141 C55.9462891,15.2412109 55.6103516,15.6279297 55.3701172,16.1220703 C55.1298828,16.6162109 55.0097656,17.1777344 55.0097656,17.8066406 L55.0097656,17.8066406 L55.0097656,18.0058594 C55.0097656,18.9511719 55.2792969,19.7060547 55.8183594,20.2705078 C56.3574219,20.8349609 57.0566406,21.1171875 57.9160156,21.1171875 Z M59.3046875,17.25 L56.1289062,17.25 C56.1992188,16.6757812 56.3828125,16.2294922 56.6796875,15.9111328 C56.9765625,15.5927734 57.34375,15.4335938 57.78125,15.4335938 C58.234375,15.4335938 58.59375,15.5849609 58.859375,15.8876953 C59.125,16.1904297 59.2734375,16.6171875 59.3046875,17.1679688 L59.3046875,17.1679688 L59.3046875,17.25 Z M64.5488281,21.1171875 C65.2988281,21.1171875 65.8964844,20.8232422 66.3417969,20.2353516 C66.7871094,19.6474609 67.0097656,18.8691406 67.0097656,17.9003906 L67.0097656,17.9003906 L67.0097656,17.8066406 C67.0097656,16.7949219 66.7900391,15.9980469 66.3505859,15.4160156 C65.9111328,14.8339844 65.3066406,14.5429688 64.5371094,14.5429688 C63.7675781,14.5429688 63.1640625,14.8144531 62.7265625,15.3574219 L62.7265625,15.3574219 L62.7265625,12 L61.6425781,12 L61.6425781,21 L62.6386719,21 L62.6914062,20.2675781 C63.1289062,20.8339844 63.7480469,21.1171875 64.5488281,21.1171875 Z M64.2792969,20.1972656 C63.5761719,20.1972656 63.0585938,19.8652344 62.7265625,19.2011719 L62.7265625,19.2011719 L62.7265625,16.4589844 C63.0390625,15.7949219 63.5527344,15.4628906 64.2675781,15.4628906 C64.8027344,15.4628906 65.2128906,15.6640625 65.4980469,16.0664062 C65.7832031,16.46875 65.9257812,17.0390625 65.9257812,17.7773438 C65.9257812,18.5859375 65.78125,19.1914062 65.4921875,19.59375 C65.203125,19.9960938 64.7988281,20.1972656 64.2792969,20.1972656 Z M69.453125,21 L69.453125,16.3710938 C69.7148438,15.765625 70.2011719,15.4628906 70.9121094,15.4628906 C71.8144531,15.4628906 72.265625,15.9238281 72.265625,16.8457031 L72.265625,16.8457031 L72.265625,21 L73.3554688,21 L73.3554688,16.7929688 C73.3984375,16.3867188 73.5527344,16.0634766 73.8183594,15.8232422 C74.0839844,15.5830078 74.4179688,15.4628906 74.8203125,15.4628906 C75.3085938,15.4628906 75.65625,15.5751953 75.8632812,15.7998047 C76.0703125,16.0244141 76.1738281,16.3632812 76.1738281,16.8164062 L76.1738281,16.8164062 L76.1738281,21 L77.2578125,21 L77.2578125,16.7519531 C77.234375,15.2792969 76.5273438,14.5429688 75.1367188,14.5429688 C74.6757812,14.5429688 74.2763672,14.6367188 73.9384766,14.8242188 C73.6005859,15.0117188 73.3261719,15.2578125 73.1152344,15.5625 C72.7949219,14.8828125 72.1914062,14.5429688 71.3046875,14.5429688 C70.515625,14.5429688 69.8886719,14.8164062 69.4238281,15.3632812 L69.4238281,15.3632812 L69.3945312,14.6601562 L68.3691406,14.6601562 L68.3691406,21 L69.453125,21 Z M80.8496094,21.1171875 C81.5488281,21.1171875 82.1503906,20.8554688 82.6542969,20.3320312 C82.6933594,20.6523438 82.7441406,20.875 82.8066406,21 L82.8066406,21 L83.9433594,21 L83.9433594,20.90625 C83.7949219,20.5625 83.7207031,20.0996094 83.7207031,19.5175781 L83.7207031,19.5175781 L83.7207031,16.5996094 C83.7050781,15.9589844 83.4902344,15.4560547 83.0761719,15.0908203 C82.6621094,14.7255859 82.0898438,14.5429688 81.359375,14.5429688 C80.8984375,14.5429688 80.4755859,14.6289062 80.0908203,14.8007812 C79.7060547,14.9726562 79.4013672,15.2060547 79.1767578,15.5009766 C78.9521484,15.7958984 78.8398438,16.1015625 78.8398438,16.4179688 L78.8398438,16.4179688 L79.9296875,16.4179688 C79.9296875,16.140625 80.0605469,15.9042969 80.3222656,15.7089844 C80.5839844,15.5136719 80.9082031,15.4160156 81.2949219,15.4160156 C81.7363281,15.4160156 82.0703125,15.5283203 82.296875,15.7529297 C82.5234375,15.9775391 82.6367188,16.2792969 82.6367188,16.6582031 L82.6367188,16.6582031 L82.6367188,17.15625 L81.5820312,17.15625 C80.671875,17.15625 79.9658203,17.3388672 79.4638672,17.7041016 C78.9619141,18.0693359 78.7109375,18.5820312 78.7109375,19.2421875 C78.7109375,19.7851562 78.9111328,20.2333984 79.3115234,20.5869141 C79.7119141,20.9404297 80.2246094,21.1171875 80.8496094,21.1171875 Z M81.0078125,20.1738281 C80.6523438,20.1738281 80.3613281,20.078125 80.1347656,19.8867188 C79.9082031,19.6953125 79.7949219,19.4296875 79.7949219,19.0898438 C79.7949219,18.3125 80.4589844,17.9238281 81.7871094,17.9238281 L81.7871094,17.9238281 L82.6367188,17.9238281 L82.6367188,19.2246094 C82.5,19.5058594 82.2792969,19.734375 81.9746094,19.9101562 C81.6699219,20.0859375 81.3476562,20.1738281 81.0078125,20.1738281 Z M86.0644531,13.59375 C86.2753906,13.59375 86.4355469,13.5351562 86.5449219,13.4179688 C86.6542969,13.3007812 86.7089844,13.1542969 86.7089844,12.9785156 C86.7089844,12.8027344 86.6542969,12.6542969 86.5449219,12.5332031 C86.4355469,12.4121094 86.2753906,12.3515625 86.0644531,12.3515625 C85.8535156,12.3515625 85.6943359,12.4121094 85.5869141,12.5332031 C85.4794922,12.6542969 85.4257812,12.8027344 85.4257812,12.9785156 C85.4257812,13.1542969 85.4794922,13.3007812 85.5869141,13.4179688 C85.6943359,13.5351562 85.8535156,13.59375 86.0644531,13.59375 Z M86.5976562,21 L86.5976562,14.6601562 L85.5136719,14.6601562 L85.5136719,21 L86.5976562,21 Z M89.5097656,21 L89.5097656,12 L88.4257812,12 L88.4257812,21 L89.5097656,21 Z M96.8164062,21.1171875 C97.3867188,21.1171875 97.8916016,20.9804688 98.3310547,20.7070312 C98.7705078,20.4335938 99.1083984,20.0517578 99.3447266,19.5615234 C99.5810547,19.0712891 99.6992188,18.5175781 99.6992188,17.9003906 L99.6992188,17.9003906 L99.6992188,17.8242188 C99.6992188,16.8320312 99.4326172,16.0371094 98.8994141,15.4394531 C98.3662109,14.8417969 97.6679688,14.5429688 96.8046875,14.5429688 C96.2460938,14.5429688 95.7490234,14.6777344 95.3134766,14.9472656 C94.8779297,15.2167969 94.5380859,15.5996094 94.2939453,16.0957031 C94.0498047,16.5917969 93.9277344,17.1503906 93.9277344,17.7714844 L93.9277344,17.7714844 L93.9277344,17.8476562 C93.9277344,18.8320312 94.1943359,19.6230469 94.7275391,20.2207031 C95.2607422,20.8183594 95.9570312,21.1171875 96.8164062,21.1171875 Z M96.8164062,20.2324219 C96.2695312,20.2324219 95.8330078,20.0195312 95.5068359,19.59375 C95.1806641,19.1679688 95.0175781,18.6035156 95.0175781,17.9003906 C95.0175781,17.1074219 95.1816406,16.4980469 95.5097656,16.0722656 C95.8378906,15.6464844 96.2695312,15.4335938 96.8046875,15.4335938 C97.3515625,15.4335938 97.7900391,15.6494141 98.1201172,16.0810547 C98.4501953,16.5126953 98.6152344,17.0761719 98.6152344,17.7714844 C98.6152344,18.5488281 98.453125,19.1533203 98.1289062,19.5849609 C97.8046875,20.0166016 97.3671875,20.2324219 96.8164062,20.2324219 Z M102.675781,21 L102.675781,15.4980469 L104.029297,15.4980469 L104.029297,14.6601562 L102.675781,14.6601562 L102.675781,13.9921875 C102.675781,13.609375 102.771484,13.3154297 102.962891,13.1103516 C103.154297,12.9052734 103.425781,12.8027344 103.777344,12.8027344 C103.984375,12.8027344 104.179688,12.8203125 104.363281,12.8554688 L104.363281,12.8554688 L104.421875,11.9765625 C104.175781,11.9101562 103.927734,11.8769531 103.677734,11.8769531 C103.013672,11.8769531 102.5,12.0625 102.136719,12.4335938 C101.773438,12.8046875 101.591797,13.3300781 101.591797,14.0097656 L101.591797,14.0097656 L101.591797,14.6601562 L100.589844,14.6601562 L100.589844,15.4980469 L101.591797,15.4980469 L101.591797,21 L102.675781,21 Z M110.375,21.1171875 C111.191406,21.1171875 111.844727,20.8867188 112.334961,20.4257812 C112.825195,19.9648438 113.070312,19.3261719 113.070312,18.5097656 L113.070312,18.5097656 L113.070312,12.46875 L111.939453,12.46875 L111.939453,18.5273438 C111.935547,19.0546875 111.790039,19.4648438 111.50293,19.7578125 C111.21582,20.0507812 110.839844,20.1972656 110.375,20.1972656 C109.867188,20.1972656 109.479492,20.0605469 109.211914,19.7871094 C108.944336,19.5136719 108.810547,19.1328125 108.810547,18.6445312 L108.810547,18.6445312 L107.685547,18.6445312 C107.685547,19.4257812 107.921875,20.0332031 108.394531,20.4667969 C108.867188,20.9003906 109.527344,21.1171875 110.375,21.1171875 Z M116.773438,21.1171875 C117.472656,21.1171875 118.074219,20.8554688 118.578125,20.3320312 C118.617188,20.6523438 118.667969,20.875 118.730469,21 L118.730469,21 L119.867188,21 L119.867188,20.90625 C119.71875,20.5625 119.644531,20.0996094 119.644531,19.5175781 L119.644531,19.5175781 L119.644531,16.5996094 C119.628906,15.9589844 119.414062,15.4560547 119,15.0908203 C118.585938,14.7255859 118.013672,14.5429688 117.283203,14.5429688 C116.822266,14.5429688 116.399414,14.6289062 116.014648,14.8007812 C115.629883,14.9726562 115.325195,15.2060547 115.100586,15.5009766 C114.875977,15.7958984 114.763672,16.1015625 114.763672,16.4179688 L114.763672,16.4179688 L115.853516,16.4179688 C115.853516,16.140625 115.984375,15.9042969 116.246094,15.7089844 C116.507812,15.5136719 116.832031,15.4160156 117.21875,15.4160156 C117.660156,15.4160156 117.994141,15.5283203 118.220703,15.7529297 C118.447266,15.9775391 118.560547,16.2792969 118.560547,16.6582031 L118.560547,16.6582031 L118.560547,17.15625 L117.505859,17.15625 C116.595703,17.15625 115.889648,17.3388672 115.387695,17.7041016 C114.885742,18.0693359 114.634766,18.5820312 114.634766,19.2421875 C114.634766,19.7851562 114.834961,20.2333984 115.235352,20.5869141 C115.635742,20.9404297 116.148438,21.1171875 116.773438,21.1171875 Z M116.931641,20.1738281 C116.576172,20.1738281 116.285156,20.078125 116.058594,19.8867188 C115.832031,19.6953125 115.71875,19.4296875 115.71875,19.0898438 C115.71875,18.3125 116.382812,17.9238281 117.710938,17.9238281 L117.710938,17.9238281 L118.560547,17.9238281 L118.560547,19.2246094 C118.423828,19.5058594 118.203125,19.734375 117.898438,19.9101562 C117.59375,20.0859375 117.271484,20.1738281 116.931641,20.1738281 Z M122.427734,21 L122.427734,16.4824219 C122.576172,16.1777344 122.783203,15.9316406 123.048828,15.7441406 C123.314453,15.5566406 123.623047,15.4628906 123.974609,15.4628906 C124.408203,15.4628906 124.727539,15.5722656 124.932617,15.7910156 C125.137695,16.0097656 125.242188,16.3476562 125.246094,16.8046875 L125.246094,16.8046875 L125.246094,21 L126.330078,21 L126.330078,16.8105469 C126.318359,15.2988281 125.642578,14.5429688 124.302734,14.5429688 C123.521484,14.5429688 122.888672,14.8476562 122.404297,15.4570312 L122.404297,15.4570312 L122.369141,14.6601562 L121.34375,14.6601562 L121.34375,21 L122.427734,21 Z M130.595703,21.1171875 C131.658203,21.1171875 132.455078,20.7089844 132.986328,19.8925781 L132.986328,19.8925781 L132.324219,19.3769531 C132.125,19.6347656 131.892578,19.8417969 131.626953,19.9980469 C131.361328,20.1542969 131.037109,20.2324219 130.654297,20.2324219 C130.115234,20.2324219 129.670898,20.0400391 129.321289,19.6552734 C128.97168,19.2705078 128.789062,18.765625 128.773438,18.140625 L128.773438,18.140625 L133.068359,18.140625 L133.068359,17.6894531 C133.068359,16.6777344 132.839844,15.9003906 132.382812,15.3574219 C131.925781,14.8144531 131.285156,14.5429688 130.460938,14.5429688 C129.957031,14.5429688 129.489258,14.6826172 129.057617,14.9619141 C128.625977,15.2412109 128.290039,15.6279297 128.049805,16.1220703 C127.80957,16.6162109 127.689453,17.1777344 127.689453,17.8066406 L127.689453,17.8066406 L127.689453,18.0058594 C127.689453,18.9511719 127.958984,19.7060547 128.498047,20.2705078 C129.037109,20.8349609 129.736328,21.1171875 130.595703,21.1171875 Z M131.984375,17.25 L128.808594,17.25 C128.878906,16.6757812 129.0625,16.2294922 129.359375,15.9111328 C129.65625,15.5927734 130.023438,15.4335938 130.460938,15.4335938 C130.914062,15.4335938 131.273438,15.5849609 131.539062,15.8876953 C131.804688,16.1904297 131.953125,16.6171875 131.984375,17.1679688 L131.984375,17.1679688 L131.984375,17.25 Z M139.824219,21 C140.589844,20.9921875 141.260742,20.8261719 141.836914,20.5019531 C142.413086,20.1777344 142.856445,19.7128906 143.166992,19.1074219 C143.477539,18.5019531 143.632812,17.796875 143.632812,16.9921875 L143.632812,16.9921875 L143.632812,16.4472656 C143.628906,15.6621094 143.47168,14.9667969 143.161133,14.3613281 C142.850586,13.7558594 142.410156,13.2890625 141.839844,12.9609375 C141.269531,12.6328125 140.613281,12.46875 139.871094,12.46875 L139.871094,12.46875 L137.462891,12.46875 L137.462891,21 L139.824219,21 Z M139.771484,20.0800781 L138.587891,20.0800781 L138.587891,13.3945312 L139.900391,13.3945312 C140.736328,13.4023438 141.381836,13.6748047 141.836914,14.2119141 C142.291992,14.7490234 142.519531,15.5019531 142.519531,16.4707031 L142.519531,16.4707031 L142.519531,16.96875 C142.519531,17.9648438 142.27832,18.7324219 141.795898,19.2714844 C141.313477,19.8105469 140.638672,20.0800781 139.771484,20.0800781 L139.771484,20.0800781 Z M147.763672,21.1171875 C148.333984,21.1171875 148.838867,20.9804688 149.27832,20.7070312 C149.717773,20.4335938 150.055664,20.0517578 150.291992,19.5615234 C150.52832,19.0712891 150.646484,18.5175781 150.646484,17.9003906 L150.646484,17.9003906 L150.646484,17.8242188 C150.646484,16.8320312 150.379883,16.0371094 149.84668,15.4394531 C149.313477,14.8417969 148.615234,14.5429688 147.751953,14.5429688 C147.193359,14.5429688 146.696289,14.6777344 146.260742,14.9472656 C145.825195,15.2167969 145.485352,15.5996094 145.241211,16.0957031 C144.99707,16.5917969 144.875,17.1503906 144.875,17.7714844 L144.875,17.7714844 L144.875,17.8476562 C144.875,18.8320312 145.141602,19.6230469 145.674805,20.2207031 C146.208008,20.8183594 146.904297,21.1171875 147.763672,21.1171875 Z M147.763672,20.2324219 C147.216797,20.2324219 146.780273,20.0195312 146.454102,19.59375 C146.12793,19.1679688 145.964844,18.6035156 145.964844,17.9003906 C145.964844,17.1074219 146.128906,16.4980469 146.457031,16.0722656 C146.785156,15.6464844 147.216797,15.4335938 147.751953,15.4335938 C148.298828,15.4335938 148.737305,15.6494141 149.067383,16.0810547 C149.397461,16.5126953 149.5625,17.0761719 149.5625,17.7714844 C149.5625,18.5488281 149.400391,19.1533203 149.076172,19.5849609 C148.751953,20.0166016 148.314453,20.2324219 147.763672,20.2324219 Z M154.636719,21.1171875 C155.699219,21.1171875 156.496094,20.7089844 157.027344,19.8925781 L157.027344,19.8925781 L156.365234,19.3769531 C156.166016,19.6347656 155.933594,19.8417969 155.667969,19.9980469 C155.402344,20.1542969 155.078125,20.2324219 154.695312,20.2324219 C154.15625,20.2324219 153.711914,20.0400391 153.362305,19.6552734 C153.012695,19.2705078 152.830078,18.765625 152.814453,18.140625 L152.814453,18.140625 L157.109375,18.140625 L157.109375,17.6894531 C157.109375,16.6777344 156.880859,15.9003906 156.423828,15.3574219 C155.966797,14.8144531 155.326172,14.5429688 154.501953,14.5429688 C153.998047,14.5429688 153.530273,14.6826172 153.098633,14.9619141 C152.666992,15.2412109 152.331055,15.6279297 152.09082,16.1220703 C151.850586,16.6162109 151.730469,17.1777344 151.730469,17.8066406 L151.730469,17.8066406 L151.730469,18.0058594 C151.730469,18.9511719 152,19.7060547 152.539062,20.2705078 C153.078125,20.8349609 153.777344,21.1171875 154.636719,21.1171875 Z M156.025391,17.25 L152.849609,17.25 C152.919922,16.6757812 153.103516,16.2294922 153.400391,15.9111328 C153.697266,15.5927734 154.064453,15.4335938 154.501953,15.4335938 C154.955078,15.4335938 155.314453,15.5849609 155.580078,15.8876953 C155.845703,16.1904297 155.994141,16.6171875 156.025391,17.1679688 L156.025391,17.1679688 L156.025391,17.25 Z" id="WebmailofJaneDoe" fill="#000000" fill-rule="nonzero"></path>
                <g id="Icons/-Favicon" transform="translate(20.000000, 9.000000)">
                    <g id="Combined-Shape">
                        <g id="Clipped">
                            <mask id="mask-4" fill="white">
                                <use xlink:href="#path-3"></use>
                            </mask>
                            <g id="path-1"></g>
                            <path d="M15.4662486,-8.8817842e-16 C15.7611462,-8.8817842e-16 16,0.240751003 16,0.537390633 L15.999,3.029 L2.98908812,7.76556334 L5.986,16 L0.533751439,16 C0.238853769,16 -3.55271368e-15,15.759249 -3.55271368e-15,15.4626094 L-3.55271368e-15,0.537390633 C-3.55271368e-15,0.240751003 0.238853769,-8.8817842e-16 0.533751439,-8.8817842e-16 L15.4662486,-8.8817842e-16 Z M15.999,4.172 L15.999,4.407 L12.4976031,11.4300301 L6.09819025,8.62538835 L5.67198973,9.61096277 L12.998262,12.8218718 L15.999,6.803 L16,15.4626094 C16,15.759249 15.7611462,16 15.4662486,16 L7.123,16 L4.36029556,8.40935731 L15.999,4.172 Z" id="Shape" fill="var(--accent-icon)" fill-rule="nonzero" mask="url(#mask-4)"></path>
                        </g>
                    </g>
                </g>
                <g id="Rectangle">
                    <use fill="black" fill-opacity="1" filter="url(#filter-6)" xlink:href="#path-5"></use>
                    <rect stroke="#DADCE0" stroke-width="1" stroke-linejoin="square" fill="#FFFFFF" fill-rule="evenodd" x="109" y="67" width="318" height="128" rx="2"></rect>
                </g>
                <path d="M134,130.625 C134.825,130.625 135.5,129.95 135.5,129.125 L132.5,129.125 C132.5,129.95 133.1675,130.625 134,130.625 Z M138.5,126.125 L138.5,122.375 C138.5,120.0725 137.27,118.145 135.125,117.635 L135.125,117.125 C135.125,116.5025 134.6225,116 134,116 C133.3775,116 132.875,116.5025 132.875,117.125 L132.875,117.635 C130.7225,118.145 129.5,120.065 129.5,122.375 L129.5,126.125 L128,127.625 L128,128.375 L140,128.375 L140,127.625 L138.5,126.125 Z" id="Shape" fill="#AFB1B4" fill-rule="nonzero"></path>
                <rect id="Rectangle" stroke="#DADCE0" x="278.5" y="150.5" width="62" height="30" rx="4"></rect>
                <rect id="Rectangle-Copy" stroke="#DADCE0" x="349.5" y="150.5" width="63" height="30" rx="4"></rect>
                <path d="M128.713379,99 L130.588379,92.9941406 L132.514648,99 L133.613281,99 L135.92041,91.0751953 L134.56543,91.0751953 L133.041992,97.1323242 L131.159668,91.0751953 L130.068359,91.0751953 L128.222656,97.0078125 L126.662598,91.0751953 L125.314941,91.0751953 L127.614746,99 L128.713379,99 Z M140.585938,99.1464844 C141.914062,99.1464844 142.910156,98.6362305 143.574219,97.6157227 L143.574219,97.6157227 L142.746582,96.9711914 C142.497559,97.293457 142.207031,97.5522461 141.875,97.7475586 C141.542969,97.9428711 141.137695,98.0405273 140.65918,98.0405273 C139.985352,98.0405273 139.429932,97.8000488 138.99292,97.3190918 C138.555908,96.8381348 138.327637,96.2070312 138.308105,95.4257812 L138.308105,95.4257812 L143.676758,95.4257812 L143.676758,94.8618164 C143.676758,93.597168 143.391113,92.6254883 142.819824,91.9467773 C142.248535,91.2680664 141.447754,90.9287109 140.41748,90.9287109 C139.787598,90.9287109 139.202881,91.1032715 138.66333,91.4523926 C138.123779,91.8015137 137.703857,92.2849121 137.403564,92.9025879 C137.103271,93.5202637 136.953125,94.222168 136.953125,95.0083008 L136.953125,95.0083008 L136.953125,95.2573242 C136.953125,96.4389648 137.290039,97.3825684 137.963867,98.0881348 C138.637695,98.7937012 139.511719,99.1464844 140.585938,99.1464844 Z M142.321777,94.3125 L138.352051,94.3125 C138.439941,93.5947266 138.669434,93.0368652 139.040527,92.638916 C139.411621,92.2409668 139.870605,92.0419922 140.41748,92.0419922 C140.983887,92.0419922 141.433105,92.2312012 141.765137,92.6096191 C142.097168,92.9880371 142.282715,93.5214844 142.321777,94.2099609 L142.321777,94.2099609 L142.321777,94.3125 Z M148.876953,99.1464844 C149.814453,99.1464844 150.561523,98.7790527 151.118164,98.0441895 C151.674805,97.3093262 151.953125,96.3364258 151.953125,95.1254883 L151.953125,95.1254883 L151.953125,95.0083008 C151.953125,93.7436523 151.678467,92.7475586 151.12915,92.0200195 C150.579834,91.2924805 149.824219,90.9287109 148.862305,90.9287109 C147.900391,90.9287109 147.145996,91.2680664 146.599121,91.9467773 L146.599121,91.9467773 L146.599121,87.75 L145.244141,87.75 L145.244141,99 L146.489258,99 L146.555176,98.0844727 C147.102051,98.7924805 147.875977,99.1464844 148.876953,99.1464844 Z M148.540039,97.996582 C147.661133,97.996582 147.01416,97.581543 146.599121,96.7514648 L146.599121,96.7514648 L146.599121,93.3237305 C146.989746,92.4936523 147.631836,92.0786133 148.525391,92.0786133 C149.194336,92.0786133 149.707031,92.3300781 150.063477,92.8330078 C150.419922,93.3359375 150.598145,94.0488281 150.598145,94.9716797 C150.598145,95.9824219 150.41748,96.7392578 150.056152,97.2421875 C149.694824,97.7451172 149.189453,97.996582 148.540039,97.996582 Z M155.007324,99 L155.007324,93.2138672 C155.334473,92.4570312 155.942383,92.0786133 156.831055,92.0786133 C157.958984,92.0786133 158.522949,92.6547852 158.522949,93.8071289 L158.522949,93.8071289 L158.522949,99 L159.885254,99 L159.885254,93.7412109 C159.938965,93.2333984 160.131836,92.8293457 160.463867,92.5290527 C160.795898,92.2287598 161.213379,92.0786133 161.716309,92.0786133 C162.32666,92.0786133 162.76123,92.2189941 163.02002,92.4997559 C163.278809,92.7805176 163.408203,93.2041016 163.408203,93.7705078 L163.408203,93.7705078 L163.408203,99 L164.763184,99 L164.763184,93.6899414 C164.733887,91.8491211 163.850098,90.9287109 162.111816,90.9287109 C161.535645,90.9287109 161.036377,91.0458984 160.614014,91.2802734 C160.19165,91.5146484 159.848633,91.8222656 159.584961,92.203125 C159.18457,91.3535156 158.430176,90.9287109 157.321777,90.9287109 C156.335449,90.9287109 155.551758,91.2705078 154.970703,91.9541016 L154.970703,91.9541016 L154.934082,91.0751953 L153.652344,91.0751953 L153.652344,99 L155.007324,99 Z M169.25293,99.1464844 C170.126953,99.1464844 170.878906,98.8193359 171.508789,98.1650391 C171.557617,98.5654297 171.621094,98.84375 171.699219,99 L171.699219,99 L173.120117,99 L173.120117,98.8828125 C172.93457,98.453125 172.841797,97.8745117 172.841797,97.1469727 L172.841797,97.1469727 L172.841797,93.4995117 C172.822266,92.6987305 172.553711,92.0700684 172.036133,91.6135254 C171.518555,91.1569824 170.803223,90.9287109 169.890137,90.9287109 C169.313965,90.9287109 168.7854,91.0361328 168.304443,91.2509766 C167.823486,91.4658203 167.442627,91.7575684 167.161865,92.1262207 C166.881104,92.494873 166.740723,92.8769531 166.740723,93.2724609 L166.740723,93.2724609 L168.103027,93.2724609 C168.103027,92.9257812 168.266602,92.6303711 168.59375,92.3862305 C168.920898,92.1420898 169.326172,92.0200195 169.80957,92.0200195 C170.361328,92.0200195 170.778809,92.1604004 171.062012,92.4411621 C171.345215,92.7219238 171.486816,93.0991211 171.486816,93.5727539 L171.486816,93.5727539 L171.486816,94.1953125 L170.168457,94.1953125 C169.030762,94.1953125 168.148193,94.423584 167.520752,94.880127 C166.893311,95.3366699 166.57959,95.9775391 166.57959,96.8027344 C166.57959,97.4814453 166.829834,98.041748 167.330322,98.4836426 C167.830811,98.9255371 168.47168,99.1464844 169.25293,99.1464844 Z M169.450684,97.9672852 C169.006348,97.9672852 168.642578,97.8476562 168.359375,97.6083984 C168.076172,97.3691406 167.93457,97.0371094 167.93457,96.6123047 C167.93457,95.640625 168.764648,95.1547852 170.424805,95.1547852 L170.424805,95.1547852 L171.486816,95.1547852 L171.486816,96.7807617 C171.315918,97.1323242 171.040039,97.4179688 170.65918,97.6376953 C170.27832,97.8574219 169.875488,97.9672852 169.450684,97.9672852 Z M175.771484,89.7421875 C176.035156,89.7421875 176.235352,89.6689453 176.37207,89.5224609 C176.508789,89.3759766 176.577148,89.1928711 176.577148,88.9731445 C176.577148,88.753418 176.508789,88.5678711 176.37207,88.4165039 C176.235352,88.2651367 176.035156,88.1894531 175.771484,88.1894531 C175.507812,88.1894531 175.308838,88.2651367 175.174561,88.4165039 C175.040283,88.5678711 174.973145,88.753418 174.973145,88.9731445 C174.973145,89.1928711 175.040283,89.3759766 175.174561,89.5224609 C175.308838,89.6689453 175.507812,89.7421875 175.771484,89.7421875 Z M176.437988,99 L176.437988,91.0751953 L175.083008,91.0751953 L175.083008,99 L176.437988,99 Z M180.078125,99 L180.078125,87.75 L178.723145,87.75 L178.723145,99 L180.078125,99 Z M183.110352,99.0805664 C183.388672,99.0805664 183.599854,99.0048828 183.743896,98.8535156 C183.887939,98.7021484 183.959961,98.5141602 183.959961,98.2895508 C183.959961,98.0551758 183.887939,97.8598633 183.743896,97.7036133 C183.599854,97.5473633 183.388672,97.4692383 183.110352,97.4692383 C182.832031,97.4692383 182.623291,97.5473633 182.484131,97.7036133 C182.344971,97.8598633 182.275391,98.0551758 182.275391,98.2895508 C182.275391,98.5141602 182.344971,98.7021484 182.484131,98.8535156 C182.623291,99.0048828 182.832031,99.0805664 183.110352,99.0805664 Z M189.482422,99.1464844 C190.810547,99.1464844 191.806641,98.6362305 192.470703,97.6157227 L192.470703,97.6157227 L191.643066,96.9711914 C191.394043,97.293457 191.103516,97.5522461 190.771484,97.7475586 C190.439453,97.9428711 190.03418,98.0405273 189.555664,98.0405273 C188.881836,98.0405273 188.326416,97.8000488 187.889404,97.3190918 C187.452393,96.8381348 187.224121,96.2070312 187.20459,95.4257812 L187.20459,95.4257812 L192.573242,95.4257812 L192.573242,94.8618164 C192.573242,93.597168 192.287598,92.6254883 191.716309,91.9467773 C191.14502,91.2680664 190.344238,90.9287109 189.313965,90.9287109 C188.684082,90.9287109 188.099365,91.1032715 187.559814,91.4523926 C187.020264,91.8015137 186.600342,92.2849121 186.300049,92.9025879 C185.999756,93.5202637 185.849609,94.222168 185.849609,95.0083008 L185.849609,95.0083008 L185.849609,95.2573242 C185.849609,96.4389648 186.186523,97.3825684 186.860352,98.0881348 C187.53418,98.7937012 188.408203,99.1464844 189.482422,99.1464844 Z M191.218262,94.3125 L187.248535,94.3125 C187.336426,93.5947266 187.565918,93.0368652 187.937012,92.638916 C188.308105,92.2409668 188.76709,92.0419922 189.313965,92.0419922 C189.880371,92.0419922 190.32959,92.2312012 190.661621,92.6096191 C190.993652,92.9880371 191.179199,93.5214844 191.218262,94.2099609 L191.218262,94.2099609 L191.218262,94.3125 Z M195.488281,99 L195.488281,93.2138672 C195.81543,92.4570312 196.42334,92.0786133 197.312012,92.0786133 C198.439941,92.0786133 199.003906,92.6547852 199.003906,93.8071289 L199.003906,93.8071289 L199.003906,99 L200.366211,99 L200.366211,93.7412109 C200.419922,93.2333984 200.612793,92.8293457 200.944824,92.5290527 C201.276855,92.2287598 201.694336,92.0786133 202.197266,92.0786133 C202.807617,92.0786133 203.242188,92.2189941 203.500977,92.4997559 C203.759766,92.7805176 203.88916,93.2041016 203.88916,93.7705078 L203.88916,93.7705078 L203.88916,99 L205.244141,99 L205.244141,93.6899414 C205.214844,91.8491211 204.331055,90.9287109 202.592773,90.9287109 C202.016602,90.9287109 201.517334,91.0458984 201.094971,91.2802734 C200.672607,91.5146484 200.32959,91.8222656 200.065918,92.203125 C199.665527,91.3535156 198.911133,90.9287109 197.802734,90.9287109 C196.816406,90.9287109 196.032715,91.2705078 195.45166,91.9541016 L195.45166,91.9541016 L195.415039,91.0751953 L194.133301,91.0751953 L194.133301,99 L195.488281,99 Z M209.733887,99.1464844 C210.60791,99.1464844 211.359863,98.8193359 211.989746,98.1650391 C212.038574,98.5654297 212.102051,98.84375 212.180176,99 L212.180176,99 L213.601074,99 L213.601074,98.8828125 C213.415527,98.453125 213.322754,97.8745117 213.322754,97.1469727 L213.322754,97.1469727 L213.322754,93.4995117 C213.303223,92.6987305 213.034668,92.0700684 212.51709,91.6135254 C211.999512,91.1569824 211.28418,90.9287109 210.371094,90.9287109 C209.794922,90.9287109 209.266357,91.0361328 208.7854,91.2509766 C208.304443,91.4658203 207.923584,91.7575684 207.642822,92.1262207 C207.362061,92.494873 207.22168,92.8769531 207.22168,93.2724609 L207.22168,93.2724609 L208.583984,93.2724609 C208.583984,92.9257812 208.747559,92.6303711 209.074707,92.3862305 C209.401855,92.1420898 209.807129,92.0200195 210.290527,92.0200195 C210.842285,92.0200195 211.259766,92.1604004 211.542969,92.4411621 C211.826172,92.7219238 211.967773,93.0991211 211.967773,93.5727539 L211.967773,93.5727539 L211.967773,94.1953125 L210.649414,94.1953125 C209.511719,94.1953125 208.62915,94.423584 208.001709,94.880127 C207.374268,95.3366699 207.060547,95.9775391 207.060547,96.8027344 C207.060547,97.4814453 207.310791,98.041748 207.811279,98.4836426 C208.311768,98.9255371 208.952637,99.1464844 209.733887,99.1464844 Z M209.931641,97.9672852 C209.487305,97.9672852 209.123535,97.8476562 208.840332,97.6083984 C208.557129,97.3691406 208.415527,97.0371094 208.415527,96.6123047 C208.415527,95.640625 209.245605,95.1547852 210.905762,95.1547852 L210.905762,95.1547852 L211.967773,95.1547852 L211.967773,96.7807617 C211.796875,97.1323242 211.520996,97.4179688 211.140137,97.6376953 C210.759277,97.8574219 210.356445,97.9672852 209.931641,97.9672852 Z M216.252441,89.7421875 C216.516113,89.7421875 216.716309,89.6689453 216.853027,89.5224609 C216.989746,89.3759766 217.058105,89.1928711 217.058105,88.9731445 C217.058105,88.753418 216.989746,88.5678711 216.853027,88.4165039 C216.716309,88.2651367 216.516113,88.1894531 216.252441,88.1894531 C215.98877,88.1894531 215.789795,88.2651367 215.655518,88.4165039 C215.52124,88.5678711 215.454102,88.753418 215.454102,88.9731445 C215.454102,89.1928711 215.52124,89.3759766 215.655518,89.5224609 C215.789795,89.6689453 215.98877,89.7421875 216.252441,89.7421875 Z M216.918945,99 L216.918945,91.0751953 L215.563965,91.0751953 L215.563965,99 L216.918945,99 Z M220.559082,99 L220.559082,87.75 L219.204102,87.75 L219.204102,99 L220.559082,99 Z M224.082031,102.046875 L224.082031,98.230957 C224.633789,98.8413086 225.390625,99.1464844 226.352539,99.1464844 C227.294922,99.1464844 228.041992,98.777832 228.59375,98.0405273 C229.145508,97.3032227 229.421387,96.331543 229.421387,95.1254883 L229.421387,95.1254883 L229.421387,95.0009766 C229.421387,93.7216797 229.144287,92.7231445 228.590088,92.0053711 C228.035889,91.2875977 227.282715,90.9287109 226.330566,90.9287109 C225.349121,90.9287109 224.58252,91.2705078 224.030762,91.9541016 L224.030762,91.9541016 L223.964844,91.0751953 L222.727051,91.0751953 L222.727051,102.046875 L224.082031,102.046875 Z M225.942383,98.0405273 C225.107422,98.0405273 224.487305,97.6791992 224.082031,96.956543 L224.082031,96.956543 L224.082031,93.1699219 C224.492188,92.4423828 225.107422,92.0786133 225.927734,92.0786133 C226.591797,92.0786133 227.114258,92.3374023 227.495117,92.8549805 C227.875977,93.3725586 228.066406,94.078125 228.066406,94.9716797 C228.066406,95.9873047 227.874756,96.7526855 227.491455,97.2678223 C227.108154,97.782959 226.591797,98.0405273 225.942383,98.0405273 Z M232.497559,99 L232.497559,93.3530273 C232.683105,92.972168 232.941895,92.6645508 233.273926,92.4301758 C233.605957,92.1958008 233.991699,92.0786133 234.431152,92.0786133 C234.973145,92.0786133 235.372314,92.215332 235.628662,92.4887695 C235.88501,92.762207 236.015625,93.1845703 236.020508,93.7558594 L236.020508,93.7558594 L236.020508,99 L237.375488,99 L237.375488,93.7631836 C237.36084,91.8735352 236.516113,90.9287109 234.841309,90.9287109 C233.864746,90.9287109 233.07373,91.3095703 232.468262,92.0712891 L232.468262,92.0712891 L232.424316,91.0751953 L231.142578,91.0751953 L231.142578,99 L232.497559,99 Z M240.891113,99 L240.891113,87.75 L239.536133,87.75 L239.536133,99 L240.891113,99 Z M243.92334,99.0805664 C244.20166,99.0805664 244.412842,99.0048828 244.556885,98.8535156 C244.700928,98.7021484 244.772949,98.5141602 244.772949,98.2895508 C244.772949,98.0551758 244.700928,97.8598633 244.556885,97.7036133 C244.412842,97.5473633 244.20166,97.4692383 243.92334,97.4692383 C243.64502,97.4692383 243.436279,97.5473633 243.297119,97.7036133 C243.157959,97.8598633 243.088379,98.0551758 243.088379,98.2895508 C243.088379,98.5141602 243.157959,98.7021484 243.297119,98.8535156 C243.436279,99.0048828 243.64502,99.0805664 243.92334,99.0805664 Z M250.185547,99.1464844 C250.722656,99.1464844 251.231689,99.0244141 251.712646,98.7802734 C252.193604,98.5361328 252.578125,98.2089844 252.866211,97.7988281 C253.154297,97.3886719 253.310547,96.956543 253.334961,96.5024414 L253.334961,96.5024414 L252.053223,96.5024414 C252.01416,96.9418945 251.813965,97.3081055 251.452637,97.6010742 C251.091309,97.894043 250.668945,98.0405273 250.185547,98.0405273 C249.487305,98.0405273 248.950195,97.7939453 248.574219,97.3007812 C248.198242,96.8076172 248.010254,96.1044922 248.010254,95.1914062 L248.010254,95.1914062 L248.010254,94.9350586 C248.010254,93.9975586 248.199463,93.2810059 248.577881,92.7854004 C248.956299,92.2897949 249.489746,92.0419922 250.178223,92.0419922 C250.690918,92.0419922 251.121826,92.2067871 251.470947,92.536377 C251.820068,92.8659668 252.01416,93.2871094 252.053223,93.7998047 L252.053223,93.7998047 L253.334961,93.7998047 C253.295898,92.9501953 252.982178,92.2592773 252.393799,91.7270508 C251.80542,91.1948242 251.066895,90.9287109 250.178223,90.9287109 C249.455566,90.9287109 248.829346,91.0947266 248.299561,91.4267578 C247.769775,91.7587891 247.363281,92.2250977 247.080078,92.8256836 C246.796875,93.4262695 246.655273,94.1123047 246.655273,94.8837891 L246.655273,94.8837891 L246.655273,95.1108398 C246.655273,96.3608398 246.973877,97.3459473 247.611084,98.0661621 C248.248291,98.786377 249.106445,99.1464844 250.185547,99.1464844 Z M258.110352,99.1464844 C258.823242,99.1464844 259.454346,98.9755859 260.003662,98.6337891 C260.552979,98.2919922 260.975342,97.8146973 261.270752,97.2019043 C261.566162,96.5891113 261.713867,95.8969727 261.713867,95.1254883 L261.713867,95.1254883 L261.713867,95.0302734 C261.713867,93.7900391 261.380615,92.7963867 260.714111,92.0493164 C260.047607,91.3022461 259.174805,90.9287109 258.095703,90.9287109 C257.397461,90.9287109 256.776123,91.097168 256.231689,91.434082 C255.687256,91.7709961 255.262451,92.2495117 254.957275,92.8696289 C254.6521,93.4897461 254.499512,94.1879883 254.499512,94.9643555 L254.499512,94.9643555 L254.499512,95.0595703 C254.499512,96.2900391 254.832764,97.2788086 255.499268,98.0258789 C256.165771,98.7729492 257.036133,99.1464844 258.110352,99.1464844 Z M258.110352,98.0405273 C257.426758,98.0405273 256.881104,97.7744141 256.473389,97.2421875 C256.065674,96.7099609 255.861816,96.0043945 255.861816,95.1254883 C255.861816,94.1342773 256.066895,93.3725586 256.477051,92.840332 C256.887207,92.3081055 257.426758,92.0419922 258.095703,92.0419922 C258.779297,92.0419922 259.327393,92.3117676 259.73999,92.8513184 C260.152588,93.3908691 260.358887,94.0952148 260.358887,94.9643555 C260.358887,95.9360352 260.15625,96.6916504 259.750977,97.2312012 C259.345703,97.770752 258.798828,98.0405273 258.110352,98.0405273 Z M264.760742,99 L264.760742,93.2138672 C265.087891,92.4570312 265.695801,92.0786133 266.584473,92.0786133 C267.712402,92.0786133 268.276367,92.6547852 268.276367,93.8071289 L268.276367,93.8071289 L268.276367,99 L269.638672,99 L269.638672,93.7412109 C269.692383,93.2333984 269.885254,92.8293457 270.217285,92.5290527 C270.549316,92.2287598 270.966797,92.0786133 271.469727,92.0786133 C272.080078,92.0786133 272.514648,92.2189941 272.773438,92.4997559 C273.032227,92.7805176 273.161621,93.2041016 273.161621,93.7705078 L273.161621,93.7705078 L273.161621,99 L274.516602,99 L274.516602,93.6899414 C274.487305,91.8491211 273.603516,90.9287109 271.865234,90.9287109 C271.289062,90.9287109 270.789795,91.0458984 270.367432,91.2802734 C269.945068,91.5146484 269.602051,91.8222656 269.338379,92.203125 C268.937988,91.3535156 268.183594,90.9287109 267.075195,90.9287109 C266.088867,90.9287109 265.305176,91.2705078 264.724121,91.9541016 L264.724121,91.9541016 L264.6875,91.0751953 L263.405762,91.0751953 L263.405762,99 L264.760742,99 Z M282.961426,99 L284.836426,92.9941406 L286.762695,99 L287.861328,99 L290.168457,91.0751953 L288.813477,91.0751953 L287.290039,97.1323242 L285.407715,91.0751953 L284.316406,91.0751953 L282.470703,97.0078125 L280.910645,91.0751953 L279.562988,91.0751953 L281.862793,99 L282.961426,99 Z M293.991699,99.1464844 C294.865723,99.1464844 295.617676,98.8193359 296.247559,98.1650391 C296.296387,98.5654297 296.359863,98.84375 296.437988,99 L296.437988,99 L297.858887,99 L297.858887,98.8828125 C297.67334,98.453125 297.580566,97.8745117 297.580566,97.1469727 L297.580566,97.1469727 L297.580566,93.4995117 C297.561035,92.6987305 297.29248,92.0700684 296.774902,91.6135254 C296.257324,91.1569824 295.541992,90.9287109 294.628906,90.9287109 C294.052734,90.9287109 293.52417,91.0361328 293.043213,91.2509766 C292.562256,91.4658203 292.181396,91.7575684 291.900635,92.1262207 C291.619873,92.494873 291.479492,92.8769531 291.479492,93.2724609 L291.479492,93.2724609 L292.841797,93.2724609 C292.841797,92.9257812 293.005371,92.6303711 293.33252,92.3862305 C293.659668,92.1420898 294.064941,92.0200195 294.54834,92.0200195 C295.100098,92.0200195 295.517578,92.1604004 295.800781,92.4411621 C296.083984,92.7219238 296.225586,93.0991211 296.225586,93.5727539 L296.225586,93.5727539 L296.225586,94.1953125 L294.907227,94.1953125 C293.769531,94.1953125 292.886963,94.423584 292.259521,94.880127 C291.63208,95.3366699 291.318359,95.9775391 291.318359,96.8027344 C291.318359,97.4814453 291.568604,98.041748 292.069092,98.4836426 C292.56958,98.9255371 293.210449,99.1464844 293.991699,99.1464844 Z M294.189453,97.9672852 C293.745117,97.9672852 293.381348,97.8476562 293.098145,97.6083984 C292.814941,97.3691406 292.67334,97.0371094 292.67334,96.6123047 C292.67334,95.640625 293.503418,95.1547852 295.163574,95.1547852 L295.163574,95.1547852 L296.225586,95.1547852 L296.225586,96.7807617 C296.054688,97.1323242 295.778809,97.4179688 295.397949,97.6376953 C295.01709,97.8574219 294.614258,97.9672852 294.189453,97.9672852 Z M301.05957,99 L301.05957,93.3530273 C301.245117,92.972168 301.503906,92.6645508 301.835938,92.4301758 C302.167969,92.1958008 302.553711,92.0786133 302.993164,92.0786133 C303.535156,92.0786133 303.934326,92.215332 304.190674,92.4887695 C304.447021,92.762207 304.577637,93.1845703 304.58252,93.7558594 L304.58252,93.7558594 L304.58252,99 L305.9375,99 L305.9375,93.7631836 C305.922852,91.8735352 305.078125,90.9287109 303.40332,90.9287109 C302.426758,90.9287109 301.635742,91.3095703 301.030273,92.0712891 L301.030273,92.0712891 L300.986328,91.0751953 L299.70459,91.0751953 L299.70459,99 L301.05957,99 Z M310.29541,99.1464844 C310.632324,99.1464844 310.979004,99.0976562 311.335449,99 L311.335449,99 L311.335449,97.9013672 C311.062012,97.9599609 310.847168,97.9892578 310.690918,97.9892578 C310.373535,97.9892578 310.148926,97.9099121 310.01709,97.7512207 C309.885254,97.5925293 309.819336,97.3544922 309.819336,97.0371094 L309.819336,97.0371094 L309.819336,92.1225586 L311.298828,92.1225586 L311.298828,91.0751953 L309.819336,91.0751953 L309.819336,89.15625 L308.464355,89.15625 L308.464355,91.0751953 L307.021484,91.0751953 L307.021484,92.1225586 L308.464355,92.1225586 L308.464355,97.0371094 C308.464355,97.7109375 308.618164,98.230957 308.925781,98.597168 C309.233398,98.9633789 309.689941,99.1464844 310.29541,99.1464844 Z M315.795898,99.1464844 C316.699219,99.1464844 317.434082,98.9328613 318.000488,98.5056152 C318.566895,98.0783691 318.850098,97.5107422 318.850098,96.8027344 C318.850098,96.3779297 318.748779,96.0178223 318.546143,95.7224121 C318.343506,95.427002 318.032227,95.1743164 317.612305,94.9643555 C317.192383,94.7543945 316.644287,94.5737305 315.968018,94.4223633 C315.291748,94.2709961 314.824219,94.1123047 314.56543,93.9462891 C314.306641,93.7802734 314.177246,93.5336914 314.177246,93.206543 C314.177246,92.8598633 314.316406,92.5791016 314.594727,92.3642578 C314.873047,92.1494141 315.258789,92.0419922 315.751953,92.0419922 C316.230469,92.0419922 316.627197,92.1762695 316.942139,92.4448242 C317.25708,92.7133789 317.414551,93.0332031 317.414551,93.4042969 L317.414551,93.4042969 L318.776855,93.4042969 C318.776855,92.6816406 318.497314,92.0883789 317.938232,91.6245117 C317.37915,91.1606445 316.650391,90.9287109 315.751953,90.9287109 C314.897461,90.9287109 314.195557,91.1533203 313.64624,91.6025391 C313.096924,92.0517578 312.822266,92.6010742 312.822266,93.2504883 C312.822266,93.6411133 312.918701,93.9780273 313.111572,94.2612305 C313.304443,94.5444336 313.602295,94.7885742 314.005127,94.9936523 C314.407959,95.1987305 314.952393,95.3745117 315.638428,95.5209961 C316.324463,95.6674805 316.80542,95.842041 317.081299,96.0446777 C317.357178,96.2473145 317.495117,96.5317383 317.495117,96.8979492 C317.495117,97.2446289 317.340088,97.5217285 317.030029,97.729248 C316.719971,97.9367676 316.308594,98.0405273 315.795898,98.0405273 C315.239258,98.0405273 314.79126,97.9074707 314.451904,97.6413574 C314.112549,97.3752441 313.930664,97.0151367 313.90625,96.5610352 L313.90625,96.5610352 L312.55127,96.5610352 C312.55127,97.0297852 312.689209,97.4655762 312.965088,97.8684082 C313.240967,98.2712402 313.623047,98.5849609 314.111328,98.8095703 C314.599609,99.0341797 315.161133,99.1464844 315.795898,99.1464844 Z M326.643066,99.1464844 C326.97998,99.1464844 327.32666,99.0976562 327.683105,99 L327.683105,99 L327.683105,97.9013672 C327.409668,97.9599609 327.194824,97.9892578 327.038574,97.9892578 C326.721191,97.9892578 326.496582,97.9099121 326.364746,97.7512207 C326.23291,97.5925293 326.166992,97.3544922 326.166992,97.0371094 L326.166992,97.0371094 L326.166992,92.1225586 L327.646484,92.1225586 L327.646484,91.0751953 L326.166992,91.0751953 L326.166992,89.15625 L324.812012,89.15625 L324.812012,91.0751953 L323.369141,91.0751953 L323.369141,92.1225586 L324.812012,92.1225586 L324.812012,97.0371094 C324.812012,97.7109375 324.96582,98.230957 325.273438,98.597168 C325.581055,98.9633789 326.037598,99.1464844 326.643066,99.1464844 Z M332.333984,99.1464844 C333.046875,99.1464844 333.677979,98.9755859 334.227295,98.6337891 C334.776611,98.2919922 335.198975,97.8146973 335.494385,97.2019043 C335.789795,96.5891113 335.9375,95.8969727 335.9375,95.1254883 L335.9375,95.1254883 L335.9375,95.0302734 C335.9375,93.7900391 335.604248,92.7963867 334.937744,92.0493164 C334.27124,91.3022461 333.398438,90.9287109 332.319336,90.9287109 C331.621094,90.9287109 330.999756,91.097168 330.455322,91.434082 C329.910889,91.7709961 329.486084,92.2495117 329.180908,92.8696289 C328.875732,93.4897461 328.723145,94.1879883 328.723145,94.9643555 L328.723145,94.9643555 L328.723145,95.0595703 C328.723145,96.2900391 329.056396,97.2788086 329.7229,98.0258789 C330.389404,98.7729492 331.259766,99.1464844 332.333984,99.1464844 Z M332.333984,98.0405273 C331.650391,98.0405273 331.104736,97.7744141 330.697021,97.2421875 C330.289307,96.7099609 330.085449,96.0043945 330.085449,95.1254883 C330.085449,94.1342773 330.290527,93.3725586 330.700684,92.840332 C331.11084,92.3081055 331.650391,92.0419922 332.319336,92.0419922 C333.00293,92.0419922 333.551025,92.3117676 333.963623,92.8513184 C334.376221,93.3908691 334.58252,94.0952148 334.58252,94.9643555 C334.58252,95.9360352 334.379883,96.6916504 333.974609,97.2312012 C333.569336,97.770752 333.022461,98.0405273 332.333984,98.0405273 Z" id="webmail.emailpnl.comwantsto" fill="#000000" fill-rule="nonzero"></path>
                <path d="M158.697266,127.117188 C159.599609,127.117188 160.320312,126.90918 160.859375,126.493164 C161.398438,126.077148 161.667969,125.523438 161.667969,124.832031 C161.667969,124.398438 161.571289,124.021484 161.37793,123.701172 C161.18457,123.380859 160.887695,123.100586 160.487305,122.860352 C160.086914,122.620117 159.532227,122.400391 158.823242,122.201172 C158.114258,122.001953 157.612305,121.782227 157.317383,121.541992 C157.022461,121.301758 156.875,121.007812 156.875,120.660156 C156.875,120.226562 157.030273,119.887695 157.34082,119.643555 C157.651367,119.399414 158.083984,119.277344 158.638672,119.277344 C159.236328,119.277344 159.699219,119.424805 160.027344,119.719727 C160.355469,120.014648 160.519531,120.419922 160.519531,120.935547 L160.519531,120.935547 L161.650391,120.935547 C161.650391,120.462891 161.524414,120.027344 161.272461,119.628906 C161.020508,119.230469 160.665039,118.917969 160.206055,118.691406 C159.74707,118.464844 159.224609,118.351562 158.638672,118.351562 C157.779297,118.351562 157.081055,118.571289 156.543945,119.010742 C156.006836,119.450195 155.738281,120.005859 155.738281,120.677734 C155.738281,121.271484 155.958008,121.770508 156.397461,122.174805 C156.836914,122.579102 157.539062,122.919922 158.503906,123.197266 C159.273438,123.419922 159.804688,123.645508 160.097656,123.874023 C160.390625,124.102539 160.537109,124.425781 160.537109,124.84375 C160.537109,125.261719 160.378906,125.591797 160.0625,125.833984 C159.746094,126.076172 159.291016,126.197266 158.697266,126.197266 C158.060547,126.197266 157.551758,126.047852 157.170898,125.749023 C156.790039,125.450195 156.599609,125.042969 156.599609,124.527344 L156.599609,124.527344 L155.46875,124.527344 C155.46875,125.023438 155.606445,125.466797 155.881836,125.857422 C156.157227,126.248047 156.548828,126.555664 157.056641,126.780273 C157.564453,127.004883 158.111328,127.117188 158.697266,127.117188 Z M164.023438,127 L164.023438,122.482422 C164.171875,122.177734 164.378906,121.931641 164.644531,121.744141 C164.910156,121.556641 165.21875,121.462891 165.570312,121.462891 C166.003906,121.462891 166.323242,121.572266 166.52832,121.791016 C166.733398,122.009766 166.837891,122.347656 166.841797,122.804688 L166.841797,122.804688 L166.841797,127 L167.925781,127 L167.925781,122.810547 C167.914062,121.298828 167.238281,120.542969 165.898438,120.542969 C165.128906,120.542969 164.503906,120.837891 164.023438,121.427734 L164.023438,121.427734 L164.023438,118 L162.939453,118 L162.939453,127 L164.023438,127 Z M172.150391,127.117188 C172.720703,127.117188 173.225586,126.980469 173.665039,126.707031 C174.104492,126.433594 174.442383,126.051758 174.678711,125.561523 C174.915039,125.071289 175.033203,124.517578 175.033203,123.900391 L175.033203,123.900391 L175.033203,123.824219 C175.033203,122.832031 174.766602,122.037109 174.233398,121.439453 C173.700195,120.841797 173.001953,120.542969 172.138672,120.542969 C171.580078,120.542969 171.083008,120.677734 170.647461,120.947266 C170.211914,121.216797 169.87207,121.599609 169.62793,122.095703 C169.383789,122.591797 169.261719,123.150391 169.261719,123.771484 L169.261719,123.771484 L169.261719,123.847656 C169.261719,124.832031 169.52832,125.623047 170.061523,126.220703 C170.594727,126.818359 171.291016,127.117188 172.150391,127.117188 Z M172.150391,126.232422 C171.603516,126.232422 171.166992,126.019531 170.84082,125.59375 C170.514648,125.167969 170.351562,124.603516 170.351562,123.900391 C170.351562,123.107422 170.515625,122.498047 170.84375,122.072266 C171.171875,121.646484 171.603516,121.433594 172.138672,121.433594 C172.685547,121.433594 173.124023,121.649414 173.454102,122.081055 C173.78418,122.512695 173.949219,123.076172 173.949219,123.771484 C173.949219,124.548828 173.787109,125.15332 173.462891,125.584961 C173.138672,126.016602 172.701172,126.232422 172.150391,126.232422 Z M178.542969,127 L180.042969,122.195312 L181.583984,127 L182.462891,127 L184.308594,120.660156 L183.224609,120.660156 L182.005859,125.505859 L180.5,120.660156 L179.626953,120.660156 L178.150391,125.40625 L176.902344,120.660156 L175.824219,120.660156 L177.664062,127 L178.542969,127 Z M189.464844,127 L189.464844,122.482422 C189.613281,122.177734 189.820312,121.931641 190.085938,121.744141 C190.351562,121.556641 190.660156,121.462891 191.011719,121.462891 C191.445312,121.462891 191.764648,121.572266 191.969727,121.791016 C192.174805,122.009766 192.279297,122.347656 192.283203,122.804688 L192.283203,122.804688 L192.283203,127 L193.367188,127 L193.367188,122.810547 C193.355469,121.298828 192.679688,120.542969 191.339844,120.542969 C190.558594,120.542969 189.925781,120.847656 189.441406,121.457031 L189.441406,121.457031 L189.40625,120.660156 L188.380859,120.660156 L188.380859,127 L189.464844,127 Z M197.603516,127.117188 C198.173828,127.117188 198.678711,126.980469 199.118164,126.707031 C199.557617,126.433594 199.895508,126.051758 200.131836,125.561523 C200.368164,125.071289 200.486328,124.517578 200.486328,123.900391 L200.486328,123.900391 L200.486328,123.824219 C200.486328,122.832031 200.219727,122.037109 199.686523,121.439453 C199.15332,120.841797 198.455078,120.542969 197.591797,120.542969 C197.033203,120.542969 196.536133,120.677734 196.100586,120.947266 C195.665039,121.216797 195.325195,121.599609 195.081055,122.095703 C194.836914,122.591797 194.714844,123.150391 194.714844,123.771484 L194.714844,123.771484 L194.714844,123.847656 C194.714844,124.832031 194.981445,125.623047 195.514648,126.220703 C196.047852,126.818359 196.744141,127.117188 197.603516,127.117188 Z M197.603516,126.232422 C197.056641,126.232422 196.620117,126.019531 196.293945,125.59375 C195.967773,125.167969 195.804688,124.603516 195.804688,123.900391 C195.804688,123.107422 195.96875,122.498047 196.296875,122.072266 C196.625,121.646484 197.056641,121.433594 197.591797,121.433594 C198.138672,121.433594 198.577148,121.649414 198.907227,122.081055 C199.237305,122.512695 199.402344,123.076172 199.402344,123.771484 C199.402344,124.548828 199.240234,125.15332 198.916016,125.584961 C198.591797,126.016602 198.154297,126.232422 197.603516,126.232422 Z M203.697266,127.117188 C203.966797,127.117188 204.244141,127.078125 204.529297,127 L204.529297,127 L204.529297,126.121094 C204.310547,126.167969 204.138672,126.191406 204.013672,126.191406 C203.759766,126.191406 203.580078,126.12793 203.474609,126.000977 C203.369141,125.874023 203.316406,125.683594 203.316406,125.429688 L203.316406,125.429688 L203.316406,121.498047 L204.5,121.498047 L204.5,120.660156 L203.316406,120.660156 L203.316406,119.125 L202.232422,119.125 L202.232422,120.660156 L201.078125,120.660156 L201.078125,121.498047 L202.232422,121.498047 L202.232422,125.429688 C202.232422,125.96875 202.355469,126.384766 202.601562,126.677734 C202.847656,126.970703 203.212891,127.117188 203.697266,127.117188 Z M206.410156,119.59375 C206.621094,119.59375 206.78125,119.535156 206.890625,119.417969 C207,119.300781 207.054688,119.154297 207.054688,118.978516 C207.054688,118.802734 207,118.654297 206.890625,118.533203 C206.78125,118.412109 206.621094,118.351562 206.410156,118.351562 C206.199219,118.351562 206.040039,118.412109 205.932617,118.533203 C205.825195,118.654297 205.771484,118.802734 205.771484,118.978516 C205.771484,119.154297 205.825195,119.300781 205.932617,119.417969 C206.040039,119.535156 206.199219,119.59375 206.410156,119.59375 Z M206.943359,127 L206.943359,120.660156 L205.859375,120.660156 L205.859375,127 L206.943359,127 Z M210.294922,127 L210.294922,121.498047 L211.648438,121.498047 L211.648438,120.660156 L210.294922,120.660156 L210.294922,119.992188 C210.294922,119.609375 210.390625,119.31543 210.582031,119.110352 C210.773438,118.905273 211.044922,118.802734 211.396484,118.802734 C211.603516,118.802734 211.798828,118.820312 211.982422,118.855469 L211.982422,118.855469 L212.041016,117.976562 C211.794922,117.910156 211.546875,117.876953 211.296875,117.876953 C210.632812,117.876953 210.119141,118.0625 209.755859,118.433594 C209.392578,118.804688 209.210938,119.330078 209.210938,120.009766 L209.210938,120.009766 L209.210938,120.660156 L208.208984,120.660156 L208.208984,121.498047 L209.210938,121.498047 L209.210938,127 L210.294922,127 Z M213.488281,119.59375 C213.699219,119.59375 213.859375,119.535156 213.96875,119.417969 C214.078125,119.300781 214.132812,119.154297 214.132812,118.978516 C214.132812,118.802734 214.078125,118.654297 213.96875,118.533203 C213.859375,118.412109 213.699219,118.351562 213.488281,118.351562 C213.277344,118.351562 213.118164,118.412109 213.010742,118.533203 C212.90332,118.654297 212.849609,118.802734 212.849609,118.978516 C212.849609,119.154297 212.90332,119.300781 213.010742,119.417969 C213.118164,119.535156 213.277344,119.59375 213.488281,119.59375 Z M214.021484,127 L214.021484,120.660156 L212.9375,120.660156 L212.9375,127 L214.021484,127 Z M218.298828,127.117188 C218.728516,127.117188 219.135742,127.019531 219.520508,126.824219 C219.905273,126.628906 220.212891,126.367188 220.443359,126.039062 C220.673828,125.710938 220.798828,125.365234 220.818359,125.001953 L220.818359,125.001953 L219.792969,125.001953 C219.761719,125.353516 219.601562,125.646484 219.3125,125.880859 C219.023438,126.115234 218.685547,126.232422 218.298828,126.232422 C217.740234,126.232422 217.310547,126.035156 217.009766,125.640625 C216.708984,125.246094 216.558594,124.683594 216.558594,123.953125 L216.558594,123.953125 L216.558594,123.748047 C216.558594,122.998047 216.709961,122.424805 217.012695,122.02832 C217.31543,121.631836 217.742188,121.433594 218.292969,121.433594 C218.703125,121.433594 219.047852,121.56543 219.327148,121.829102 C219.606445,122.092773 219.761719,122.429688 219.792969,122.839844 L219.792969,122.839844 L220.818359,122.839844 C220.787109,122.160156 220.536133,121.607422 220.06543,121.181641 C219.594727,120.755859 219.003906,120.542969 218.292969,120.542969 C217.714844,120.542969 217.213867,120.675781 216.790039,120.941406 C216.366211,121.207031 216.041016,121.580078 215.814453,122.060547 C215.587891,122.541016 215.474609,123.089844 215.474609,123.707031 L215.474609,123.707031 L215.474609,123.888672 C215.474609,124.888672 215.729492,125.676758 216.239258,126.25293 C216.749023,126.829102 217.435547,127.117188 218.298828,127.117188 Z M223.994141,127.117188 C224.693359,127.117188 225.294922,126.855469 225.798828,126.332031 C225.837891,126.652344 225.888672,126.875 225.951172,127 L225.951172,127 L227.087891,127 L227.087891,126.90625 C226.939453,126.5625 226.865234,126.099609 226.865234,125.517578 L226.865234,125.517578 L226.865234,122.599609 C226.849609,121.958984 226.634766,121.456055 226.220703,121.09082 C225.806641,120.725586 225.234375,120.542969 224.503906,120.542969 C224.042969,120.542969 223.620117,120.628906 223.235352,120.800781 C222.850586,120.972656 222.545898,121.206055 222.321289,121.500977 C222.09668,121.795898 221.984375,122.101562 221.984375,122.417969 L221.984375,122.417969 L223.074219,122.417969 C223.074219,122.140625 223.205078,121.904297 223.466797,121.708984 C223.728516,121.513672 224.052734,121.416016 224.439453,121.416016 C224.880859,121.416016 225.214844,121.52832 225.441406,121.75293 C225.667969,121.977539 225.78125,122.279297 225.78125,122.658203 L225.78125,122.658203 L225.78125,123.15625 L224.726562,123.15625 C223.816406,123.15625 223.110352,123.338867 222.608398,123.704102 C222.106445,124.069336 221.855469,124.582031 221.855469,125.242188 C221.855469,125.785156 222.055664,126.233398 222.456055,126.586914 C222.856445,126.94043 223.369141,127.117188 223.994141,127.117188 Z M224.152344,126.173828 C223.796875,126.173828 223.505859,126.078125 223.279297,125.886719 C223.052734,125.695312 222.939453,125.429688 222.939453,125.089844 C222.939453,124.3125 223.603516,123.923828 224.931641,123.923828 L224.931641,123.923828 L225.78125,123.923828 L225.78125,125.224609 C225.644531,125.505859 225.423828,125.734375 225.119141,125.910156 C224.814453,126.085938 224.492188,126.173828 224.152344,126.173828 Z M230.416016,127.117188 C230.685547,127.117188 230.962891,127.078125 231.248047,127 L231.248047,127 L231.248047,126.121094 C231.029297,126.167969 230.857422,126.191406 230.732422,126.191406 C230.478516,126.191406 230.298828,126.12793 230.193359,126.000977 C230.087891,125.874023 230.035156,125.683594 230.035156,125.429688 L230.035156,125.429688 L230.035156,121.498047 L231.21875,121.498047 L231.21875,120.660156 L230.035156,120.660156 L230.035156,119.125 L228.951172,119.125 L228.951172,120.660156 L227.796875,120.660156 L227.796875,121.498047 L228.951172,121.498047 L228.951172,125.429688 C228.951172,125.96875 229.074219,126.384766 229.320312,126.677734 C229.566406,126.970703 229.931641,127.117188 230.416016,127.117188 Z M233.128906,119.59375 C233.339844,119.59375 233.5,119.535156 233.609375,119.417969 C233.71875,119.300781 233.773438,119.154297 233.773438,118.978516 C233.773438,118.802734 233.71875,118.654297 233.609375,118.533203 C233.5,118.412109 233.339844,118.351562 233.128906,118.351562 C232.917969,118.351562 232.758789,118.412109 232.651367,118.533203 C232.543945,118.654297 232.490234,118.802734 232.490234,118.978516 C232.490234,119.154297 232.543945,119.300781 232.651367,119.417969 C232.758789,119.535156 232.917969,119.59375 233.128906,119.59375 Z M233.662109,127 L233.662109,120.660156 L232.578125,120.660156 L232.578125,127 L233.662109,127 Z M237.998047,127.117188 C238.568359,127.117188 239.073242,126.980469 239.512695,126.707031 C239.952148,126.433594 240.290039,126.051758 240.526367,125.561523 C240.762695,125.071289 240.880859,124.517578 240.880859,123.900391 L240.880859,123.900391 L240.880859,123.824219 C240.880859,122.832031 240.614258,122.037109 240.081055,121.439453 C239.547852,120.841797 238.849609,120.542969 237.986328,120.542969 C237.427734,120.542969 236.930664,120.677734 236.495117,120.947266 C236.05957,121.216797 235.719727,121.599609 235.475586,122.095703 C235.231445,122.591797 235.109375,123.150391 235.109375,123.771484 L235.109375,123.771484 L235.109375,123.847656 C235.109375,124.832031 235.375977,125.623047 235.90918,126.220703 C236.442383,126.818359 237.138672,127.117188 237.998047,127.117188 Z M237.998047,126.232422 C237.451172,126.232422 237.014648,126.019531 236.688477,125.59375 C236.362305,125.167969 236.199219,124.603516 236.199219,123.900391 C236.199219,123.107422 236.363281,122.498047 236.691406,122.072266 C237.019531,121.646484 237.451172,121.433594 237.986328,121.433594 C238.533203,121.433594 238.97168,121.649414 239.301758,122.081055 C239.631836,122.512695 239.796875,123.076172 239.796875,123.771484 C239.796875,124.548828 239.634766,125.15332 239.310547,125.584961 C238.986328,126.016602 238.548828,126.232422 237.998047,126.232422 Z M243.324219,127 L243.324219,122.482422 C243.472656,122.177734 243.679688,121.931641 243.945312,121.744141 C244.210938,121.556641 244.519531,121.462891 244.871094,121.462891 C245.304688,121.462891 245.624023,121.572266 245.829102,121.791016 C246.03418,122.009766 246.138672,122.347656 246.142578,122.804688 L246.142578,122.804688 L246.142578,127 L247.226562,127 L247.226562,122.810547 C247.214844,121.298828 246.539062,120.542969 245.199219,120.542969 C244.417969,120.542969 243.785156,120.847656 243.300781,121.457031 L243.300781,121.457031 L243.265625,120.660156 L242.240234,120.660156 L242.240234,127 L243.324219,127 Z M251.193359,127.117188 C251.916016,127.117188 252.503906,126.946289 252.957031,126.604492 C253.410156,126.262695 253.636719,125.808594 253.636719,125.242188 C253.636719,124.902344 253.555664,124.614258 253.393555,124.37793 C253.231445,124.141602 252.982422,123.939453 252.646484,123.771484 C252.310547,123.603516 251.87207,123.458984 251.331055,123.337891 C250.790039,123.216797 250.416016,123.089844 250.208984,122.957031 C250.001953,122.824219 249.898438,122.626953 249.898438,122.365234 C249.898438,122.087891 250.009766,121.863281 250.232422,121.691406 C250.455078,121.519531 250.763672,121.433594 251.158203,121.433594 C251.541016,121.433594 251.858398,121.541016 252.110352,121.755859 C252.362305,121.970703 252.488281,122.226562 252.488281,122.523438 L252.488281,122.523438 L253.578125,122.523438 C253.578125,121.945312 253.354492,121.470703 252.907227,121.099609 C252.459961,120.728516 251.876953,120.542969 251.158203,120.542969 C250.474609,120.542969 249.913086,120.722656 249.473633,121.082031 C249.03418,121.441406 248.814453,121.880859 248.814453,122.400391 C248.814453,122.712891 248.891602,122.982422 249.045898,123.208984 C249.200195,123.435547 249.438477,123.630859 249.760742,123.794922 C250.083008,123.958984 250.518555,124.099609 251.067383,124.216797 C251.616211,124.333984 252.000977,124.473633 252.22168,124.635742 C252.442383,124.797852 252.552734,125.025391 252.552734,125.318359 C252.552734,125.595703 252.428711,125.817383 252.180664,125.983398 C251.932617,126.149414 251.603516,126.232422 251.193359,126.232422 C250.748047,126.232422 250.389648,126.125977 250.118164,125.913086 C249.84668,125.700195 249.701172,125.412109 249.681641,125.048828 L249.681641,125.048828 L248.597656,125.048828 C248.597656,125.423828 248.708008,125.772461 248.928711,126.094727 C249.149414,126.416992 249.455078,126.667969 249.845703,126.847656 C250.236328,127.027344 250.685547,127.117188 251.193359,127.117188 Z" id="Shownotifications" fill="#000000" fill-rule="nonzero"></path>
                <g id="Block" fill-rule="nonzero">
                    <use fill="#000000" xlink:href="#path-7"></use>
                    <use fill="#1A73E8" xlink:href="#path-7"></use>
                </g>
                <g id="Allow" fill-rule="nonzero">
                    <use fill="#000000" xlink:href="#path-8"></use>
                    <use fill="#1A73E8" xlink:href="#path-8"></use>
                </g>
                <path d="M408.946212,78.8970518 L409.03033,78.9696699 L412,81.939 L414.96967,78.9696699 C415.262563,78.6767767 415.737437,78.6767767 416.03033,78.9696699 C416.296597,79.2359365 416.320803,79.6526002 416.102948,79.9462116 L416.03033,80.0303301 L413.061,83 L416.03033,85.9696699 C416.323223,86.2625631 416.323223,86.7374369 416.03033,87.0303301 C415.764063,87.2965966 415.3474,87.3208027 415.053788,87.1029482 L414.96967,87.0303301 L412,84.061 L409.03033,87.0303301 C408.737437,87.3232233 408.262563,87.3232233 407.96967,87.0303301 C407.703403,86.7640635 407.679197,86.3473998 407.897052,86.0537883 L407.96967,85.9696699 L410.939,83 L407.96967,80.0303301 C407.676777,79.7374369 407.676777,79.2625631 407.96967,78.9696699 C408.206351,78.7329885 408.561865,78.6875648 408.844159,78.8333988 L408.946212,78.8970518 Z" id="Combined-Shape" fill="#FFFFFF" fill-rule="nonzero"></path>
            </g>
            <polygon id="Line-2" fill="#CFD0D1" fill-rule="nonzero" points="556 44 556 60 555 60 555 44"></polygon>
            <path d="M610,55.9565217 C610.828427,55.9565217 611.5,56.6378276 611.5,57.4782609 C611.5,58.3186942 610.828427,59 610,59 C609.171573,59 608.5,58.3186942 608.5,57.4782609 C608.5,56.6378276 609.171573,55.9565217 610,55.9565217 Z M610,50.4782609 C610.828427,50.4782609 611.5,51.1595667 611.5,52 C611.5,52.8404333 610.828427,53.5217391 610,53.5217391 C609.171573,53.5217391 608.5,52.8404333 608.5,52 C608.5,51.1595667 609.171573,50.4782609 610,50.4782609 Z M610,45 C610.828427,45 611.5,45.6813058 611.5,46.5217391 C611.5,47.3621725 610.828427,48.0434783 610,48.0434783 C609.171573,48.0434783 608.5,47.3621725 608.5,46.5217391 C608.5,45.6813058 609.171573,45 610,45 Z" id="Combined-Shape" fill="#606369" fill-rule="nonzero"></path>
            <rect id="Rectangle-7" fill="var(--accent-d10)" fill-rule="nonzero" x="568" y="42" width="20" height="20" rx="10"></rect>
            <g id="J" transform="translate(574.000000, 44.000000)"></g>
            <text id="J" fill="#FFFFFF" font-family="Roboto-Regular, Roboto" font-size="14" font-weight="normal">
                <tspan x="574.137695" y="57">J</tspan>
            </text>
        </g>
    </g>
</svg>