<?xml version="1.0" encoding="UTF-8"?>
<svg width="286px" height="326px" viewBox="0 0 286 326" version="1.1" xmlns="http://www.w3.org/2000/svg" xmlns:xlink="http://www.w3.org/1999/xlink">
    <title>notifications / ios / setting</title>
    <defs>
        <path d="M0,0 L258,0 L258,55 C258,64.9411255 249.941125,73 240,73 L18,73 C8.0588745,73 4.77015043e-15,64.9411255 0,55 L0,0 L0,0 Z" id="path-1"></path>
        <filter x="-1.4%" y="-3.4%" width="102.7%" height="109.6%" filterUnits="objectBoundingBox" id="filter-3">
            <feMorphology radius="0.5" operator="dilate" in="SourceAlpha" result="shadowSpreadOuter1"></feMorphology>
            <feOffset dx="0" dy="1" in="shadowSpreadOuter1" result="shadowOffsetOuter1"></feOffset>
            <feGaussianBlur stdDeviation="0.5" in="shadowOffsetOuter1" result="shadowBlurOuter1"></feGaussianBlur>
            <feComposite in="shadowBlurOuter1" in2="SourceAlpha" operator="out" result="shadowBlurOuter1"></feComposite>
            <feColorMatrix values="0 0 0 0 0   0 0 0 0 0   0 0 0 0 0  0 0 0 0.05 0" type="matrix" in="shadowBlurOuter1" result="shadowMatrixOuter1"></feColorMatrix>
            <feMorphology radius="0.5" operator="dilate" in="SourceAlpha" result="shadowSpreadOuter2"></feMorphology>
            <feOffset dx="0" dy="1" in="shadowSpreadOuter2" result="shadowOffsetOuter2"></feOffset>
            <feGaussianBlur stdDeviation="0.5" in="shadowOffsetOuter2" result="shadowBlurOuter2"></feGaussianBlur>
            <feComposite in="shadowBlurOuter2" in2="SourceAlpha" operator="out" result="shadowBlurOuter2"></feComposite>
            <feColorMatrix values="0 0 0 0 0   0 0 0 0 0   0 0 0 0 0  0 0 0 0.1 0" type="matrix" in="shadowBlurOuter2" result="shadowMatrixOuter2"></feColorMatrix>
            <feMerge>
                <feMergeNode in="shadowMatrixOuter1"></feMergeNode>
                <feMergeNode in="shadowMatrixOuter2"></feMergeNode>
            </feMerge>
        </filter>
        <rect id="path-4" x="0" y="0" width="258" height="47" rx="4"></rect>
        <filter x="-1.4%" y="-5.3%" width="102.7%" height="114.9%" filterUnits="objectBoundingBox" id="filter-6">
            <feMorphology radius="0.5" operator="dilate" in="SourceAlpha" result="shadowSpreadOuter1"></feMorphology>
            <feOffset dx="0" dy="1" in="shadowSpreadOuter1" result="shadowOffsetOuter1"></feOffset>
            <feGaussianBlur stdDeviation="0.5" in="shadowOffsetOuter1" result="shadowBlurOuter1"></feGaussianBlur>
            <feComposite in="shadowBlurOuter1" in2="SourceAlpha" operator="out" result="shadowBlurOuter1"></feComposite>
            <feColorMatrix values="0 0 0 0 0   0 0 0 0 0   0 0 0 0 0  0 0 0 0.05 0" type="matrix" in="shadowBlurOuter1" result="shadowMatrixOuter1"></feColorMatrix>
            <feMorphology radius="0.5" operator="dilate" in="SourceAlpha" result="shadowSpreadOuter2"></feMorphology>
            <feOffset dx="0" dy="1" in="shadowSpreadOuter2" result="shadowOffsetOuter2"></feOffset>
            <feGaussianBlur stdDeviation="0.5" in="shadowOffsetOuter2" result="shadowBlurOuter2"></feGaussianBlur>
            <feComposite in="shadowBlurOuter2" in2="SourceAlpha" operator="out" result="shadowBlurOuter2"></feComposite>
            <feColorMatrix values="0 0 0 0 0   0 0 0 0 0   0 0 0 0 0  0 0 0 0.1 0" type="matrix" in="shadowBlurOuter2" result="shadowMatrixOuter2"></feColorMatrix>
            <feMerge>
                <feMergeNode in="shadowMatrixOuter1"></feMergeNode>
                <feMergeNode in="shadowMatrixOuter2"></feMergeNode>
            </feMerge>
        </filter>
        <path d="M18,0 L240,0 C249.941125,-1.82615513e-15 258,8.0588745 258,18 L258,121 L258,121 L0,121 L0,18 C-1.21743675e-15,8.0588745 8.0588745,-5.27927223e-15 18,0 Z" id="path-7"></path>
        <filter x="-1.4%" y="-2.1%" width="102.7%" height="105.8%" filterUnits="objectBoundingBox" id="filter-9">
            <feMorphology radius="0.5" operator="dilate" in="SourceAlpha" result="shadowSpreadOuter1"></feMorphology>
            <feOffset dx="0" dy="1" in="shadowSpreadOuter1" result="shadowOffsetOuter1"></feOffset>
            <feGaussianBlur stdDeviation="0.5" in="shadowOffsetOuter1" result="shadowBlurOuter1"></feGaussianBlur>
            <feComposite in="shadowBlurOuter1" in2="SourceAlpha" operator="out" result="shadowBlurOuter1"></feComposite>
            <feColorMatrix values="0 0 0 0 0   0 0 0 0 0   0 0 0 0 0  0 0 0 0.05 0" type="matrix" in="shadowBlurOuter1" result="shadowMatrixOuter1"></feColorMatrix>
            <feMorphology radius="0.5" operator="dilate" in="SourceAlpha" result="shadowSpreadOuter2"></feMorphology>
            <feOffset dx="0" dy="1" in="shadowSpreadOuter2" result="shadowOffsetOuter2"></feOffset>
            <feGaussianBlur stdDeviation="0.5" in="shadowOffsetOuter2" result="shadowBlurOuter2"></feGaussianBlur>
            <feComposite in="shadowBlurOuter2" in2="SourceAlpha" operator="out" result="shadowBlurOuter2"></feComposite>
            <feColorMatrix values="0 0 0 0 0   0 0 0 0 0   0 0 0 0 0  0 0 0 0.1 0" type="matrix" in="shadowBlurOuter2" result="shadowMatrixOuter2"></feColorMatrix>
            <feMerge>
                <feMergeNode in="shadowMatrixOuter1"></feMergeNode>
                <feMergeNode in="shadowMatrixOuter2"></feMergeNode>
            </feMerge>
        </filter>
        <rect id="path-10" x="0" y="0" width="39" height="39.0117035" rx="12.58"></rect>
        <rect id="path-12" x="0" y="0" width="39" height="39.0117035"></rect>
    </defs>
    <g id="notifications-/-ios-/-setting" stroke="none" stroke-width="1" fill="none" fill-rule="evenodd">
        <g id="notifications_Tavola-disegno-1" transform="translate(13.000000, 13.000000)">
            <mask id="mask-2" fill="white">
                <use xlink:href="#path-1"></use>
            </mask>
            <g id="Mask">
                <use fill="black" fill-opacity="1" filter="url(#filter-3)" xlink:href="#path-1"></use>
                <path stroke="#DADCE0" stroke-width="1" d="M257.5,0.5 L257.5,55 C257.5,59.8324916 255.541246,64.2074916 252.374369,67.3743687 C249.207492,70.5412458 244.832492,72.5 240,72.5 L18,72.5 C13.1675084,72.5 8.79250844,70.5412458 5.62563133,67.3743687 C2.45875422,64.2074916 0.5,59.8324916 0.5,55 L0.5,0.5 L257.5,0.5 Z" stroke-linejoin="square" fill="#FFFFFF" fill-rule="evenodd"></path>
            </g>
            <g mask="url(#mask-2)">
                <g transform="translate(-0.500000, 0.500000)">
                    <g id="Group" opacity="0.65" stroke-width="1" fill="none" fill-rule="evenodd">
                        <rect id="Rectangle" fill="#B1B3B1" fill-rule="nonzero" x="0" y="-2.56780296e-15" width="258" height="73"></rect>
                        <rect id="Rectangle" fill="#F0F0F0" fill-rule="nonzero" x="18.6852368" y="6.5049505" width="220.629526" height="29.6336634" rx="11.02"></rect>
                        <polyline id="Path" stroke="#007AFF" stroke-width="1.3" stroke-linecap="round" stroke-linejoin="round" points="21.5814485 46.3947525 16.1914763 51.8155446 21.5814485 57.2363366"></polyline>
                        <g transform="translate(28.804011, 17.267030)" fill="#000000" fill-rule="nonzero" id="Shape">
                            <path d="M7.05727019,7.80594059 C6.9854039,8.00831683 6.83448468,8.0950495 6.66200557,8.0950495 C6.59013928,8.0950495 6.53264624,8.08782178 6.46077994,8.06613861 C6.25955432,8.01554455 6.10144847,7.84207921 6.10144847,7.64693069 C6.10144847,7.58910891 6.1086351,7.53128713 6.13019499,7.47346535 L8.89704735,0.484257426 C9.02640669,0.137326733 9.28512535,0 9.60133705,0 C9.91754875,0 10.1906407,0.13009901 10.3271866,0.484257426 L13.094039,7.49514851 C13.1227855,7.56019802 13.1371588,7.61079208 13.1371588,7.66861386 C13.1371588,7.8709901 12.9718663,8.03 12.7706407,8.08059406 C12.7131476,8.10227723 12.648468,8.10950495 12.5909749,8.10950495 C12.4113092,8.10950495 12.2460167,8.01554455 12.1741504,7.82039604 L11.3692479,5.70267327 L7.84779944,5.70267327 L7.06445682,7.81316832 L7.05727019,7.80594059 Z M11.0602228,4.83534653 L9.93192201,1.85752475 C9.81693593,1.56118812 9.70913649,1.23594059 9.61571031,0.881782178 C9.52228412,1.22871287 9.42167131,1.5539604 9.29949861,1.86475248 L8.14963788,4.83534653 L11.0602228,4.83534653 L11.0602228,4.83534653 Z"></path>
                            <path d="M0.675543175,7.89267327 C0.625236769,8.03722772 0.517437326,8.0950495 0.395264624,8.0950495 C0.344958217,8.0950495 0.30183844,8.08782178 0.251532033,8.07336634 C0.107799443,8.03722772 0,7.91435644 0,7.7770297 C0,7.73366337 0.00718662953,7.69752475 0.0215598886,7.65415842 L1.99788301,2.6670297 C2.09130919,2.42128713 2.27097493,2.32732673 2.50094708,2.32732673 C2.73091922,2.32732673 2.92495822,2.42128713 3.0183844,2.6670297 L4.99470752,7.66861386 C5.01626741,7.7119802 5.02345404,7.74811881 5.02345404,7.79148515 C5.02345404,7.9360396 4.90846797,8.04445545 4.76473538,8.08059406 C4.7216156,8.0950495 4.67849582,8.10227723 4.63537604,8.10227723 C4.50601671,8.10227723 4.39103064,8.03722772 4.34072423,7.89990099 L3.76579387,6.38930693 L1.25766017,6.38930693 L0.697103064,7.89267327 L0.675543175,7.89267327 Z M3.5286351,5.7749505 L2.72373259,3.65 C2.64467967,3.44039604 2.56562674,3.20188119 2.50094708,2.95613861 C2.43626741,3.20188119 2.36440111,3.44039604 2.27816156,3.65722772 L1.45888579,5.7749505 L3.53582173,5.7749505 L3.5286351,5.7749505 Z"></path>
                        </g>
                        <g transform="translate(91.780446, 16.985149)" fill-rule="nonzero">
                            <g transform="translate(12.267577, 0.390297)" fill="#000000">
                                <path d="M1.71041783,7.76257426 L0,2.13940594 L0.977381616,2.13940594 L1.86852368,5.38465347 L2.19910864,6.59168317 C2.21348189,6.53386139 2.30690808,6.14356436 2.48657382,5.43524752 L3.37771588,2.13940594 L4.34791086,2.13940594 L5.18155989,5.39910891 L5.46183844,6.4760396 L5.78523677,5.39188119 L6.7410585,2.13940594 L7.66094708,2.13940594 L5.9145961,7.76257426 L4.93002786,7.76257426 L4.03888579,4.39445545 L3.82328691,3.43316832 L2.69498607,7.75534653 L1.7032312,7.75534653 L1.71041783,7.76257426 Z" id="Path"></path>
                                <path d="M12.2891365,5.94841584 L13.2665181,6.07128713 C13.1155989,6.64950495 12.8281337,7.09039604 12.4113092,7.40841584 C11.9944847,7.72643564 11.4626741,7.88544554 10.8086908,7.88544554 C9.98941504,7.88544554 9.34261838,7.63247525 8.86111421,7.12653465 C8.37961003,6.62059406 8.14245125,5.91227723 8.14245125,4.99435644 C8.14245125,4.07643564 8.38679666,3.31752475 8.86830084,2.78990099 C9.34980501,2.26227723 9.98222841,2.00930693 10.7511978,2.00930693 C11.5201671,2.00930693 12.1094708,2.26227723 12.5837883,2.77544554 C13.0581058,3.28861386 13.2952646,4.00415842 13.2952646,4.93653465 C13.2952646,4.99435644 13.2952646,5.08108911 13.2952646,5.18950495 L9.1270195,5.18950495 C9.16295265,5.80386139 9.33543175,6.28089109 9.65164345,6.60613861 C9.96785515,6.93138614 10.3559331,7.09762376 10.8230641,7.09762376 C11.1680223,7.09762376 11.4698607,7.00366337 11.7142061,6.8229703 C11.9585515,6.64227723 12.1525905,6.34594059 12.2963231,5.94118812 L12.2891365,5.94841584 Z M9.17732591,4.40891089 L12.2963231,4.40891089 C12.2532033,3.93910891 12.1382173,3.57772277 11.9369916,3.34643564 C11.6351532,2.97782178 11.2470752,2.79712871 10.765571,2.79712871 C10.3271866,2.79712871 9.96785515,2.94168317 9.66601671,3.2380198 C9.3713649,3.53435644 9.20607242,3.92465347 9.17013928,4.41613861 L9.17732591,4.40891089 Z" id="Shape"></path>
                                <path d="M15.3290808,7.76257426 L14.452312,7.76257426 L14.452312,0 L15.4009471,0 L15.4009471,2.76821782 C15.8033983,2.26227723 16.313649,2.00930693 16.9316992,2.00930693 C17.2766574,2.00930693 17.6000557,2.08158416 17.9090808,2.21891089 C18.2181058,2.35623762 18.4696379,2.55138614 18.6636769,2.80435644 C18.8649025,3.05732673 19.0158217,3.36089109 19.1308078,3.7150495 C19.2457939,4.06920792 19.2961003,4.45227723 19.2961003,4.8570297 C19.2961003,5.81831683 19.0589415,6.56277228 18.584624,7.09039604 C18.1103064,7.6180198 17.5425627,7.87821782 16.8813928,7.87821782 C16.2202228,7.87821782 15.7027855,7.60356436 15.3290808,7.0470297 L15.3290808,7.74811881 L15.3290808,7.76257426 Z M15.3218942,4.90762376 C15.3218942,5.57980198 15.4153203,6.07128713 15.5949861,6.36762376 C15.8968245,6.85910891 16.2992758,7.10485149 16.8023398,7.10485149 C17.2191643,7.10485149 17.5713092,6.92415842 17.8731476,6.56277228 C18.1749861,6.20138614 18.3259053,5.65930693 18.3259053,4.94376238 C18.3259053,4.22821782 18.1821727,3.66445545 17.8947075,3.31752475 C17.6072423,2.97059406 17.2550975,2.78990099 16.8454596,2.78990099 C16.4358217,2.78990099 16.0764903,2.97059406 15.7746518,3.3319802 C15.4728134,3.69336634 15.3218942,4.21376238 15.3218942,4.90039604 L15.3218942,4.90762376 Z" id="Shape"></path>
                                <path d="M20.4531476,7.76257426 L20.4531476,2.13940594 L21.3011699,2.13940594 L21.3011699,2.92722772 C21.473649,2.65257426 21.7108078,2.42851485 21.998273,2.26227723 C22.2929248,2.0960396 22.6235097,2.00930693 22.9900279,2.00930693 C23.4068524,2.00930693 23.744624,2.0960396 24.0105292,2.26950495 C24.2764345,2.4429703 24.4632869,2.68148515 24.5710864,2.99227723 C25.0166574,2.33455446 25.5915877,2.00930693 26.2958774,2.00930693 C26.8492479,2.00930693 27.2732591,2.16108911 27.5750975,2.47188119 C27.8769359,2.78267327 28.0206685,3.25970297 28.0206685,3.89574257 L28.0206685,7.75534653 L27.0792201,7.75534653 L27.0792201,4.21376238 C27.0792201,3.83069307 27.0504735,3.5560396 26.9857939,3.38980198 C26.9211142,3.22356436 26.8133148,3.08623762 26.6552089,2.9850495 C26.4971031,2.88386139 26.3030641,2.83326733 26.0874652,2.83326733 C25.6922006,2.83326733 25.3688022,2.96336634 25.1100836,3.23079208 C24.8513649,3.49821782 24.7220056,3.91742574 24.7220056,4.49564356 L24.7220056,7.76257426 L23.7733705,7.76257426 L23.7733705,4.11257426 C23.7733705,3.68613861 23.6943175,3.36811881 23.5433983,3.15851485 C23.3924791,2.94891089 23.1337604,2.84049505 22.7888022,2.84049505 C22.5228969,2.84049505 22.2785515,2.91277228 22.0485794,3.05009901 C21.8257939,3.19465347 21.6605014,3.3970297 21.5598886,3.67168317 C21.4592758,3.94633663 21.4089694,4.33663366 21.4089694,4.84980198 L21.4089694,7.76980198 L20.4603343,7.76980198 L20.4531476,7.76257426 Z" id="Path"></path>
                                <path d="M33.0800557,7.06871287 C32.7279109,7.37227723 32.3901393,7.58188119 32.0667409,7.70475248 C31.7433426,7.82762376 31.3911978,7.89267327 31.0246797,7.89267327 C30.4138162,7.89267327 29.9394986,7.74089109 29.6089136,7.43732673 C29.2783287,7.13376238 29.1130362,6.75069307 29.1130362,6.28089109 C29.1130362,6.00623762 29.1777159,5.75326733 29.2998886,5.52920792 C29.4220613,5.30514851 29.5873538,5.11722772 29.7885794,4.97990099 C29.989805,4.84257426 30.2197772,4.74138614 30.4713092,4.66910891 C30.6581616,4.61851485 30.9384401,4.57514851 31.3121448,4.52455446 C32.0739276,4.43059406 32.6416713,4.32217822 33.0010028,4.19930693 C33.0010028,4.06920792 33.0010028,3.98247525 33.0010028,3.95356436 C33.0010028,3.56326733 32.9147632,3.28861386 32.7350975,3.12960396 C32.4907521,2.91277228 32.1314206,2.80435644 31.6571031,2.80435644 C31.211532,2.80435644 30.8809471,2.88386139 30.6725348,3.04287129 C30.4569359,3.20188119 30.3060167,3.47653465 30.1982173,3.87405941 L29.2711421,3.7439604 C29.3573816,3.34643564 29.4939276,3.02118812 29.6879666,2.77544554 C29.8820056,2.52970297 30.1622841,2.34178218 30.5288022,2.21168317 C30.8953203,2.08158416 31.3193315,2.01653465 31.793649,2.01653465 C32.2679666,2.01653465 32.6560446,2.07435644 32.957883,2.18277228 C33.2597214,2.29118812 33.4753203,2.43574257 33.6190529,2.60920792 C33.7627855,2.78267327 33.8562117,2.99950495 33.9137047,3.25970297 C33.9424513,3.41871287 33.9640111,3.7150495 33.9640111,4.14148515 L33.9640111,5.41356436 C33.9640111,6.30257426 33.985571,6.85910891 34.0215042,7.09762376 C34.0574373,7.32891089 34.1436769,7.56019802 34.258663,7.76980198 L33.2669081,7.76980198 C33.1662953,7.57465347 33.1088022,7.34336634 33.0800557,7.07594059 L33.0800557,7.06871287 Z M33.0010028,4.94376238 C32.6560446,5.08831683 32.1386072,5.2039604 31.4558774,5.30514851 C31.0677994,5.3629703 30.7947075,5.4280198 30.629415,5.49306931 C30.4641226,5.55811881 30.3419499,5.66653465 30.2557103,5.80386139 C30.1694708,5.94118812 30.126351,6.0929703 30.126351,6.25920792 C30.126351,6.51217822 30.2197772,6.72178218 30.4138162,6.89524752 C30.6078552,7.06871287 30.8881337,7.14821782 31.2546518,7.14821782 C31.6211699,7.14821782 31.9445682,7.06871287 32.2320334,6.90970297 C32.5194986,6.75069307 32.7279109,6.52663366 32.8572702,6.2519802 C32.957883,6.03514851 33.0081894,5.71712871 33.0081894,5.29792079 L33.0081894,4.9509901 L33.0010028,4.94376238 Z" id="Shape"></path>
                                <path d="M35.4300836,1.09861386 L35.4300836,0 L36.4300836,0 L36.4300836,1.09861386 L35.4300836,1.09861386 Z M35.4300836,7.76257426 L35.4300836,2.13940594 L36.4300836,2.13940594 L36.4300836,7.76257426 L35.4300836,7.76257426 Z" id="Shape"></path>
                                <polygon id="Path" points="37.8016713 7.76257426 37.8016713 0 38.7503064 0 38.7503064 7.76257426"></polygon>
                                <polygon id="Path" points="40.4822841 7.76257426 40.4822841 6.67841584 41.5602786 6.67841584 41.5602786 7.76257426"></polygon>
                                <path d="M46.8568245,5.70267327 L47.7910864,5.82554455 C47.6904735,6.46881188 47.4317549,6.97475248 47.0077437,7.34336634 C46.5909192,7.70475248 46.0734819,7.89267327 45.4626184,7.89267327 C44.7008357,7.89267327 44.0827855,7.63970297 43.6156546,7.1409901 C43.1485237,6.6350495 42.9185515,5.91950495 42.9185515,4.97990099 C42.9185515,4.37277228 43.0191643,3.84514851 43.22039,3.38980198 C43.4216156,2.93445545 43.723454,2.59475248 44.1330919,2.36346535 C44.5427298,2.13217822 44.9883008,2.02376238 45.469805,2.02376238 C46.0734819,2.02376238 46.576546,2.17554455 46.9574373,2.48633663 C47.3455153,2.79712871 47.5898607,3.23079208 47.6976602,3.80178218 L46.7777716,3.94633663 C46.691532,3.57049505 46.5334262,3.28138614 46.3106407,3.09346535 C46.0878552,2.90554455 45.8147632,2.80435644 45.5057382,2.80435644 C45.0314206,2.80435644 44.6433426,2.97782178 44.3415042,3.31752475 C44.0396657,3.66445545 43.8959331,4.20653465 43.8959331,4.9509901 C43.8959331,5.69544554 44.0396657,6.2519802 44.3271309,6.59891089 C44.6145961,6.94584158 44.9883008,7.11207921 45.4554318,7.11207921 C45.8291365,7.11207921 46.1381616,6.99643564 46.3896936,6.76514851 C46.6412256,6.53386139 46.7993315,6.17970297 46.8640111,5.70990099 L46.8568245,5.70267327 Z" id="Path"></path>
                                <path d="M48.2510306,4.9509901 C48.2510306,3.91019802 48.5384958,3.13683168 49.1134262,2.63811881 C49.5949304,2.21891089 50.1770474,2.01653465 50.8741504,2.01653465 C51.6431198,2.01653465 52.2683565,2.26950495 52.7570474,2.77544554 C53.2457382,3.28138614 53.4900836,3.98247525 53.4900836,4.87148515 C53.4900836,5.59425743 53.3822841,6.16524752 53.1666852,6.57722772 C52.9510864,6.98920792 52.6348747,7.31445545 52.2252368,7.54574257 C51.8155989,7.7770297 51.3628412,7.89267327 50.8741504,7.89267327 C50.0908078,7.89267327 49.4583844,7.63970297 48.9768802,7.13376238 C48.495376,6.62782178 48.2510306,5.9050495 48.2510306,4.9509901 L48.2510306,4.9509901 Z M49.2284123,4.9509901 C49.2284123,5.67376238 49.3865181,6.20861386 49.6955432,6.57 C50.0045682,6.93138614 50.3998329,7.10485149 50.8741504,7.10485149 C51.348468,7.10485149 51.736546,6.92415842 52.045571,6.56277228 C52.3545961,6.20138614 52.5127019,5.65207921 52.5127019,4.91485149 C52.5127019,4.2209901 52.3545961,3.69336634 52.0383844,3.3319802 C51.7221727,2.97059406 51.3340947,2.79712871 50.8669638,2.79712871 C50.3998329,2.79712871 49.9973816,2.97782178 49.6883565,3.3319802 C49.3793315,3.68613861 49.2212256,4.22821782 49.2212256,4.94376238 L49.2284123,4.9509901 Z" id="Shape"></path>
                                <path d="M54.5968245,7.76257426 L54.5968245,2.13940594 L55.4448468,2.13940594 L55.4448468,2.92722772 C55.6173259,2.65257426 55.8544847,2.42851485 56.1419499,2.26227723 C56.429415,2.0960396 56.7671866,2.00930693 57.1337047,2.00930693 C57.5505292,2.00930693 57.8883008,2.0960396 58.1542061,2.26950495 C58.4201114,2.4429703 58.6069638,2.68148515 58.7147632,2.99227723 C59.1603343,2.33455446 59.7352646,2.00930693 60.4395543,2.00930693 C60.9929248,2.00930693 61.4169359,2.16108911 61.7187744,2.47188119 C62.0134262,2.78267327 62.1643454,3.25970297 62.1643454,3.89574257 L62.1643454,7.75534653 L61.2228969,7.75534653 L61.2228969,4.21376238 C61.2228969,3.83069307 61.1941504,3.5560396 61.1294708,3.38980198 C61.0719777,3.22356436 60.9569916,3.08623762 60.7988858,2.9850495 C60.6407799,2.88386139 60.4467409,2.83326733 60.2311421,2.83326733 C59.8358774,2.83326733 59.5124791,2.96336634 59.2537604,3.23079208 C58.9950418,3.49821782 58.8656825,3.91742574 58.8656825,4.49564356 L58.8656825,7.76257426 L57.9170474,7.76257426 L57.9170474,4.11257426 C57.9170474,3.68613861 57.8379944,3.36811881 57.6870752,3.15851485 C57.536156,2.94891089 57.2774373,2.84049505 56.9324791,2.84049505 C56.6665738,2.84049505 56.4222284,2.91277228 56.1922563,3.05009901 C55.9694708,3.19465347 55.8041783,3.3970297 55.7035655,3.67168317 C55.6029526,3.94633663 55.5526462,4.33663366 55.5526462,4.84980198 L55.5526462,7.76980198 L54.6040111,7.76980198 L54.5968245,7.76257426 Z" id="Path"></path>
                            </g>
                            <g fill="#848488">
                                <rect id="Rectangle" x="0" y="3.61386139" width="5.74930362" height="5.05940594" rx="1.02"></rect>
                                <path d="M2.87465181,0.722772277 C3.66518106,0.722772277 4.31197772,1.37326733 4.31197772,2.16831683 L4.31197772,4.33663366 L1.43732591,4.33663366 L1.43732591,2.16831683 C1.43732591,1.37326733 2.08412256,0.722772277 2.87465181,0.722772277 M2.87465181,0 C1.68167131,0 0.718662953,0.968514851 0.718662953,2.16831683 L0.718662953,5.05940594 L5.03064067,5.05940594 L5.03064067,2.16831683 C5.03064067,0.968514851 4.06763231,0 2.87465181,0 L2.87465181,0 Z" id="Shape"></path>
                            </g>
                        </g>
                        <g transform="translate(220.988858, 15.828713)" id="Path" stroke="#000000" stroke-linecap="round" stroke-linejoin="round">
                            <path d="M6.46796657,2.31287129 L4.31197772,2.31287129 C1.93320334,2.31287129 0,4.25712871 0,6.64950495 C0,9.04188119 1.93320334,10.9861386 4.31197772,10.9861386 C6.69075209,10.9861386 8.62395543,9.04188119 8.62395543,6.64950495"></path>
                            <polyline points="4.31197772 0 6.64044568 2.4429703 4.31197772 5.05940594"></polyline>
                        </g>
                        <polyline id="Path" stroke="#9A9A9A" stroke-width="1.3" stroke-linecap="round" stroke-linejoin="round" points="72.0603343 57.2363366 77.4503064 51.8155446 72.0603343 46.3947525"></polyline>
                        <g transform="translate(176.266462, 45.780396)" id="Path" stroke="#007AFF" stroke-linecap="round" stroke-linejoin="round" stroke-width="1.3">
                            <path d="M11.038663,0 C9.0048468,0 7.35910864,0.831188119 7.35910864,1.85752475 C7.35910864,0.831188119 5.71337047,0 3.67955432,0 C1.64573816,0 0,0.831188119 0,1.85752475 L0,12.0630693 C0,11.0367327 1.64573816,10.2055446 3.67955432,10.2055446 C5.71337047,10.2055446 7.35910864,11.0367327 7.35910864,12.0630693 C7.35910864,11.0367327 9.0048468,10.2055446 11.038663,10.2055446 C13.0724791,10.2055446 14.7182173,11.0367327 14.7182173,12.0630693 L14.7182173,1.85752475 C14.7182173,0.831188119 13.0724791,0 11.038663,0 Z"></path>
                            <line x1="7.32317549" y1="1.58287129" x2="7.32317549" y2="11.7016832"></line>
                        </g>
                        <g transform="translate(231.409471, 44.768515)" id="Rectangle" stroke="#007AFF" stroke-linecap="round" stroke-linejoin="round" stroke-width="1.3">
                            <rect x="0" y="0" width="10.7799443" height="10.8415842" rx="3"></rect>
                            <rect fill="#B1B3B1" fill-rule="nonzero" x="3.23398329" y="3.25247525" width="10.7799443" height="10.8415842" rx="3"></rect>
                        </g>
                    </g>
                    <ellipse id="Oval" fill="#FFFFFF" fill-rule="nonzero" cx="129" cy="53.4851485" rx="15.091922" ry="15.1782178"></ellipse>
                    <g id="Group" stroke-width="1" fill="none" fill-rule="evenodd" transform="translate(123.617214, 44.139703)" stroke-linecap="round" stroke-linejoin="round">
                        <g transform="translate(2.874652, 0.000000)" id="Path" stroke="#007AFF" stroke-width="1.3">
                            <line x1="2.44345404" y1="0.173465347" x2="2.44345404" y2="9.56950495"></line>
                            <polyline points="0 2.34178218 2.43626741 0 5.03064067 2.34178218"></polyline>
                        </g>
                        <path d="M7.78311978,4.87148515 L9.66601671,4.87148515 C10.2840669,4.87148515 10.7799443,5.37019802 10.7799443,5.99178218 L10.7799443,14.2313861 C10.7799443,14.8529703 10.2840669,15.3516832 9.66601671,15.3516832 L1.11392758,15.3516832 C0.495877437,15.3516832 0,14.8529703 0,14.2313861 L0,5.99178218 C0,5.37019802 0.495877437,4.87148515 1.11392758,4.87148515 L2.94651811,4.87148515" id="Path" stroke="#007AFF" stroke-width="1.3"></path>
                    </g>
                </g>
            </g>
        </g>
        <g id="notifications-02" transform="translate(13.000000, 116.000000)">
            <mask id="mask-5" fill="white">
                <use xlink:href="#path-4"></use>
            </mask>
            <g id="Mask">
                <use fill="black" fill-opacity="1" filter="url(#filter-6)" xlink:href="#path-4"></use>
                <rect stroke="#DADCE0" stroke-width="1" stroke-linejoin="square" fill="#FFFFFF" fill-rule="evenodd" x="0.5" y="0.5" width="257" height="46" rx="4"></rect>
            </g>
            <g mask="url(#mask-5)">
                <g transform="translate(0.500000, -0.500000)">
                    <path d="M228.98039,36.9853846 C228.98039,35.1270769 227.823343,33.5435385 226.191978,32.9289231" id="Path" stroke="none" fill="none"></path>
                    <rect id="Rectangle" stroke="none" fill="#F3F3F2" fill-rule="nonzero" x="0" y="0" width="258" height="47"></rect>
                    <rect id="Rectangle" stroke="none" fill="#FFFFFF" fill-rule="nonzero" x="10.4206128" y="0" width="237.158774" height="47"></rect>
                    <g id="Group" stroke="none" stroke-width="1" fill="none" fill-rule="evenodd" transform="translate(25.447855, 19.349538)">
                        <path d="M0.00718662953,7.896 L2.96807799,0.130153846 L4.06763231,0.130153846 L7.22256267,7.896 L6.05832869,7.896 L5.16,5.546 L1.93320334,5.546 L1.08518106,7.896 L0,7.896 L0.00718662953,7.896 Z M2.23504178,4.70723077 L4.85097493,4.70723077 L4.04607242,2.55969231 C3.80172702,1.90892308 3.61487465,1.36661538 3.49988858,0.947230769 C3.39927577,1.44615385 3.26272981,1.93784615 3.08306407,2.42953846 L2.23504178,4.70723077 L2.23504178,4.70723077 Z" id="Shape" fill="#000000" fill-rule="nonzero"></path>
                        <path d="M11.5489136,7.896 L11.5489136,7.18738462 C11.1967688,7.74415385 10.6721448,8.02615385 9.98222841,8.02615385 C9.53665738,8.02615385 9.1270195,7.90323077 8.75331476,7.65738462 C8.37961003,7.41153846 8.09214485,7.06446154 7.88373259,6.62338462 C7.67532033,6.18230769 7.57470752,5.66892308 7.57470752,5.09769231 C7.57470752,4.52646154 7.6681337,4.02753846 7.85498607,3.572 C8.04183844,3.11646154 8.32211699,2.76215385 8.6886351,2.52353846 C9.06233983,2.27769231 9.47916435,2.162 9.93910864,2.162 C10.2768802,2.162 10.5787187,2.23430769 10.8374373,2.37892308 C11.1033426,2.52353846 11.3117549,2.71153846 11.4770474,2.93569231 L11.4770474,0.151846154 L12.4184958,0.151846154 L12.4184958,7.91769231 L11.541727,7.91769231 L11.5489136,7.896 Z M8.55208914,5.09046154 C8.55208914,5.81353846 8.70300836,6.34861538 9.0048468,6.70292308 C9.30668524,7.05723077 9.66601671,7.238 10.0756546,7.238 C10.4852925,7.238 10.844624,7.06446154 11.1320891,6.72461538 C11.4195543,6.38476923 11.5632869,5.86415385 11.5632869,5.16276923 C11.5632869,4.39630769 11.4123677,3.82507692 11.1177159,3.47076923 C10.8230641,3.11646154 10.456546,2.92846154 10.0253482,2.92846154 C9.59415042,2.92846154 9.2491922,3.102 8.96891365,3.44907692 C8.6886351,3.79615385 8.54490251,4.33846154 8.54490251,5.08323077 L8.55208914,5.09046154 Z" id="Shape" fill="#000000" fill-rule="nonzero"></path>
                        <path d="M17.5425627,7.896 L17.5425627,7.18738462 C17.1904178,7.74415385 16.6657939,8.02615385 15.9758774,8.02615385 C15.5303064,8.02615385 15.1206685,7.90323077 14.7469638,7.65738462 C14.3732591,7.41153846 14.0857939,7.06446154 13.8773816,6.62338462 C13.6689694,6.18230769 13.5683565,5.66892308 13.5683565,5.09769231 C13.5683565,4.52646154 13.6617827,4.02753846 13.8486351,3.572 C14.0354875,3.11646154 14.315766,2.76215385 14.6822841,2.52353846 C15.0559889,2.27769231 15.4728134,2.162 15.9327577,2.162 C16.2705292,2.162 16.5723677,2.23430769 16.8310864,2.37892308 C17.0969916,2.52353846 17.3054039,2.71153846 17.4706964,2.93569231 L17.4706964,0.151846154 L18.4121448,0.151846154 L18.4121448,7.91769231 L17.535376,7.91769231 L17.5425627,7.896 Z M14.5457382,5.09046154 C14.5457382,5.81353846 14.6966574,6.34861538 14.9984958,6.70292308 C15.3003343,7.05723077 15.6596657,7.238 16.0693036,7.238 C16.4789415,7.238 16.838273,7.06446154 17.1257382,6.72461538 C17.4132033,6.38476923 17.5569359,5.86415385 17.5569359,5.16276923 C17.5569359,4.39630769 17.4060167,3.82507692 17.1113649,3.47076923 C16.8167131,3.11646154 16.450195,2.92846154 16.0189972,2.92846154 C15.5877994,2.92846154 15.2428412,3.102 14.9625627,3.44907692 C14.6822841,3.79615385 14.5385515,4.33846154 14.5385515,5.08323077 L14.5457382,5.09046154 Z" id="Shape" fill="#000000" fill-rule="nonzero"></path>
                        <path d="M24.9735376,7.04276923 L25.1100836,7.88876923 C24.8441783,7.94661538 24.6070195,7.97553846 24.3914206,7.97553846 C24.0464624,7.97553846 23.7805571,7.91769231 23.5937047,7.80923077 C23.4068524,7.70076923 23.2703064,7.55615385 23.1912535,7.37538462 C23.1122006,7.19461538 23.0762674,6.82584615 23.0762674,6.24738462 L23.0762674,3.008 L22.3791643,3.008 L22.3791643,2.26323077 L23.0762674,2.26323077 L23.0762674,0.867692308 L24.0177159,0.296461538 L24.0177159,2.26323077 L24.9735376,2.26323077 L24.9735376,3.008 L24.0177159,3.008 L24.0177159,6.298 C24.0177159,6.57276923 24.0320891,6.74630769 24.0680223,6.82584615 C24.1039554,6.90538462 24.1542618,6.96323077 24.2333148,7.01384615 C24.3123677,7.06446154 24.4201671,7.07892308 24.5567131,7.07892308 C24.6645125,7.07892308 24.8010585,7.06446154 24.9735376,7.04276923 Z" id="Path" fill="#000000" fill-rule="nonzero"></path>
                        <path d="M25.548468,5.08323077 C25.548468,4.042 25.8359331,3.26830769 26.4108635,2.76938462 C26.8923677,2.35 27.4744847,2.14753846 28.1715877,2.14753846 C28.9405571,2.14753846 29.5657939,2.40061538 30.0544847,2.90676923 C30.5431755,3.41292308 30.7875209,4.11430769 30.7875209,5.00369231 C30.7875209,5.72676923 30.6797214,6.298 30.4641226,6.71015385 C30.2485237,7.12230769 29.932312,7.44769231 29.5226741,7.67907692 C29.1130362,7.91046154 28.6602786,8.02615385 28.1715877,8.02615385 C27.3882451,8.02615385 26.7558217,7.77307692 26.2743175,7.26692308 C25.7928134,6.76076923 25.548468,6.03769231 25.548468,5.08323077 L25.548468,5.08323077 Z M26.518663,5.08323077 C26.518663,5.80630769 26.6767688,6.34138462 26.9857939,6.70292308 C27.2948189,7.06446154 27.6900836,7.238 28.1644011,7.238 C28.6387187,7.238 29.0267967,7.05723077 29.3358217,6.69569231 C29.6448468,6.33415385 29.8029526,5.78461538 29.8029526,5.04707692 C29.8029526,4.35292308 29.6448468,3.82507692 29.3286351,3.46353846 C29.0124234,3.102 28.6243454,2.92846154 28.1572145,2.92846154 C27.6900836,2.92846154 27.2876323,3.10923077 26.9786072,3.46353846 C26.6695822,3.81784615 26.5114763,4.36015385 26.5114763,5.076 L26.518663,5.08323077 Z" id="Shape" fill="#000000" fill-rule="nonzero"></path>
                        <polygon id="Path" fill="#000000" fill-rule="nonzero" points="35.0420056 7.896 35.0420056 0.130153846 36.062507 0.130153846 36.062507 3.31892308 40.0726462 3.31892308 40.0726462 0.130153846 41.0931476 0.130153846 41.0931476 7.896 40.0726462 7.896 40.0726462 4.23723077 36.062507 4.23723077 36.062507 7.896"></polygon>
                        <path d="M42.3220613,5.08323077 C42.3220613,4.042 42.6095265,3.26830769 43.1844568,2.76938462 C43.665961,2.35 44.248078,2.14753846 44.9451811,2.14753846 C45.7141504,2.14753846 46.3393872,2.40061538 46.828078,2.90676923 C47.3167688,3.41292308 47.5611142,4.11430769 47.5611142,5.00369231 C47.5611142,5.72676923 47.4533148,6.298 47.2377159,6.71015385 C47.022117,7.12230769 46.7059053,7.44769231 46.2962674,7.67907692 C45.8866295,7.91046154 45.4338719,8.02615385 44.9451811,8.02615385 C44.1618384,8.02615385 43.529415,7.77307692 43.0479109,7.26692308 C42.5664067,6.76076923 42.3220613,6.03769231 42.3220613,5.08323077 L42.3220613,5.08323077 Z M43.2922563,5.08323077 C43.2922563,5.80630769 43.4503621,6.34138462 43.7593872,6.70292308 C44.0684123,7.06446154 44.4636769,7.238 44.9379944,7.238 C45.412312,7.238 45.80039,7.05723077 46.109415,6.69569231 C46.4184401,6.33415385 46.576546,5.78461538 46.576546,5.04707692 C46.576546,4.35292308 46.4184401,3.82507692 46.1022284,3.46353846 C45.7860167,3.102 45.3979387,2.92846154 44.9308078,2.92846154 C44.4636769,2.92846154 44.0612256,3.10923077 43.7522006,3.46353846 C43.4431755,3.81784615 43.2850696,4.36015385 43.2850696,5.076 L43.2922563,5.08323077 Z" id="Shape" fill="#000000" fill-rule="nonzero"></path>
                        <path d="M48.6750418,7.896 L48.6750418,2.27046154 L49.5230641,2.27046154 L49.5230641,3.05861538 C49.6955432,2.78384615 49.9327019,2.55969231 50.2201671,2.39338462 C50.5148189,2.22707692 50.8454039,2.14030769 51.211922,2.14030769 C51.6287465,2.14030769 51.9665181,2.22707692 52.2324234,2.40061538 C52.4983287,2.57415385 52.6851811,2.81276923 52.7929805,3.12369231 C53.2385515,2.46569231 53.8134819,2.14030769 54.5177716,2.14030769 C55.0711421,2.14030769 55.4951532,2.29215385 55.7969916,2.60307692 C56.0988301,2.914 56.2425627,3.39123077 56.2425627,4.02753846 L56.2425627,7.88876923 L55.3011142,7.88876923 L55.3011142,4.34569231 C55.3011142,3.96246154 55.2723677,3.68769231 55.207688,3.52138462 C55.1430084,3.35507692 55.0352089,3.21769231 54.8771031,3.11646154 C54.7189972,3.01523077 54.5249582,2.96461538 54.3093593,2.96461538 C53.9140947,2.96461538 53.5906964,3.09476923 53.3319777,3.36230769 C53.0732591,3.62261538 52.9438997,4.04923077 52.9438997,4.62769231 L52.9438997,7.896 L51.9952646,7.896 L51.9952646,4.24446154 C51.9952646,3.81784615 51.9162117,3.49969231 51.7652925,3.29 C51.6143733,3.08030769 51.3556546,2.97184615 51.0106964,2.97184615 C50.7447911,2.97184615 50.5004457,3.04415385 50.2704735,3.18153846 C50.047688,3.32615385 49.8823955,3.52861538 49.7817827,3.80338462 C49.6811699,4.07815385 49.6308635,4.46861538 49.6308635,4.982 L49.6308635,7.90323077 L48.6822284,7.90323077 L48.6750418,7.896 Z" id="Path" fill="#000000" fill-rule="nonzero"></path>
                        <path d="M61.4816156,6.08107692 L62.4589972,6.204 C62.308078,6.78246154 62.0206128,7.22353846 61.6037883,7.54169231 C61.1869638,7.85984615 60.6551532,8.01892308 60.0011699,8.01892308 C59.1818942,8.01892308 58.5350975,7.76584615 58.0535933,7.25969231 C57.5720891,6.75353846 57.3349304,6.04492308 57.3349304,5.12661538 C57.3349304,4.20830769 57.5792758,3.44907692 58.0607799,2.92123077 C58.5422841,2.39338462 59.1747075,2.14030769 59.9436769,2.14030769 C60.7126462,2.14030769 61.3019499,2.39338462 61.7762674,2.90676923 C62.250585,3.42015385 62.4877437,4.14323077 62.4877437,5.06876923 C62.4877437,5.12661538 62.4877437,5.21338462 62.4877437,5.32184615 L58.3194986,5.32184615 C58.3554318,5.94369231 58.5279109,6.41369231 58.8441226,6.73907692 C59.1531476,7.07169231 59.5484123,7.23076923 60.0155432,7.23076923 C60.3605014,7.23076923 60.6623398,7.13676923 60.9066852,6.956 C61.1510306,6.77523077 61.3450696,6.47876923 61.4888022,6.07384615 L61.4816156,6.08107692 Z M58.369805,4.54092308 L61.4888022,4.54092308 C61.4456825,4.07092308 61.3306964,3.71661538 61.1294708,3.478 C60.8276323,3.10923077 60.4395543,2.92846154 59.9580501,2.92846154 C59.5196657,2.92846154 59.1603343,3.07307692 58.8584958,3.36953846 C58.563844,3.666 58.3985515,4.05646154 58.3626184,4.54092308 L58.369805,4.54092308 Z" id="Shape" fill="#000000" fill-rule="nonzero"></path>
                        <path d="M66.4188301,5.40138462 L67.3818384,5.31461538 C67.4249582,5.70507692 67.5327577,6.02323077 67.6980501,6.26907692 C67.8633426,6.51492308 68.1220613,6.71738462 68.4742061,6.86923077 C68.826351,7.02107692 69.2216156,7.10061538 69.66,7.10061538 C70.048078,7.10061538 70.3930362,7.04276923 70.6948747,6.92707692 C70.9967131,6.81138462 71.212312,6.65230769 71.3632312,6.44984615 C71.5069638,6.24738462 71.5788301,6.02323077 71.5788301,5.78461538 C71.5788301,5.546 71.5069638,5.32907692 71.3704178,5.14830769 C71.2266852,4.96753846 70.9967131,4.81569231 70.6733148,4.69276923 C70.4649025,4.61323077 70.0049582,4.48307692 69.3006685,4.31676923 C68.5891922,4.14323077 68.0933148,3.98415385 67.8130362,3.83230769 C67.4465181,3.63707692 67.1662396,3.39846154 66.9865738,3.10923077 C66.8069081,2.82 66.7134819,2.50184615 66.7134819,2.14030769 C66.7134819,1.74984615 66.8212813,1.38107692 67.0440669,1.04123077 C67.2668524,0.701384615 67.5902507,0.441076923 68.0142618,0.267538462 C68.438273,0.094 68.9125905,0 69.4300279,0 C70.0049582,0 70.5080223,0.094 70.9464067,0.274769231 C71.3847911,0.462769231 71.7225627,0.730307692 71.9525348,1.09184615 C72.182507,1.45338462 72.3118663,1.85830769 72.3334262,2.31384615 L71.3560446,2.38615385 C71.3057382,1.89446154 71.1260724,1.52569231 70.824234,1.27261538 C70.5223955,1.01953846 70.0696379,0.896615385 69.4803343,0.896615385 C68.8910306,0.896615385 68.4095265,1.01230769 68.1292479,1.23646154 C67.8489694,1.46061538 67.7052368,1.73538462 67.7052368,2.06076923 C67.7052368,2.34276923 67.8058496,2.56692308 68.0070752,2.74769231 C68.2011142,2.92846154 68.7185515,3.10923077 69.5450139,3.30446154 C70.3714763,3.49246154 70.9464067,3.65876923 71.2554318,3.79615385 C71.7010028,4.00584615 72.0387744,4.26615385 72.2471866,4.58430769 C72.4627855,4.90246154 72.570585,5.27123077 72.570585,5.69061538 C72.570585,6.11 72.4555989,6.49323077 72.2184401,6.862 C71.9812813,7.22353846 71.6435097,7.51276923 71.2051253,7.71523077 C70.7667409,7.91769231 70.2708635,8.01892308 69.717493,8.01892308 C69.02039,8.01892308 68.4310864,7.91769231 67.9639554,7.708 C67.4896379,7.50553846 67.1231198,7.19461538 66.8572145,6.78246154 C66.5913092,6.37030769 66.4475766,5.90753846 66.4332033,5.38692308 L66.4188301,5.40138462 Z" id="Path" fill="#000000" fill-rule="nonzero"></path>
                        <path d="M77.4790529,5.83523077 L78.4133148,5.95815385 C78.3127019,6.60169231 78.0539833,7.10784615 77.6299721,7.47661538 C77.2131476,7.83815385 76.6957103,8.02615385 76.0848468,8.02615385 C75.3230641,8.02615385 74.7050139,7.77307692 74.237883,7.27415385 C73.7707521,6.768 73.5407799,6.05215385 73.5407799,5.11215385 C73.5407799,4.50476923 73.6413928,3.96969231 73.8426184,3.51415385 C74.043844,3.05861538 74.3456825,2.71876923 74.7553203,2.48738462 C75.1649582,2.256 75.6105292,2.14753846 76.0920334,2.14753846 C76.6957103,2.14753846 77.1987744,2.29938462 77.5796657,2.61030769 C77.9677437,2.92123077 78.2120891,3.35507692 78.3198886,3.92630769 L77.4,4.07092308 C77.3137604,3.69492308 77.1556546,3.40569231 76.9328691,3.21769231 C76.7100836,3.02969231 76.4369916,2.92846154 76.1279666,2.92846154 C75.653649,2.92846154 75.265571,3.102 74.9637326,3.44184615 C74.6618942,3.78892308 74.5181616,4.33123077 74.5181616,5.076 C74.5181616,5.82076923 74.6618942,6.37753846 74.9493593,6.72461538 C75.2368245,7.06446154 75.6105292,7.238 76.0776602,7.238 C76.4513649,7.238 76.76039,7.12230769 77.011922,6.89092308 C77.263454,6.65953846 77.4215599,6.31246154 77.4862396,5.83523077 L77.4790529,5.83523077 Z" id="Path" fill="#000000" fill-rule="nonzero"></path>
                        <path d="M79.2110306,7.896 L79.2110306,2.27046154 L80.0662396,2.27046154 L80.0662396,3.12369231 C80.2818384,2.726 80.4830641,2.45846154 80.6699164,2.33553846 C80.8567688,2.20538462 81.0579944,2.14753846 81.2807799,2.14753846 C81.5969916,2.14753846 81.9275766,2.24876923 82.2509749,2.45123077 L81.9275766,3.33338462 C81.6976045,3.196 81.4676323,3.12369231 81.2304735,3.12369231 C81.0220613,3.12369231 80.8352089,3.18876923 80.6699164,3.31169231 C80.504624,3.43461538 80.3896379,3.60815385 80.3177716,3.83230769 C80.2099721,4.17215385 80.1596657,4.54092308 80.1596657,4.94584615 L80.1596657,7.88876923 L79.2110306,7.88876923 L79.2110306,7.896 Z" id="Path" fill="#000000" fill-rule="nonzero"></path>
                        <path d="M86.6420056,6.08107692 L87.6193872,6.204 C87.468468,6.78246154 87.1810028,7.22353846 86.7641783,7.54169231 C86.3473538,7.85984615 85.8155432,8.01892308 85.1615599,8.01892308 C84.3422841,8.01892308 83.6954875,7.76584615 83.2139833,7.25969231 C82.7324791,6.75353846 82.4953203,6.04492308 82.4953203,5.12661538 C82.4953203,4.20830769 82.7396657,3.44907692 83.2211699,2.92123077 C83.7026741,2.39338462 84.3350975,2.14030769 85.1040669,2.14030769 C85.8730362,2.14030769 86.4623398,2.39338462 86.9366574,2.90676923 C87.4109749,3.42015385 87.6481337,4.14323077 87.6481337,5.06876923 C87.6481337,5.12661538 87.6481337,5.21338462 87.6481337,5.32184615 L83.4798886,5.32184615 C83.5158217,5.94369231 83.6883008,6.41369231 84.0045125,6.73907692 C84.3135376,7.07169231 84.7088022,7.23076923 85.1759331,7.23076923 C85.5208914,7.23076923 85.8227298,7.13676923 86.0670752,6.956 C86.3114206,6.77523077 86.5054596,6.47876923 86.6491922,6.07384615 L86.6420056,6.08107692 Z M83.530195,4.54092308 L86.6491922,4.54092308 C86.6060724,4.07092308 86.4910864,3.71661538 86.2898607,3.478 C85.9880223,3.10923077 85.5999443,2.92846154 85.1184401,2.92846154 C84.6800557,2.92846154 84.3207242,3.07307692 84.0188858,3.36953846 C83.724234,3.666 83.5589415,4.05646154 83.5230084,4.54092308 L83.530195,4.54092308 Z" id="Shape" fill="#000000" fill-rule="nonzero"></path>
                        <path d="M92.6356546,6.08107692 L93.6130362,6.204 C93.462117,6.78246154 93.1746518,7.22353846 92.7578273,7.54169231 C92.3410028,7.85984615 91.8091922,8.01892308 91.1552089,8.01892308 C90.3359331,8.01892308 89.6891365,7.76584615 89.2076323,7.25969231 C88.7261281,6.75353846 88.4889694,6.04492308 88.4889694,5.12661538 C88.4889694,4.20830769 88.7333148,3.44907692 89.2148189,2.92123077 C89.6963231,2.39338462 90.3287465,2.14030769 91.0977159,2.14030769 C91.8666852,2.14030769 92.4559889,2.39338462 92.9303064,2.90676923 C93.404624,3.42015385 93.6417827,4.14323077 93.6417827,5.06876923 C93.6417827,5.12661538 93.6417827,5.21338462 93.6417827,5.32184615 L89.4735376,5.32184615 C89.5094708,5.94369231 89.6819499,6.41369231 89.9981616,6.73907692 C90.3071866,7.07169231 90.7024513,7.23076923 91.1695822,7.23076923 C91.5145404,7.23076923 91.8163788,7.13676923 92.0607242,6.956 C92.3050696,6.77523077 92.4991086,6.47876923 92.6428412,6.07384615 L92.6356546,6.08107692 Z M89.523844,4.54092308 L92.6428412,4.54092308 C92.5997214,4.07092308 92.4847354,3.71661538 92.2835097,3.478 C91.9816713,3.10923077 91.5935933,2.92846154 91.1120891,2.92846154 C90.6737047,2.92846154 90.3143733,3.07307692 90.0125348,3.36953846 C89.717883,3.666 89.5525905,4.05646154 89.5166574,4.54092308 L89.523844,4.54092308 Z" id="Shape" fill="#000000" fill-rule="nonzero"></path>
                        <path d="M94.8060167,7.896 L94.8060167,2.27046154 L95.6612256,2.27046154 L95.6612256,3.07307692 C96.0708635,2.45846154 96.6673538,2.14753846 97.4435097,2.14753846 C97.7812813,2.14753846 98.0903064,2.20538462 98.370585,2.32830769 C98.6508635,2.45123077 98.8664624,2.61030769 99.0030084,2.80553846 C99.1467409,3.00076923 99.2401671,3.23938462 99.2976602,3.50692308 C99.3335933,3.68046154 99.3479666,3.99138462 99.3479666,4.43246154 L99.3479666,7.88876923 L98.3993315,7.88876923 L98.3993315,4.46861538 C98.3993315,4.07815385 98.3633983,3.78892308 98.291532,3.59369231 C98.2196657,3.39846154 98.0831198,3.24661538 97.8962674,3.13092308 C97.709415,3.01523077 97.4866295,2.95738462 97.2350975,2.95738462 C96.8326462,2.95738462 96.4805014,3.08753846 96.1930362,3.34061538 C95.8983844,3.60092308 95.7546518,4.08538462 95.7546518,4.80846154 L95.7546518,7.88153846 L94.8060167,7.88153846 L94.8060167,7.896 Z" id="Path" fill="#000000" fill-rule="nonzero"></path>
                    </g>
                    <g id="Group" stroke="none" stroke-width="1" fill="none" fill-rule="evenodd" transform="translate(224.452813, 17.216462)">
                        <rect id="Rectangle" stroke="#000000" stroke-width="1.3" x="0" y="0" width="12.2172702" height="12.2923077" rx="3.23"></rect>
                        <g transform="translate(3.233983, 3.253846)" id="Path" stroke="#000000" stroke-linecap="round" stroke-width="1.3">
                            <line x1="2.87465181" y1="0" x2="2.87465181" y2="5.78461538"></line>
                            <line x1="0" y1="2.89230769" x2="5.74930362" y2="2.89230769"></line>
                        </g>
                    </g>
                    <line x1="10.4206128" y1="5.922" x2="247.579387" y2="5.922" id="Path" stroke="#C6C6C8" stroke-width="0.25" fill="none"></line>
                    <line x1="10.4206128" y1="39.9066154" x2="247.579387" y2="39.9066154" id="Path" stroke="#C6C6C8" stroke-width="0.25" fill="none"></line>
                </g>
            </g>
        </g>
        <g id="Group-2" transform="translate(13.000000, 193.000000)">
            <mask id="mask-8" fill="white">
                <use xlink:href="#path-7"></use>
            </mask>
            <g id="Mask">
                <use fill="black" fill-opacity="1" filter="url(#filter-9)" xlink:href="#path-7"></use>
                <path stroke="#DADCE0" stroke-width="1" d="M240,0.5 C244.832492,0.5 249.207492,2.45875422 252.374369,5.62563133 C255.541246,8.79250844 257.5,13.1675084 257.5,18 L257.5,120.5 L0.5,120.5 L0.5,18 C0.5,13.1675084 2.45875422,8.79250844 5.62563133,5.62563133 C8.79250844,2.45875422 13.1675084,0.5 18,0.5 Z" stroke-linejoin="square" fill="#FFFFFF" fill-rule="evenodd"></path>
            </g>
            <g id="notifications-03" mask="url(#mask-8)">
                <g transform="translate(-0.500000, -0.500000)">
                    <path d="M18.3897214,0 L240.610279,0 C250.761058,0 259,8.22511905 259,18.358869 L259,121 L0,121 L0,18.358869 C0,8.22511905 8.2389415,0 18.3897214,0 Z" id="Path" fill="#F3F3F2" fill-rule="nonzero"></path>
                    <g id="Group" stroke-width="1" fill="none" fill-rule="evenodd" transform="translate(20.000000, 52.000000)">
                        <g id="Clipped">
                            <mask id="mask-11" fill="white">
                                <use xlink:href="#path-10"></use>
                            </mask>
                            <g id="Rectangle"></g>
                            <g id="Group" mask="url(#mask-11)">
                                <rect id="Rectangle" fill="var(--accent-icon)" fill-rule="nonzero" x="0" y="0" width="39" height="39.0117035"></rect>
                                <g id="Clipped">
                                    <mask id="mask-13" fill="white">
                                        <use xlink:href="#path-12"></use>
                                    </mask>
                                    <g id="Rectangle"></g>
                                    <path d="M14.2711111,22.106632 L30.9038889,29.4177142 L40.7261111,9.69513076 M8.91222222,19.6069932 L20.1138889,50.4551365 L52.6861111,38.6071377 L41.4411111,7.75899436 L8.91222222,19.6069932 L8.91222222,19.6069932 Z" id="Shape" stroke="#FFFFFF" stroke-width="3" mask="url(#mask-13)"></path>
                                </g>
                            </g>
                        </g>
                        <g transform="translate(4.448889, 44.206040)" fill="#666766" fill-rule="nonzero">
                            <path d="M1.50944444,5.69281896 L0,0.00722438954 L0.772777778,0.00722438954 L1.63944444,3.73500939 C1.73333333,4.12512643 1.81277778,4.51524346 1.87777778,4.89813611 C2.02222222,4.29128739 2.10888889,3.9372923 2.13055556,3.84337523 L3.21388889,0 L4.12388889,0 L4.94,2.88253143 C5.14222222,3.59774599 5.29388889,4.26961422 5.38055556,4.89813611 C5.45277778,4.53691663 5.54666667,4.12512643 5.66222222,3.6627655 L6.55055556,0.00722438954 L7.30888889,0.00722438954 L5.74888889,5.69281896 L5.02666667,5.69281896 L3.82777778,1.35818523 C3.72666667,0.996965756 3.66888889,0.773009681 3.64722222,0.693541396 C3.58944444,0.953619419 3.53166667,1.17757549 3.48111111,1.35818523 L2.275,5.69281896 L1.50944444,5.69281896 L1.50944444,5.69281896 Z" id="Path"></path>
                            <path d="M10.6022222,4.36353128 L11.3244444,4.45022396 C11.2088889,4.86923855 10.9994444,5.20156047 10.6888889,5.43274093 C10.3783333,5.6639214 9.98833333,5.77951163 9.51166667,5.77951163 C8.91222222,5.77951163 8.42833333,5.5916775 8.07444444,5.22323364 C7.72055556,4.85478977 7.54722222,4.33463372 7.54722222,3.6627655 C7.54722222,2.99089727 7.72777778,2.43461927 8.08166667,2.05172663 C8.43555556,1.66883398 8.89777778,1.48099986 9.46833333,1.48099986 C10.0388889,1.48099986 10.4722222,1.66883398 10.8188889,2.04450224 C11.1655556,2.4201705 11.3461111,2.94755093 11.3461111,3.62664355 C11.3461111,3.66998989 11.3461111,3.727785 11.3461111,3.81447768 L8.27666667,3.81447768 C8.30555556,4.26961422 8.42833333,4.61638492 8.65944444,4.85478977 C8.89055556,5.09319463 9.17944444,5.21600925 9.51888889,5.21600925 C9.77166667,5.21600925 9.99555556,5.15098974 10.1761111,5.01372634 C10.3566667,4.87646294 10.5011111,4.66695564 10.6094444,4.37075567 L10.6022222,4.36353128 Z M8.31277778,3.23652651 L10.6166667,3.23652651 C10.5877778,2.88975582 10.4938889,2.62967779 10.3494444,2.45629244 C10.1255556,2.18899003 9.83666667,2.05172663 9.48277778,2.05172663 C9.165,2.05172663 8.89055556,2.16009247 8.67388889,2.37682416 C8.45722222,2.59355584 8.33444444,2.87530704 8.31277778,3.23652651 L8.31277778,3.23652651 Z" id="Shape"></path>
                            <path d="M12.8483333,5.69281896 L12.1983333,5.69281896 L12.1983333,0.00722438954 L12.8988889,0.00722438954 L12.8988889,2.03727785 C13.195,1.66883398 13.5705556,1.48099986 14.0255556,1.48099986 C14.2783333,1.48099986 14.5166667,1.53157058 14.7477778,1.63271204 C14.9788889,1.73385349 15.1594444,1.87834128 15.3038889,2.06617541 C15.4483333,2.25400954 15.5638889,2.47074122 15.6433333,2.73804364 C15.73,2.99812166 15.7661111,3.27987285 15.7661111,3.57607282 C15.7661111,4.284063 15.5927778,4.82589221 15.2461111,5.21600925 C14.8994444,5.59890189 14.4805556,5.79396041 13.9894444,5.79396041 C13.4983333,5.79396041 13.1227778,5.5916775 12.8483333,5.18711169 L12.8483333,5.70004335 L12.8483333,5.69281896 Z M12.8411111,3.60497038 C12.8411111,4.09622887 12.9061111,4.45744835 13.0433333,4.67418003 C13.26,5.03539951 13.5633333,5.21600925 13.9388889,5.21600925 C14.2422222,5.21600925 14.5094444,5.08597024 14.7333333,4.81866782 C14.9572222,4.55136541 15.0655556,4.16124837 15.0655556,3.63386794 C15.0655556,3.1064875 14.9572222,2.70192169 14.7477778,2.44184366 C14.5311111,2.18176564 14.2783333,2.05895102 13.975,2.05895102 C13.6716667,2.05895102 13.4044444,2.18899003 13.1805556,2.45629244 C12.9566667,2.72359486 12.8483333,3.1064875 12.8483333,3.60497038 L12.8411111,3.60497038 Z" id="Shape"></path>
                            <path d="M16.6183333,5.69281896 L16.6183333,1.57491692 L17.2466667,1.57491692 L17.2466667,2.15286808 C17.3766667,1.95058518 17.55,1.79164861 17.7594444,1.66883398 C17.9761111,1.54601936 18.2144444,1.48822425 18.4888889,1.48822425 C18.7922222,1.48822425 19.045,1.55324375 19.24,1.67605837 C19.435,1.80609738 19.5722222,1.97948273 19.6516667,2.2106632 C19.9766667,1.7266291 20.4027778,1.48822425 20.9227778,1.48822425 C21.3344444,1.48822425 21.645,1.60381448 21.8688889,1.82777055 C22.0855556,2.05172663 22.2011111,2.40572172 22.2011111,2.87530704 L22.2011111,5.70726774 L21.5077778,5.70726774 L21.5077778,3.11371189 C21.5077778,2.8319607 21.4861111,2.62967779 21.4427778,2.51408756 C21.3994444,2.39849733 21.3127778,2.29013148 21.1972222,2.21788759 C21.0744444,2.14564369 20.9372222,2.10229736 20.7783333,2.10229736 C20.4894444,2.10229736 20.2511111,2.19621442 20.0561111,2.39127294 C19.8611111,2.58633145 19.7672222,2.88975582 19.7672222,3.3159948 L19.7672222,5.70726774 L19.0666667,5.70726774 L19.0666667,3.02701922 C19.0666667,2.71637047 19.0088889,2.48519 18.8933333,2.32625343 C18.7777778,2.16731686 18.59,2.09507297 18.3372222,2.09507297 C18.1422222,2.09507297 17.9616667,2.14564369 17.7955556,2.24678515 C17.6294444,2.3479266 17.5066667,2.49963878 17.4344444,2.70192169 C17.3622222,2.90420459 17.3188889,3.18595579 17.3188889,3.56162404 L17.3188889,5.70004335 L16.6183333,5.70004335 L16.6183333,5.69281896 Z" id="Path"></path>
                            <path d="M25.9277778,5.1798873 C25.6677778,5.39661899 25.4222222,5.55555556 25.1838889,5.64224823 C24.9455556,5.7289409 24.6855556,5.77951163 24.4111111,5.77951163 C23.9561111,5.77951163 23.6094444,5.67114579 23.3638889,5.44718971 C23.1183333,5.22323364 23.0027778,4.94148244 23.0027778,4.60193614 C23.0027778,4.39965323 23.0461111,4.21904349 23.14,4.04565814 C23.2338889,3.87949718 23.3494444,3.74223378 23.5011111,3.64109233 C23.6527778,3.53995087 23.8188889,3.46048259 24.0066667,3.40991186 C24.1438889,3.37378991 24.3533333,3.33766797 24.6277778,3.30877041 C25.1911111,3.2437509 25.61,3.16428262 25.87,3.07036555 C25.87,2.97644849 25.87,2.91142898 25.87,2.88975582 C25.87,2.60800462 25.805,2.40572172 25.675,2.29013148 C25.4944444,2.13119491 25.2344444,2.05172663 24.8805556,2.05172663 C24.5483333,2.05172663 24.31,2.10952175 24.1511111,2.22511198 C23.9922222,2.34070221 23.8766667,2.54298512 23.8044444,2.83918509 L23.1183333,2.74526802 C23.1833333,2.44906805 23.2844444,2.21788759 23.4216667,2.03727785 C23.5588889,1.85666811 23.7683333,1.71940471 24.0355556,1.61826326 C24.3027778,1.52434619 24.6133333,1.47377547 24.9672222,1.47377547 C25.3211111,1.47377547 25.6027778,1.5171218 25.8266667,1.59659009 C26.0433333,1.67605837 26.2094444,1.78442422 26.3105556,1.90723884 C26.4116667,2.03005346 26.4838889,2.18899003 26.5272222,2.38404855 C26.5488889,2.49963878 26.5633333,2.71637047 26.5633333,3.02701922 L26.5633333,3.95896547 C26.5633333,4.60916053 26.5777778,5.02095073 26.6066667,5.19433608 C26.6355556,5.36772143 26.6933333,5.53388239 26.78,5.68559457 L26.0505556,5.68559457 C25.9783333,5.54110678 25.9277778,5.36772143 25.9133333,5.1798873 L25.9277778,5.1798873 Z M25.87,3.61941916 C25.6172222,3.72056061 25.2344444,3.81447768 24.7288889,3.88672157 C24.44,3.93006791 24.2377778,3.97341425 24.1222222,4.02398497 C23.9994444,4.0745557 23.9127778,4.15402398 23.8477778,4.24794105 C23.7827778,4.3490825 23.7538889,4.45744835 23.7538889,4.58026297 C23.7538889,4.7680971 23.8261111,4.91980928 23.9633333,5.0426239 C24.1005556,5.16543852 24.31,5.23045803 24.5844444,5.23045803 C24.8588889,5.23045803 25.09,5.17266291 25.2994444,5.05707268 C25.5088889,4.94148244 25.6605556,4.77532149 25.7616667,4.57303858 C25.8338889,4.41410201 25.8772222,4.18292154 25.8772222,3.87227279 L25.8772222,3.61219477 L25.87,3.61941916 Z" id="Shape"></path>
                            <path d="M27.6611111,0.801907239 L27.6611111,0 L28.6311111,0 L28.6311111,0.801907239 L27.6611111,0.801907239 Z M27.6611111,5.68559457 L27.6611111,1.56769253 L28.6311111,1.56769253 L28.6311111,5.68559457 L27.6611111,5.68559457 Z" id="Shape"></path>
                            <polygon id="Path" points="29.4088889 5.69281896 29.4088889 0.00722438954 30.1094444 0.00722438954 30.1094444 5.69281896"></polygon>
                        </g>
                    </g>
                    <g id="Group" opacity="0.502952939" stroke-width="1" fill="none" fill-rule="evenodd" transform="translate(21.000000, 13.000000)">
                        <path d="M3.03597122,7.85653288 L2.02158273,7.85653288 L2.02158273,1.735269 C1.77697842,1.95388557 1.46043165,2.1793339 1.0647482,2.39795047 C0.669064748,2.61656704 0.316546763,2.78736123 0,2.89666951 L0,1.9675491 C0.568345324,1.7147737 1.05755396,1.40734415 1.48201439,1.05209223 C1.90647482,0.69000854 2.20143885,0.341588386 2.38129496,0.00683176772 L3.03597122,0.00683176772 L3.03597122,7.86336465 L3.03597122,7.85653288 Z" id="Path" fill="#000000" fill-rule="nonzero"></path>
                        <path d="M5.62589928,3.99658412 C5.62589928,3.07429547 5.72661871,2.32963279 5.92805755,1.76259607 C6.1294964,1.19555935 6.42446043,0.765157985 6.82014388,0.457728437 C7.21582734,0.15029889 7.71223022,0 8.30935252,0 C8.74820144,0 9.13669065,0.0819812126 9.47482014,0.252775406 C9.8057554,0.423569599 10.0863309,0.662681469 10.3021583,0.983774552 C10.5179856,1.30486763 10.6906475,1.68744663 10.8129496,2.14517506 C10.9352518,2.6029035 11,3.2177626 11,3.99658412 C11,4.91204099 10.8992806,5.65670367 10.705036,6.21690863 C10.5107914,6.77711358 10.2086331,7.21434671 9.81294964,7.52177626 C9.41726619,7.82920581 8.92086331,7.98633646 8.31654676,7.98633646 C7.52517986,7.98633646 6.89928058,7.71306576 6.44604317,7.17335611 C5.90647482,6.52433817 5.63309353,5.46541418 5.63309353,3.98975235 L5.62589928,3.99658412 Z M6.66906475,3.99658412 C6.66906475,5.28095645 6.82733813,6.13492741 7.14388489,6.55849701 C7.46043165,6.98206661 7.84892086,7.19385141 8.31654676,7.19385141 C8.78417266,7.19385141 9.17266187,6.98206661 9.48920863,6.55166524 C9.8057554,6.12126388 9.96402878,5.26729291 9.96402878,3.98975235 C9.96402878,2.71221178 9.8057554,1.84457728 9.48920863,1.42100769 C9.17266187,0.997438087 8.77697842,0.785653288 8.30935252,0.785653288 C7.84172662,0.785653288 7.47482014,0.970111016 7.1942446,1.34585824 C6.84892086,1.82408198 6.66906475,2.70538002 6.66906475,3.98975235 L6.66906475,3.99658412 Z" id="Shape" fill="#000000" fill-rule="nonzero"></path>
                        <path d="M12.5899281,3.27924851 L12.5899281,2.18616567 L13.7410072,2.18616567 L13.7410072,3.27924851 L12.5899281,3.27924851 Z M12.5899281,7.85653288 L12.5899281,6.76345004 L13.7410072,6.76345004 L13.7410072,7.85653288 L12.5899281,7.85653288 Z" id="Shape" fill="#000000" fill-rule="nonzero"></path>
                        <path d="M15.2302158,5.79333903 L16.2446043,5.66353544 C16.3597122,6.21007686 16.5611511,6.59948762 16.8345324,6.83859949 C17.1079137,7.07771136 17.4532374,7.20068318 17.8561151,7.20068318 C18.3309353,7.20068318 18.7338129,7.04355252 19.0647482,6.7292912 C19.3956835,6.41502989 19.5539568,6.02561913 19.5539568,5.56789069 C19.5539568,5.11016225 19.4028777,4.7617421 19.1007194,4.47480786 C18.7985612,4.18787361 18.4100719,4.04440649 17.942446,4.04440649 C17.7482014,4.04440649 17.5107914,4.07856533 17.2302158,4.15371477 L17.3453237,3.31340734 C17.4100719,3.32023911 17.4676259,3.32707088 17.5107914,3.32707088 C17.942446,3.32707088 18.3309353,3.2177626 18.676259,3.0059778 C19.0215827,2.794193 19.1942446,2.46626815 19.1942446,2.01537148 C19.1942446,1.66011956 19.0719424,1.37318531 18.8201439,1.14090521 C18.5683453,0.908625107 18.2446043,0.792485056 17.8489209,0.792485056 C17.4532374,0.792485056 17.1294964,0.908625107 16.8633094,1.14773698 C16.5971223,1.38684885 16.4316547,1.735269 16.3597122,2.20666097 L15.3453237,2.03586678 C15.4676259,1.39368061 15.7482014,0.894961571 16.1870504,0.53970965 C16.6258993,0.184457728 17.1726619,0.00683176772 17.8201439,0.00683176772 C18.2661871,0.00683176772 18.6834532,0.0956447481 19.0647482,0.280102477 C19.4460432,0.464560205 19.7338129,0.710503843 19.9352518,1.03159693 C20.1366906,1.34585824 20.2374101,1.68744663 20.2374101,2.04269855 C20.2374101,2.39795047 20.1438849,2.69171648 19.9496403,2.96498719 C19.7553957,3.2382579 19.4748201,3.46370623 19.1007194,3.62766866 C19.5899281,3.73697694 19.9640288,3.95559351 20.2374101,4.29035013 C20.5107914,4.62510675 20.6402878,5.04867635 20.6402878,5.55422716 C20.6402878,6.23740393 20.381295,6.81810418 19.8561151,7.28949616 C19.3309353,7.76088813 18.6690647,8 17.8633094,8 C17.1438849,8 16.5395683,7.79504697 16.0647482,7.38514091 C15.5899281,6.97523484 15.3165468,6.44235696 15.2446043,5.79333903 L15.2302158,5.79333903 Z" id="Path" fill="#000000" fill-rule="nonzero"></path>
                        <path d="M21.6258993,3.99658412 C21.6258993,3.07429547 21.7266187,2.32963279 21.9280576,1.76259607 C22.1294964,1.19555935 22.4244604,0.765157985 22.8201439,0.457728437 C23.2158273,0.15029889 23.7122302,0 24.3093525,0 C24.7482014,0 25.1366906,0.0819812126 25.4748201,0.252775406 C25.8057554,0.423569599 26.0863309,0.662681469 26.3021583,0.983774552 C26.5179856,1.30486763 26.6906475,1.68744663 26.8129496,2.14517506 C26.9352518,2.6029035 27,3.2177626 27,3.99658412 C27,4.91204099 26.8992806,5.65670367 26.705036,6.21690863 C26.5107914,6.77711358 26.2086331,7.21434671 25.8129496,7.52177626 C25.4172662,7.82920581 24.9208633,7.98633646 24.3165468,7.98633646 C23.5251799,7.98633646 22.8992806,7.71306576 22.4460432,7.17335611 C21.9064748,6.52433817 21.6330935,5.46541418 21.6330935,3.98975235 L21.6258993,3.99658412 Z M22.6690647,3.99658412 C22.6690647,5.28095645 22.8273381,6.13492741 23.1438849,6.55849701 C23.4604317,6.98206661 23.8489209,7.19385141 24.3165468,7.19385141 C24.7841727,7.19385141 25.1726619,6.98206661 25.4892086,6.55166524 C25.8057554,6.12126388 25.9640288,5.26729291 25.9640288,3.98975235 C25.9640288,2.71221178 25.8057554,1.84457728 25.4892086,1.42100769 C25.1726619,0.997438087 24.7769784,0.785653288 24.3093525,0.785653288 C23.8417266,0.785653288 23.4748201,0.970111016 23.1942446,1.34585824 C22.8489209,1.82408198 22.6690647,2.70538002 22.6690647,3.98975235 L22.6690647,3.99658412 Z" id="Shape" fill="#000000" fill-rule="nonzero"></path>
                    </g>
                    <g id="Group" opacity="0.249093192" stroke-width="1" fill="none" fill-rule="evenodd" transform="translate(230.000000, 12.000000)" stroke-linecap="round" stroke-linejoin="round">
                        <polyline id="Path" stroke="#000000" points="14.9338072 1.7752381 16 1.7752381 16 6.21714286 14.9338072 6.21714286"></polyline>
                        <path d="M1.73434029,0 L12.1261661,0 C13.0857397,0 13.8605064,0.594285714 13.8605064,1.33333333 L13.8605064,6.66666667 C13.8605064,7.40571429 13.0857397,8 12.1261661,8 L1.73434029,8 C0.77476677,8 0,7.40571429 0,6.66666667 L0,1.33333333 C0,0.594285714 0.77476677,0 1.73434029,0 Z" id="Path" stroke="#000000"></path>
                    </g>
                    <g id="Group" opacity="0.50016276" stroke-width="1" fill="none" fill-rule="evenodd" transform="translate(214.000000, 12.000000)">
                        <ellipse id="Oval" fill="#000000" fill-rule="nonzero" cx="6" cy="6.84057971" rx="1.125" ry="1.15942029"></ellipse>
                        <path d="M8.625,5.87439614 C7.95,5.10144928 6.975,4.71497585 6,4.71497585 C5.025,4.71497585 4.05,5.10144928 3.375,5.87439614 L2.325,4.79227053 C3.3,3.71014493 4.575,3.16908213 6,3.16908213 C7.425,3.16908213 8.7,3.71014493 9.675,4.79227053 L8.625,5.87439614 Z" id="Path" fill="#000000" fill-rule="nonzero"></path>
                        <path d="M6,0 C3.75,0 1.65,0.850241546 0,2.47342995 L1.05,3.55555556 C2.4,2.24154589 4.125,1.54589372 6,1.54589372 C7.875,1.54589372 9.6,2.24154589 10.95,3.63285024 L12,2.47342995 C10.35,0.850241546 8.25,0 6,0 Z" id="Path" fill="#000000" fill-rule="nonzero"></path>
                    </g>
                    <rect id="Rectangle" fill="#000000" fill-rule="nonzero" opacity="0.500604539" x="231" y="13" width="12" height="6" rx="1"></rect>
                </g>
            </g>
        </g>
        <circle id="Oval" stroke="#CCCECC" cx="141.5" cy="67" r="13.5"></circle>
        <circle id="Oval" stroke="#FFFFFF" stroke-width="0.5" cx="141.5" cy="67" r="16.5"></circle>
    </g>
</svg>