<?xml version="1.0" encoding="UTF-8"?>
<svg width="354px" height="74px" viewBox="0 0 354 74" version="1.1" xmlns="http://www.w3.org/2000/svg" xmlns:xlink="http://www.w3.org/1999/xlink">
    <title>notifications / browser / push_firefox</title>
    <defs>
        <rect id="path-1" x="0" y="0" width="346" height="66" rx="8"></rect>
        <filter x="-1.0%" y="-3.8%" width="102.0%" height="110.6%" filterUnits="objectBoundingBox" id="filter-2">
            <feMorphology radius="0.5" operator="dilate" in="SourceAlpha" result="shadowSpreadOuter1"></feMorphology>
            <feOffset dx="0" dy="1" in="shadowSpreadOuter1" result="shadowOffsetOuter1"></feOffset>
            <feGaussianBlur stdDeviation="0.5" in="shadowOffsetOuter1" result="shadowBlurOuter1"></feGaussianBlur>
            <feColorMatrix values="0 0 0 0 0   0 0 0 0 0   0 0 0 0 0  0 0 0 0.05 0" type="matrix" in="shadowBlurOuter1" result="shadowMatrixOuter1"></feColorMatrix>
            <feMorphology radius="0.5" operator="dilate" in="SourceAlpha" result="shadowSpreadOuter2"></feMorphology>
            <feOffset dx="0" dy="1" in="shadowSpreadOuter2" result="shadowOffsetOuter2"></feOffset>
            <feGaussianBlur stdDeviation="0.5" in="shadowOffsetOuter2" result="shadowBlurOuter2"></feGaussianBlur>
            <feColorMatrix values="0 0 0 0 0   0 0 0 0 0   0 0 0 0 0  0 0 0 0.1 0" type="matrix" in="shadowBlurOuter2" result="shadowMatrixOuter2"></feColorMatrix>
            <feMerge>
                <feMergeNode in="shadowMatrixOuter1"></feMergeNode>
                <feMergeNode in="shadowMatrixOuter2"></feMergeNode>
            </feMerge>
        </filter>
        <rect id="path-3" x="0" y="0" width="30" height="30" rx="2"></rect>
        <linearGradient x1="86.9261302%" y1="15.8132848%" x2="9.04569091%" y2="93.3648528%" id="linearGradient-5">
            <stop stop-color="#FFF44F" offset="5%"></stop>
            <stop stop-color="#FFE847" offset="11%"></stop>
            <stop stop-color="#FFC830" offset="23%"></stop>
            <stop stop-color="#FF980E" offset="37%"></stop>
            <stop stop-color="#FF8B16" offset="40%"></stop>
            <stop stop-color="#FF672A" offset="46%"></stop>
            <stop stop-color="#FF3647" offset="53%"></stop>
            <stop stop-color="#E31587" offset="70%"></stop>
        </linearGradient>
        <radialGradient cx="138.972717%" cy="57.1291529%" fx="138.972717%" fy="57.1291529%" r="128.200012%" gradientTransform="translate(1.3897, 0.5713), scale(0.8123, 1), translate(-1.3897, -0.5713)" id="radialGradient-6">
            <stop stop-color="#FFBD4F" offset="13%"></stop>
            <stop stop-color="#FFAC31" offset="19%"></stop>
            <stop stop-color="#FF9D17" offset="25%"></stop>
            <stop stop-color="#FF980E" offset="28%"></stop>
            <stop stop-color="#FF563B" offset="40%"></stop>
            <stop stop-color="#FF3750" offset="47%"></stop>
            <stop stop-color="#F5156C" offset="71%"></stop>
            <stop stop-color="#EB0878" offset="78%"></stop>
            <stop stop-color="#E50080" offset="86%"></stop>
        </radialGradient>
        <radialGradient cx="100.297411%" cy="109.486874%" fx="100.297411%" fy="109.486874%" r="128.200012%" gradientTransform="translate(1.003, 1.0949), scale(0.8123, 1), translate(-1.003, -1.0949)" id="radialGradient-7">
            <stop stop-color="#960E18" offset="30%"></stop>
            <stop stop-color="#B11927" stop-opacity="0.74" offset="35%"></stop>
            <stop stop-color="#DB293D" stop-opacity="0.34" offset="43%"></stop>
            <stop stop-color="#F5334B" stop-opacity="0.09" offset="50%"></stop>
            <stop stop-color="#FF3750" stop-opacity="0" offset="53%"></stop>
        </radialGradient>
        <radialGradient cx="270.302778%" cy="110.757774%" fx="270.302778%" fy="110.757774%" r="314.416667%" gradientTransform="translate(2.703, 1.1076), scale(1, 0.5892), translate(-2.703, -1.1076)" id="radialGradient-8">
            <stop stop-color="#FFF44F" offset="13%"></stop>
            <stop stop-color="#FFDC3E" offset="25%"></stop>
            <stop stop-color="#FF9D12" offset="51%"></stop>
            <stop stop-color="#FF980E" offset="53%"></stop>
        </radialGradient>
        <radialGradient cx="137.597899%" cy="226.246648%" fx="137.597899%" fy="226.246648%" r="111.6009%" gradientTransform="translate(1.376, 2.2625), scale(1, 0.9118), translate(-1.376, -2.2625)" id="radialGradient-9">
            <stop stop-color="#3A8EE6" offset="35%"></stop>
            <stop stop-color="#5C79F0" offset="47%"></stop>
            <stop stop-color="#9059FF" offset="67%"></stop>
            <stop stop-color="#C139E6" offset="100%"></stop>
        </radialGradient>
        <radialGradient cx="160.817996%" cy="-8.53648024%" fx="160.817996%" fy="-8.53648024%" r="59.1822956%" gradientTransform="translate(1.6082, -0.0854), scale(1, 0.9118), rotate(-13.59), translate(-1.6082, 0.0854)" id="radialGradient-10">
            <stop stop-color="#9059FF" stop-opacity="0" offset="21%"></stop>
            <stop stop-color="#8C4FF3" stop-opacity="0.06" offset="28%"></stop>
            <stop stop-color="#7716A8" stop-opacity="0.45" offset="75%"></stop>
            <stop stop-color="#6E008B" stop-opacity="0.6" offset="97%"></stop>
        </radialGradient>
        <radialGradient cx="640.509589%" cy="364.201635%" fx="640.509589%" fy="364.201635%" r="293.194521%" gradientTransform="translate(6.4051, 3.642), scale(1, 0.9946), translate(-6.4051, -3.642)" id="radialGradient-11">
            <stop stop-color="#FFE226" offset="0%"></stop>
            <stop stop-color="#FFDB27" offset="12%"></stop>
            <stop stop-color="#FFC82A" offset="29%"></stop>
            <stop stop-color="#FFA930" offset="50%"></stop>
            <stop stop-color="#FF7E37" offset="73%"></stop>
            <stop stop-color="#FF7139" offset="79%"></stop>
        </radialGradient>
        <radialGradient cx="135.674997%" cy="31.2553684%" fx="135.674997%" fy="31.2553684%" r="193.457776%" gradientTransform="translate(1.3567, 0.3126), scale(0.8394, 1), translate(-1.3567, -0.3126)" id="radialGradient-12">
            <stop stop-color="#FFF44F" offset="11%"></stop>
            <stop stop-color="#FF980E" offset="46%"></stop>
            <stop stop-color="#FF5634" offset="62%"></stop>
            <stop stop-color="#FF3647" offset="72%"></stop>
            <stop stop-color="#E31587" offset="90%"></stop>
        </radialGradient>
        <radialGradient cx="-394.688594%" cy="112.712408%" fx="-394.688594%" fy="112.712408%" r="348.237872%" gradientTransform="translate(-3.9469, 1.1271), scale(1, 0.4729), rotate(83.98), translate(3.9469, -1.1271)" id="radialGradient-13">
            <stop stop-color="#FFF44F" offset="0%"></stop>
            <stop stop-color="#FFE847" offset="6%"></stop>
            <stop stop-color="#FFC830" offset="17%"></stop>
            <stop stop-color="#FF980E" offset="30%"></stop>
            <stop stop-color="#FF8B16" offset="36%"></stop>
            <stop stop-color="#FF672A" offset="46%"></stop>
            <stop stop-color="#FF3647" offset="57%"></stop>
            <stop stop-color="#E31587" offset="74%"></stop>
        </radialGradient>
        <radialGradient cx="146.703376%" cy="100.127704%" fx="146.703376%" fy="100.127704%" r="238.231817%" gradientTransform="translate(1.467, 1.0013), scale(0.9814, 1), translate(-1.467, -1.0013)" id="radialGradient-14">
            <stop stop-color="#FFF44F" offset="14%"></stop>
            <stop stop-color="#FF980E" offset="48%"></stop>
            <stop stop-color="#FF5634" offset="59%"></stop>
            <stop stop-color="#FF3647" offset="66%"></stop>
            <stop stop-color="#E31587" offset="90%"></stop>
        </radialGradient>
        <radialGradient cx="297.299283%" cy="125.170112%" fx="297.299283%" fy="125.170112%" r="312.207044%" gradientTransform="translate(2.973, 1.2517), scale(0.8956, 1), translate(-2.973, -1.2517)" id="radialGradient-15">
            <stop stop-color="#FFF44F" offset="9%"></stop>
            <stop stop-color="#FFE141" offset="23%"></stop>
            <stop stop-color="#FFAF1E" offset="51%"></stop>
            <stop stop-color="#FF980E" offset="63%"></stop>
        </radialGradient>
        <linearGradient x1="85.9746205%" y1="15.4334403%" x2="19.7195009%" y2="83.8370887%" id="linearGradient-16">
            <stop stop-color="#FFF44F" stop-opacity="0.8" offset="17%"></stop>
            <stop stop-color="#FFF44F" stop-opacity="0.63" offset="27%"></stop>
            <stop stop-color="#FFF44F" stop-opacity="0.22" offset="49%"></stop>
            <stop stop-color="#FFF44F" stop-opacity="0" offset="60%"></stop>
        </linearGradient>
    </defs>
    <g id="notifications-/-browser-/-push_firefox" stroke="none" stroke-width="1" fill="none" fill-rule="evenodd">
        <g id="Group-2" transform="translate(4, 4)">
            <g id="Rectangle">
                <use fill="black" fill-opacity="1" filter="url(#filter-2)" xlink:href="#path-1"></use>
                <use fill="#F0F0F0" fill-rule="evenodd" xlink:href="#path-1"></use>
            </g>
            <path d="M54.544,22.144 C54.928,22.144 55.258,22.08 55.534,21.952 C55.81,21.824 56.034,21.648 56.206,21.424 C56.378,21.2 56.506,20.938 56.59,20.638 C56.674,20.338 56.716,20.02 56.716,19.684 L56.716,19.684 L56.716,14.128 L55.708,14.128 L55.708,19.588 C55.708,20.188 55.604,20.618 55.396,20.878 C55.188,21.138 54.872,21.268 54.448,21.268 C54.168,21.268 53.916,21.198 53.692,21.058 C53.468,20.918 53.268,20.692 53.092,20.38 L53.092,20.38 L52.372,20.884 C52.836,21.724 53.56,22.144 54.544,22.144 Z M61.012,22.144 C61.372,22.144 61.714,22.076 62.038,21.94 C62.362,21.804 62.648,21.606 62.896,21.346 C63.144,21.086 63.342,20.766 63.49,20.386 C63.638,20.006 63.712,19.576 63.712,19.096 C63.712,18.608 63.638,18.174 63.49,17.794 C63.342,17.414 63.144,17.092 62.896,16.828 C62.648,16.564 62.362,16.364 62.038,16.228 C61.714,16.092 61.372,16.024 61.012,16.024 C60.652,16.024 60.31,16.092 59.986,16.228 C59.662,16.364 59.376,16.564 59.128,16.828 C58.88,17.092 58.682,17.414 58.534,17.794 C58.386,18.174 58.312,18.608 58.312,19.096 C58.312,19.576 58.386,20.006 58.534,20.386 C58.682,20.766 58.88,21.086 59.128,21.346 C59.376,21.606 59.662,21.804 59.986,21.94 C60.31,22.076 60.652,22.144 61.012,22.144 Z M61.012,21.328 C60.764,21.328 60.536,21.274 60.328,21.166 C60.12,21.058 59.942,20.906 59.794,20.71 C59.646,20.514 59.532,20.28 59.452,20.008 C59.372,19.736 59.332,19.432 59.332,19.096 C59.332,18.76 59.372,18.454 59.452,18.178 C59.532,17.902 59.646,17.664 59.794,17.464 C59.942,17.264 60.12,17.11 60.328,17.002 C60.536,16.894 60.764,16.84 61.012,16.84 C61.26,16.84 61.488,16.894 61.696,17.002 C61.904,17.11 62.082,17.264 62.23,17.464 C62.378,17.664 62.492,17.902 62.572,18.178 C62.652,18.454 62.692,18.76 62.692,19.096 C62.692,19.432 62.652,19.736 62.572,20.008 C62.492,20.28 62.378,20.514 62.23,20.71 C62.082,20.906 61.904,21.058 61.696,21.166 C61.488,21.274 61.26,21.328 61.012,21.328 Z M66.232,22 L66.232,17.776 C66.528,17.48 66.792,17.256 67.024,17.104 C67.256,16.952 67.524,16.876 67.828,16.876 C68.212,16.876 68.492,16.998 68.668,17.242 C68.844,17.486 68.932,17.884 68.932,18.436 L68.932,18.436 L68.932,22 L69.916,22 L69.916,18.304 C69.916,17.552 69.774,16.984 69.49,16.6 C69.206,16.216 68.756,16.024 68.14,16.024 C67.732,16.024 67.376,16.118 67.072,16.306 C66.768,16.494 66.476,16.72 66.196,16.984 L66.196,16.984 L66.232,15.784 L66.232,13.456 L65.248,13.456 L65.248,22 L66.232,22 Z M72.76,22 L72.76,17.776 C73.056,17.48 73.32,17.256 73.552,17.104 C73.784,16.952 74.052,16.876 74.356,16.876 C74.74,16.876 75.02,16.998 75.196,17.242 C75.372,17.486 75.46,17.884 75.46,18.436 L75.46,18.436 L75.46,22 L76.444,22 L76.444,18.304 C76.444,17.552 76.302,16.984 76.018,16.6 C75.734,16.216 75.284,16.024 74.668,16.024 C74.26,16.024 73.902,16.118 73.594,16.306 C73.286,16.494 72.992,16.728 72.712,17.008 L72.712,17.008 L72.676,17.008 L72.592,16.168 L71.776,16.168 L71.776,22 L72.76,22 Z M82.852,22 C83.444,22 83.968,21.91 84.424,21.73 C84.88,21.55 85.264,21.29 85.576,20.95 C85.888,20.61 86.124,20.194 86.284,19.702 C86.444,19.21 86.524,18.652 86.524,18.028 C86.524,16.772 86.208,15.808 85.576,15.136 C84.944,14.464 84.02,14.128 82.804,14.128 L82.804,14.128 L80.836,14.128 L80.836,22 L82.852,22 Z M82.732,21.184 L81.832,21.184 L81.832,14.944 L82.732,14.944 C83.652,14.944 84.342,15.208 84.802,15.736 C85.262,16.264 85.492,17.028 85.492,18.028 C85.492,19.028 85.262,19.804 84.802,20.356 C84.342,20.908 83.652,21.184 82.732,21.184 L82.732,21.184 Z M90.388,22.144 C90.748,22.144 91.09,22.076 91.414,21.94 C91.738,21.804 92.024,21.606 92.272,21.346 C92.52,21.086 92.718,20.766 92.866,20.386 C93.014,20.006 93.088,19.576 93.088,19.096 C93.088,18.608 93.014,18.174 92.866,17.794 C92.718,17.414 92.52,17.092 92.272,16.828 C92.024,16.564 91.738,16.364 91.414,16.228 C91.09,16.092 90.748,16.024 90.388,16.024 C90.028,16.024 89.686,16.092 89.362,16.228 C89.038,16.364 88.752,16.564 88.504,16.828 C88.256,17.092 88.058,17.414 87.91,17.794 C87.762,18.174 87.688,18.608 87.688,19.096 C87.688,19.576 87.762,20.006 87.91,20.386 C88.058,20.766 88.256,21.086 88.504,21.346 C88.752,21.606 89.038,21.804 89.362,21.94 C89.686,22.076 90.028,22.144 90.388,22.144 Z M90.388,21.328 C90.14,21.328 89.912,21.274 89.704,21.166 C89.496,21.058 89.318,20.906 89.17,20.71 C89.022,20.514 88.908,20.28 88.828,20.008 C88.748,19.736 88.708,19.432 88.708,19.096 C88.708,18.76 88.748,18.454 88.828,18.178 C88.908,17.902 89.022,17.664 89.17,17.464 C89.318,17.264 89.496,17.11 89.704,17.002 C89.912,16.894 90.14,16.84 90.388,16.84 C90.636,16.84 90.864,16.894 91.072,17.002 C91.28,17.11 91.458,17.264 91.606,17.464 C91.754,17.664 91.868,17.902 91.948,18.178 C92.028,18.454 92.068,18.76 92.068,19.096 C92.068,19.432 92.028,19.736 91.948,20.008 C91.868,20.28 91.754,20.514 91.606,20.71 C91.458,20.906 91.28,21.058 91.072,21.166 C90.864,21.274 90.636,21.328 90.388,21.328 Z M96.988,22.144 C97.388,22.144 97.744,22.084 98.056,21.964 C98.368,21.844 98.652,21.704 98.908,21.544 L98.908,21.544 L98.56,20.896 C98.344,21.032 98.118,21.142 97.882,21.226 C97.646,21.31 97.388,21.352 97.108,21.352 C96.548,21.352 96.094,21.17 95.746,20.806 C95.398,20.442 95.204,19.948 95.164,19.324 L95.164,19.324 L99.1,19.324 C99.116,19.252 99.126,19.166 99.13,19.066 C99.134,18.966 99.136,18.864 99.136,18.76 C99.136,18.344 99.084,17.968 98.98,17.632 C98.876,17.296 98.726,17.008 98.53,16.768 C98.334,16.528 98.09,16.344 97.798,16.216 C97.506,16.088 97.176,16.024 96.808,16.024 C96.472,16.024 96.148,16.094 95.836,16.234 C95.524,16.374 95.246,16.576 95.002,16.84 C94.758,17.104 94.562,17.426 94.414,17.806 C94.266,18.186 94.192,18.616 94.192,19.096 C94.192,19.576 94.264,20.004 94.408,20.38 C94.552,20.756 94.75,21.074 95.002,21.334 C95.254,21.594 95.55,21.794 95.89,21.934 C96.23,22.074 96.596,22.144 96.988,22.144 Z M98.272,18.616 L95.152,18.616 C95.184,18.328 95.25,18.072 95.35,17.848 C95.45,17.624 95.576,17.434 95.728,17.278 C95.88,17.122 96.05,17.004 96.238,16.924 C96.426,16.844 96.624,16.804 96.832,16.804 C97.288,16.804 97.642,16.958 97.894,17.266 C98.146,17.574 98.272,18.024 98.272,18.616 L98.272,18.616 Z" id="JohnDoe" fill="#4B4B4B" fill-rule="nonzero"></path>
            <path d="M53.903,37 L53.903,29.784 L52.99,29.784 L52.99,37 L53.903,37 Z M56.697,37 L56.697,33.128 C56.9683333,32.8566667 57.2103333,32.6513333 57.423,32.512 C57.6356667,32.3726667 57.8813333,32.303 58.16,32.303 C58.512,32.303 58.7686667,32.4148333 58.93,32.6385 C59.0913333,32.8621667 59.172,33.227 59.172,33.733 L59.172,33.733 L59.172,37 L60.074,37 L60.074,33.612 C60.074,32.9226667 59.9438333,32.402 59.6835,32.05 C59.4231667,31.698 59.0106667,31.522 58.446,31.522 C58.072,31.522 57.7438333,31.6081667 57.4615,31.7805 C57.1791667,31.9528333 56.9096667,32.1673333 56.653,32.424 L56.653,32.424 L56.62,32.424 L56.543,31.654 L55.795,31.654 L55.795,37 L56.697,37 Z M64.023,37 L65.915,31.654 L65.024,31.654 L64.012,34.69 L64.012,34.69 L63.77,35.482 C63.6893333,35.746 63.6086667,36.0063333 63.528,36.263 L63.528,36.263 L63.484,36.263 C63.4033333,36.0063333 63.3208333,35.746 63.2365,35.482 C63.1521667,35.218 63.0696667,34.954 62.989,34.69 L62.989,34.69 L61.977,31.654 L61.042,31.654 L62.967,37 L64.023,37 Z M67.411,30.554 C67.587,30.554 67.7355,30.499 67.8565,30.389 C67.9775,30.279 68.038,30.1396667 68.038,29.971 C68.038,29.795 67.9775,29.6538333 67.8565,29.5475 C67.7355,29.4411667 67.587,29.388 67.411,29.388 C67.235,29.388 67.0865,29.4411667 66.9655,29.5475 C66.8445,29.6538333 66.784,29.795 66.784,29.971 C66.784,30.1396667 66.8445,30.279 66.9655,30.389 C67.0865,30.499 67.235,30.554 67.411,30.554 Z M67.851,37 L67.851,31.654 L66.949,31.654 L66.949,37 L67.851,37 Z M71.338,37.132 C71.5066667,37.132 71.6771667,37.1118333 71.8495,37.0715 C72.0218333,37.0311667 72.1813333,36.9853333 72.328,36.934 L72.328,36.934 L72.152,36.252 C72.064,36.2886667 71.965,36.3216667 71.855,36.351 C71.745,36.3803333 71.6423333,36.395 71.547,36.395 C71.239,36.395 71.0245,36.3051667 70.9035,36.1255 C70.7825,35.9458333 70.722,35.691 70.722,35.361 L70.722,35.361 L70.722,32.391 L72.163,32.391 L72.163,31.654 L70.722,31.654 L70.722,30.158 L69.963,30.158 L69.853,31.654 L69.017,31.709 L69.017,32.391 L69.809,32.391 L69.809,35.35 C69.809,35.614 69.8346667,35.856 69.886,36.076 C69.9373333,36.296 70.0235,36.483 70.1445,36.637 C70.2655,36.791 70.4231667,36.912 70.6175,37 C70.8118333,37.088 71.052,37.132 71.338,37.132 Z M74.374,37.132 C74.7113333,37.132 75.0266667,37.0568333 75.32,36.9065 C75.6133333,36.7561667 75.8883333,36.5746667 76.145,36.362 L76.145,36.362 L76.178,36.362 L76.255,37 L77.003,37 L77.003,33.722 C77.003,33.0546667 76.8563333,32.5211667 76.563,32.1215 C76.2696667,31.7218333 75.7966667,31.522 75.144,31.522 C74.7113333,31.522 74.3153333,31.5971667 73.956,31.7475 C73.5966667,31.8978333 73.2923333,32.0536667 73.043,32.215 L73.043,32.215 L73.395,32.842 C73.6076667,32.6953333 73.8496667,32.5633333 74.121,32.446 C74.3923333,32.3286667 74.682,32.27 74.99,32.27 C75.21,32.27 75.3915,32.3085 75.5345,32.3855 C75.6775,32.4625 75.7893333,32.5633333 75.87,32.688 C75.9506667,32.8126667 76.0075,32.9556667 76.0405,33.117 C76.0735,33.2783333 76.09,33.4433333 76.09,33.612 C74.946,33.7366667 74.1136667,33.9548333 73.593,34.2665 C73.0723333,34.5781667 72.812,35.0273333 72.812,35.614 C72.812,36.098 72.9605,36.472 73.2575,36.736 C73.5545,37 73.9266667,37.132 74.374,37.132 Z M74.638,36.406 C74.374,36.406 74.1503333,36.34 73.967,36.208 C73.7836667,36.076 73.692,35.856 73.692,35.548 C73.692,35.3793333 73.7341667,35.2235 73.8185,35.0805 C73.9028333,34.9375 74.0385,34.811 74.2255,34.701 C74.4125,34.591 74.6581667,34.4956667 74.9625,34.415 C75.2668333,34.3343333 75.6426667,34.2646667 76.09,34.206 L76.09,34.206 L76.09,35.691 C75.8333333,35.9256667 75.5913333,36.1035 75.364,36.2245 C75.1366667,36.3455 74.8946667,36.406 74.638,36.406 Z M80.215,37.132 C80.3836667,37.132 80.5541667,37.1118333 80.7265,37.0715 C80.8988333,37.0311667 81.0583333,36.9853333 81.205,36.934 L81.205,36.934 L81.029,36.252 C80.941,36.2886667 80.842,36.3216667 80.732,36.351 C80.622,36.3803333 80.5193333,36.395 80.424,36.395 C80.116,36.395 79.9015,36.3051667 79.7805,36.1255 C79.6595,35.9458333 79.599,35.691 79.599,35.361 L79.599,35.361 L79.599,32.391 L81.04,32.391 L81.04,31.654 L79.599,31.654 L79.599,30.158 L78.84,30.158 L78.73,31.654 L77.894,31.709 L77.894,32.391 L78.686,32.391 L78.686,35.35 C78.686,35.614 78.7116667,35.856 78.763,36.076 C78.8143333,36.296 78.9005,36.483 79.0215,36.637 C79.1425,36.791 79.3001667,36.912 79.4945,37 C79.6888333,37.088 79.929,37.132 80.215,37.132 Z M82.712,30.554 C82.888,30.554 83.0365,30.499 83.1575,30.389 C83.2785,30.279 83.339,30.1396667 83.339,29.971 C83.339,29.795 83.2785,29.6538333 83.1575,29.5475 C83.0365,29.4411667 82.888,29.388 82.712,29.388 C82.536,29.388 82.3875,29.4411667 82.2665,29.5475 C82.1455,29.6538333 82.085,29.795 82.085,29.971 C82.085,30.1396667 82.1455,30.279 82.2665,30.389 C82.3875,30.499 82.536,30.554 82.712,30.554 Z M83.152,37 L83.152,31.654 L82.25,31.654 L82.25,37 L83.152,37 Z M87.035,37.132 C87.365,37.132 87.6785,37.0696667 87.9755,36.945 C88.2725,36.8203333 88.5346667,36.6388333 88.762,36.4005 C88.9893333,36.1621667 89.1708333,35.8688333 89.3065,35.5205 C89.4421667,35.1721667 89.51,34.778 89.51,34.338 C89.51,33.8906667 89.4421667,33.4928333 89.3065,33.1445 C89.1708333,32.7961667 88.9893333,32.501 88.762,32.259 C88.5346667,32.017 88.2725,31.8336667 87.9755,31.709 C87.6785,31.5843333 87.365,31.522 87.035,31.522 C86.705,31.522 86.3915,31.5843333 86.0945,31.709 C85.7975,31.8336667 85.5353333,32.017 85.308,32.259 C85.0806667,32.501 84.8991667,32.7961667 84.7635,33.1445 C84.6278333,33.4928333 84.56,33.8906667 84.56,34.338 C84.56,34.778 84.6278333,35.1721667 84.7635,35.5205 C84.8991667,35.8688333 85.0806667,36.1621667 85.308,36.4005 C85.5353333,36.6388333 85.7975,36.8203333 86.0945,36.945 C86.3915,37.0696667 86.705,37.132 87.035,37.132 Z M87.035,36.384 C86.8076667,36.384 86.5986667,36.3345 86.408,36.2355 C86.2173333,36.1365 86.0541667,35.9971667 85.9185,35.8175 C85.7828333,35.6378333 85.6783333,35.4233333 85.605,35.174 C85.5316667,34.9246667 85.495,34.646 85.495,34.338 C85.495,34.03 85.5316667,33.7495 85.605,33.4965 C85.6783333,33.2435 85.7828333,33.0253333 85.9185,32.842 C86.0541667,32.6586667 86.2173333,32.5175 86.408,32.4185 C86.5986667,32.3195 86.8076667,32.27 87.035,32.27 C87.2623333,32.27 87.4713333,32.3195 87.662,32.4185 C87.8526667,32.5175 88.0158333,32.6586667 88.1515,32.842 C88.2871667,33.0253333 88.3916667,33.2435 88.465,33.4965 C88.5383333,33.7495 88.575,34.03 88.575,34.338 C88.575,34.646 88.5383333,34.9246667 88.465,35.174 C88.3916667,35.4233333 88.2871667,35.6378333 88.1515,35.8175 C88.0158333,35.9971667 87.8526667,36.1365 87.662,36.2355 C87.4713333,36.3345 87.2623333,36.384 87.035,36.384 Z M91.82,37 L91.82,33.128 C92.0913333,32.8566667 92.3333333,32.6513333 92.546,32.512 C92.7586667,32.3726667 93.0043333,32.303 93.283,32.303 C93.635,32.303 93.8916667,32.4148333 94.053,32.6385 C94.2143333,32.8621667 94.295,33.227 94.295,33.733 L94.295,33.733 L94.295,37 L95.197,37 L95.197,33.612 C95.197,32.9226667 95.0668333,32.402 94.8065,32.05 C94.5461667,31.698 94.1336667,31.522 93.569,31.522 C93.195,31.522 92.8668333,31.6081667 92.5845,31.7805 C92.3021667,31.9528333 92.0326667,32.1673333 91.776,32.424 L91.776,32.424 L91.743,32.424 L91.666,31.654 L90.918,31.654 L90.918,37 L91.82,37 Z M100.191,37 L100.191,32.391 L101.324,32.391 L101.324,31.654 L100.191,31.654 L100.191,30.807 C100.191,30.1176667 100.440333,29.773 100.939,29.773 C101.144333,29.773 101.346,29.817 101.544,29.905 L101.544,29.905 L101.742,29.212 C101.617333,29.1606667 101.479833,29.1185 101.3295,29.0855 C101.179167,29.0525 101.019667,29.036 100.851,29.036 C100.315667,29.036 99.9215,29.1936667 99.6685,29.509 C99.4155,29.8243333 99.289,30.257 99.289,30.807 L99.289,30.807 L99.289,31.654 L98.563,31.709 L98.563,32.391 L99.289,32.391 L99.289,37 L100.191,37 Z M104.316,37.132 C104.646,37.132 104.9595,37.0696667 105.2565,36.945 C105.5535,36.8203333 105.815667,36.6388333 106.043,36.4005 C106.270333,36.1621667 106.451833,35.8688333 106.5875,35.5205 C106.723167,35.1721667 106.791,34.778 106.791,34.338 C106.791,33.8906667 106.723167,33.4928333 106.5875,33.1445 C106.451833,32.7961667 106.270333,32.501 106.043,32.259 C105.815667,32.017 105.5535,31.8336667 105.2565,31.709 C104.9595,31.5843333 104.646,31.522 104.316,31.522 C103.986,31.522 103.6725,31.5843333 103.3755,31.709 C103.0785,31.8336667 102.816333,32.017 102.589,32.259 C102.361667,32.501 102.180167,32.7961667 102.0445,33.1445 C101.908833,33.4928333 101.841,33.8906667 101.841,34.338 C101.841,34.778 101.908833,35.1721667 102.0445,35.5205 C102.180167,35.8688333 102.361667,36.1621667 102.589,36.4005 C102.816333,36.6388333 103.0785,36.8203333 103.3755,36.945 C103.6725,37.0696667 103.986,37.132 104.316,37.132 Z M104.316,36.384 C104.088667,36.384 103.879667,36.3345 103.689,36.2355 C103.498333,36.1365 103.335167,35.9971667 103.1995,35.8175 C103.063833,35.6378333 102.959333,35.4233333 102.886,35.174 C102.812667,34.9246667 102.776,34.646 102.776,34.338 C102.776,34.03 102.812667,33.7495 102.886,33.4965 C102.959333,33.2435 103.063833,33.0253333 103.1995,32.842 C103.335167,32.6586667 103.498333,32.5175 103.689,32.4185 C103.879667,32.3195 104.088667,32.27 104.316,32.27 C104.543333,32.27 104.752333,32.3195 104.943,32.4185 C105.133667,32.5175 105.296833,32.6586667 105.4325,32.842 C105.568167,33.0253333 105.672667,33.2435 105.746,33.4965 C105.819333,33.7495 105.856,34.03 105.856,34.338 C105.856,34.646 105.819333,34.9246667 105.746,35.174 C105.672667,35.4233333 105.568167,35.6378333 105.4325,35.8175 C105.296833,35.9971667 105.133667,36.1365 104.943,36.2355 C104.752333,36.3345 104.543333,36.384 104.316,36.384 Z M109.101,37 L109.101,33.568 C109.284333,33.1133333 109.498833,32.7943333 109.7445,32.611 C109.990167,32.4276667 110.226667,32.336 110.454,32.336 C110.564,32.336 110.655667,32.3433333 110.729,32.358 C110.802333,32.3726667 110.883,32.3946667 110.971,32.424 L110.971,32.424 L111.147,31.632 C110.978333,31.5586667 110.787667,31.522 110.575,31.522 C110.267,31.522 109.982833,31.621 109.7225,31.819 C109.462167,32.017 109.240333,32.2846667 109.057,32.622 L109.057,32.622 L109.024,32.622 L108.947,31.654 L108.199,31.654 L108.199,37 L109.101,37 Z M115.899,37.132 C116.067667,37.132 116.238167,37.1118333 116.4105,37.0715 C116.582833,37.0311667 116.742333,36.9853333 116.889,36.934 L116.889,36.934 L116.713,36.252 C116.625,36.2886667 116.526,36.3216667 116.416,36.351 C116.306,36.3803333 116.203333,36.395 116.108,36.395 C115.8,36.395 115.5855,36.3051667 115.4645,36.1255 C115.3435,35.9458333 115.283,35.691 115.283,35.361 L115.283,35.361 L115.283,32.391 L116.724,32.391 L116.724,31.654 L115.283,31.654 L115.283,30.158 L114.524,30.158 L114.414,31.654 L113.578,31.709 L113.578,32.391 L114.37,32.391 L114.37,35.35 C114.37,35.614 114.395667,35.856 114.447,36.076 C114.498333,36.296 114.5845,36.483 114.7055,36.637 C114.8265,36.791 114.984167,36.912 115.1785,37 C115.372833,37.088 115.613,37.132 115.899,37.132 Z M118.836,37 L118.836,33.128 C119.107333,32.8566667 119.349333,32.6513333 119.562,32.512 C119.774667,32.3726667 120.020333,32.303 120.299,32.303 C120.651,32.303 120.907667,32.4148333 121.069,32.6385 C121.230333,32.8621667 121.311,33.227 121.311,33.733 L121.311,33.733 L121.311,37 L122.213,37 L122.213,33.612 C122.213,32.9226667 122.082833,32.402 121.8225,32.05 C121.562167,31.698 121.149667,31.522 120.585,31.522 C120.211,31.522 119.884667,31.6081667 119.606,31.7805 C119.327333,31.9528333 119.059667,32.16 118.803,32.402 L118.803,32.402 L118.836,31.302 L118.836,29.168 L117.934,29.168 L117.934,37 L118.836,37 Z M126.085,37.132 C126.451667,37.132 126.778,37.077 127.064,36.967 C127.35,36.857 127.610333,36.7286667 127.845,36.582 L127.845,36.582 L127.526,35.988 C127.328,36.1126667 127.120833,36.2135 126.9045,36.2905 C126.688167,36.3675 126.451667,36.406 126.195,36.406 C125.681667,36.406 125.2655,36.2391667 124.9465,35.9055 C124.6275,35.5718333 124.449667,35.119 124.413,34.547 L124.413,34.547 L128.021,34.547 C128.035667,34.481 128.044833,34.4021667 128.0485,34.3105 C128.052167,34.2188333 128.054,34.1253333 128.054,34.03 C128.054,33.6486667 128.006333,33.304 127.911,32.996 C127.815667,32.688 127.678167,32.424 127.4985,32.204 C127.318833,31.984 127.095167,31.8153333 126.8275,31.698 C126.559833,31.5806667 126.257333,31.522 125.92,31.522 C125.612,31.522 125.315,31.5861667 125.029,31.7145 C124.743,31.8428333 124.488167,32.028 124.2645,32.27 C124.040833,32.512 123.861167,32.8071667 123.7255,33.1555 C123.589833,33.5038333 123.522,33.898 123.522,34.338 C123.522,34.778 123.588,35.1703333 123.72,35.515 C123.852,35.8596667 124.0335,36.1511667 124.2645,36.3895 C124.4955,36.6278333 124.766833,36.8111667 125.0785,36.9395 C125.390167,37.0678333 125.725667,37.132 126.085,37.132 Z M127.262,33.898 L124.402,33.898 C124.431333,33.634 124.491833,33.3993333 124.5835,33.194 C124.675167,32.9886667 124.790667,32.8145 124.93,32.6715 C125.069333,32.5285 125.225167,32.4203333 125.3975,32.347 C125.569833,32.2736667 125.751333,32.237 125.942,32.237 C126.36,32.237 126.6845,32.3781667 126.9155,32.6605 C127.1465,32.9428333 127.262,33.3553333 127.262,33.898 L127.262,33.898 Z M133.136,37.132 C133.51,37.132 133.8345,37.044 134.1095,36.868 C134.3845,36.692 134.646667,36.4573333 134.896,36.164 L134.896,36.164 L134.929,36.164 L135.006,37 L135.754,37 L135.754,31.654 L134.852,31.654 L134.852,35.449 C134.595333,35.7643333 134.360667,35.9935 134.148,36.1365 C133.935333,36.2795 133.689667,36.351 133.411,36.351 C133.059,36.351 132.804167,36.2391667 132.6465,36.0155 C132.488833,35.7918333 132.41,35.427 132.41,34.921 L132.41,34.921 L132.41,31.654 L131.497,31.654 L131.497,35.042 C131.497,35.7313333 131.627167,36.252 131.8875,36.604 C132.147833,36.956 132.564,37.132 133.136,37.132 Z M138.46,39.255 L138.46,37.451 L138.438,36.516 C138.687333,36.7066667 138.934833,36.857 139.1805,36.967 C139.426167,37.077 139.673667,37.132 139.923,37.132 C140.231,37.132 140.524333,37.0678333 140.803,36.9395 C141.081667,36.8111667 141.327333,36.6223333 141.54,36.373 C141.752667,36.1236667 141.921333,35.8211667 142.046,35.4655 C142.170667,35.1098333 142.233,34.7046667 142.233,34.25 C142.233,33.832 142.187167,33.4561667 142.0955,33.1225 C142.003833,32.7888333 141.87,32.5028333 141.694,32.2645 C141.518,32.0261667 141.298,31.8428333 141.034,31.7145 C140.77,31.5861667 140.465667,31.522 140.121,31.522 C139.805667,31.522 139.503167,31.5953333 139.2135,31.742 C138.923833,31.8886667 138.658,32.0646667 138.416,32.27 L138.416,32.27 L138.383,32.27 L138.306,31.654 L137.558,31.654 L137.558,39.255 L138.46,39.255 Z M139.769,36.373 C139.593,36.373 139.391333,36.3308333 139.164,36.2465 C138.936667,36.1621667 138.702,36.0173333 138.46,35.812 L138.46,35.812 L138.46,33.007 C138.724,32.7723333 138.9715,32.5926667 139.2025,32.468 C139.4335,32.3433333 139.662667,32.281 139.89,32.281 C140.139333,32.281 140.353833,32.3286667 140.5335,32.424 C140.713167,32.5193333 140.859833,32.6531667 140.9735,32.8255 C141.087167,32.9978333 141.169667,33.205 141.221,33.447 C141.272333,33.689 141.298,33.9566667 141.298,34.25 C141.298,34.58 141.2595,34.877 141.1825,35.141 C141.1055,35.405 140.999167,35.6268333 140.8635,35.8065 C140.727833,35.9861667 140.5665,36.1255 140.3795,36.2245 C140.1925,36.3235 139.989,36.373 139.769,36.373 Z M145.775,37.132 C146.097667,37.132 146.405667,37.0715 146.699,36.9505 C146.992333,36.8295 147.26,36.6626667 147.502,36.45 L147.502,36.45 L147.106,35.845 C146.937333,35.9916667 146.7485,36.1181667 146.5395,36.2245 C146.3305,36.3308333 146.101333,36.384 145.852,36.384 C145.61,36.384 145.386333,36.3345 145.181,36.2355 C144.975667,36.1365 144.8015,35.9971667 144.6585,35.8175 C144.5155,35.6378333 144.403667,35.4233333 144.323,35.174 C144.242333,34.9246667 144.202,34.646 144.202,34.338 C144.202,34.03 144.244167,33.7495 144.3285,33.4965 C144.412833,33.2435 144.528333,33.0253333 144.675,32.842 C144.821667,32.6586667 144.997667,32.5175 145.203,32.4185 C145.408333,32.3195 145.632,32.27 145.874,32.27 C146.086667,32.27 146.279167,32.314 146.4515,32.402 C146.623833,32.49 146.787,32.6036667 146.941,32.743 L146.941,32.743 L147.403,32.149 C147.212333,31.9803333 146.992333,31.8336667 146.743,31.709 C146.493667,31.5843333 146.193,31.522 145.841,31.522 C145.496333,31.522 145.168167,31.5843333 144.8565,31.709 C144.544833,31.8336667 144.271667,32.017 144.037,32.259 C143.802333,32.501 143.615333,32.7961667 143.476,33.1445 C143.336667,33.4928333 143.267,33.8906667 143.267,34.338 C143.267,34.778 143.331167,35.1721667 143.4595,35.5205 C143.587833,35.8688333 143.763833,36.1621667 143.9875,36.4005 C144.211167,36.6388333 144.477,36.8203333 144.785,36.945 C145.093,37.0696667 145.423,37.132 145.775,37.132 Z M150.527,37.132 C150.857,37.132 151.1705,37.0696667 151.4675,36.945 C151.7645,36.8203333 152.026667,36.6388333 152.254,36.4005 C152.481333,36.1621667 152.662833,35.8688333 152.7985,35.5205 C152.934167,35.1721667 153.002,34.778 153.002,34.338 C153.002,33.8906667 152.934167,33.4928333 152.7985,33.1445 C152.662833,32.7961667 152.481333,32.501 152.254,32.259 C152.026667,32.017 151.7645,31.8336667 151.4675,31.709 C151.1705,31.5843333 150.857,31.522 150.527,31.522 C150.197,31.522 149.8835,31.5843333 149.5865,31.709 C149.2895,31.8336667 149.027333,32.017 148.8,32.259 C148.572667,32.501 148.391167,32.7961667 148.2555,33.1445 C148.119833,33.4928333 148.052,33.8906667 148.052,34.338 C148.052,34.778 148.119833,35.1721667 148.2555,35.5205 C148.391167,35.8688333 148.572667,36.1621667 148.8,36.4005 C149.027333,36.6388333 149.2895,36.8203333 149.5865,36.945 C149.8835,37.0696667 150.197,37.132 150.527,37.132 Z M150.527,36.384 C150.299667,36.384 150.090667,36.3345 149.9,36.2355 C149.709333,36.1365 149.546167,35.9971667 149.4105,35.8175 C149.274833,35.6378333 149.170333,35.4233333 149.097,35.174 C149.023667,34.9246667 148.987,34.646 148.987,34.338 C148.987,34.03 149.023667,33.7495 149.097,33.4965 C149.170333,33.2435 149.274833,33.0253333 149.4105,32.842 C149.546167,32.6586667 149.709333,32.5175 149.9,32.4185 C150.090667,32.3195 150.299667,32.27 150.527,32.27 C150.754333,32.27 150.963333,32.3195 151.154,32.4185 C151.344667,32.5175 151.507833,32.6586667 151.6435,32.842 C151.779167,33.0253333 151.883667,33.2435 151.957,33.4965 C152.030333,33.7495 152.067,34.03 152.067,34.338 C152.067,34.646 152.030333,34.9246667 151.957,35.174 C151.883667,35.4233333 151.779167,35.6378333 151.6435,35.8175 C151.507833,35.9971667 151.344667,36.1365 151.154,36.2355 C150.963333,36.3345 150.754333,36.384 150.527,36.384 Z M155.312,37 L155.312,33.128 C155.803333,32.578 156.250667,32.303 156.654,32.303 C156.998667,32.303 157.251667,32.4148333 157.413,32.6385 C157.574333,32.8621667 157.655,33.227 157.655,33.733 L157.655,33.733 L157.655,37 L158.557,37 L158.557,33.128 C159.048333,32.578 159.495667,32.303 159.899,32.303 C160.236333,32.303 160.485667,32.4148333 160.647,32.6385 C160.808333,32.8621667 160.889,33.227 160.889,33.733 L160.889,33.733 L160.889,37 L161.791,37 L161.791,33.612 C161.791,32.9226667 161.657167,32.402 161.3895,32.05 C161.121833,31.698 160.713,31.522 160.163,31.522 C159.833,31.522 159.526833,31.6155 159.2445,31.8025 C158.962167,31.9895 158.681667,32.237 158.403,32.545 C158.293,32.2223333 158.1225,31.9711667 157.8915,31.7915 C157.6605,31.6118333 157.339667,31.522 156.929,31.522 C156.606333,31.522 156.3075,31.6081667 156.0325,31.7805 C155.7575,31.9528333 155.502667,32.1673333 155.268,32.424 L155.268,32.424 L155.235,32.424 L155.158,31.654 L154.41,31.654 L154.41,37 L155.312,37 Z M163.991,30.554 C164.167,30.554 164.3155,30.499 164.4365,30.389 C164.5575,30.279 164.618,30.1396667 164.618,29.971 C164.618,29.795 164.5575,29.6538333 164.4365,29.5475 C164.3155,29.4411667 164.167,29.388 163.991,29.388 C163.815,29.388 163.6665,29.4411667 163.5455,29.5475 C163.4245,29.6538333 163.364,29.795 163.364,29.971 C163.364,30.1396667 163.4245,30.279 163.5455,30.389 C163.6665,30.499 163.815,30.554 163.991,30.554 Z M164.431,37 L164.431,31.654 L163.529,31.654 L163.529,37 L164.431,37 Z M167.137,37 L167.137,33.128 C167.408333,32.8566667 167.650333,32.6513333 167.863,32.512 C168.075667,32.3726667 168.321333,32.303 168.6,32.303 C168.952,32.303 169.208667,32.4148333 169.37,32.6385 C169.531333,32.8621667 169.612,33.227 169.612,33.733 L169.612,33.733 L169.612,37 L170.514,37 L170.514,33.612 C170.514,32.9226667 170.383833,32.402 170.1235,32.05 C169.863167,31.698 169.450667,31.522 168.886,31.522 C168.512,31.522 168.183833,31.6081667 167.9015,31.7805 C167.619167,31.9528333 167.349667,32.1673333 167.093,32.424 L167.093,32.424 L167.06,32.424 L166.983,31.654 L166.235,31.654 L166.235,37 L167.137,37 Z M174.056,39.464 C174.474,39.464 174.849833,39.4145 175.1835,39.3155 C175.517167,39.2165 175.801333,39.0826667 176.036,38.914 C176.270667,38.7453333 176.450333,38.5491667 176.575,38.3255 C176.699667,38.1018333 176.762,37.8653333 176.762,37.616 C176.762,37.1686667 176.606167,36.8441667 176.2945,36.6425 C175.982833,36.4408333 175.515333,36.34 174.892,36.34 L174.892,36.34 L173.858,36.34 C173.491333,36.34 173.242,36.285 173.11,36.175 C172.978,36.065 172.912,35.9256667 172.912,35.757 C172.912,35.6103333 172.945,35.4875 173.011,35.3885 C173.077,35.2895 173.157667,35.1996667 173.253,35.119 C173.377667,35.1776667 173.509667,35.2235 173.649,35.2565 C173.788333,35.2895 173.924,35.306 174.056,35.306 C174.327333,35.306 174.582167,35.262 174.8205,35.174 C175.058833,35.086 175.266,34.9631667 175.442,34.8055 C175.618,34.6478333 175.757333,34.4535 175.86,34.2225 C175.962667,33.9915 176.014,33.733 176.014,33.447 C176.014,33.2196667 175.971833,33.0106667 175.8875,32.82 C175.803167,32.6293333 175.698667,32.4716667 175.574,32.347 L175.574,32.347 L176.674,32.347 L176.674,31.654 L174.815,31.654 C174.712333,31.6173333 174.596833,31.5861667 174.4685,31.5605 C174.340167,31.5348333 174.202667,31.522 174.056,31.522 C173.784667,31.522 173.526167,31.566 173.2805,31.654 C173.034833,31.742 172.820333,31.8685 172.637,32.0335 C172.453667,32.1985 172.308833,32.3983333 172.2025,32.633 C172.096167,32.8676667 172.043,33.1316667 172.043,33.425 C172.043,33.7476667 172.1145,34.0318333 172.2575,34.2775 C172.4005,34.5231667 172.56,34.7193333 172.736,34.866 L172.736,34.866 L172.736,34.91 C172.596667,35.0053333 172.464667,35.1373333 172.34,35.306 C172.215333,35.4746667 172.153,35.6726667 172.153,35.9 C172.153,36.1126667 172.198833,36.2905 172.2905,36.4335 C172.382167,36.5765 172.494,36.6883333 172.626,36.769 L172.626,36.769 L172.626,36.813 C172.384,36.9816667 172.193333,37.1686667 172.054,37.374 C171.914667,37.5793333 171.845,37.7956667 171.845,38.023 C171.845,38.2576667 171.898167,38.463 172.0045,38.639 C172.110833,38.815 172.261167,38.9653333 172.4555,39.09 C172.649833,39.2146667 172.882667,39.3081667 173.154,39.3705 C173.425333,39.4328333 173.726,39.464 174.056,39.464 Z M174.056,34.701 C173.902,34.701 173.757167,34.6716667 173.6215,34.613 C173.485833,34.5543333 173.364833,34.47 173.2585,34.36 C173.152167,34.25 173.069667,34.1161667 173.011,33.9585 C172.952333,33.8008333 172.923,33.623 172.923,33.425 C172.923,33.029 173.033,32.7228333 173.253,32.5065 C173.473,32.2901667 173.740667,32.182 174.056,32.182 C174.371333,32.182 174.639,32.2901667 174.859,32.5065 C175.079,32.7228333 175.189,33.029 175.189,33.425 C175.189,33.623 175.159667,33.8008333 175.101,33.9585 C175.042333,34.1161667 174.959833,34.25 174.8535,34.36 C174.747167,34.47 174.626167,34.5543333 174.4905,34.613 C174.354833,34.6716667 174.21,34.701 174.056,34.701 Z M174.188,38.837 C173.704,38.837 173.3245,38.7526667 173.0495,38.584 C172.7745,38.4153333 172.637,38.188 172.637,37.902 C172.637,37.748 172.681,37.594 172.769,37.44 C172.857,37.286 172.996333,37.1393333 173.187,37 C173.304333,37.0366667 173.4235,37.0605 173.5445,37.0715 C173.6655,37.0825 173.777333,37.088 173.88,37.088 L173.88,37.088 L174.804,37.088 C175.156,37.088 175.423667,37.1356667 175.607,37.231 C175.790333,37.3263333 175.882,37.4986667 175.882,37.748 C175.882,37.8873333 175.841667,38.023 175.761,38.155 C175.680333,38.287 175.566667,38.4025 175.42,38.5015 C175.273333,38.6005 175.0955,38.6811667 174.8865,38.7435 C174.6775,38.8058333 174.444667,38.837 174.188,38.837 Z M182.163,37.132 C182.529667,37.132 182.856,37.077 183.142,36.967 C183.428,36.857 183.688333,36.7286667 183.923,36.582 L183.923,36.582 L183.604,35.988 C183.406,36.1126667 183.198833,36.2135 182.9825,36.2905 C182.766167,36.3675 182.529667,36.406 182.273,36.406 C181.759667,36.406 181.3435,36.2391667 181.0245,35.9055 C180.7055,35.5718333 180.527667,35.119 180.491,34.547 L180.491,34.547 L184.099,34.547 C184.113667,34.481 184.122833,34.4021667 184.1265,34.3105 C184.130167,34.2188333 184.132,34.1253333 184.132,34.03 C184.132,33.6486667 184.084333,33.304 183.989,32.996 C183.893667,32.688 183.756167,32.424 183.5765,32.204 C183.396833,31.984 183.173167,31.8153333 182.9055,31.698 C182.637833,31.5806667 182.335333,31.522 181.998,31.522 C181.69,31.522 181.393,31.5861667 181.107,31.7145 C180.821,31.8428333 180.566167,32.028 180.3425,32.27 C180.118833,32.512 179.939167,32.8071667 179.8035,33.1555 C179.667833,33.5038333 179.6,33.898 179.6,34.338 C179.6,34.778 179.666,35.1703333 179.798,35.515 C179.93,35.8596667 180.1115,36.1511667 180.3425,36.3895 C180.5735,36.6278333 180.844833,36.8111667 181.1565,36.9395 C181.468167,37.0678333 181.803667,37.132 182.163,37.132 Z M183.34,33.898 L180.48,33.898 C180.509333,33.634 180.569833,33.3993333 180.6615,33.194 C180.753167,32.9886667 180.868667,32.8145 181.008,32.6715 C181.147333,32.5285 181.303167,32.4203333 181.4755,32.347 C181.647833,32.2736667 181.829333,32.237 182.02,32.237 C182.438,32.237 182.7625,32.3781667 182.9935,32.6605 C183.2245,32.9428333 183.34,33.3553333 183.34,33.898 L183.34,33.898 Z M187.718,37 L189.61,31.654 L188.719,31.654 L187.707,34.69 C187.626333,34.954 187.545667,35.218 187.465,35.482 C187.384333,35.746 187.303667,36.0063333 187.223,36.263 L187.223,36.263 L187.179,36.263 C187.098333,36.0063333 187.015833,35.746 186.9315,35.482 C186.847167,35.218 186.764667,34.954 186.684,34.69 L186.684,34.69 L185.672,31.654 L184.737,31.654 L186.662,37 L187.718,37 Z M192.767,37.132 C193.133667,37.132 193.46,37.077 193.746,36.967 C194.032,36.857 194.292333,36.7286667 194.527,36.582 L194.527,36.582 L194.208,35.988 C194.01,36.1126667 193.802833,36.2135 193.5865,36.2905 C193.370167,36.3675 193.133667,36.406 192.877,36.406 C192.363667,36.406 191.9475,36.2391667 191.6285,35.9055 C191.3095,35.5718333 191.131667,35.119 191.095,34.547 L191.095,34.547 L194.703,34.547 C194.717667,34.481 194.726833,34.4021667 194.7305,34.3105 C194.734167,34.2188333 194.736,34.1253333 194.736,34.03 C194.736,33.6486667 194.688333,33.304 194.593,32.996 C194.497667,32.688 194.360167,32.424 194.1805,32.204 C194.000833,31.984 193.777167,31.8153333 193.5095,31.698 C193.241833,31.5806667 192.939333,31.522 192.602,31.522 C192.294,31.522 191.997,31.5861667 191.711,31.7145 C191.425,31.8428333 191.170167,32.028 190.9465,32.27 C190.722833,32.512 190.543167,32.8071667 190.4075,33.1555 C190.271833,33.5038333 190.204,33.898 190.204,34.338 C190.204,34.778 190.27,35.1703333 190.402,35.515 C190.534,35.8596667 190.7155,36.1511667 190.9465,36.3895 C191.1775,36.6278333 191.448833,36.8111667 191.7605,36.9395 C192.072167,37.0678333 192.407667,37.132 192.767,37.132 Z M193.944,33.898 L191.084,33.898 C191.113333,33.634 191.173833,33.3993333 191.2655,33.194 C191.357167,32.9886667 191.472667,32.8145 191.612,32.6715 C191.751333,32.5285 191.907167,32.4203333 192.0795,32.347 C192.251833,32.2736667 192.433333,32.237 192.624,32.237 C193.042,32.237 193.3665,32.3781667 193.5975,32.6605 C193.8285,32.9428333 193.944,33.3553333 193.944,33.898 L193.944,33.898 Z M196.958,37 L196.958,33.128 C197.229333,32.8566667 197.471333,32.6513333 197.684,32.512 C197.896667,32.3726667 198.142333,32.303 198.421,32.303 C198.773,32.303 199.029667,32.4148333 199.191,32.6385 C199.352333,32.8621667 199.433,33.227 199.433,33.733 L199.433,33.733 L199.433,37 L200.335,37 L200.335,33.612 C200.335,32.9226667 200.204833,32.402 199.9445,32.05 C199.684167,31.698 199.271667,31.522 198.707,31.522 C198.333,31.522 198.004833,31.6081667 197.7225,31.7805 C197.440167,31.9528333 197.170667,32.1673333 196.914,32.424 L196.914,32.424 L196.881,32.424 L196.804,31.654 L196.056,31.654 L196.056,37 L196.958,37 Z M203.756,37.132 C203.924667,37.132 204.095167,37.1118333 204.2675,37.0715 C204.439833,37.0311667 204.599333,36.9853333 204.746,36.934 L204.746,36.934 L204.57,36.252 C204.482,36.2886667 204.383,36.3216667 204.273,36.351 C204.163,36.3803333 204.060333,36.395 203.965,36.395 C203.657,36.395 203.4425,36.3051667 203.3215,36.1255 C203.2005,35.9458333 203.14,35.691 203.14,35.361 L203.14,35.361 L203.14,32.391 L204.581,32.391 L204.581,31.654 L203.14,31.654 L203.14,30.158 L202.381,30.158 L202.271,31.654 L201.435,31.709 L201.435,32.391 L202.227,32.391 L202.227,35.35 C202.227,35.614 202.252667,35.856 202.304,36.076 C202.355333,36.296 202.4415,36.483 202.5625,36.637 C202.6835,36.791 202.841167,36.912 203.0355,37 C203.229833,37.088 203.47,37.132 203.756,37.132 Z" id="Invitationfortheupcomingevent" fill="#6B6B6B" fill-rule="nonzero"></path>
            <path d="M54.805,52 L55.553,49.14 C55.6263333,48.8833333 55.6923333,48.6285 55.751,48.3755 C55.8096667,48.1225 55.8683333,47.8603333 55.927,47.589 L55.927,47.589 L55.971,47.589 C56.037,47.8603333 56.0975,48.1206667 56.1525,48.37 C56.2075,48.6193333 56.268,48.8723333 56.334,49.129 L56.334,49.129 L57.104,52 L58.204,52 L59.634,46.654 L58.776,46.654 L57.995,49.745 C57.9363333,50.0016667 57.8813333,50.251 57.83,50.493 C57.7786667,50.735 57.7236667,50.9806667 57.665,51.23 L57.665,51.23 L57.621,51.23 C57.5623333,50.9806667 57.5018333,50.735 57.4395,50.493 C57.3771667,50.251 57.313,50.0016667 57.247,49.745 L57.247,49.745 L56.411,46.654 L55.531,46.654 L54.706,49.745 C54.64,49.9943333 54.5776667,50.2418333 54.519,50.4875 C54.4603333,50.7331667 54.4016667,50.9806667 54.343,51.23 L54.343,51.23 L54.299,51.23 C54.2476667,50.9806667 54.1963333,50.735 54.145,50.493 C54.0936667,50.251 54.0386667,50.0016667 53.98,49.745 L53.98,49.745 L53.188,46.654 L52.264,46.654 L53.749,52 L54.805,52 Z M62.923,52.132 C63.2896667,52.132 63.616,52.077 63.902,51.967 C64.188,51.857 64.4483333,51.7286667 64.683,51.582 L64.683,51.582 L64.364,50.988 C64.166,51.1126667 63.9588333,51.2135 63.7425,51.2905 C63.5261667,51.3675 63.2896667,51.406 63.033,51.406 C62.5196667,51.406 62.1035,51.2391667 61.7845,50.9055 C61.4655,50.5718333 61.2876667,50.119 61.251,49.547 L61.251,49.547 L64.859,49.547 C64.8736667,49.481 64.8828333,49.4021667 64.8865,49.3105 C64.8901667,49.2188333 64.892,49.1253333 64.892,49.03 C64.892,48.6486667 64.8443333,48.304 64.749,47.996 C64.6536667,47.688 64.5161667,47.424 64.3365,47.204 C64.1568333,46.984 63.9331667,46.8153333 63.6655,46.698 C63.3978333,46.5806667 63.0953333,46.522 62.758,46.522 C62.45,46.522 62.153,46.5861667 61.867,46.7145 C61.581,46.8428333 61.3261667,47.028 61.1025,47.27 C60.8788333,47.512 60.6991667,47.8071667 60.5635,48.1555 C60.4278333,48.5038333 60.36,48.898 60.36,49.338 C60.36,49.778 60.426,50.1703333 60.558,50.515 C60.69,50.8596667 60.8715,51.1511667 61.1025,51.3895 C61.3335,51.6278333 61.6048333,51.8111667 61.9165,51.9395 C62.2281667,52.0678333 62.5636667,52.132 62.923,52.132 Z M64.1,48.898 L61.24,48.898 C61.2693333,48.634 61.3298333,48.3993333 61.4215,48.194 C61.5131667,47.9886667 61.6286667,47.8145 61.768,47.6715 C61.9073333,47.5285 62.0631667,47.4203333 62.2355,47.347 C62.4078333,47.2736667 62.5893333,47.237 62.78,47.237 C63.198,47.237 63.5225,47.3781667 63.7535,47.6605 C63.9845,47.9428333 64.1,48.3553333 64.1,48.898 L64.1,48.898 Z M68.577,52.132 C68.885,52.132 69.1783333,52.0678333 69.457,51.9395 C69.7356667,51.8111667 69.9813333,51.6223333 70.194,51.373 C70.4066667,51.1236667 70.5753333,50.8193333 70.7,50.46 C70.8246667,50.1006667 70.887,49.6936667 70.887,49.239 C70.887,48.8283333 70.8411667,48.4561667 70.7495,48.1225 C70.6578333,47.7888333 70.5221667,47.5028333 70.3425,47.2645 C70.1628333,47.0261667 69.941,46.8428333 69.677,46.7145 C69.413,46.5861667 69.1086667,46.522 68.764,46.522 C68.4633333,46.522 68.17,46.5935 67.884,46.7365 C67.598,46.8795 67.334,47.0573333 67.092,47.27 L67.092,47.27 L67.114,46.302 L67.114,44.168 L66.212,44.168 L66.212,52 L66.938,52 L67.015,51.45 L67.048,51.45 C67.2826667,51.6626667 67.5338333,51.8295 67.8015,51.9505 C68.0691667,52.0715 68.3276667,52.132 68.577,52.132 Z M68.423,51.373 C68.247,51.373 68.0435,51.3308333 67.8125,51.2465 C67.5815,51.1621667 67.3486667,51.0173333 67.114,50.812 L67.114,50.812 L67.114,48.007 C67.6346667,47.523 68.1113333,47.281 68.544,47.281 C68.7933333,47.281 69.0078333,47.3286667 69.1875,47.424 C69.3671667,47.5193333 69.5138333,47.6531667 69.6275,47.8255 C69.7411667,47.9978333 69.8236667,48.205 69.875,48.447 C69.9263333,48.689 69.952,48.9566667 69.952,49.25 C69.952,49.58 69.9135,49.877 69.8365,50.141 C69.7595,50.405 69.6531667,50.6268333 69.5175,50.8065 C69.3818333,50.9861667 69.2205,51.1255 69.0335,51.2245 C68.8465,51.3235 68.643,51.373 68.423,51.373 Z M73.197,52 L73.197,48.128 C73.6883333,47.578 74.1356667,47.303 74.539,47.303 C74.8836667,47.303 75.1366667,47.4148333 75.298,47.6385 C75.4593333,47.8621667 75.54,48.227 75.54,48.733 L75.54,48.733 L75.54,52 L76.442,52 L76.442,48.128 C76.9333333,47.578 77.3806667,47.303 77.784,47.303 C78.1213333,47.303 78.3706667,47.4148333 78.532,47.6385 C78.6933333,47.8621667 78.774,48.227 78.774,48.733 L78.774,48.733 L78.774,52 L79.676,52 L79.676,48.612 C79.676,47.9226667 79.5421667,47.402 79.2745,47.05 C79.0068333,46.698 78.598,46.522 78.048,46.522 C77.718,46.522 77.4118333,46.6155 77.1295,46.8025 C76.8471667,46.9895 76.5666667,47.237 76.288,47.545 C76.178,47.2223333 76.0075,46.9711667 75.7765,46.7915 C75.5455,46.6118333 75.2246667,46.522 74.814,46.522 C74.4913333,46.522 74.1925,46.6081667 73.9175,46.7805 C73.6425,46.9528333 73.3876667,47.1673333 73.153,47.424 L73.153,47.424 L73.12,47.424 L73.043,46.654 L72.295,46.654 L72.295,52 L73.197,52 Z M82.646,52.132 C82.9833333,52.132 83.2986667,52.0568333 83.592,51.9065 C83.8853333,51.7561667 84.1603333,51.5746667 84.417,51.362 L84.417,51.362 L84.45,51.362 L84.527,52 L85.275,52 L85.275,48.722 C85.275,48.0546667 85.1283333,47.5211667 84.835,47.1215 C84.5416667,46.7218333 84.0686667,46.522 83.416,46.522 C82.9833333,46.522 82.5873333,46.5971667 82.228,46.7475 C81.8686667,46.8978333 81.5643333,47.0536667 81.315,47.215 L81.315,47.215 L81.667,47.842 C81.8796667,47.6953333 82.1216667,47.5633333 82.393,47.446 C82.6643333,47.3286667 82.954,47.27 83.262,47.27 C83.482,47.27 83.6635,47.3085 83.8065,47.3855 C83.9495,47.4625 84.0613333,47.5633333 84.142,47.688 C84.2226667,47.8126667 84.2795,47.9556667 84.3125,48.117 C84.3455,48.2783333 84.362,48.4433333 84.362,48.612 C83.218,48.7366667 82.3856667,48.9548333 81.865,49.2665 C81.3443333,49.5781667 81.084,50.0273333 81.084,50.614 C81.084,51.098 81.2325,51.472 81.5295,51.736 C81.8265,52 82.1986667,52.132 82.646,52.132 Z M82.91,51.406 C82.646,51.406 82.4223333,51.34 82.239,51.208 C82.0556667,51.076 81.964,50.856 81.964,50.548 C81.964,50.3793333 82.0061667,50.2235 82.0905,50.0805 C82.1748333,49.9375 82.3105,49.811 82.4975,49.701 C82.6845,49.591 82.9301667,49.4956667 83.2345,49.415 C83.5388333,49.3343333 83.9146667,49.2646667 84.362,49.206 L84.362,49.206 L84.362,50.691 C84.1053333,50.9256667 83.8633333,51.1035 83.636,51.2245 C83.4086667,51.3455 83.1666667,51.406 82.91,51.406 Z M87.42,45.554 C87.596,45.554 87.7445,45.499 87.8655,45.389 C87.9865,45.279 88.047,45.1396667 88.047,44.971 C88.047,44.795 87.9865,44.6538333 87.8655,44.5475 C87.7445,44.4411667 87.596,44.388 87.42,44.388 C87.244,44.388 87.0955,44.4411667 86.9745,44.5475 C86.8535,44.6538333 86.793,44.795 86.793,44.971 C86.793,45.1396667 86.8535,45.279 86.9745,45.389 C87.0955,45.499 87.244,45.554 87.42,45.554 Z M87.86,52 L87.86,46.654 L86.958,46.654 L86.958,52 L87.86,52 Z M90.621,52.132 C90.7456667,52.132 90.8483333,52.1246667 90.929,52.11 C91.0096667,52.0953333 91.0793333,52.0733333 91.138,52.044 L91.138,52.044 L91.017,51.362 C90.9656667,51.3766667 90.9271667,51.384 90.9015,51.384 L90.9015,51.384 L90.819,51.384 C90.753,51.384 90.6943333,51.3546667 90.643,51.296 C90.5916667,51.2373333 90.566,51.1346667 90.566,50.988 L90.566,50.988 L90.566,44.168 L89.664,44.168 L89.664,50.922 C89.664,51.318 89.7373333,51.6186667 89.884,51.824 C90.0306667,52.0293333 90.2763333,52.132 90.621,52.132 Z M92.942,52.132 C93.118,52.132 93.2701667,52.0678333 93.3985,51.9395 C93.5268333,51.8111667 93.591,51.648 93.591,51.45 C93.591,51.2373333 93.5268333,51.0668333 93.3985,50.9385 C93.2701667,50.8101667 93.118,50.746 92.942,50.746 C92.7586667,50.746 92.6028333,50.8101667 92.4745,50.9385 C92.3461667,51.0668333 92.282,51.2373333 92.282,51.45 C92.282,51.648 92.3461667,51.8111667 92.4745,51.9395 C92.6028333,52.0678333 92.7586667,52.132 92.942,52.132 Z M97.254,52.132 C97.6206667,52.132 97.947,52.077 98.233,51.967 C98.519,51.857 98.7793333,51.7286667 99.014,51.582 L99.014,51.582 L98.695,50.988 C98.497,51.1126667 98.2898333,51.2135 98.0735,51.2905 C97.8571667,51.3675 97.6206667,51.406 97.364,51.406 C96.8506667,51.406 96.4345,51.2391667 96.1155,50.9055 C95.7965,50.5718333 95.6186667,50.119 95.582,49.547 L95.582,49.547 L99.19,49.547 C99.2046667,49.481 99.2138333,49.4021667 99.2175,49.3105 C99.2211667,49.2188333 99.223,49.1253333 99.223,49.03 C99.223,48.6486667 99.1753333,48.304 99.08,47.996 C98.9846667,47.688 98.8471667,47.424 98.6675,47.204 C98.4878333,46.984 98.2641667,46.8153333 97.9965,46.698 C97.7288333,46.5806667 97.4263333,46.522 97.089,46.522 C96.781,46.522 96.484,46.5861667 96.198,46.7145 C95.912,46.8428333 95.6571667,47.028 95.4335,47.27 C95.2098333,47.512 95.0301667,47.8071667 94.8945,48.1555 C94.7588333,48.5038333 94.691,48.898 94.691,49.338 C94.691,49.778 94.757,50.1703333 94.889,50.515 C95.021,50.8596667 95.2025,51.1511667 95.4335,51.3895 C95.6645,51.6278333 95.9358333,51.8111667 96.2475,51.9395 C96.5591667,52.0678333 96.8946667,52.132 97.254,52.132 Z M98.431,48.898 L95.571,48.898 C95.6003333,48.634 95.6608333,48.3993333 95.7525,48.194 C95.8441667,47.9886667 95.9596667,47.8145 96.099,47.6715 C96.2383333,47.5285 96.3941667,47.4203333 96.5665,47.347 C96.7388333,47.2736667 96.9203333,47.237 97.111,47.237 C97.529,47.237 97.8535,47.3781667 98.0845,47.6605 C98.3155,47.9428333 98.431,48.3553333 98.431,48.898 L98.431,48.898 Z M101.445,52 L101.445,48.128 C101.936333,47.578 102.383667,47.303 102.787,47.303 C103.131667,47.303 103.384667,47.4148333 103.546,47.6385 C103.707333,47.8621667 103.788,48.227 103.788,48.733 L103.788,48.733 L103.788,52 L104.69,52 L104.69,48.128 C105.181333,47.578 105.628667,47.303 106.032,47.303 C106.369333,47.303 106.618667,47.4148333 106.78,47.6385 C106.941333,47.8621667 107.022,48.227 107.022,48.733 L107.022,48.733 L107.022,52 L107.924,52 L107.924,48.612 C107.924,47.9226667 107.790167,47.402 107.5225,47.05 C107.254833,46.698 106.846,46.522 106.296,46.522 C105.966,46.522 105.659833,46.6155 105.3775,46.8025 C105.095167,46.9895 104.814667,47.237 104.536,47.545 C104.426,47.2223333 104.2555,46.9711667 104.0245,46.7915 C103.7935,46.6118333 103.472667,46.522 103.062,46.522 C102.739333,46.522 102.4405,46.6081667 102.1655,46.7805 C101.8905,46.9528333 101.635667,47.1673333 101.401,47.424 L101.401,47.424 L101.368,47.424 L101.291,46.654 L100.543,46.654 L100.543,52 L101.445,52 Z M110.894,52.132 C111.231333,52.132 111.546667,52.0568333 111.84,51.9065 C112.133333,51.7561667 112.408333,51.5746667 112.665,51.362 L112.665,51.362 L112.698,51.362 L112.775,52 L113.523,52 L113.523,48.722 C113.523,48.0546667 113.376333,47.5211667 113.083,47.1215 C112.789667,46.7218333 112.316667,46.522 111.664,46.522 C111.231333,46.522 110.835333,46.5971667 110.476,46.7475 C110.116667,46.8978333 109.812333,47.0536667 109.563,47.215 L109.563,47.215 L109.915,47.842 C110.127667,47.6953333 110.369667,47.5633333 110.641,47.446 C110.912333,47.3286667 111.202,47.27 111.51,47.27 C111.73,47.27 111.9115,47.3085 112.0545,47.3855 C112.1975,47.4625 112.309333,47.5633333 112.39,47.688 C112.470667,47.8126667 112.5275,47.9556667 112.5605,48.117 C112.5935,48.2783333 112.61,48.4433333 112.61,48.612 C111.466,48.7366667 110.633667,48.9548333 110.113,49.2665 C109.592333,49.5781667 109.332,50.0273333 109.332,50.614 C109.332,51.098 109.4805,51.472 109.7775,51.736 C110.0745,52 110.446667,52.132 110.894,52.132 Z M111.158,51.406 C110.894,51.406 110.670333,51.34 110.487,51.208 C110.303667,51.076 110.212,50.856 110.212,50.548 C110.212,50.3793333 110.254167,50.2235 110.3385,50.0805 C110.422833,49.9375 110.5585,49.811 110.7455,49.701 C110.9325,49.591 111.178167,49.4956667 111.4825,49.415 C111.786833,49.3343333 112.162667,49.2646667 112.61,49.206 L112.61,49.206 L112.61,50.691 C112.353333,50.9256667 112.111333,51.1035 111.884,51.2245 C111.656667,51.3455 111.414667,51.406 111.158,51.406 Z M115.668,45.554 C115.844,45.554 115.9925,45.499 116.1135,45.389 C116.2345,45.279 116.295,45.1396667 116.295,44.971 C116.295,44.795 116.2345,44.6538333 116.1135,44.5475 C115.9925,44.4411667 115.844,44.388 115.668,44.388 C115.492,44.388 115.3435,44.4411667 115.2225,44.5475 C115.1015,44.6538333 115.041,44.795 115.041,44.971 C115.041,45.1396667 115.1015,45.279 115.2225,45.389 C115.3435,45.499 115.492,45.554 115.668,45.554 Z M116.108,52 L116.108,46.654 L115.206,46.654 L115.206,52 L116.108,52 Z M118.869,52.132 C118.993667,52.132 119.096333,52.1246667 119.177,52.11 C119.257667,52.0953333 119.327333,52.0733333 119.386,52.044 L119.386,52.044 L119.265,51.362 C119.213667,51.3766667 119.175167,51.384 119.1495,51.384 L119.1495,51.384 L119.067,51.384 C119.001,51.384 118.942333,51.3546667 118.891,51.296 C118.839667,51.2373333 118.814,51.1346667 118.814,50.988 L118.814,50.988 L118.814,44.168 L117.912,44.168 L117.912,50.922 C117.912,51.318 117.985333,51.6186667 118.132,51.824 C118.278667,52.0293333 118.524333,52.132 118.869,52.132 Z M121.619,54.255 L121.619,52.451 L121.597,51.516 C121.846333,51.7066667 122.093833,51.857 122.3395,51.967 C122.585167,52.077 122.832667,52.132 123.082,52.132 C123.39,52.132 123.683333,52.0678333 123.962,51.9395 C124.240667,51.8111667 124.486333,51.6223333 124.699,51.373 C124.911667,51.1236667 125.080333,50.8211667 125.205,50.4655 C125.329667,50.1098333 125.392,49.7046667 125.392,49.25 C125.392,48.832 125.346167,48.4561667 125.2545,48.1225 C125.162833,47.7888333 125.029,47.5028333 124.853,47.2645 C124.677,47.0261667 124.457,46.8428333 124.193,46.7145 C123.929,46.5861667 123.624667,46.522 123.28,46.522 C122.964667,46.522 122.662167,46.5953333 122.3725,46.742 C122.082833,46.8886667 121.817,47.0646667 121.575,47.27 L121.575,47.27 L121.542,47.27 L121.465,46.654 L120.717,46.654 L120.717,54.255 L121.619,54.255 Z M122.928,51.373 C122.752,51.373 122.550333,51.3308333 122.323,51.2465 C122.095667,51.1621667 121.861,51.0173333 121.619,50.812 L121.619,50.812 L121.619,48.007 C121.883,47.7723333 122.1305,47.5926667 122.3615,47.468 C122.5925,47.3433333 122.821667,47.281 123.049,47.281 C123.298333,47.281 123.512833,47.3286667 123.6925,47.424 C123.872167,47.5193333 124.018833,47.6531667 124.1325,47.8255 C124.246167,47.9978333 124.328667,48.205 124.38,48.447 C124.431333,48.689 124.457,48.9566667 124.457,49.25 C124.457,49.58 124.4185,49.877 124.3415,50.141 C124.2645,50.405 124.158167,50.6268333 124.0225,50.8065 C123.886833,50.9861667 123.7255,51.1255 123.5385,51.2245 C123.3515,51.3235 123.148,51.373 122.928,51.373 Z M127.724,52 L127.724,48.128 C127.995333,47.8566667 128.237333,47.6513333 128.45,47.512 C128.662667,47.3726667 128.908333,47.303 129.187,47.303 C129.539,47.303 129.795667,47.4148333 129.957,47.6385 C130.118333,47.8621667 130.199,48.227 130.199,48.733 L130.199,48.733 L130.199,52 L131.101,52 L131.101,48.612 C131.101,47.9226667 130.970833,47.402 130.7105,47.05 C130.450167,46.698 130.037667,46.522 129.473,46.522 C129.099,46.522 128.770833,46.6081667 128.4885,46.7805 C128.206167,46.9528333 127.936667,47.1673333 127.68,47.424 L127.68,47.424 L127.647,47.424 L127.57,46.654 L126.822,46.654 L126.822,52 L127.724,52 Z M133.796,52.132 C133.920667,52.132 134.023333,52.1246667 134.104,52.11 C134.184667,52.0953333 134.254333,52.0733333 134.313,52.044 L134.313,52.044 L134.192,51.362 C134.140667,51.3766667 134.102167,51.384 134.0765,51.384 L134.0765,51.384 L133.994,51.384 C133.928,51.384 133.869333,51.3546667 133.818,51.296 C133.766667,51.2373333 133.741,51.1346667 133.741,50.988 L133.741,50.988 L133.741,44.168 L132.839,44.168 L132.839,50.922 C132.839,51.318 132.912333,51.6186667 133.059,51.824 C133.205667,52.0293333 133.451333,52.132 133.796,52.132 Z M136.117,52.132 C136.293,52.132 136.445167,52.0678333 136.5735,51.9395 C136.701833,51.8111667 136.766,51.648 136.766,51.45 C136.766,51.2373333 136.701833,51.0668333 136.5735,50.9385 C136.445167,50.8101667 136.293,50.746 136.117,50.746 C135.933667,50.746 135.777833,50.8101667 135.6495,50.9385 C135.521167,51.0668333 135.457,51.2373333 135.457,51.45 C135.457,51.648 135.521167,51.8111667 135.6495,51.9395 C135.777833,52.0678333 135.933667,52.132 136.117,52.132 Z M140.374,52.132 C140.696667,52.132 141.004667,52.0715 141.298,51.9505 C141.591333,51.8295 141.859,51.6626667 142.101,51.45 L142.101,51.45 L141.705,50.845 C141.536333,50.9916667 141.3475,51.1181667 141.1385,51.2245 C140.9295,51.3308333 140.700333,51.384 140.451,51.384 C140.209,51.384 139.985333,51.3345 139.78,51.2355 C139.574667,51.1365 139.4005,50.9971667 139.2575,50.8175 C139.1145,50.6378333 139.002667,50.4233333 138.922,50.174 C138.841333,49.9246667 138.801,49.646 138.801,49.338 C138.801,49.03 138.843167,48.7495 138.9275,48.4965 C139.011833,48.2435 139.127333,48.0253333 139.274,47.842 C139.420667,47.6586667 139.596667,47.5175 139.802,47.4185 C140.007333,47.3195 140.231,47.27 140.473,47.27 C140.685667,47.27 140.878167,47.314 141.0505,47.402 C141.222833,47.49 141.386,47.6036667 141.54,47.743 L141.54,47.743 L142.002,47.149 C141.811333,46.9803333 141.591333,46.8336667 141.342,46.709 C141.092667,46.5843333 140.792,46.522 140.44,46.522 C140.095333,46.522 139.767167,46.5843333 139.4555,46.709 C139.143833,46.8336667 138.870667,47.017 138.636,47.259 C138.401333,47.501 138.214333,47.7961667 138.075,48.1445 C137.935667,48.4928333 137.866,48.8906667 137.866,49.338 C137.866,49.778 137.930167,50.1721667 138.0585,50.5205 C138.186833,50.8688333 138.362833,51.1621667 138.5865,51.4005 C138.810167,51.6388333 139.076,51.8203333 139.384,51.945 C139.692,52.0696667 140.022,52.132 140.374,52.132 Z M145.126,52.132 C145.456,52.132 145.7695,52.0696667 146.0665,51.945 C146.3635,51.8203333 146.625667,51.6388333 146.853,51.4005 C147.080333,51.1621667 147.261833,50.8688333 147.3975,50.5205 C147.533167,50.1721667 147.601,49.778 147.601,49.338 C147.601,48.8906667 147.533167,48.4928333 147.3975,48.1445 C147.261833,47.7961667 147.080333,47.501 146.853,47.259 C146.625667,47.017 146.3635,46.8336667 146.0665,46.709 C145.7695,46.5843333 145.456,46.522 145.126,46.522 C144.796,46.522 144.4825,46.5843333 144.1855,46.709 C143.8885,46.8336667 143.626333,47.017 143.399,47.259 C143.171667,47.501 142.990167,47.7961667 142.8545,48.1445 C142.718833,48.4928333 142.651,48.8906667 142.651,49.338 C142.651,49.778 142.718833,50.1721667 142.8545,50.5205 C142.990167,50.8688333 143.171667,51.1621667 143.399,51.4005 C143.626333,51.6388333 143.8885,51.8203333 144.1855,51.945 C144.4825,52.0696667 144.796,52.132 145.126,52.132 Z M145.126,51.384 C144.898667,51.384 144.689667,51.3345 144.499,51.2355 C144.308333,51.1365 144.145167,50.9971667 144.0095,50.8175 C143.873833,50.6378333 143.769333,50.4233333 143.696,50.174 C143.622667,49.9246667 143.586,49.646 143.586,49.338 C143.586,49.03 143.622667,48.7495 143.696,48.4965 C143.769333,48.2435 143.873833,48.0253333 144.0095,47.842 C144.145167,47.6586667 144.308333,47.5175 144.499,47.4185 C144.689667,47.3195 144.898667,47.27 145.126,47.27 C145.353333,47.27 145.562333,47.3195 145.753,47.4185 C145.943667,47.5175 146.106833,47.6586667 146.2425,47.842 C146.378167,48.0253333 146.482667,48.2435 146.556,48.4965 C146.629333,48.7495 146.666,49.03 146.666,49.338 C146.666,49.646 146.629333,49.9246667 146.556,50.174 C146.482667,50.4233333 146.378167,50.6378333 146.2425,50.8175 C146.106833,50.9971667 145.943667,51.1365 145.753,51.2355 C145.562333,51.3345 145.353333,51.384 145.126,51.384 Z M149.911,52 L149.911,48.128 C150.402333,47.578 150.849667,47.303 151.253,47.303 C151.597667,47.303 151.850667,47.4148333 152.012,47.6385 C152.173333,47.8621667 152.254,48.227 152.254,48.733 L152.254,48.733 L152.254,52 L153.156,52 L153.156,48.128 C153.647333,47.578 154.094667,47.303 154.498,47.303 C154.835333,47.303 155.084667,47.4148333 155.246,47.6385 C155.407333,47.8621667 155.488,48.227 155.488,48.733 L155.488,48.733 L155.488,52 L156.39,52 L156.39,48.612 C156.39,47.9226667 156.256167,47.402 155.9885,47.05 C155.720833,46.698 155.312,46.522 154.762,46.522 C154.432,46.522 154.125833,46.6155 153.8435,46.8025 C153.561167,46.9895 153.280667,47.237 153.002,47.545 C152.892,47.2223333 152.7215,46.9711667 152.4905,46.7915 C152.2595,46.6118333 151.938667,46.522 151.528,46.522 C151.205333,46.522 150.9065,46.6081667 150.6315,46.7805 C150.3565,46.9528333 150.101667,47.1673333 149.867,47.424 L149.867,47.424 L149.834,47.424 L149.757,46.654 L149.009,46.654 L149.009,52 L149.911,52 Z" id="webmail.emailpnl.com" fill="#6B6B6B" fill-rule="nonzero"></path>
            <g id="Clipped" transform="translate(305, 18)">
                <mask id="mask-4" fill="white">
                    <use xlink:href="#path-3"></use>
                </mask>
                <g id="path-1"></g>
                <path d="M28.9992161,-1.66533454e-15 C29.5521491,-1.66533454e-15 30,0.451408131 30,1.00760744 L29.998125,5.679375 L5.60454022,14.5604313 L11.22375,30 L1.00078395,30 C0.447850817,30 -6.66133815e-15,29.5485919 -6.66133815e-15,28.9923926 L-6.66133815e-15,1.00760744 C-6.66133815e-15,0.451408131 0.447850817,-1.66533454e-15 1.00078395,-1.66533454e-15 L28.9992161,-1.66533454e-15 Z M29.998125,7.8225 L29.998125,8.263125 L23.4330058,21.4313064 L11.4341067,16.1726032 L10.6349807,18.0205552 L24.3717412,24.0410096 L29.998125,12.755625 L30,28.9923926 C30,29.5485919 29.5521491,30 28.9992161,30 L13.355625,30 L8.17555418,15.767545 L29.998125,7.8225 Z" id="Shape" fill="var(--accent-icon)" fill-rule="nonzero" mask="url(#mask-4)"></path>
            </g>
            <g id="logo" transform="translate(11, 17)" fill-rule="nonzero">
                <path d="M28.91,10.4 C28.26,8.83 26.93,7.13 25.9,6.6 C26.64,8.03 27.15,9.57 27.42,11.16 L27.42,11.19 C25.72,6.96 22.85,5.25 20.49,1.53 C20.37,1.34 20.25,1.15 20.14,0.95 C20.07,0.84 20.02,0.73 19.97,0.64 C19.87,0.45 19.8,0.25 19.75,0.05 C19.75,0.03 19.75,0.01 19.72,0.01 L19.68,0.01 C15.91,2.21 14.63,6.3 14.51,8.34 C13,8.44 11.56,9 10.38,9.93 C10.26,9.83 10.13,9.73 9.99,9.64 C9.65,8.44 9.63,7.17 9.95,5.97 C8.56,6.64 7.33,7.59 6.34,8.76 L6.34,8.76 C5.74,8.01 5.79,5.52 5.82,5 C5.64,5.07 5.48,5.16 5.32,5.27 C4.79,5.64 4.3,6.07 3.85,6.53 C3.34,7.05 2.87,7.61 2.45,8.21 L2.45,8.21 C1.48,9.58 0.8,11.12 0.44,12.76 L0.42,12.86 C0.39,12.99 0.29,13.65 0.27,13.8 L0.27,13.83 C0.14,14.51 0.06,15.21 0.03,15.9 L0.03,15.98 C0.04,24.27 6.78,30.99 15.08,30.9700445 C22.37,30.9700445 28.61,25.7 29.85,18.52 C29.88,18.33 29.9,18.13 29.92,17.94 C30.23,15.38 29.89,12.79 28.95,10.4 C28.95,10.4 28.91,10.4 28.91,10.4 Z M11.6,22.16 C11.67,22.19 11.74,22.23 11.81,22.26 L11.82,22.26 C11.75,22.23 11.67,22.2 11.6,22.16 Z" id="Shape" fill="url(#linearGradient-5)"></path>
                <path d="M28.91,10.4 C28.26,8.83 26.93,7.13 25.9,6.6 C26.64,8.03 27.15,9.57 27.42,11.16 L27.42,11.16 L27.42,11.19 C28.58,14.5 28.41,18.13 26.95,21.33 C25.23,25.02 21.06,28.81 14.54,28.62 C7.5,28.42 1.29,23.19 0.13,16.34 C-0.08,15.26 0.13,14.71 0.24,13.83 C0.1,14.51 0.01,15.21 0,15.9 L0,15.98 C0.01,24.27 6.75,30.99 15.05,30.9700445 C22.34,30.9700445 28.58,25.7 29.82,18.52 C29.85,18.33 29.87,18.13 29.89,17.94 C30.2,15.38 29.86,12.79 28.92,10.4 L28.92,10.4 L28.91,10.4 Z" id="Path" fill="url(#radialGradient-6)"></path>
                <path d="M28.91,10.4 C28.26,8.83 26.93,7.13 25.9,6.6 C26.64,8.03 27.15,9.57 27.42,11.16 L27.42,11.16 L27.42,11.19 C28.58,14.5 28.41,18.13 26.95,21.33 C25.23,25.02 21.06,28.81 14.54,28.62 C7.5,28.42 1.29,23.19 0.13,16.34 C-0.08,15.26 0.13,14.71 0.24,13.83 C0.1,14.51 0.01,15.21 0,15.9 L0,15.98 C0.01,24.27 6.75,30.99 15.05,30.9700445 C22.34,30.9700445 28.58,25.7 29.82,18.52 C29.85,18.33 29.87,18.13 29.89,17.94 C30.2,15.38 29.86,12.79 28.92,10.4 L28.92,10.4 L28.91,10.4 Z" id="Path" fill="url(#radialGradient-7)"></path>
                <path d="M21.61,12.17 C21.61,12.17 21.67,12.22 21.7,12.24 C21.32,11.57 20.85,10.96 20.31,10.42 C15.64,5.75 19.09,0.3 19.67,0.02 L19.67,0.02 C15.9,2.22 14.62,6.31 14.5,8.35 C14.68,8.34 14.85,8.32 15.03,8.32 C17.75,8.32 20.27,9.79 21.61,12.16 L21.61,12.16 L21.61,12.17 Z" id="Path" fill="url(#radialGradient-8)"></path>
                <path d="M15.04,13.1 C15.02,13.47 13.7,14.76 13.23,14.76 C8.96,14.76 8.27,17.34 8.27,17.34 C8.46,19.52 9.97,21.31 11.81,22.25 C11.89,22.29 11.98,22.33 12.06,22.37 C12.21,22.44 12.35,22.5 12.5,22.55 C13.13,22.77 13.79,22.9 14.45,22.93 C21.94,23.28 23.39,13.98 17.98,11.28 C19.25,11.11 20.54,11.43 21.6,12.16 C20.26,9.79 17.74,8.32 15.02,8.32 C14.84,8.32 14.67,8.33 14.49,8.35 C12.98,8.45 11.54,9.01 10.36,9.94 C10.59,10.13 10.85,10.39 11.39,10.93 C12.41,11.93 15.02,12.97 15.03,13.1 C15.03,13.1 15.04,13.1 15.04,13.1 Z" id="Path" fill="url(#radialGradient-9)"></path>
                <path d="M15.04,13.1 C15.02,13.47 13.7,14.76 13.23,14.76 C8.96,14.76 8.27,17.34 8.27,17.34 C8.46,19.52 9.97,21.31 11.81,22.25 C11.89,22.29 11.98,22.33 12.06,22.37 C12.21,22.44 12.35,22.5 12.5,22.55 C13.13,22.77 13.79,22.9 14.45,22.93 C21.94,23.28 23.39,13.98 17.98,11.28 C19.25,11.11 20.54,11.43 21.6,12.16 C20.26,9.79 17.74,8.32 15.02,8.32 C14.84,8.32 14.67,8.33 14.49,8.35 C12.98,8.45 11.54,9.01 10.36,9.94 C10.59,10.13 10.85,10.39 11.39,10.93 C12.41,11.93 15.02,12.97 15.03,13.1 C15.03,13.1 15.04,13.1 15.04,13.1 Z" id="Path" fill="url(#radialGradient-10)"></path>
                <path d="M9.67,9.45 C9.79,9.53 9.89,9.59 9.98,9.66 C9.64,8.46 9.62,7.19 9.94,5.99 C8.55,6.66 7.32,7.61 6.33,8.78 C6.4,8.78 8.58,8.74 9.68,9.45 L9.68,9.45 L9.67,9.45 Z" id="Path" fill="url(#radialGradient-11)"></path>
                <path d="M0.13,16.34 C1.29,23.19 7.5,28.42 14.54,28.62 C21.06,28.8 25.23,25.02 26.95,21.33 C28.41,18.14 28.58,14.51 27.42,11.19 L27.42,11.19 L27.42,11.16 L27.42,11.19 C27.96,14.67 26.19,18.04 23.42,20.32 L23.42,20.34 C18.02,24.73 12.86,22.99 11.82,22.28 C11.75,22.25 11.67,22.21 11.6,22.17 C8.46,20.67 7.16,17.81 7.44,15.35 C5.92,15.37 4.52,14.5 3.88,13.11 C5.56,12.08 7.65,12 9.4,12.89 C11.18,13.7 13.2,13.78 15.04,13.11 C15.04,12.99 12.42,11.95 11.4,10.94 C10.86,10.4 10.6,10.14 10.37,9.95 C10.25,9.85 10.12,9.75 9.98,9.66 C9.89,9.6 9.79,9.53 9.67,9.45 C8.57,8.74 6.4,8.78 6.32,8.78 L6.32,8.78 C5.72,8.03 5.77,5.54 5.8,5.02 C5.62,5.09 5.46,5.18 5.3,5.29 C4.77,5.66 4.28,6.09 3.83,6.55 C3.31,7.07 2.84,7.63 2.42,8.23 L2.42,8.23 C1.45,9.6 0.77,11.14 0.41,12.78 C0.41,12.81 -0.13,15.14 0.13,16.35 L0.13,16.35 L0.13,16.34 Z" id="Path" fill="url(#radialGradient-12)"></path>
                <path d="M20.31,10.42 C20.86,10.96 21.33,11.57 21.7,12.24 C21.78,12.3 21.86,12.36 21.93,12.42 C25.33,15.56 23.55,20 23.42,20.31 C26.19,18.03 27.95,14.66 27.42,11.18 C25.72,6.94 22.84,5.24 20.49,1.52 C20.37,1.33 20.25,1.14 20.14,0.94 C20.07,0.83 20.02,0.72 19.97,0.63 C19.87,0.44 19.8,0.24 19.75,0.04 C19.75,0.02 19.75,0 19.72,0 L19.68,0 C19.1,0.28 15.65,5.73 20.32,10.4 L20.32,10.4 L20.32,10.42 L20.31,10.42 L20.31,10.42 Z" id="Path" fill="url(#radialGradient-13)"></path>
                <path d="M21.93,12.42 C21.86,12.36 21.79,12.3 21.7,12.24 C21.67,12.22 21.64,12.19 21.61,12.17 C20.55,11.44 19.26,11.12 17.99,11.29 C23.39,13.99 21.94,23.29 14.46,22.94 C13.79,22.91 13.13,22.79 12.51,22.56 C12.36,22.5 12.22,22.44 12.07,22.38 C11.99,22.34 11.9,22.3 11.82,22.26 L11.83,22.26 C12.87,22.98 18.03,24.72 23.42,20.33 L23.42,20.31 C23.56,20 25.35,15.56 21.94,12.42 L21.94,12.42 L21.93,12.42 Z" id="Path" fill="url(#radialGradient-14)"></path>
                <path d="M8.27,17.34 C8.27,17.34 8.96,14.76 13.23,14.76 C13.69,14.76 15.01,13.47 15.04,13.1 C13.2,13.77 11.18,13.69 9.4,12.88 C7.65,11.99 5.56,12.07 3.88,13.1 C4.52,14.48 5.91,15.36 7.44,15.34 C7.16,17.8 8.46,20.66 11.6,22.16 C11.67,22.19 11.74,22.23 11.81,22.26 C9.98,21.31 8.46,19.52 8.27,17.35 L8.27,17.35 L8.27,17.34 Z" id="Path" fill="url(#radialGradient-15)"></path>
                <path d="M28.91,10.4 C28.26,8.83 26.93,7.13 25.9,6.6 C26.64,8.03 27.15,9.57 27.42,11.16 L27.42,11.19 C25.72,6.96 22.85,5.25 20.49,1.53 C20.37,1.34 20.25,1.15 20.14,0.95 C20.07,0.84 20.02,0.73 19.97,0.64 C19.87,0.45 19.8,0.25 19.75,0.05 C19.75,0.03 19.75,0.01 19.72,0.01 L19.68,0.01 C15.91,2.21 14.63,6.3 14.51,8.34 C14.69,8.33 14.86,8.31 15.04,8.31 C17.76,8.31 20.28,9.78 21.62,12.15 C20.56,11.42 19.27,11.1 18,11.27 C23.4,13.97 21.95,23.27 14.47,22.92 C13.8,22.89 13.14,22.77 12.52,22.54 C12.37,22.48 12.23,22.42 12.08,22.36 C12,22.32 11.91,22.28 11.83,22.24 L11.84,22.24 C11.77,22.21 11.69,22.18 11.62,22.14 C11.69,22.17 11.76,22.21 11.83,22.24 C10,21.29 8.48,19.5 8.29,17.33 C8.29,17.33 8.98,14.75 13.25,14.75 C13.71,14.75 15.03,13.46 15.06,13.09 C15.06,12.97 12.44,11.93 11.42,10.92 C10.88,10.38 10.62,10.12 10.39,9.93 C10.27,9.83 10.14,9.73 10,9.64 C9.66,8.44 9.64,7.17 9.96,5.97 C8.57,6.64 7.34,7.59 6.35,8.76 L6.35,8.76 C5.75,8.01 5.8,5.52 5.83,5 C5.65,5.07 5.49,5.16 5.33,5.27 C4.8,5.64 4.31,6.07 3.86,6.53 C3.35,7.05 2.88,7.61 2.46,8.21 L2.46,8.21 C1.49,9.58 0.81,11.12 0.45,12.76 L0.43,12.86 C0.4,12.99 0.28,13.66 0.26,13.81 C0.14,14.5 0.07,15.2 0.04,15.9 L0.04,15.98 C0.05,24.27 6.79,30.99 15.09,30.9700445 C22.38,30.9700445 28.62,25.7 29.86,18.52 C29.89,18.33 29.91,18.13 29.93,17.94 C30.24,15.38 29.9,12.79 28.96,10.4 C28.96,10.4 28.91,10.4 28.91,10.4 L28.91,10.4 Z" id="Shape" fill="url(#linearGradient-16)"></path>
            </g>
        </g>
    </g>
</svg>