<?xml version="1.0" encoding="UTF-8"?>
<svg width="44px" height="44px" viewBox="0 0 44 44" version="1.1" xmlns="http://www.w3.org/2000/svg" xmlns:xlink="http://www.w3.org/1999/xlink">
    <g id="Symbols" stroke="none" stroke-width="1" fill="none" fill-rule="evenodd">
        <g id="feedback" transform="translate(-73.000000, -178.000000)" fill="#FF7C00" fill-rule="nonzero">
            <g id="Group" transform="translate(8.000000, 174.000000)">
                <path d="M87,4 C74.8497355,4 65,13.8497355 65,26 C65,38.1502645 74.8497355,48 87,48 C99.1502645,48 109,38.1502645 109,26 C108.986223,13.8554468 99.1445532,4.01377716 87,4 Z M74,24 C74,22.7866133 74.7309265,21.6927044 75.8519497,21.2283614 C76.9729729,20.7640184 78.2633264,21.0206857 79.1213203,21.8786797 C79.9793143,22.7366736 80.2359816,24.0270271 79.7716386,25.1480503 C79.3072956,26.2690735 78.2133867,27 77,27 C75.3431458,27 74,25.6568542 74,24 L74,24 Z M94.431,38.866 C94.2013524,38.9990029 93.9282547,39.0352674 93.6718549,38.9668066 C93.415455,38.8983457 93.196783,38.7307747 93.064,38.501 C91.8140479,36.333413 89.5021618,34.997842 87,34.997842 C84.4978382,34.997842 82.1859521,36.333413 80.936,38.501 C80.7632885,38.8219394 80.4296475,39.0235002 80.0652047,39.0271174 C79.7007618,39.0306382 79.3632374,38.8356501 79.1842737,38.5181547 C79.00531,38.2006593 79.0132512,37.8109415 79.205,37.501 C80.8124933,34.7156373 83.7840584,32.9996637 87,32.9996637 C90.2159416,32.9996637 93.1875067,34.7156373 94.795,37.501 C95.0707855,37.9785341 94.907943,38.5891935 94.431,38.866 Z M97,27 C95.7866133,27 94.6927044,26.2690735 94.2283614,25.1480503 C93.7640184,24.0270271 94.0206857,22.7366736 94.8786797,21.8786797 C95.7366736,21.0206857 97.0270271,20.7640184 98.1480503,21.2283614 C99.2690735,21.6927044 100,22.7866133 100,24 C100,25.6568542 98.6568542,27 97,27 L97,27 Z" id="Bad"></path>
            </g>
        </g>
    </g>
</svg>