<?xml version="1.0" encoding="UTF-8"?>
<svg width="44px" height="44px" viewBox="0 0 44 44" version="1.1" xmlns="http://www.w3.org/2000/svg" xmlns:xlink="http://www.w3.org/1999/xlink">
    <g id="Symbols" stroke="none" stroke-width="1" fill="none" fill-rule="evenodd">
        <g id="feedback" transform="translate(-203.000000, -178.000000)" fill="#C0CA33" fill-rule="nonzero">
            <g id="Group" transform="translate(8.000000, 174.000000)">
                <path d="M217,4 C204.849736,4 195,13.8497355 195,26 C195,38.1502645 204.849736,48 217,48 C229.150264,48 239,38.1502645 239,26 C238.986223,13.8554468 229.144553,4.01377716 217,4 Z M204,24 C204,22.7866133 204.730927,21.6927044 205.85195,21.2283614 C206.972973,20.7640184 208.263326,21.0206857 209.12132,21.8786797 C209.979314,22.7366736 210.235982,24.0270271 209.771639,25.1480503 C209.307296,26.2690735 208.213387,27 207,27 C205.343146,27 204,25.6568542 204,24 L204,24 Z M224.8,34.5 C223.192507,37.2853627 220.220942,39.0013363 217.005,39.0013363 C213.789058,39.0013363 210.817493,37.2853627 209.21,34.5 C209.018251,34.1900585 209.01031,33.8003407 209.189274,33.4828453 C209.368237,33.1653499 209.705762,32.9703618 210.070205,32.9738826 C210.434648,32.9774998 210.768288,33.1790606 210.941,33.5 C212.190952,35.667587 214.502838,37.003158 217.005,37.003158 C219.507162,37.003158 221.819048,35.667587 223.069,33.5 C223.241712,33.1790606 223.575352,32.9774998 223.939795,32.9738826 C224.304238,32.9703618 224.641763,33.1653499 224.820726,33.4828453 C224.99969,33.8003407 224.991749,34.1900585 224.8,34.5 L224.8,34.5 Z M227,27 C225.786613,27 224.692704,26.2690735 224.228361,25.1480503 C223.764018,24.0270271 224.020686,22.7366736 224.87868,21.8786797 C225.736674,21.0206857 227.027027,20.7640184 228.14805,21.2283614 C229.269073,21.6927044 230,22.7866133 230,24 C230,25.6568542 228.656854,27 227,27 L227,27 Z" id="Good"></path>
            </g>
        </g>
    </g>
</svg>