<?xml version="1.0" encoding="UTF-8"?>
<svg width="44px" height="44px" viewBox="0 0 44 44" version="1.1" xmlns="http://www.w3.org/2000/svg" xmlns:xlink="http://www.w3.org/1999/xlink">
    <g id="Symbols" stroke="none" stroke-width="1" fill="none" fill-rule="evenodd">
        <g id="feedback" transform="translate(-268.000000, -178.000000)" fill="#29C369" fill-rule="nonzero">
            <g id="Group" transform="translate(8.000000, 174.000000)">
                <path d="M282,4 C269.849736,4 260,13.8497355 260,26 C260,38.1502645 269.849736,48 282,48 C294.150264,48 304,38.1502645 304,26 C303.986223,13.8554468 294.144553,4.01377716 282,4 Z M269,23 C269,20.2385763 271.238576,18 274,18 C276.761424,18 279,20.2385763 279,23 C279,23.5522847 278.552285,24 278,24 C277.447715,24 277,23.5522847 277,23 C277,21.3431458 275.656854,20 274,20 C272.343146,20 271,21.3431458 271,23 C271,23.5522847 270.552285,24 270,24 C269.447715,24 269,23.5522847 269,23 Z M282,41 C275.372583,41 270,35.627417 270,29 L294,29 C294,35.627417 288.627417,41 282,41 Z M294,24 C293.447715,24 293,23.5522847 293,23 C293,21.3431458 291.656854,20 290,20 C288.343146,20 287,21.3431458 287,23 C287,23.5522847 286.552285,24 286,24 C285.447715,24 285,23.5522847 285,23 C285,20.2385763 287.238576,18 290,18 C292.761424,18 295,20.2385763 295,23 C295,23.5522847 294.552285,24 294,24 Z" id="Great"></path>
            </g>
        </g>
    </g>
</svg>