<?xml version="1.0" encoding="UTF-8"?>
<svg width="44px" height="44px" viewBox="0 0 44 44" version="1.1" xmlns="http://www.w3.org/2000/svg" xmlns:xlink="http://www.w3.org/1999/xlink">
    <g id="Symbols" stroke="none" stroke-width="1" fill="none" fill-rule="evenodd">
        <g id="feedback" transform="translate(-8.000000, -178.000000)" fill="#E45548" fill-rule="nonzero">
            <g id="Group" transform="translate(8.000000, 174.000000)">
                <path d="M22,4 C9.8497355,4 0,13.8497355 0,26 C0,38.1502645 9.8497355,48 22,48 C34.1502645,48 44,38.1502645 44,26 C43.9862228,13.8554468 34.1445532,4.01377716 22,4 Z M9.143,21.485 C9.42748459,21.0117703 10.0416776,20.8586697 10.515,21.143 L15.515,24.143 C15.8282279,24.3236127 16.0195637,24.659242 16.0154764,25.0207878 C16.0112564,25.3823337 15.8122604,25.7134786 15.4949658,25.8868476 C15.1776712,26.0602165 14.7915026,26.0488041 14.485,25.857 L9.485,22.857 C9.01177029,22.5725154 8.8586697,21.9583224 9.143,21.485 Z M15,39 C12.790861,39 11,37.209139 11,35 C11,32.790861 12.790861,31 15,31 L17,31 L17,39 L15,39 Z M19,39 L19,31 L25,31 L25,39 L19,39 Z M29,39 L27,39 L27,31 L29,31 C31.209139,31 33,32.790861 33,35 C33,37.209139 31.209139,39 29,39 Z M34.515,22.857 L29.515,25.857 C29.2084974,26.0488041 28.8223288,26.0602165 28.5050342,25.8868476 C28.1877396,25.7134786 27.9887436,25.3823337 27.9845236,25.0207878 C27.9804363,24.659242 28.1717721,24.3236127 28.485,24.143 L33.485,21.143 C33.7915026,20.9511959 34.1776712,20.9397835 34.4949658,21.1131524 C34.8122604,21.2865214 35.0112564,21.6176663 35.0154764,21.9792122 C35.0195637,22.340758 34.8282279,22.6763873 34.515,22.857 Z" id="VeryBad"></path>
            </g>
        </g>
    </g>
</svg>