<?xml version="1.0" encoding="UTF-8"?>
<svg width="44px" height="44px" viewBox="0 0 44 44" version="1.1" xmlns="http://www.w3.org/2000/svg" xmlns:xlink="http://www.w3.org/1999/xlink">
    <g id="Symbols" stroke="none" stroke-width="1" fill="none" fill-rule="evenodd">
        <g id="feedback" transform="translate(-138.000000, -178.000000)" fill="#FFB300" fill-rule="nonzero">
            <g id="Group" transform="translate(8.000000, 174.000000)">
                <path d="M152,4 C139.849736,4 130,13.8497355 130,26 C130,38.1502645 139.849736,48 152,48 C164.150264,48 174,38.1502645 174,26 C173.986223,13.8554468 164.144553,4.01377716 152,4 Z M139,24 C139,22.7866133 139.730927,21.6927044 140.85195,21.2283614 C141.972973,20.7640184 143.263326,21.0206857 144.12132,21.8786797 C144.979314,22.7366736 145.235982,24.0270271 144.771639,25.1480503 C144.307296,26.2690735 143.213387,27 142,27 C140.343146,27 139,25.6568542 139,24 L139,24 Z M160,37 L144,37 C143.447715,37 143,36.5522847 143,36 C143,35.4477153 143.447715,35 144,35 L160,35 C160.552285,35 161,35.4477153 161,36 C161,36.5522847 160.552285,37 160,37 Z M162,27 C160.786613,27 159.692704,26.2690735 159.228361,25.1480503 C158.764018,24.0270271 159.020686,22.7366736 159.87868,21.8786797 C160.736674,21.0206857 162.027027,20.7640184 163.14805,21.2283614 C164.269073,21.6927044 165,22.7866133 165,24 C165,25.6568542 163.656854,27 162,27 L162,27 Z" id="Ok"></path>
            </g>
        </g>
    </g>
</svg>