<?xml version="1.0" encoding="UTF-8"?>
<svg id="Livello_1" data-name="Livello 1"
  xmlns="http://www.w3.org/2000/svg" viewBox="0 0 640 640">
  <g>
    <path d="m564.42,514.34l45.05-317.17h0c.23-1.26-.69-2.41-1.95-2.64l-232.01-32.98h-.34c-1.15,0-2.18.8-2.3,1.95l-45.05,317.17c-.23,1.26.69,2.41,1.95,2.64l232.13,32.98h.34c1.03,0,2.07-.8,2.18-1.95Z" fill="#fff"/>
    <path d="m454.44,372.42c-.11.57-.69,1.03-1.26,1.03l-77.34-11.03c-.57-.11-1.03-.69-.92-1.26l8.62-60.45c.11-.57.69-1.03,1.26-1.03l77.34,11.03c.57.11,1.03.69,1.03,1.26l-8.73,60.45h0Zm98.71,15.17l-77.34-10.92c-.57-.11-1.03-.69-1.03-1.26l8.62-60.45c.11-.57.69-1.03,1.26-1.03l77.34,11.03c.57.11,1.03.69.92,1.26l-8.62,60.45c0,.57-.57,1.03-1.15.92Z" fill="var(--accent-icon)"/>
    <path d="m562,515.14c.57.11,1.15-.34,1.26-1.03l45.05-317.17h0c.11-.57-.34-1.26-1.03-1.26l-232.01-32.98h0c-.57-.11-1.26.34-1.26.92l-45.05,317.17c-.11.57.34,1.26,1.03,1.26l232.01,33.1h0Zm-85.27-299.24l-81.36-11.49m176.85,56.77l-181.22-25.74m176.85,56.77l-181.34-25.74m163.75,149.62l-181.34-25.74m112.5,47.57l64.35,9.19" fill="none" stroke="#333" stroke-linecap="round" stroke-linejoin="round" stroke-width="2"/>
  </g>
  <g>
    <path d="m85.15,528.13l231.21-38.73c1.26-.23,2.07-1.38,1.84-2.64l-52.98-315.9c-.23-1.15-1.15-1.95-2.3-1.95h-.34L31.48,207.63c-.57.11-1.15.46-1.49.92-.34.46-.46,1.15-.34,1.72l52.98,316.02c.23,1.15,1.15,1.95,2.3,1.95l.23-.11Z" fill="#fff"/>
    <path d="m316.13,488.25c.57-.11,1.03-.69.92-1.26l-52.98-315.9c-.11-.57-.69-1.03-1.26-.92L31.71,208.78h-.11c-.57.11-1.03.69-.92,1.38l52.98,315.9h0c.11.57.69,1.03,1.38.92l231.09-38.73h0ZM144.44,228.89l-81.13,13.56m185.82.69l-180.53,30.22m185.7.57l-180.65,30.22m185.93.69l-180.65,30.22m185.7.57l-180.65,30.34m185.93.57l-180.65,30.34m185.7.57l-180.65,30.34m121.7,11.26l64.12-10.8" fill="none" stroke="#333" stroke-linecap="round" stroke-linejoin="round" stroke-width="2"/>
    <path d="m244.42,214.53l-2.18-12.87h0c-.11-.57-.69-1.03-1.38-.92l-33.44,5.63c-.57.11-1.03.69-.92,1.38l2.18,12.87c.11.57.69,1.03,1.26.92l33.44-5.63c.69-.23,1.03-.8,1.03-1.38Z" fill="var(--accent-icon)"/>
  </g>
  <g>
    <path d="m369.62,290.96l215.07-59.82c1.41-.35,2.24-1.84,1.76-3.27l-40.57-150.16c-.31-1.18-1.36-1.98-2.42-1.96l-.78.12-215.07,59.82c-.63.23-1.24.6-1.52,1.32-.31.59-.47,1.3-.22,2.08l40.53,149.89c.31,1.18,1.23,2,2.42,1.96.28.09.54.06.8.02Z" fill="var(--accent-light-icon)"/>
    <path d="m585.31,228.17l-40.57-150.16c-.23-.65-.96-1.09-1.61-.99l-215.07,59.82c-.63.23-1.05.98-.94,1.65l40.59,150.29h0c.23.65.96,1.09,1.61.99l215.05-59.96c.76-.25,1.05-.98.94-1.65Zm-55-130.75l-68.41,99.89c-.75,1.21-2.28,1.57-3.57.95l-130.39-60.43" fill="none" stroke="#333" stroke-miterlimit="10" stroke-width="2"/>
  </g>
  <g>
    <path d="m437.25,454.24l32.75-318.66h0c.11-1.26-.8-2.41-2.07-2.53l-233.16-23.9h-.23c-1.15,0-2.18.92-2.3,2.07l-32.75,318.66c-.11,1.26.8,2.41,2.07,2.53l233.16,24.02h.23c1.15-.11,2.18-.92,2.3-2.18Z" fill="#fff"/>
    <path d="m436.1,454.12l32.75-318.66h0c.11-.57-.34-1.15-1.03-1.26l-233.16-23.9h0c-.57-.11-1.15.46-1.26,1.03l-32.75,318.66h0c-.11.57.46,1.15,1.03,1.26l233.16,24.02c.69,0,1.26-.46,1.26-1.15Zm-98.02-294.53l-81.7-8.39m178.92,49.87l-182.14-18.73m169.38,143.18l-182.14-18.73m178.81,49.87l-182.14-18.73m179.04,49.87l-64.7-6.67" fill="none" stroke="#333" stroke-linecap="round" stroke-linejoin="round" stroke-width="2"/>
    <path d="m408.63,293.01l6.21-60.68c.11-.57-.34-1.15-1.03-1.26l-145.83-14.94c-.57-.11-1.15.34-1.26,1.03l-6.21,60.68h0c-.11.57.34,1.15,1.03,1.26l145.83,14.94c.69,0,1.26-.46,1.26-1.03Z" fill="var(--accent-icon)"/>
  </g>
  <g>
    <path d="m112.1,518.37l219.28,41.86c1.41.31,2.82-.66,3.03-2.15l30.3-152.56c.25-1.2-.34-2.38-1.3-2.83l-.75-.24-219.28-41.86c-.67-.07-1.37-.01-1.95.51-.54.4-1,.96-1.12,1.77l-30.22,152.3c-.25,1.2.21,2.34,1.3,2.83.21.21.46.29.71.37Z" fill="var(--accent-icon)"/>
    <path d="m333.24,557.84l30.3-152.56c.08-.68-.38-1.4-1-1.6l-219.28-41.86c-.67-.07-1.37.41-1.58,1.06l-30.34,152.69h0c-.08.68.38,1.4,1,1.6l219.32,41.73c.79.11,1.37-.41,1.58-1.06Zm8.75-141.58l-105.64,59.14c-1.2.75-2.74.4-3.62-.73l-90.02-112.03" fill="none" stroke="#333" stroke-miterlimit="10" stroke-width="2"/>
  </g>
</svg>