<?xml version="1.0" encoding="UTF-8"?>
<svg id="Livello_1" data-name="Livello 1"
  xmlns="http://www.w3.org/2000/svg" viewBox="0 0 640 640">
  <g>
    <path d="m480.76,435.84l57.57-316.85c.12-.59,0-1.3-.36-1.78s-.95-.83-1.54-.94l-247.22-45.01h-.47c-1.19,0-2.13.84-2.25,1.91l-57.57,316.85c-.12.59,0,1.3.36,1.78s.95.83,1.54.94l247.22,45.01h.47c1.07.11,2.01-.72,2.25-1.91Z" fill="#fff" stroke="#333" stroke-miterlimit="10" stroke-width="2"/>
    <path d="m467.58,362.74c1.19,0,2.13-.84,2.36-1.91l40.01-220.17c.23-1.3-.6-2.49-1.91-2.72l-199.89-36.52h-.47c-1.19,0-2.13.84-2.36,1.91l-40.01,220.17c-.23,1.3.6,2.49,1.91,2.72l199.89,36.4h.47s0,.12,0,.12Z" fill="var(--accent-light-icon)" stroke="#333" stroke-miterlimit="10" stroke-width="2"/>
    <line x1="260.68" y1="355.4" x2="398.17" y2="380.17" fill="none" stroke="#333" stroke-miterlimit="10" stroke-width="2"/>
    <path d="m439,325.14l4.65-25.03c1.75-9.13-2.2-18.37-10.04-23.56-8.67-5.66-24.47-13.31-50.69-18.08-10.56-1.98-21.35-3.01-32.14-3.09-7.35-.09-14.58.64-21.81,2.21-9.12,2.05-16.09,9.3-17.72,18.44l-4.3,23.73c-.35,1.78.84,3.44,2.62,3.78l127.17,23.14h.36c.95,0,1.78-.6,1.89-1.55Zm-6.46-117.94l1.98-10.8c3.95-21.59-10.34-42.29-31.93-46.12-21.59-3.95-42.29,10.34-46.12,31.93l-1.98,10.8c-.47,2.37-.69,4.86-.69,7.35.08,21.93,18.04,39.65,39.97,39.46,19.09-.07,35.4-13.76,38.77-32.62Z" fill="#fff" stroke="#333" stroke-miterlimit="10" stroke-width="2"/>
  </g>
  <g>
    <path d="m556.96,570l59.33-316.53c.12-.59,0-1.3-.35-1.78s-.95-.83-1.54-.95l-246.96-46.39h-.47c-1.19,0-2.14.82-2.26,1.89l-59.33,316.53c-.12.59,0,1.3.35,1.78s.95.83,1.54.95l246.96,46.39h.47c1.07.12,2.02-.71,2.26-1.89Z" fill="#fff" stroke="#333" stroke-miterlimit="10" stroke-width="2"/>
    <path d="m544.19,496.83c1.19,0,2.14-.83,2.37-1.89l41.23-219.95c.24-1.3-.59-2.49-1.89-2.73l-199.68-37.64h-.47c-1.19,0-2.14.82-2.37,1.89l-41.23,219.95c-.24,1.3.59,2.49,1.89,2.73l199.68,37.52h.47s0,.12,0,.12Z" fill="var(--accent-light-icon)" stroke="#333" stroke-miterlimit="10" stroke-width="2"/>
    <line x1="337.33" y1="488.35" x2="474.68" y2="513.88" fill="none" stroke="#333" stroke-miterlimit="10" stroke-width="2"/>
    <path d="m515.81,459.07l4.79-25c1.8-9.12-2.1-18.38-9.91-23.61-8.64-5.71-24.39-13.45-50.58-18.36-10.55-2.04-21.33-3.13-32.12-3.27-7.35-.13-14.58.56-21.82,2.09-9.13,2-16.14,9.21-17.82,18.34l-4.44,23.7c-.36,1.78.82,3.44,2.6,3.8l127.04,23.85h.36c.95,0,1.78-.59,1.9-1.54Zm-5.8-117.97l2.04-10.78c4.08-21.57-10.11-42.34-31.68-46.3-21.57-4.08-42.34,10.11-46.3,31.68l-2.04,10.78c-.48,2.37-.72,4.86-.73,7.35-.05,21.93,17.82,39.75,39.75,39.68,19.09.04,35.47-13.56,38.95-32.4Z" fill="#fff" stroke="#333" stroke-miterlimit="10" stroke-width="2"/>
  </g>
  <g>
    <path d="m334.81,496.42l-64.76-315.46c-.11-.59-.49-1.21-1-1.51s-1.19-.41-1.78-.3L21.09,229.59l-.44.18c-1.1.45-1.66,1.57-1.37,2.6l64.76,315.46c.11.59.49,1.21,1,1.51s1.19.41,1.78.3l246.17-50.44.44-.18c1.03-.29,1.6-1.42,1.37-2.6Z" fill="#fff" stroke="#333" stroke-miterlimit="10" stroke-width="2"/>
    <path d="m295.31,433.51c1.1-.45,1.66-1.57,1.48-2.65l-45-219.21c-.27-1.3-1.49-2.08-2.78-1.81l-199.09,40.67-.44.18c-1.1.45-1.66,1.57-1.48,2.65l45,219.21c.27,1.3,1.49,2.08,2.78,1.81l199.04-40.77.44-.18.04.11Z" fill="var(--accent-light-icon)" stroke="#333" stroke-miterlimit="10" stroke-width="2"/>
    <line x1="100.61" y1="503.88" x2="237.42" y2="475.58" fill="none" stroke="#333" stroke-miterlimit="10" stroke-width="2"/>
    <path d="m254.77,409.29l-5.02-24.96c-1.79-9.13-8.89-16.22-18.1-18.11-10.16-2.02-27.67-3.22-53.77,2.13-10.53,2.1-20.93,5.17-30.97,9.12-6.85,2.66-13.29,6.04-19.41,10.18-7.7,5.3-11.46,14.63-9.56,23.72l4.86,23.62c.34,1.78,2.06,2.87,3.84,2.53l126.62-25.96.33-.13c.88-.36,1.42-1.22,1.18-2.14Zm-49.98-107.02l-2.19-10.75c-4.38-21.51-25.37-35.38-46.83-30.88-21.51,4.38-35.38,25.37-30.88,46.83l2.19,10.75c.45,2.38,1.17,4.77,2.11,7.08,8.25,20.32,31.53,30.06,51.8,21.7,17.68-7.18,27.71-25.97,23.81-44.73Z" fill="var(--accent-icon)" stroke="#333" stroke-miterlimit="10" stroke-width="2"/>
  </g>
</svg>