<svg width="16px" height="16px" viewBox="0 0 16 16" version="1.1" xmlns="http://www.w3.org/2000/svg" xmlns:xlink="http://www.w3.org/1999/xlink">
    <g stroke="none" stroke-width="1" fill="none" fill-rule="evenodd">
        <path d="M8.19917138,15.4586184 C8.07212236,15.5137939 7.92787764,15.5137939 7.80082862,15.4586184 C2.57759319,13.1902418 1.49999996,11.5810359 1.49999996,6.47999999 L1.49999996,2.82999997 C1.49999996,2.61004276 1.64374466,2.41591865 1.85413372,2.35174999 L7.85413376,0.521749978 C7.94921583,0.492749945 8.05078417,0.492749945 8.14586624,0.521749978 L14.1458663,2.35174999 C14.3562553,2.41591865 14.5,2.61004276 14.5,2.82999997 L14.5,6.47999999 C14.5,11.5810359 13.4224068,13.1902418 8.19917138,15.4586184 Z M7.99999997,14.4543687 C12.6851151,12.3949623 13.5,11.1140511 13.5,6.47999999 L13.5,3.20023915 L7.99999997,1.52273914 L2.49999997,3.20023915 L2.49999997,6.47999999 C2.49999997,11.1140511 3.31488495,12.3949623 7.99999997,14.4543687 Z" fill="var(--color-icon)" fill-rule="nonzero"></path>
        <path d="M5.2843055,4.58859116 L5.35355339,4.64644661 L8,7.293 L10.6464466,4.64644661 C10.8417088,4.45118446 11.1582912,4.45118446 11.3535534,4.64644661 C11.5271197,4.82001296 11.5464049,5.08943736 11.4114088,5.2843055 L11.3535534,5.35355339 L8.707,8 L11.3535534,10.6464466 C11.5488155,10.8417088 11.5488155,11.1582912 11.3535534,11.3535534 C11.179987,11.5271197 10.9105626,11.5464049 10.7156945,11.4114088 L10.6464466,11.3535534 L8,8.707 L5.35355339,11.3535534 C5.15829124,11.5488155 4.84170876,11.5488155 4.64644661,11.3535534 C4.47288026,11.179987 4.45359511,10.9105626 4.58859116,10.7156945 L4.64644661,10.6464466 L7.293,8 L4.64644661,5.35355339 C4.45118446,5.15829124 4.45118446,4.84170876 4.64644661,4.64644661 C4.79831717,4.49457605 5.02357904,4.46082704 5.20806797,4.54519957 L5.2843055,4.58859116 Z" fill="var(--accent-icon)" fill-rule="nonzero"></path>
    </g>
</svg>