<svg xmlns="http://www.w3.org/2000/svg" viewBox="0 0 16 16" width="16" height="16">
    <g class="nc-icon-wrapper" stroke-width="1" fill="var(--color-icon)" stroke="var(--yellow)">
        <path d="M3.68,15.14c-.14,0-.29-.07-.39-.18-.07-.08-.14-.21-.11-.4l.78-4.56L.65,6.76c-.14-.14-.19-.33-.13-.51,.06-.19,.21-.31,.4-.34l4.58-.67L7.55,1.1c.09-.17,.29-.23,.45-.23s.36,.06,.45,.23l2.05,4.15,4.58,.67c.19,.03,.34,.16,.4,.34,.06,.19,.01,.38-.12,.52l-3.31,3.23,.78,4.56c.03,.19-.04,.32-.11,.4-.1,.12-.24,.18-.39,.18-.08,0-.16-.02-.23-.06l-4.09-2.15-4.09,2.15c-.08,.04-.15,.06-.23,.06Z" fill="var(--yellow)"/>
    </g>
</svg>
