<svg xmlns="http://www.w3.org/2000/svg" viewBox="0 0 16 16" width="16" height="16"><g class="nc-icon-wrapper" stroke-width="1" fill="var(--color-icon)" stroke="var(--color-icon)"><path data-color="color-2" d="M12.875,10.375a1.238,1.238,0,0,0,1.75,0h0a1.238,1.238,0,0,0,0-1.75L10,4" fill="none" stroke-linecap="round" stroke-linejoin="round"/> <path data-color="color-2" d="M.5,6.5v-5H5.55A3.542,3.542,0,0,1,6,1.529" fill="none" stroke-linecap="round" stroke-linejoin="round"/> <path data-color="color-2" d="M11.5,9l1.513,1.513a1.238,1.238,0,0,1,0,1.75h0a1.238,1.238,0,0,1-1.75,0L9.736,10.736" fill="none" stroke-linecap="round" stroke-linejoin="round"/> <path data-color="color-2" d="M10.875,11.875a1.238,1.238,0,0,1,0,1.75h0" fill="none" stroke-linecap="round" stroke-linejoin="round"/> <path d="M10,4,6.551,6.587a1.115,1.115,0,0,1-1.167.105h0a1.115,1.115,0,0,1-.29-1.786L8.153,2.239A3,3,0,0,1,10.124,1.5H15.5v5" fill="none" stroke="var(--color-icon)" stroke-linecap="round" stroke-linejoin="round"/> <rect x="1.211" y="7.888" width="2.828" height="2.475" rx="1.237" ry="1.237" transform="translate(-5.684 4.529) rotate(-45)" fill="none" stroke="var(--color-icon)" stroke-linecap="round" stroke-linejoin="round"/> <rect x="2.864" y="9.638" width="3.023" height="2.475" rx="1.237" ry="1.237" transform="translate(-6.408 6.279) rotate(-45)" fill="none" stroke="var(--color-icon)" stroke-linecap="round" stroke-linejoin="round"/> <rect x="4.643" y="11.455" width="2.828" height="2.475" rx="1.237" ry="1.237" transform="translate(-7.201 8.001) rotate(-45)" fill="none" stroke="var(--color-icon)" stroke-linecap="round" stroke-linejoin="round"/> <rect x="6.453" y="13.243" width="2.489" height="2.121" rx="1.061" ry="1.061" transform="translate(-7.86 9.632) rotate(-45)" fill="none" stroke="var(--color-icon)" stroke-linecap="round" stroke-linejoin="round"/></g></svg>