<?xml version="1.0" encoding="UTF-8"?>
<svg width="192px" height="128px" viewBox="0 0 192 128" version="1.1" xmlns="http://www.w3.org/2000/svg" xmlns:xlink="http://www.w3.org/1999/xlink">
    <g id="readingPane-/-onRight" stroke="none" stroke-width="1" fill="none" fill-rule="evenodd">
        <rect id="Rectangle-Copy-12" fill="#E8E8E8" x="92" y="12" width="99" height="115"></rect>
        <path d="M190,0 C191.104569,0 192,0.8954305 192,2 L192,126 C192,127.104569 191.104569,128 190,128 L2,128 C0.8954305,128 1.13686838e-13,127.104569 1.13686838e-13,126 L1.13686838e-13,2 C1.13686838e-13,0.8954305 0.8954305,0 2,0 L190,0 Z M39,12 L1,12 L1,126 C1,126.512836 1.38604019,126.935507 1.88337887,126.993272 L2,127 L39,127 L39,12 Z M91,108 L40,108 L40,127 L91,127 L91,108 Z M92,127 L190,127 C190.512836,127 190.935507,126.61396 190.993272,126.116621 L191,126 L191,12 L92,12 L92,127 Z M91,89 L40,89 L40,107 L91,107 L91,89 Z M91,70 L40,70 L40,88 L91,88 L91,70 Z M91,51 L40,51 L40,69 L91,69 L91,51 Z M91,31 L40,31 L40,50 L91,50 L91,31 Z M91,12 L40,12 L40,30 L91,30 L91,12 Z M190,1 L2,1 C1.48716416,1 1.06449284,1.38604019 1.00672773,1.88337887 L1,2 L1,11 L191,11 L191,2 C191,1.48716416 190.61396,1.06449284 190.116621,1.00672773 L190,1 Z" id="Combined-Shape" fill="#AAAAAA" fill-rule="nonzero"></path>
        <path d="M26.5,41 C26.7761424,41 27,41.2238576 27,41.5 L27,43.5 C27,43.7761424 26.7761424,44 26.5,44 L7.5,44 C7.22385763,44 7,43.7761424 7,43.5 L7,41.5 C7,41.2238576 7.22385763,41 7.5,41 L26.5,41 Z M33.5,34 C33.7761424,34 34,34.2238576 34,34.5 L34,36.5 C34,36.7761424 33.7761424,37 33.5,37 L7.5,37 C7.22385763,37 7,36.7761424 7,36.5 L7,34.5 C7,34.2238576 7.22385763,34 7.5,34 L33.5,34 Z M33.5,27 C33.7761424,27 34,27.2238576 34,27.5 L34,29.5 C34,29.7761424 33.7761424,30 33.5,30 L7.5,30 C7.22385763,30 7,29.7761424 7,29.5 L7,27.5 C7,27.2238576 7.22385763,27 7.5,27 L33.5,27 Z M33.5,20 C33.7761424,20 34,20.2238576 34,20.5 L34,22.5 C34,22.7761424 33.7761424,23 33.5,23 L7.5,23 C7.22385763,23 7,22.7761424 7,22.5 L7,20.5 C7,20.2238576 7.22385763,20 7.5,20 L33.5,20 Z" id="Combined-Shape" fill="#E8E8E8"></path>
        <path d="M107,20 C110.865993,20 114,23.1340068 114,27 C114,30.8659932 110.865993,34 107,34 C103.134007,34 100,30.8659932 100,27 C100,23.1340068 103.134007,20 107,20 Z M161.5,29 C161.776142,29 162,29.2238576 162,29.5 L162,31.5 C162,31.7761424 161.776142,32 161.5,32 L120.5,32 C120.223858,32 120,31.7761424 120,31.5 L120,29.5 C120,29.2238576 120.223858,29 120.5,29 L161.5,29 Z M175.5,22 C175.776142,22 176,22.2238576 176,22.5 L176,24.5 C176,24.7761424 175.776142,25 175.5,25 L120.5,25 C120.223858,25 120,24.7761424 120,24.5 L120,22.5 C120,22.2238576 120.223858,22 120.5,22 L175.5,22 Z" id="Combined-Shape" fill="#AAAAAA"></path>
    </g>
</svg>