<?xml version="1.0" encoding="UTF-8"?>
<svg width="192px" height="128px" viewBox="0 0 192 128" version="1.1" xmlns="http://www.w3.org/2000/svg" xmlns:xlink="http://www.w3.org/1999/xlink">
    <g id="readingPane-/-onBottom" stroke="none" stroke-width="1" fill="none" fill-rule="evenodd">
        <rect id="Rectangle-Copy-12" fill="#E8E8E8" x="40" y="51" width="151" height="76"></rect>
        <path d="M190,0 C191.104569,0 192,0.8954305 192,2 L192,126 C192,127.104569 191.104569,128 190,128 L2,128 C0.8954305,128 1.13686838e-13,127.104569 1.13686838e-13,126 L1.13686838e-13,2 C1.13686838e-13,0.8954305 0.8954305,0 2,0 L190,0 Z M39,12 L1,12 L1,126 C1,126.512836 1.38604019,126.935507 1.88337887,126.993272 L2,127 L39,127 L39,12 Z M191,51 L40,51 L40,127 L190,127 C190.512836,127 190.935507,126.61396 190.993272,126.116621 L191,126 L191,51 Z M191,38 L40,38 L40,50 L191,50 L191,38 Z M191,25 L40,25 L40,37 L191,37 L191,25 Z M191,12 L40,12 L40,24 L191,24 L191,12 Z M190,1 L2,1 C1.48716416,1 1.06449284,1.38604019 1.00672773,1.88337887 L1,2 L1,11 L191,11 L191,2 C191,1.48716416 190.61396,1.06449284 190.116621,1.00672773 L190,1 Z" id="Combined-Shape" fill="#AAAAAA" fill-rule="nonzero"></path>
        <path d="M26.5,41 C26.7761424,41 27,41.2238576 27,41.5 L27,43.5 C27,43.7761424 26.7761424,44 26.5,44 L7.5,44 C7.22385763,44 7,43.7761424 7,43.5 L7,41.5 C7,41.2238576 7.22385763,41 7.5,41 L26.5,41 Z M33.5,34 C33.7761424,34 34,34.2238576 34,34.5 L34,36.5 C34,36.7761424 33.7761424,37 33.5,37 L7.5,37 C7.22385763,37 7,36.7761424 7,36.5 L7,34.5 C7,34.2238576 7.22385763,34 7.5,34 L33.5,34 Z M33.5,27 C33.7761424,27 34,27.2238576 34,27.5 L34,29.5 C34,29.7761424 33.7761424,30 33.5,30 L7.5,30 C7.22385763,30 7,29.7761424 7,29.5 L7,27.5 C7,27.2238576 7.22385763,27 7.5,27 L33.5,27 Z M33.5,20 C33.7761424,20 34,20.2238576 34,20.5 L34,22.5 C34,22.7761424 33.7761424,23 33.5,23 L7.5,23 C7.22385763,23 7,22.7761424 7,22.5 L7,20.5 C7,20.2238576 7.22385763,20 7.5,20 L33.5,20 Z" id="Combined-Shape" fill="#E8E8E8"></path>
        <path d="M55,59 C58.8659932,59 62,62.1340068 62,66 C62,69.8659932 58.8659932,73 55,73 C51.1340068,73 48,69.8659932 48,66 C48,62.1340068 51.1340068,59 55,59 Z M109.5,68 C109.776142,68 110,68.2238576 110,68.5 L110,70.5 C110,70.7761424 109.776142,71 109.5,71 L68.5,71 C68.2238576,71 68,70.7761424 68,70.5 L68,68.5 C68,68.2238576 68.2238576,68 68.5,68 L109.5,68 Z M123.5,61 C123.776142,61 124,61.2238576 124,61.5 L124,63.5 C124,63.7761424 123.776142,64 123.5,64 L68.5,64 C68.2238576,64 68,63.7761424 68,63.5 L68,61.5 C68,61.2238576 68.2238576,61 68.5,61 L123.5,61 Z" id="Combined-Shape" fill="#AAAAAA"></path>
    </g>
</svg>